<?xml version="1.0" encoding="utf-8"?>
<!-- Generator: Adobe Illustrator 26.5.0, SVG Export Plug-In . SVG Version: 6.00 Build 0)  -->
<svg version="1.1" id="Layer_1" xmlns="http://www.w3.org/2000/svg" xmlns:xlink="http://www.w3.org/1999/xlink" x="0px" y="0px"
	 viewBox="0 0 221.6 206.7" style="enable-background:new 0 0 221.6 206.7;" xml:space="preserve">
<style type="text/css">
	.st0{fill:#212121;}
	.st1{fill:url(#SVGID_1_);}
	.st2{fill:#121212;}
	.st3{fill:#FFFFFF;}
	.st4{fill:#333333;}
	.st5{fill:url(#SVGID_00000106849467772500557430000001027447736526020523_);}
	.st6{opacity:0.3;}
</style>
<g>
	<rect x="-1.6" class="st0" width="223.2" height="185.6"/>
	<linearGradient id="SVGID_1_" gradientUnits="userSpaceOnUse" x1="166.6842" y1="92.7992" x2="10.6589" y2="92.7992">
		<stop  offset="0" style="stop-color:#1A1A1A"/>
		<stop  offset="0.246" style="stop-color:#0D0D0D"/>
		<stop  offset="0.5801" style="stop-color:#030303"/>
		<stop  offset="1" style="stop-color:#000000"/>
	</linearGradient>
	<polygon class="st1" points="120.5,0 0,0 0,185.6 51,185.6 	"/>
	<rect x="-1.6" y="175.1" class="st2" width="223.2" height="31.6"/>
	<g>
		<path class="st3" d="M8.3,189.5l1.5,1.6l-1.5,1.6c0-0.4,0-0.7,0-0.9C8.3,191.2,8.3,190.9,8.3,189.5 M7.6,187.6c0,5.2,0,2.7,0,7
			l3.5-3.5L7.6,187.6L7.6,187.6z"/>
	</g>
	<g>
		<g>
			<path class="st3" d="M36.7,189.5l1.5,1.6l-1.5,1.6c0-0.4,0-0.7,0-0.9C36.7,191.2,36.7,190.9,36.7,189.5 M36.1,187.6
				c0,5.2,0,2.7,0,7l3.5-3.5L36.1,187.6L36.1,187.6z"/>
		</g>
		<rect x="39.5" y="187.6" class="st3" width="0.6" height="7"/>
	</g>
	<g>
		<g>
			<path class="st3" d="M25.1,189.5c0,0.4,0,0.7,0,0.9c0,0.5,0,0.8,0,2.2l-1.5-1.6L25.1,189.5 M25.8,187.6l-3.5,3.5l3.5,3.5
				C25.8,189.3,25.8,191.9,25.8,187.6L25.8,187.6z"/>
		</g>
		
			<rect x="21.7" y="187.6" transform="matrix(-1 -1.224647e-16 1.224647e-16 -1 44.0962 382.1685)" class="st3" width="0.6" height="7"/>
	</g>
	<g>
		<path class="st3" d="M191.8,190l0,0.6c0,0.4,0,0.6,0,1.6l-0.5-0.5l-0.8-0.7l0.8-0.7L191.8,190 M192.5,188.4l-1.6,1.4v0h-1.2v2.7
			h1.2v0l1.6,1.4C192.5,189.7,192.5,191.7,192.5,188.4L192.5,188.4z"/>
		<g>
			<g>
				<path class="st3" d="M193.9,193.7c-0.1,0-0.2-0.1-0.2-0.2c-0.1-0.2,0-0.4,0.1-0.4c0.2-0.1,0.4-0.3,0.6-0.5
					c0.2-0.2,0.3-0.4,0.4-0.7c0.1-0.3,0.1-0.6,0.1-0.9c0-0.3,0-0.6-0.1-0.9c-0.1-0.3-0.2-0.5-0.4-0.7c-0.2-0.2-0.4-0.4-0.6-0.5
					c-0.1-0.1-0.2-0.3-0.1-0.4c0.1-0.2,0.2-0.2,0.4-0.2c0.3,0.1,0.5,0.4,0.8,0.6c0.2,0.3,0.4,0.6,0.5,0.9c0.1,0.4,0.2,0.7,0.2,1.1
					c0,0.4-0.1,0.8-0.2,1.1c-0.1,0.3-0.3,0.6-0.5,0.9c-0.2,0.3-0.5,0.5-0.8,0.6C193.9,193.7,193.9,193.7,193.9,193.7z"/>
			</g>
			<g>
				<path class="st3" d="M193.4,192.4c-0.1,0-0.2-0.1-0.2-0.2c-0.1-0.2,0-0.3,0.1-0.4c0.1,0,0.2-0.1,0.2-0.2
					c0.1-0.1,0.1-0.2,0.1-0.3c0-0.1,0.1-0.2,0.1-0.3s0-0.2-0.1-0.3c0-0.1-0.1-0.2-0.1-0.3c-0.1-0.1-0.1-0.1-0.2-0.2
					c-0.1-0.1-0.2-0.2-0.1-0.4c0.1-0.2,0.2-0.2,0.3-0.2c0.1,0.1,0.3,0.2,0.4,0.3c0.1,0.1,0.2,0.3,0.3,0.5c0.1,0.2,0.1,0.4,0.1,0.6
					c0,0.2,0,0.4-0.1,0.6c-0.1,0.2-0.1,0.3-0.3,0.5C193.7,192.2,193.6,192.3,193.4,192.4C193.4,192.4,193.4,192.4,193.4,192.4z"/>
			</g>
		</g>
	</g>
	<path class="st3" d="M209.7,190.5c0.2-0.1,0.5-0.1,0.7-0.1v1.4c-0.3,0-0.5-0.1-0.7-0.1l-0.4,1.1c0.2,0.2,0.4,0.3,0.6,0.5l-0.8,1
		c-0.2-0.2-0.3-0.5-0.4-0.7l-0.9,0.4c0,0.3,0.1,0.6,0.1,0.9h-1.1c0-0.3,0.1-0.6,0.1-0.9l-0.9-0.4c-0.1,0.2-0.3,0.5-0.4,0.7l-0.8-1
		c0.2-0.2,0.4-0.4,0.6-0.5l-0.4-1.1c-0.2,0.1-0.5,0.1-0.7,0.1v-1.4c0.3,0,0.5,0.1,0.7,0.1l0.4-1.1c-0.2-0.2-0.4-0.3-0.6-0.5l0.8-1
		c0.2,0.2,0.3,0.5,0.4,0.7l0.9-0.4c0-0.3-0.1-0.6-0.1-0.9h1.1c0,0.3-0.1,0.6-0.1,0.9l0.9,0.4c0.1-0.2,0.3-0.5,0.4-0.7l0.8,1
		c-0.2,0.2-0.4,0.4-0.6,0.5L209.7,190.5z M207.4,189.4c-0.8,0-1.4,0.7-1.4,1.7c0,0.9,0.6,1.7,1.4,1.7c0.8,0,1.4-0.7,1.4-1.7
		C208.7,190.2,208.1,189.4,207.4,189.4z"/>
	<g>
		<rect x="46" y="190.9" class="st4" width="133.8" height="0.9"/>
		
			<linearGradient id="SVGID_00000093893911430342053930000002437043341610145418_" gradientUnits="userSpaceOnUse" x1="46.0327" y1="191.3019" x2="89.3573" y2="191.3019">
			<stop  offset="0" style="stop-color:#333333"/>
			<stop  offset="0.162" style="stop-color:#363636"/>
			<stop  offset="0.3039" style="stop-color:#414141"/>
			<stop  offset="0.4382" style="stop-color:#535353"/>
			<stop  offset="0.5678" style="stop-color:#6C6C6C"/>
			<stop  offset="0.6942" style="stop-color:#8D8D8D"/>
			<stop  offset="0.8181" style="stop-color:#B5B5B5"/>
			<stop  offset="0.9377" style="stop-color:#E4E4E4"/>
			<stop  offset="1" style="stop-color:#FFFFFF"/>
		</linearGradient>
		
			<rect x="46" y="190.9" style="fill:url(#SVGID_00000093893911430342053930000002437043341610145418_);" width="43.3" height="0.9"/>
		<ellipse class="st3" cx="89.7" cy="191.3" rx="0.7" ry="1.2"/>
	</g>
	<g>
		<g class="st6">
			<path class="st3" d="M110,63c12.6,0,22.8,10.2,22.8,22.8c0,12.6-10.2,22.8-22.8,22.8c-12.6,0-22.8-10.2-22.8-22.8
				C87.2,73.2,97.4,63,110,63 M110,61c-13.7,0-24.8,11.1-24.8,24.8s11.1,24.8,24.8,24.8s24.8-11.1,24.8-24.8S123.7,61,110,61L110,61
				z"/>
		</g>
		<g>
			<path class="st3" d="M123.1,85.8l-20.6-13.5c0,20.4,0,10.4,0,27.1L123.1,85.8z"/>
		</g>
	</g>
</g>
</svg>
