<?xml version="1.0" encoding="utf-8"?>
<!-- Generator: Adobe Illustrator 24.0.1, SVG Export Plug-In . SVG Version: 6.00 Build 0)  -->
<svg version="1.1" id="Layer_1" xmlns="http://www.w3.org/2000/svg" xmlns:xlink="http://www.w3.org/1999/xlink" x="0px" y="0px"
	 viewBox="0 0 75 75" style="enable-background:new 0 0 75 75;" xml:space="preserve">
<style type="text/css">
	.st0{fill:#FFFFFF;}
	.st1{display:none;}
	.st2{display:inline;}
	.st3{fill:none;stroke:#84A565;stroke-width:0.2664;stroke-miterlimit:10;}
	.st4{fill:none;stroke:#EAF4E5;stroke-width:0.1481;stroke-miterlimit:10;}
	.st5{fill:none;stroke:#D4E9D1;stroke-width:0.2074;stroke-miterlimit:10;}
	.st6{fill:none;stroke:#EE3C24;stroke-width:0.4444;stroke-miterlimit:10;}
	.st7{fill:none;stroke:#84A565;stroke-width:0.2667;stroke-miterlimit:10;}
	.st8{fill:none;stroke:#C486A6;stroke-width:0.2667;stroke-miterlimit:10;}
	.st9{fill:none;stroke:#EE3A24;stroke-width:0.4444;stroke-miterlimit:10;}
	.st10{fill:none;stroke:#373A3B;stroke-width:1.778;stroke-linecap:round;stroke-linejoin:round;stroke-miterlimit:10;}
	.st11{fill:none;stroke:#009B72;stroke-width:1.778;stroke-linecap:round;stroke-linejoin:round;stroke-miterlimit:10;}
	.st12{fill:none;stroke:#373A3B;stroke-width:1.778;stroke-linejoin:round;stroke-miterlimit:10;}
	.st13{fill:none;stroke:#373A3B;stroke-width:1.7;stroke-linecap:round;stroke-linejoin:round;stroke-miterlimit:10;}
	.st14{fill:none;stroke:#009B72;stroke-width:1.7;stroke-linecap:round;stroke-linejoin:round;stroke-miterlimit:10;}
	.st15{fill:none;stroke:#009B72;stroke-linecap:round;stroke-linejoin:round;stroke-miterlimit:10;}
	.st16{fill:#444648;}
	.st17{fill:none;stroke:#000000;stroke-miterlimit:10;}
	.st18{fill:none;stroke:#009B72;stroke-width:1.7;stroke-miterlimit:10;}
	.st19{fill:none;stroke:#464646;stroke-width:1.7;stroke-miterlimit:10;}
	.st20{fill:none;stroke:#393939;stroke-width:1.7;stroke-miterlimit:10;}
	.st21{fill:none;stroke:#009B72;stroke-width:0.5;stroke-linecap:round;stroke-linejoin:round;stroke-miterlimit:10;}
	.st22{fill:none;stroke:#393939;stroke-width:0.75;stroke-miterlimit:10;}
	.st23{fill:#373A3B;}
	.st24{fill:#009B72;}
	.st25{fill:none;stroke:#009B72;stroke-width:2;stroke-miterlimit:10;}
</style>
<rect x="-0.165" class="st0" width="75" height="75"/>
<g>
	<g>
		<path class="st13" d="M16.502,37.137c0.022-3.043-2.106-5.223-3.153-7.837c-0.49-1.225-1.606-2.548-0.213-3.693
			c2.226-1.829,3.634,2.111,4.583,3.457c3.07,4.358,7.623,7.059,11.865,10.128c3.662,2.649,5.396,6.308,4.959,10.929
			c-0.153,1.614-0.011,3.256-0.009,4.885c0.008,5.933,0.005,5.812-6.04,5.873c-2.709,0.028-3.781-0.659-3.915-3.605
			c-0.188-4.117-3.821-6.361-6.702-8.179C9.229,43.638,3.462,32.984,4.258,22.708c0.166-2.139,0.899-4.037,1.523-6.07
			c0.205-0.667,0.511-1.353,1.33-1.286c1.072,0.087,1.159,0.995,1.175,1.81c0.04,2.036-0.199,4.104,0.078,6.103
			c0.79,5.71,1.888,11.33,8.143,13.868c0.1,0.053,0.2,0.106,0.3,0.158C16.704,37.24,16.603,37.188,16.502,37.137z"/>
	</g>
	<g>
		<path class="st13" d="M58.169,37.137c-0.022-3.043,2.106-5.223,3.153-7.837c0.49-1.225,1.606-2.548,0.213-3.693
			c-2.226-1.829-3.634,2.111-4.583,3.457c-3.07,4.358-7.623,7.059-11.865,10.128c-3.662,2.649-5.396,6.308-4.959,10.929
			c0.153,1.614,0.011,3.256,0.009,4.885c-0.008,5.933-0.005,5.812,6.04,5.873c2.709,0.028,3.781-0.659,3.915-3.605
			c0.188-4.117,3.821-6.361,6.702-8.179c8.648-5.457,14.415-16.111,13.619-26.387c-0.166-2.139-0.899-4.037-1.523-6.07
			c-0.205-0.667-0.511-1.353-1.329-1.286c-1.072,0.087-1.159,0.995-1.175,1.81c-0.04,2.036,0.199,4.104-0.078,6.103
			c-0.79,5.71-1.888,11.33-8.143,13.868c-0.1,0.053-0.2,0.106-0.3,0.158C57.967,37.24,58.068,37.188,58.169,37.137z"/>
	</g>
	<path class="st14" d="M42.923,18.872c-0.212-0.077-0.531-0.169-0.956-0.275c-0.425-0.106-0.903-0.203-1.434-0.29
		c-0.531-0.087-1.101-0.159-1.71-0.217c-0.609-0.058-1.202-0.087-1.782-0.087c-1.043,0-1.951,0.048-2.724,0.145
		c-0.773,0.097-1.41,0.27-1.912,0.522s-0.879,0.589-1.13,1.014c-0.251,0.425-0.377,0.966-0.377,1.623c0,0.58,0.13,1.029,0.391,1.347
		c0.261,0.319,0.642,0.565,1.145,0.739c0.502,0.174,1.111,0.299,1.826,0.377c0.715,0.077,1.536,0.145,2.463,0.203
		c1.101,0.077,2.062,0.174,2.883,0.29c0.821,0.116,1.507,0.304,2.057,0.565c0.551,0.261,0.966,0.623,1.246,1.087
		c0.28,0.464,0.42,1.091,0.42,1.883c0,1.391-0.575,2.439-1.724,3.144c-1.149,0.705-3.009,1.058-5.578,1.058
		c-1.642-0.097-2.931-0.222-3.868-0.377c-0.937-0.155-1.608-0.319-2.014-0.493 M37.388,14.12v3.709 M36.635,35.475v-3.709"/>
</g>
</svg>
