<?xml version="1.0" encoding="utf-8"?>
<!-- Generator: Adobe Illustrator 26.5.0, SVG Export Plug-In . SVG Version: 6.00 Build 0)  -->
<svg version="1.1" id="Layer_1" xmlns="http://www.w3.org/2000/svg" xmlns:xlink="http://www.w3.org/1999/xlink" x="0px" y="0px"
	 viewBox="0 0 512 512" style="enable-background:new 0 0 512 512;" xml:space="preserve">
<style type="text/css">
	.st0{fill:#0074D9;}
</style>
<path class="st0" d="M120.2,259c23,20.8,46,41.7,69,62.7c7.9,7.2,13.3,7.8,20.4-0.3c82.8-93.5,165.5-187,248.3-280.5
	c5.9-6.7,17-3.7,20.9,3.5c3.8,7,0.6,10.9-3.7,17.8c-79.5,128.1-159,256.1-238.5,384.2c-4.8,7.7-8.6,12.9-11.5,15.6
	c-15.4,14.7-38.8,17.2-56.1,4.5c-3-2.2-6.9-6.2-11.6-12c-37.6-46-75.2-92-112.7-138.1c-4.2-5.2-7.1-9.5-8.7-12.8
	c-20.4-44.2,31.3-86,70.5-57C110.8,249.9,116.5,255.6,120.2,259z"/>
</svg>
