<?xml version="1.0" encoding="utf-8"?>
<!-- Generator: Adobe Illustrator 26.5.0, SVG Export Plug-In . SVG Version: 6.00 Build 0)  -->
<svg version="1.1" id="Layer_1" xmlns="http://www.w3.org/2000/svg" xmlns:xlink="http://www.w3.org/1999/xlink" x="0px" y="0px"
	 viewBox="0 0 512 512" style="enable-background:new 0 0 512 512;" xml:space="preserve">
<style type="text/css">
	.st0{fill:#0074D9;}
</style>
<path class="st0" d="M56,0h400C475,2.7,484,15.2,484,33.4c0,81.7,0,163.3,0,245c0,7-0.5,12-1.5,15.1c-3.1,9.8-11.7,17.6-21.9,19.9
	c-2.2,0.5-5.7,0.8-10.4,0.8c-47.3,0.1-95,0.2-143,0.1c-0.2,0-0.4,0.2-0.4,0.4c0,0,0,0,0,0c0.6,17.3,1.4,36.1,5.1,53.1
	c0.1,0.4,0.3,0.5,0.7,0.5c9.9,0,19.7,0,29.5,0c2.7,0,4.7,0.4,5.9,1.1c4.9,3,4.8,10,0,12.8c-1.2,0.7-3.1,1.1-5.7,1.1
	c-57.5,0-115,0-172.5,0c-2.7,0-4.7-0.4-5.9-1.1c-5-3-4.7-10,0.1-12.8c1.2-0.7,3.2-1.1,5.8-1.1c9.9,0,19.7,0,29.4,0
	c0.6,0,1.1-0.4,1.2-1c2.8-17.4,4.4-35,4.8-52.7c0-0.3-0.2-0.5-0.4-0.6c-0.2-0.1-0.5-0.1-0.6,0.1c-0.1,0.1-0.3,0.2-0.5,0.2
	c-46.9,0-93.9,0-140.8,0C40.8,314.2,28,303,28,280.7c0-82.6,0-165.2,0-247.8C28,14.8,37.4,2.6,56,0z M62.7,240.9
	c0.2-62.9,0.2-125.6,0-187.8c0-11.6,6.5-19.2,18.8-19.2c116.1,0,232.3,0,348.4,0c12.7,0,19.4,7.2,19.3,19.2c0,14.1,0,28.2,0,42.3
	c0,2.6-0.4,4.6-1.3,5.9c-2.7,4.1-9.7,4-12.3-0.3c-0.8-1.2-1.1-3.1-1.2-5.6c-0.2-14.9-0.2-29.7-0.1-44.2c0-1.3-1-2.3-2.3-2.3
	c0,0,0,0,0,0c-116.1,0-231.9,0-347.4,0c-2,0-6.8-0.3-6.8,2c0,63.2,0,126.9,0,190.9c0,0.2,0.2,0.3,0.3,0.3l0,0h355.8
	c0.2,0,0.3-0.2,0.3-0.4c0-36,0-71.5,0-106.4c0-3.5,0.3-5.9,0.9-7.3c3.5-7.9,14.1-4.5,14.1,4.4c0,36.3,0,72.7,0,109
	c0,0.3,0.2,0.5,0.5,0.5h0l18.6,0c0.4,0,0.6-0.2,0.6-0.6c0-69.7,0-139.3,0-209c0-12-6.2-17.4-17.9-17.4c-129.7,0-259.5,0-389.2,0
	C49.3,15,43,19.8,43,32.8c0,69.3,0,138.9,0,208.8c0,0.2,0.2,0.4,0.3,0.4h0h18.2C62.3,242,62.7,241.6,62.7,240.9z M43,282.6
	c0.1,9.9,6,16.8,16.2,16.7c45.9-0.5,91.7-0.1,137.6-0.1c85.2,0,170.3-0.1,255.5-0.3c12.2,0,16.6-6.6,16.7-18.2c0-7.7,0-15.5,0-23.2
	c0-0.3-0.2-0.5-0.5-0.5h-425c-0.3,0-0.5,0.2-0.5,0.5C43,265.9,43,274.2,43,282.6z M220.5,314.2c-0.2,0-0.3,0.1-0.3,0.3
	c-0.4,17.8-1.9,35.6-4.6,53.2c0,0.3,0.1,0.5,0.4,0.5c0,0,0.1,0,0.1,0h80c0.3,0,0.5-0.2,0.5-0.6c0,0,0-0.1,0-0.1
	c-3-17.5-3.9-34.9-4.8-52.7c0-0.4-0.2-0.6-0.7-0.6L220.5,314.2z"/>
<path class="st0" d="M221.6,94.1l0.1,0.1c3.1,2.7,3.5,7.3,0.8,10.5l-77.9,91.2c-2.7,3.1-7.3,3.5-10.5,0.8l-0.1-0.1
	c-3.1-2.7-3.5-7.3-0.8-10.5l77.9-91.2C213.8,91.8,218.5,91.5,221.6,94.1z"/>
<path class="st0" d="M164.7,113.6l0.3,0.3c3,2.7,3.3,7.3,0.6,10.3L144.5,148c-2.7,3-7.3,3.3-10.3,0.6l-0.3-0.3
	c-3-2.7-3.3-7.3-0.6-10.3l21.2-23.8C157.1,111.2,161.7,111,164.7,113.6z"/>
<path class="st0" d="M240.7,270.5l30.5-0.1c4,0,7.2,3.2,7.2,7.2l0,0.6c0,4-3.2,7.2-7.2,7.2l-30.5,0.1c-4,0-7.2-3.2-7.2-7.2l0-0.6
	C233.5,273.8,236.7,270.6,240.7,270.5z"/>
<path class="st0" d="M451.4,512H60.2c-11.2-2.3-16-11-12.6-21.6c6.9-21.8,13.8-43.6,20.7-65.4c3.3-10.4,6.1-16.7,18.3-16.7
	c16.9,0,33.8,0,50.8,0c2.6,0,4.6,0.3,5.7,1c5.2,2.9,4.9,10.4-0.2,13c-1.3,0.7-3.4,1-6.4,1c-17.1,0-34.2,0-51.2,0
	c-0.4,0-0.7,0.2-0.8,0.6l-23,72.7c-0.1,0.2,0,0.4,0.2,0.4c0,0,0.1,0,0.1,0h388.5c0.3,0,0.5-0.2,0.5-0.5c0-0.1,0-0.1,0-0.2l-23-72.5
	c-0.1-0.3-0.4-0.6-0.8-0.5c-83.2,0-166.6,0-250,0c-3,0-5-0.2-6.2-0.6c-8.2-3-5.6-14.4,3.4-14.4c83.2,0,166.4,0,249.6,0
	c10.8,0,15.7,3.1,18.9,13.2c7.1,22.4,14.2,44.7,21.3,67.1C467.5,499.9,464.6,509.5,451.4,512z"/>
<path class="st0" d="M128.8,439.3l10.8,0c3.9,0,7,3.1,7,7l0,0.9c0,3.9-3.1,7-7,7l-10.8,0c-3.9,0-7-3.1-7-7l0-0.9
	C121.9,442.4,125,439.3,128.8,439.3z"/>
<path class="st0" d="M169.5,439.3l10.9-0.1c3.8,0,7,3.1,7,6.9l0,0.9c0,3.8-3.1,7-6.9,7l-10.9,0.1c-3.8,0-7-3.1-7-6.9l0-0.9
	C162.6,442.5,165.7,439.3,169.5,439.3z"/>
<path class="st0" d="M210.3,439.3l10.8,0c3.9,0,7,3.1,7,7l0,0.9c0,3.9-3.1,7-7,7l-10.8,0c-3.9,0-7-3.1-7-7l0-0.9
	C203.4,442.4,206.5,439.3,210.3,439.3z"/>
<path class="st0" d="M251.1,439.3h10.8c3.9,0,7,3.1,7,7v0.9c0,3.9-3.1,7-7,7h-10.8c-3.9,0-7-3.1-7-7v-0.9
	C244.1,442.4,247.2,439.3,251.1,439.3z"/>
<path class="st0" d="M291.8,439.3l10.8,0c3.8,0,7,3.1,7,7l0,0.9c0,3.8-3.1,7-7,7l-10.8,0c-3.8,0-7-3.1-7-7l0-0.9
	C284.8,442.4,288,439.3,291.8,439.3z"/>
<path class="st0" d="M332.6,439.3l10.9,0c3.8,0,7,3.1,6.9,7l0,0.9c0,3.8-3.1,7-7,6.9l-10.9,0c-3.8,0-7-3.1-6.9-7l0-0.9
	C325.6,442.4,328.7,439.3,332.6,439.3z"/>
<path class="st0" d="M372.3,439.3l10.9,0c3.8,0,7,3.1,6.9,7l0,0.9c0,3.8-3.1,7-7,6.9l-10.9,0c-3.8,0-7-3.1-6.9-7l0-0.9
	C365.3,442.4,368.5,439.3,372.3,439.3z"/>
<path class="st0" d="M128.8,466.1h10.8c3.9,0,7,3.1,7,7v0.9c0,3.9-3.1,7-7,7h-10.8c-3.9,0-7-3.1-7-7v-0.9
	C121.8,469.2,125,466.1,128.8,466.1z"/>
<path class="st0" d="M169.6,466.1h10.8c3.9,0,7,3.1,7,7v0.9c0,3.9-3.1,7-7,7h-10.8c-3.9,0-7-3.1-7-7v-0.9
	C162.6,469.2,165.7,466.1,169.6,466.1z"/>
<path class="st0" d="M210.3,466.1h10.8c3.9,0,7,3.1,7,7v0.9c0,3.9-3.1,7-7,7h-10.8c-3.9,0-7-3.1-7-7v-0.9
	C203.4,469.2,206.5,466.1,210.3,466.1z"/>
<path class="st0" d="M251.1,466.1h10.8c3.9,0,7,3.1,7,7v0.9c0,3.9-3.1,7-7,7h-10.8c-3.9,0-7-3.1-7-7v-0.9
	C244.1,469.2,247.2,466.1,251.1,466.1z"/>
<path class="st0" d="M291.8,466.1l10.8,0c3.9,0,7,3.2,7,7l0,0.9c0,3.9-3.2,7-7,7l-10.8,0c-3.9,0-7-3.2-7-7l0-0.9
	C284.8,469.2,288,466,291.8,466.1z"/>
<path class="st0" d="M332.5,466.1l10.8,0c3.9,0,7,3.1,7,7l0,0.9c0,3.9-3.1,7-7,7l-10.8,0c-3.9,0-7-3.1-7-7l0-0.9
	C325.5,469.3,328.7,466.1,332.5,466.1z"/>
<path class="st0" d="M372.3,466.1l10.8,0c3.9,0,7,3.1,7,7l0,0.9c0,3.9-3.1,7-7,7l-10.8,0c-3.9,0-7-3.1-7-7l0-0.9
	C365.3,469.3,368.4,466.1,372.3,466.1z"/>
</svg>
