<?xml version="1.0" encoding="utf-8"?>
<!-- Generator: Adobe Illustrator 24.0.1, SVG Export Plug-In . SVG Version: 6.00 Build 0)  -->
<svg version="1.1" id="Layer_1" xmlns="http://www.w3.org/2000/svg" xmlns:xlink="http://www.w3.org/1999/xlink" x="0px" y="0px"
	 viewBox="0 0 75 75" style="enable-background:new 0 0 75 75;" xml:space="preserve">
<style type="text/css">
	.st0{fill:#FFFFFF;}
	.st1{display:none;}
	.st2{display:inline;}
	.st3{fill:none;stroke:#84A565;stroke-width:0.2664;stroke-miterlimit:10;}
	.st4{fill:none;stroke:#EAF4E5;stroke-width:0.1481;stroke-miterlimit:10;}
	.st5{fill:none;stroke:#D4E9D1;stroke-width:0.2074;stroke-miterlimit:10;}
	.st6{fill:none;stroke:#EE3C24;stroke-width:0.4444;stroke-miterlimit:10;}
	.st7{fill:none;stroke:#84A565;stroke-width:0.2667;stroke-miterlimit:10;}
	.st8{fill:none;stroke:#C486A6;stroke-width:0.2667;stroke-miterlimit:10;}
	.st9{fill:none;stroke:#EE3A24;stroke-width:0.4444;stroke-miterlimit:10;}
	.st10{fill:none;stroke:#373A3B;stroke-width:1.778;stroke-linecap:round;stroke-linejoin:round;stroke-miterlimit:10;}
	.st11{fill:none;stroke:#009B72;stroke-width:1.778;stroke-linecap:round;stroke-linejoin:round;stroke-miterlimit:10;}
	.st12{fill:none;stroke:#373A3B;stroke-width:1.778;stroke-linejoin:round;stroke-miterlimit:10;}
	.st13{fill:none;stroke:#373A3B;stroke-width:1.7;stroke-linecap:round;stroke-linejoin:round;stroke-miterlimit:10;}
	.st14{fill:none;stroke:#009B72;stroke-width:1.7;stroke-linecap:round;stroke-linejoin:round;stroke-miterlimit:10;}
	.st15{fill:none;stroke:#009B72;stroke-linecap:round;stroke-linejoin:round;stroke-miterlimit:10;}
	.st16{fill:#444648;}
	.st17{fill:none;stroke:#000000;stroke-miterlimit:10;}
	.st18{fill:none;stroke:#009B72;stroke-width:1.7;stroke-miterlimit:10;}
	.st19{fill:none;stroke:#464646;stroke-width:1.7;stroke-miterlimit:10;}
	.st20{fill:none;stroke:#393939;stroke-width:1.7;stroke-miterlimit:10;}
	.st21{fill:none;stroke:#009B72;stroke-width:0.75;stroke-linecap:round;stroke-linejoin:round;stroke-miterlimit:10;}
	.st22{fill:none;stroke:#393939;stroke-width:0.75;stroke-miterlimit:10;}
	.st23{fill:#373A3B;}
	.st24{fill:#009B72;}
	.st25{fill:none;stroke:#009B72;stroke-width:2;stroke-miterlimit:10;}
</style>
<rect class="st0" width="75" height="75"/>
<g>
	<path class="st19" d="M44.821,54.9c-0.153,0.096-0.244,0.157-0.338,0.213c-1.148,0.685-1.792,1.7-1.89,3.028
		c-0.05,0.682-0.018,1.372-0.001,2.058c0.021,0.815-0.011,1.621-0.291,2.397c-0.263,0.729-0.696,1.344-1.393,1.695
		c-1.64,0.826-3.364,1.142-5.183,0.715c-1.442-0.338-2.437-1.157-2.948-2.589c-0.392-1.098-0.644-2.184-0.523-3.365
		c0.061-0.6,0.002-1.235-0.126-1.827c-0.454-2.095-3.623-3.526-5.654-1.541c-0.711,0.695-1.414,1.398-2.139,2.078
		c-0.69,0.646-1.498,1.067-2.453,1.169c-0.762,0.082-1.473-0.066-2.101-0.512c-1.29-0.914-2.418-2.005-3.32-3.301
		c-0.797-1.145-0.645-2.365-0.09-3.569c0.289-0.627,0.768-1.108,1.251-1.584c0.489-0.482,0.991-0.951,1.47-1.443
		c1.226-1.261,1.425-2.81,0.557-4.308c-0.547-0.944-1.387-1.483-2.456-1.596c-0.956-0.101-1.921-0.106-2.881-0.169
		c-0.489-0.032-0.985-0.056-1.462-0.161c-1.55-0.341-2.501-1.315-2.796-2.871c-0.236-1.247-0.235-2.521-0.043-3.768
		c0.327-2.134,1.808-3.353,4.012-3.399c0.85-0.018,1.701,0.012,2.55-0.02c0.415-0.016,0.836-0.087,1.238-0.194
		c2.145-0.569,3.348-3.593,1.488-5.57c-0.702-0.746-1.433-1.465-2.148-2.2c-0.636-0.654-1.011-1.434-1.114-2.343
		c-0.09-0.795,0.103-1.534,0.488-2.216c0.766-1.358,1.849-2.433,3.156-3.258c1.44-0.908,3.193-0.717,4.555,0.469
		c0.757,0.658,1.453,1.386,2.179,2.08c0.569,0.544,1.224,0.918,2.014,1.039c2.011,0.307,3.879-1.252,3.923-3.279
		c0.022-1.004,0.013-2.01,0.066-3.013c0.075-1.438,0.655-2.611,1.92-3.38c0.66-0.401,1.403-0.532,2.151-0.549
		c0.939-0.022,1.885-0.017,2.82,0.067c2.041,0.182,3.291,1.963,3.33,3.797c0.022,1.025-0.012,2.052,0.052,3.074
		c0.119,1.907,1.378,3.193,3.27,3.392c0.984,0.103,1.815-0.273,2.515-0.927c0.651-0.608,1.261-1.26,1.889-1.893
		c0.481-0.485,1.017-0.892,1.663-1.135c1.104-0.416,2.162-0.249,3.166,0.306c1.297,0.717,2.341,1.73,3.167,2.948
		c0.96,1.417,0.904,3.049-0.128,4.418c-0.355,0.471-0.806,0.871-1.207,1.308c-0.498,0.543-1.041,1.054-1.476,1.645
		c-1.303,1.769-0.81,4.107,1.038,5.11c0.553,0.301,1.151,0.42,1.774,0.424c0.881,0.006,1.762-0.014,2.642,0.013
		c1.213,0.037,2.292,0.414,3.118,1.355c0.489,0.556,0.761,1.214,0.867,1.938c0.171,1.162,0.186,2.33,0.023,3.494
		c-0.295,2.103-1.802,3.455-3.926,3.514c-0.675,0.019-1.353,0.025-2.026-0.011c-1.585-0.085-2.891,0.444-3.889,1.694
		c-0.025,0.031-0.059,0.054-0.139,0.126c-0.573-0.543-1.19-1.041-1.701-1.631c-0.882-1.019-1.018-2.261-0.914-3.561
		c0.085-1.06,0.201-2.129,0.154-3.187c-0.128-2.891-1.145-5.484-2.894-7.773c-2.27-2.971-5.184-5.039-8.884-5.743
		c-7.656-1.457-15.43,2.419-17.81,10.34c-1.534,5.108-0.74,9.884,2.634,14.056c3.275,4.05,7.606,5.896,12.82,5.58
		c0.682-0.041,1.359-0.173,2.038-0.269c0.779-0.111,1.457,0.098,2.043,0.622c0.709,0.635,1.422,1.266,2.135,1.897
		C44.692,54.837,44.744,54.856,44.821,54.9z"/>
	<path class="st14" d="M34.757,26.571c1.141-0.345,2.257-0.517,3.4-0.494c3.125,0.062,5.691,1.392,7.768,3.636
		c3.025,3.268,3.747,7.105,2.414,11.312c-0.331,1.046-0.165,1.772,0.61,2.526c3.189,3.101,6.337,6.243,9.502,9.369
		c0.5,0.494,0.94,1.027,1.217,1.683c0.409,0.967,0.377,1.917-0.102,2.849c-0.409,0.796-1.013,1.418-1.776,1.873
		c-1.402,0.835-2.974,0.664-4.243-0.518c-1.259-1.174-2.474-2.395-3.693-3.611c-2.062-2.055-4.112-4.121-6.167-6.182
		c-0.08-0.08-0.164-0.155-0.242-0.236c-0.629-0.659-1.374-0.802-2.221-0.509c-1.001,0.346-2.027,0.576-3.083,0.669
		c-2.648,0.234-5.03-0.479-7.164-2.037c-2-1.46-3.533-3.29-4.346-5.666c-0.684-1.999-0.733-4.042-0.353-6.101
		c0.028-0.154,0.256-0.288,0.418-0.388c0.043-0.027,0.203,0.089,0.279,0.169c1.221,1.271,2.433,2.551,3.657,3.82
		c0.772,0.8,1.662,1.429,2.732,1.769c1.406,0.448,2.773,0.343,4.076-0.356c1.304-0.7,2.298-1.72,2.91-3.069
		c0.843-1.86,0.567-3.642-0.598-5.262c-0.539-0.75-1.235-1.391-1.882-2.06c-0.948-0.979-1.917-1.937-2.875-2.906
		C34.918,26.773,34.853,26.685,34.757,26.571z M57.937,55.954c0.005-1.169-0.782-1.957-1.951-1.954
		c-1.089,0.003-1.938,0.861-1.949,1.968c-0.01,1.009,0.929,1.913,1.983,1.909C57.074,57.873,57.932,57.012,57.937,55.954z"/>
</g>
</svg>
