<?xml version="1.0" encoding="UTF-8" standalone="no"?>
<!DOCTYPE svg PUBLIC "-//W3C//DTD SVG 1.1//EN" "http://www.w3.org/Graphics/SVG/1.1/DTD/svg11.dtd">
<svg xmlns="http://www.w3.org/2000/svg" version="1.1" viewBox="0.00 0.00 512.00 512.00">
<g stroke-width="2.00" fill="none" stroke-linecap="butt">
<path stroke="#5f565f" vector-effect="non-scaling-stroke" d="
  M 424.23 68.91
  Q 430.03 103.98 415.01 133.00
  Q 396.83 168.11 358.18 181.16
  Q 336.36 188.52 309.37 184.34"
/>
<path stroke="#4782b3" vector-effect="non-scaling-stroke" d="
  M 272.03 179.20
  C 269.46 176.57 258.75 167.65 260.01 163.75
  Q 262.85 154.99 265.60 146.81
  Q 266.12 145.25 265.43 143.75
  Q 262.81 138.11 260.47 131.92
  C 257.91 125.16 239.98 124.57 240.00 116.50
  Q 240.02 106.25 239.98 96.00"
/>
<path stroke="#93c3e7" vector-effect="non-scaling-stroke" d="
  M 272.01 256.01
  Q 234.15 255.95 196.31 256.04
  Q 183.17 256.07 176.36 257.03
  Q 153.93 260.20 134.87 272.11"
/>
<path stroke="#75c4ff" vector-effect="non-scaling-stroke" d="
  M 127.99 216.30
  L 95.96 216.29"
/>
<path stroke="#93d3ff" vector-effect="non-scaling-stroke" d="
  M 95.96 216.29
  L 95.85 161.35
  A 1.23 1.22 0.2 0 0 94.63 160.13
  L 66.77 159.95
  A 2.62 2.61 -89.7 0 0 64.14 162.56
  L 64.04 216.30"
/>
<path stroke="#75c4ff" vector-effect="non-scaling-stroke" d="
  M 64.04 216.30
  Q 56.34 216.21 48.76 216.29
  C 37.45 216.41 37.08 231.74 50.35 231.74
  Q 145.27 231.76 240.19 231.74
  C 248.05 231.74 250.52 220.18 243.13 217.06
  C 238.76 215.21 228.97 216.25 223.99 216.30"
/>
<path stroke="#93d3ff" vector-effect="non-scaling-stroke" d="
  M 223.99 216.30
  L 223.92 178.11
  Q 223.91 176.09 221.89 176.09
  L 194.11 175.99
  A 1.91 1.90 -89.7 0 0 192.20 177.89
  L 192.04 216.29"
/>
<path stroke="#75c4ff" vector-effect="non-scaling-stroke" d="
  M 192.04 216.29
  L 159.98 216.29"
/>
<path stroke="#93d3ff" vector-effect="non-scaling-stroke" d="
  M 159.98 216.29
  L 159.92 129.79
  A 1.56 1.56 0.0 0 0 158.41 128.23
  Q 145.38 127.80 132.00 128.07
  Q 129.96 128.11 128.78 128.60
  Q 128.19 128.85 128.19 129.49
  L 127.99 216.30"
/>
<path stroke="#e2f1ff" vector-effect="non-scaling-stroke" d="
  M 159.98 216.29
  L 127.99 216.30"
/>
<path stroke="#e2f1ff" vector-effect="non-scaling-stroke" d="
  M 95.96 216.29
  L 64.04 216.30"
/>
<path stroke="#e2f1ff" vector-effect="non-scaling-stroke" d="
  M 223.99 216.30
  L 192.04 216.29"
/>
<path stroke="#ffd7c7" vector-effect="non-scaling-stroke" d="
  M 249.13 305.37
  C 248.22 303.20 223.68 303.97 213.48 304.02
  Q 209.49 304.04 207.75 304.71
  C 199.29 308.01 202.70 319.47 211.75 319.49
  Q 233.30 319.53 255.60 319.49"
/>
<path stroke="#ffc8b7" vector-effect="non-scaling-stroke" d="
  M 287.94 351.91
  C 297.88 361.99 305.56 369.92 320.16 370.29"
/>
<path stroke="#ffd7c7" vector-effect="non-scaling-stroke" d="
  M 320.16 370.29
  Q 325.56 370.59 329.51 369.54
  Q 405.03 349.40 480.86 329.07"
/>
<path stroke="#ffd7c7" vector-effect="non-scaling-stroke" d="
  M 501.86 336.34
  Q 502.43 344.03 498.64 347.96
  Q 496.55 350.13 489.57 352.01
  Q 399.65 376.16 309.67 400.11
  Q 299.50 402.82 290.99 400.54
  Q 251.59 390.00 212.17 379.51
  Q 199.17 376.05 192.63 375.47
  C 170.78 373.52 148.82 381.12 132.79 396.16
  Q 128.20 400.46 119.83 411.34
  Q 95.31 443.18 70.87 475.07
  C 62.73 485.67 56.94 491.42 43.99 491.47
  Q 21.99 491.57 0.00 491.44"
/>
<path stroke="#ffbfaf" vector-effect="non-scaling-stroke" d="
  M 430.89 306.46
  L 320.16 370.29"
/>
</g>
<path fill="#ffd15b" d="
  M 5.33 0.00
  L 45.81 0.00
  Q 47.99 0.68 47.99 3.50
  Q 48.01 24.38 48.00 44.81
  Q 47.99 47.99 44.81 48.00
  Q 23.87 48.01 2.50 47.99
  Q 0.76 47.99 0.00 45.94
  L 0.00 3.47
  C 0.07 -1.11 2.88 0.62 5.33 0.00
  Z"
/>
<path fill="#6ed5a1" d="
  M 193.73 0.00
  L 194.90 0.00
  L 232.08 29.67
  A 1.23 1.23 0.0 0 1 232.08 31.59
  L 195.32 60.99
  A 1.27 1.27 0.0 0 1 193.26 60.00
  L 193.25 48.25
  Q 193.25 46.51 191.50 46.51
  L 146.50 46.49
  A 2.50 2.49 0.0 0 1 144.00 44.00
  L 144.00 17.51
  A 2.99 2.99 0.0 0 1 146.99 14.52
  L 192.48 14.49
  A 0.85 0.85 0.0 0 0 193.33 13.67
  L 193.73 0.00
  Z"
/>
<path fill="#685e68" d="
  M 330.32 0.00
  L 357.80 0.00
  C 362.09 1.30 367.13 14.27 369.23 18.45
  A 3.72 3.71 86.4 0 0 371.30 20.28
  Q 377.14 22.37 383.50 25.26
  C 386.68 26.70 398.21 21.82 401.92 20.61
  C 405.22 19.52 406.79 19.74 409.17 22.08
  Q 418.44 31.20 426.82 39.75
  A 4.68 4.67 31.8 0 1 427.93 44.46
  Q 425.13 53.11 422.20 61.72
  Q 422.03 62.21 422.19 62.71
  L 424.23 68.91
  Q 430.03 103.98 415.01 133.00
  Q 396.83 168.11 358.18 181.16
  Q 336.36 188.52 309.37 184.34
  Q 307.47 184.50 304.23 182.72
  C 298.85 179.75 284.88 192.00 279.33 186.42
  Q 275.89 182.96 272.03 179.20
  C 269.46 176.57 258.75 167.65 260.01 163.75
  Q 262.85 154.99 265.60 146.81
  Q 266.12 145.25 265.43 143.75
  Q 262.81 138.11 260.47 131.92
  C 257.91 125.16 239.98 124.57 240.00 116.50
  Q 240.02 106.25 239.98 96.00
  C 240.03 92.08 239.04 88.58 243.31 86.39
  C 246.72 84.65 258.98 79.59 260.18 76.52
  Q 262.74 69.99 265.47 64.22
  A 3.90 3.88 -41.8 0 0 265.64 61.34
  L 260.17 44.81
  A 5.27 5.25 -31.8 0 1 261.44 39.44
  Q 270.22 30.64 279.44 21.45
  C 281.35 19.55 283.47 19.78 286.07 20.61
  Q 293.74 23.07 300.97 25.55
  A 4.23 4.20 43.1 0 0 303.93 25.46
  L 317.08 20.03
  A 3.35 3.33 -87.9 0 0 318.81 18.41
  C 320.93 14.11 325.95 1.18 330.32 0.00
  Z
  M 383.93 103.99
  A 39.93 39.93 0.0 0 0 344.00 64.06
  A 39.93 39.93 0.0 0 0 304.07 103.99
  A 39.93 39.93 0.0 0 0 344.00 143.92
  A 39.93 39.93 0.0 0 0 383.93 103.99
  Z"
/>
<rect fill="#ffc344" x="-15.99" y="-15.98" transform="translate(96.01,48.01) rotate(-0.1)" width="31.98" height="31.96" rx="2.67"/>
<path fill="#554e56" d="
  M 424.23 68.91
  Q 426.84 72.81 427.89 76.66
  Q 428.02 77.15 428.38 77.52
  Q 429.37 78.53 429.94 78.81
  Q 437.46 82.51 445.70 86.72
  A 4.23 4.22 13.6 0 1 448.00 90.48
  L 448.00 117.56
  A 4.20 4.19 76.7 0 1 445.69 121.31
  L 429.85 129.31
  A 3.79 3.79 0.0 0 0 428.06 131.23
  L 422.79 143.77
  A 4.75 4.70 47.5 0 0 422.66 147.07
  Q 425.02 154.24 427.57 161.94
  C 428.69 165.33 428.33 167.04 425.72 169.65
  Q 417.39 177.99 409.06 186.31
  Q 406.28 189.09 402.48 187.80
  Q 394.54 185.09 387.07 182.64
  A 4.49 4.47 -47.1 0 0 383.95 182.76
  L 371.35 187.98
  Q 369.95 188.55 369.27 189.90
  L 361.28 205.70
  A 4.21 4.21 0.0 0 1 357.53 208.00
  L 330.47 208.00
  A 4.16 4.15 -13.3 0 1 326.76 205.72
  Q 322.83 197.99 318.67 189.82
  Q 318.35 189.19 317.51 188.33
  Q 317.15 187.97 316.65 187.84
  Q 312.89 186.90 309.37 184.34
  Q 336.36 188.52 358.18 181.16
  Q 396.83 168.11 415.01 133.00
  Q 430.03 103.98 424.23 68.91
  Z"
/>
<path fill="#26a6fe" d="
  M 239.98 96.00
  Q 240.02 106.25 240.00 116.50
  C 239.98 124.57 257.91 125.16 260.47 131.92
  Q 262.81 138.11 265.43 143.75
  Q 266.12 145.25 265.60 146.81
  Q 262.85 154.99 260.01 163.75
  C 258.75 167.65 269.46 176.57 272.03 179.20
  L 272.01 256.01
  Q 234.15 255.95 196.31 256.04
  Q 183.17 256.07 176.36 257.03
  Q 153.93 260.20 134.87 272.11
  Q 84.98 271.93 35.92 271.99
  C 22.36 272.01 16.00 267.07 16.00 253.02
  Q 16.01 184.79 15.99 116.56
  Q 15.99 108.62 17.46 105.16
  C 21.04 96.76 28.13 95.99 37.10 95.99
  Q 138.51 96.01 239.98 96.00
  Z
  M 127.99 216.30
  L 95.96 216.29
  L 95.85 161.35
  A 1.23 1.22 0.2 0 0 94.63 160.13
  L 66.77 159.95
  A 2.62 2.61 -89.7 0 0 64.14 162.56
  L 64.04 216.30
  Q 56.34 216.21 48.76 216.29
  C 37.45 216.41 37.08 231.74 50.35 231.74
  Q 145.27 231.76 240.19 231.74
  C 248.05 231.74 250.52 220.18 243.13 217.06
  C 238.76 215.21 228.97 216.25 223.99 216.30
  L 223.92 178.11
  Q 223.91 176.09 221.89 176.09
  L 194.11 175.99
  A 1.91 1.90 -89.7 0 0 192.20 177.89
  L 192.04 216.29
  L 159.98 216.29
  L 159.92 129.79
  A 1.56 1.56 0.0 0 0 158.41 128.23
  Q 145.38 127.80 132.00 128.07
  Q 129.96 128.11 128.78 128.60
  Q 128.19 128.85 128.19 129.49
  L 127.99 216.30
  Z"
/>
<path fill="#ffffff" d="
  M 159.98 216.29
  L 127.99 216.30
  L 128.19 129.49
  Q 128.19 128.85 128.78 128.60
  Q 129.96 128.11 132.00 128.07
  Q 145.38 127.80 158.41 128.23
  A 1.56 1.56 0.0 0 1 159.92 129.79
  L 159.98 216.29
  Z"
/>
<path fill="#ffffff" d="
  M 95.96 216.29
  L 64.04 216.30
  L 64.14 162.56
  A 2.62 2.61 -89.7 0 1 66.77 159.95
  L 94.63 160.13
  A 1.23 1.22 0.2 0 1 95.85 161.35
  L 95.96 216.29
  Z"
/>
<path fill="#ffffff" d="
  M 223.99 216.30
  L 192.04 216.29
  L 192.20 177.89
  A 1.91 1.90 -89.7 0 1 194.11 175.99
  L 221.89 176.09
  Q 223.91 176.09 223.92 178.11
  L 223.99 216.30
  Z"
/>
<path fill="#ffd15b" d="
  M 512.00 178.82
  L 512.00 221.81
  Q 511.41 223.91 509.00 223.92
  Q 487.81 224.01 466.54 224.01
  A 2.58 2.57 -89.9 0 1 463.97 221.42
  L 464.07 178.03
  A 1.79 1.79 0.0 0 1 465.82 176.24
  C 470.69 176.12 509.97 175.14 511.33 176.76
  Q 511.93 177.48 512.00 178.82
  Z"
/>
<path fill="#c4e2ff" d="
  M 64.04 216.30
  L 95.96 216.29
  L 127.99 216.30
  L 159.98 216.29
  L 192.04 216.29
  L 223.99 216.30
  C 228.97 216.25 238.76 215.21 243.13 217.06
  C 250.52 220.18 248.05 231.74 240.19 231.74
  Q 145.27 231.76 50.35 231.74
  C 37.08 231.74 37.45 216.41 48.76 216.29
  Q 56.34 216.21 64.04 216.30
  Z"
/>
<rect fill="#ffc344" x="-15.99" y="-15.98" transform="translate(416.01,240.01) rotate(-0.1)" width="31.98" height="31.96" rx="2.67"/>
<path fill="#ffdfcf" d="
  M 272.01 256.01
  C 280.18 256.02 290.61 255.12 297.52 257.10
  C 319.87 263.50 321.16 294.94 299.18 302.58
  Q 295.23 303.96 286.51 303.98
  Q 269.42 304.02 252.31 304.01
  Q 251.29 304.01 249.13 305.37
  C 248.22 303.20 223.68 303.97 213.48 304.02
  Q 209.49 304.04 207.75 304.71
  C 199.29 308.01 202.70 319.47 211.75 319.49
  Q 233.30 319.53 255.60 319.49
  L 287.94 351.91
  C 297.88 361.99 305.56 369.92 320.16 370.29
  Q 325.56 370.59 329.51 369.54
  Q 405.03 349.40 480.86 329.07
  Q 493.62 328.69 501.86 336.34
  Q 502.43 344.03 498.64 347.96
  Q 496.55 350.13 489.57 352.01
  Q 399.65 376.16 309.67 400.11
  Q 299.50 402.82 290.99 400.54
  Q 251.59 390.00 212.17 379.51
  Q 199.17 376.05 192.63 375.47
  C 170.78 373.52 148.82 381.12 132.79 396.16
  Q 128.20 400.46 119.83 411.34
  Q 95.31 443.18 70.87 475.07
  C 62.73 485.67 56.94 491.42 43.99 491.47
  Q 21.99 491.57 0.00 491.44
  L 0.00 404.69
  Q 0.88 402.75 1.31 402.32
  Q 59.50 344.12 117.69 285.94
  Q 124.46 279.17 134.87 272.11
  Q 153.93 260.20 176.36 257.03
  Q 183.17 256.07 196.31 256.04
  Q 234.15 255.95 272.01 256.01
  Z"
/>
<path fill="#ffb09e" d="
  M 430.89 306.46
  L 320.16 370.29
  C 305.56 369.92 297.88 361.99 287.94 351.91
  Q 337.29 323.47 386.39 295.05
  Q 396.09 289.44 400.83 288.46
  C 414.26 285.67 425.22 294.20 430.89 306.46
  Z"
/>
<path fill="#ffcebf" d="
  M 480.86 329.07
  Q 405.03 349.40 329.51 369.54
  Q 325.56 370.59 320.16 370.29
  L 430.89 306.46
  C 442.00 299.25 453.93 296.50 464.88 305.16
  C 471.38 310.29 476.61 321.05 480.86 329.07
  Z"
/>
<path fill="#ffcebf" d="
  M 249.13 305.37
  C 244.52 310.71 252.14 315.81 255.60 319.49
  Q 233.30 319.53 211.75 319.49
  C 202.70 319.47 199.29 308.01 207.75 304.71
  Q 209.49 304.04 213.48 304.02
  C 223.68 303.97 248.22 303.20 249.13 305.37
  Z"
/>
<path fill="#ffcebf" d="
  M 501.86 336.34
  C 508.62 343.03 509.73 351.03 512.00 359.57
  L 512.00 363.78
  Q 509.96 370.10 504.33 371.61
  Q 412.92 396.11 321.52 420.58
  C 315.68 422.15 308.01 423.08 303.00 421.74
  Q 251.42 407.93 199.82 394.14
  C 182.25 389.45 163.53 394.07 150.60 406.51
  Q 147.67 409.33 137.96 421.99
  Q 103.16 467.39 68.67 512.00
  L 4.94 512.00
  Q 1.15 511.76 0.00 508.16
  L 0.00 491.44
  Q 21.99 491.57 43.99 491.47
  C 56.94 491.42 62.73 485.67 70.87 475.07
  Q 95.31 443.18 119.83 411.34
  Q 128.20 400.46 132.79 396.16
  C 148.82 381.12 170.78 373.52 192.63 375.47
  Q 199.17 376.05 212.17 379.51
  Q 251.59 390.00 290.99 400.54
  Q 299.50 402.82 309.67 400.11
  Q 399.65 376.16 489.57 352.01
  Q 496.55 350.13 498.64 347.96
  Q 502.43 344.03 501.86 336.34
  Z"
/>
<path fill="#6ed5a1" d="
  M 360.19 466.56
  A 1.52 0.15 57.0 0 1 359.57 465.78
  Q 358.98 464.96 360.10 464.08
  Q 378.48 449.60 396.61 435.10
  Q 397.52 434.37 398.35 435.20
  C 399.09 435.94 398.78 446.51 398.78 447.85
  A 1.65 1.65 0.0 0 0 400.43 449.49
  L 445.50 449.50
  A 2.50 2.50 0.0 0 1 448.00 452.00
  L 448.00 478.22
  A 3.28 3.28 0.0 0 1 444.72 481.50
  L 399.63 481.50
  A 0.88 0.87 0.0 0 0 398.75 482.37
  L 398.75 494.75
  A 1.27 1.27 0.0 0 1 396.68 495.74
  L 360.19 466.56
  Z"
/>
<rect fill="#ffc344" x="-15.99" y="-15.98" transform="translate(256.01,464.01) rotate(-0.1)" width="31.98" height="31.96" rx="2.66"/>
<path fill="#ffd15b" d="
  M 189.44 512.00
  L 146.45 512.00
  Q 144.07 511.61 144.05 509.69
  Q 143.86 487.51 144.14 465.79
  A 1.71 1.71 0.0 0 1 145.85 464.10
  L 189.41 463.96
  A 2.57 2.57 0.0 0 1 191.99 466.53
  Q 192.02 487.33 191.99 508.50
  Q 191.98 511.58 189.44 512.00
  Z"
/>
</svg>
