<?xml version="1.0" encoding="utf-8"?>
<!-- Generator: Adobe Illustrator 26.5.0, SVG Export Plug-In . SVG Version: 6.00 Build 0)  -->
<svg version="1.1" id="Layer_1" xmlns="http://www.w3.org/2000/svg" xmlns:xlink="http://www.w3.org/1999/xlink" x="0px" y="0px"
	 viewBox="0 0 512 512" style="enable-background:new 0 0 512 512;" xml:space="preserve">
<style type="text/css">
	.st0{fill:#0074D9;}
</style>
<path class="st0" d="M145.3,0h221.8c21.1,1.7,36.4,17.3,36.4,38.5c0,145.1,0,290.3,0,435.4c0,21.6-16,36.2-36.8,38.1H145.2
	c-17.1-1.3-30.8-11.4-35.2-27.8c-1-3.6-1.5-9.5-1.5-17.7c0-142.1,0-284.3,0-426.4C108.5,17.3,122.8,2,145.3,0z M388.5,36.8
	c-0.8-12.8-10.4-21.8-23.7-21.8c-71,0-142-0.1-213.1-0.1c-5.6,0-9.9,0.5-12.7,1.4c-19.3,6.4-15.3,26.8-15.5,43.1
	c0,0.3,0.2,0.5,0.5,0.5h263.8c0.4,0,0.6-0.2,0.6-0.6C388.7,48.2,388.7,40.7,388.5,36.8z M148.6,407.6c6.3,2.4,6.3,11.5,0,13.8
	c-1.2,0.4-3.2,0.6-6.2,0.6c-6.2,0-12.3,0-18.3,0c-0.3,0-0.5,0.2-0.5,0.5c0,15.4,0,30.8,0,46.2c0,12.5,2.7,22.7,15.4,26.9
	c2.8,0.9,7.1,1.4,12.9,1.4c69.5,0,139,0,208.4,0c12.4,0,22.6-2.7,26.8-15.2c1-3,1.5-7.9,1.5-14.9c0-14.8,0-29.6,0-44.4
	c0-0.3-0.2-0.5-0.5-0.5c-69.4,0-138.9,0-208.3,0c-3,0-5.1-0.2-6.3-0.6c-7.9-2.9-5.3-14.4,3.1-14.4c70.6,0,141.1,0,211.5,0
	c0.3,0,0.5-0.2,0.5-0.5c0,0,0,0,0,0v-331c0-0.3-0.2-0.5-0.5-0.5H124c-0.3,0-0.5,0.2-0.5,0.5v330.8c0,0.4,0.2,0.7,0.7,0.7
	c6.8,0.1,13.5,0.1,20.1,0.1C146.2,407.1,147.6,407.2,148.6,407.6z"/>
<path class="st0" d="M255.8,30H286c4,0,7.2,3.2,7.2,7.2v0.5c0,4-3.2,7.2-7.2,7.2h-30.2c-4,0-7.2-3.2-7.2-7.2v-0.5
	C248.6,33.3,251.9,30,255.8,30z"/>
<circle class="st0" cx="226" cy="37.5" r="7.3"/>
<path class="st0" d="M278.4,459.5c0,12.4-10,22.4-22.4,22.4c-12.4,0-22.4-10-22.4-22.4s10-22.4,22.4-22.4
	C268.4,437.1,278.4,447.1,278.4,459.5z M263.4,459.5c0-4.1-3.3-7.4-7.3-7.4s-7.4,3.3-7.4,7.4l0,0c0,4.1,3.3,7.4,7.4,7.4l0,0
	C260.1,466.9,263.4,463.6,263.4,459.5z"/>
</svg>
