<svg id="Layer_1" data-name="Layer 1" xmlns="http://www.w3.org/2000/svg" viewBox="0 0 200 200"><defs><style xmlns="http://www.w3.org/2000/svg">.cls-1{fill:none;}.cls-2{fill:#009b72;}.cls-3{fill:#bbbdbf;}.cls-4{fill:#221f1f;opacity:0.3;}.cls-5{fill:#e6e6e7;}.cls-6{fill:#744c29;}.cls-7{fill:#d0d2d3;}.cls-8{fill:#f7f7f7;}.cls-9{fill:#009b72;}.cls-10{fill:#fff;}.cls-11{fill:#009b72;}.cls-12{fill:#fff;}</style></defs><title>2</title><rect class="cls-1" width="200" height="200"/><path class="cls-2" d="M79.31,128.54c-28.65,2.29-52.84,4.22-61.1-15.61s16.06-18,16.06-31.23S11.75,42.84,27.06,20.92C44.18-3.59,132.94,15.8,163.64,54.19c35.9,44.9,7.41,88.27-14.22,93.28C125.3,153.05,108.74,126.19,79.31,128.54Z"/><path class="cls-3" d="M86.63,107.8,71.87,88.72s.34-3.46,9.87-3.12,23.33-2.26,32.26-2.46a111.68,111.68,0,0,1,20.55,1.71l-15.43,23Z"/><path class="cls-4" d="M146,184.57c0,3-21.47,5.37-45.14,5.37s-40.58-2.4-40.58-5.37,16.91-5.37,40.58-5.37S146,181.6,146,184.57Z"/><path class="cls-5" d="M86.63,107.8,71.87,88.72s.34-5.9,9.87-5.57,19.69,4.46,28.61,4.88a75.35,75.35,0,0,0,24.2-3.18l-15.43,23Z"/><path class="cls-5" d="M137.89,142.86c-4.75-11.72-12-24-18.77-35.06H86.63A359.58,359.58,0,0,0,68,142.86c-11.21,24.68-4.82,32.82,8.33,38.65,9.76,4.33,43.45,4.33,53.2,0C142.71,175.68,146,163,137.89,142.86Z"/><path class="cls-2" d="M108.81,140.25c-.2-2.35-2.35-3.53-6.48-3.54s-6.21,1.08-6.22,3.3a3.07,3.07,0,0,0,2,3,41.78,41.78,0,0,0,8,2.11q6,1.18,8.86,3.93a9.37,9.37,0,0,1,2.81,7.11,8.73,8.73,0,0,1-4.57,7.86,19.41,19.41,0,0,1-10.4,2.75q-14.16-.06-16.1-11l7.82-.61q.84,5.73,8.35,5.75,7,0,7-4.77a3.44,3.44,0,0,0-1.7-3.16q-1.7-1-8-2.3c-4.2-.85-7.23-2.11-9.09-3.81a8.25,8.25,0,0,1-2.77-6.34A8.45,8.45,0,0,1,92,133.67q3.6-2.8,10.47-2.78,13.59,0,14.22,9.1Z"/><rect class="cls-2" x="99.43" y="124.51" width="6.8" height="7.44" transform="translate(-25.79 230.57) rotate(-89.78)"/><rect class="cls-2" x="99.29" y="165.1" width="6.8" height="7.44" transform="translate(-66.52 270.88) rotate(-89.78)"/><path class="cls-6" d="M122.13,108.5a1.34,1.34,0,0,1-1.45,1.18H84.61a1.34,1.34,0,0,1-1.45-1.18v-1a1.34,1.34,0,0,1,1.45-1.18h36.07a1.34,1.34,0,0,1,1.45,1.18Z"/><path class="cls-7" d="M112.11,179.53c6,4.34,16.72.65,20.69-2.18,5.52-3.93,8-11.77,7.41-17.38a46.23,46.23,0,0,0-3.76-14.63c-.8-1.85,2.73,5.66-1.56,15.79-3.21,7.56-12.49,9.49-18.64,10.19C112,171.81,106.14,175.2,112.11,179.53Z"/><path class="cls-7" d="M108.46,105.35s11.36-4.15,17-10c6.33-6.55-6.24,10-6.24,10Z"/><path class="cls-8" d="M76.22,90.11s.22.17.57.48.83.76,1.39,1.33a47.21,47.21,0,0,1,3.76,4.4,48.31,48.31,0,0,1,3.21,4.81c.39.69.7,1.29.9,1.71s.31.67.31.67a6.49,6.49,0,0,1-.56-.48c-.36-.31-.84-.76-1.4-1.33a42.73,42.73,0,0,1-3.75-4.4,46.86,46.86,0,0,1-3.22-4.81c-.39-.69-.7-1.28-.9-1.71S76.22,90.11,76.22,90.11Z"/><path class="cls-8" d="M87.58,112.07s-.19.56-.54,1.51-.87,2.31-1.54,3.91c-1.32,3.21-3.26,7.41-5.33,11.53s-4.3,8.18-6.1,11.15c-.89,1.49-1.67,2.71-2.22,3.56s-.9,1.33-.9,1.33.18-.56.54-1.51.87-2.31,1.54-3.91c1.32-3.22,3.25-7.41,5.33-11.54s4.3-8.17,6.1-11.14c.89-1.49,1.67-2.71,2.22-3.56S87.58,112.07,87.58,112.07Z"/><path class="cls-9" d="M86,173.73a15.58,15.58,0,1,1-10.51-19.45A15.57,15.57,0,0,1,86,173.73Z"/><path class="cls-10" d="M83.28,172.93A12.77,12.77,0,1,1,74.67,157,12.76,12.76,0,0,1,83.28,172.93Z"/><path class="cls-11" d="M74.7,166.7c.2-1-.53-1.73-2.21-2.23s-2.67-.31-2.94.59a1.31,1.31,0,0,0,.46,1.45,16.83,16.83,0,0,0,3,1.84A7.38,7.38,0,0,1,76.18,171a4,4,0,0,1,.29,3.24,3.69,3.69,0,0,1-2.81,2.65,8.24,8.24,0,0,1-4.58-.14q-5.76-1.74-5.25-6.42l3.26.7c-.22,1.62.68,2.74,2.72,3.36s3.06.21,3.45-1.09a1.48,1.48,0,0,0-.31-1.5,13.06,13.06,0,0,0-3-1.91,8.16,8.16,0,0,1-3.25-2.66,3.49,3.49,0,0,1-.37-2.92,3.58,3.58,0,0,1,2.3-2.36,7.06,7.06,0,0,1,4.61.14q5.53,1.66,4.71,5.44Z"/><polygon class="cls-11" points="74.81 162.91 71.78 162 72.61 159.23 75.64 160.14 74.81 162.91"/><polygon class="cls-11" points="69.88 179.46 66.84 178.55 67.67 175.77 70.7 176.69 69.88 179.46"/><path class="cls-12" d="M59,165.94a7.29,7.29,0,0,1,.94-3.51,7.15,7.15,0,0,1,3.49-1,6.67,6.67,0,0,1-3.49-.95A6.61,6.61,0,0,1,59,157a6.49,6.49,0,0,1-1,3.56,6.09,6.09,0,0,1-3.43.89,6.76,6.76,0,0,1,3.49,1A6.78,6.78,0,0,1,59,165.94Z"/><path class="cls-12" d="M62,166.62a2.59,2.59,0,0,1,.34-1.24,2.59,2.59,0,0,1,1.24-.34,2.38,2.38,0,0,1-1.24-.34,2.39,2.39,0,0,1-.34-1.25,2.31,2.31,0,0,1-.35,1.27,2.16,2.16,0,0,1-1.22.32,2.35,2.35,0,0,1,1.24.34A2.45,2.45,0,0,1,62,166.62Z"/><path class="cls-12" d="M56.19,170a3.55,3.55,0,0,1,.47-1.73,3.47,3.47,0,0,1,1.72-.47,3.3,3.3,0,0,1-1.72-.47,3.27,3.27,0,0,1-.47-1.73,3.15,3.15,0,0,1-.5,1.76,3,3,0,0,1-1.69.44,3.27,3.27,0,0,1,1.72.47A3.34,3.34,0,0,1,56.19,170Z"/></svg>