<?xml version="1.0" encoding="utf-8"?>
<!-- Generator: Adobe Illustrator 24.0.1, SVG Export Plug-In . SVG Version: 6.00 Build 0)  -->
<svg version="1.1" id="Layer_1" xmlns="http://www.w3.org/2000/svg" xmlns:xlink="http://www.w3.org/1999/xlink" x="0px" y="0px"
	 viewBox="0 0 75 75" style="enable-background:new 0 0 75 75;" xml:space="preserve">
<style type="text/css">
	.st0{fill:#FFFFFF;}
	.st1{display:none;}
	.st2{display:inline;}
	.st3{fill:none;stroke:#84A565;stroke-width:0.2664;stroke-miterlimit:10;}
	.st4{fill:none;stroke:#EAF4E5;stroke-width:0.1481;stroke-miterlimit:10;}
	.st5{fill:none;stroke:#D4E9D1;stroke-width:0.2074;stroke-miterlimit:10;}
	.st6{fill:none;stroke:#EE3C24;stroke-width:0.4444;stroke-miterlimit:10;}
	.st7{fill:none;stroke:#84A565;stroke-width:0.2667;stroke-miterlimit:10;}
	.st8{fill:none;stroke:#C486A6;stroke-width:0.2667;stroke-miterlimit:10;}
	.st9{fill:none;stroke:#EE3A24;stroke-width:0.4444;stroke-miterlimit:10;}
	.st10{fill:none;stroke:#373A3B;stroke-width:1.778;stroke-linecap:round;stroke-linejoin:round;stroke-miterlimit:10;}
	.st11{fill:none;stroke:#009B72;stroke-width:1.778;stroke-linecap:round;stroke-linejoin:round;stroke-miterlimit:10;}
	.st12{fill:none;stroke:#373A3B;stroke-width:1.778;stroke-linejoin:round;stroke-miterlimit:10;}
	.st13{fill:none;stroke:#373A3B;stroke-width:1.7;stroke-linecap:round;stroke-linejoin:round;stroke-miterlimit:10;}
	.st14{fill:none;stroke:#009B72;stroke-width:1.7;stroke-linecap:round;stroke-linejoin:round;stroke-miterlimit:10;}
	.st15{fill:none;stroke:#009B72;stroke-linecap:round;stroke-linejoin:round;stroke-miterlimit:10;}
	.st16{fill:#444648;}
	.st17{fill:none;stroke:#000000;stroke-miterlimit:10;}
	.st18{fill:none;stroke:#009B72;stroke-width:1.7;stroke-miterlimit:10;}
	.st19{fill:none;stroke:#464646;stroke-width:1.7;stroke-miterlimit:10;}
	.st20{fill:none;stroke:#393939;stroke-width:1.7;stroke-miterlimit:10;}
	.st21{fill:none;stroke:#009B72;stroke-width:0.75;stroke-linecap:round;stroke-linejoin:round;stroke-miterlimit:10;}
	.st22{fill:none;stroke:#393939;stroke-width:0.75;stroke-miterlimit:10;}
	.st23{fill:#373A3B;}
	.st24{fill:#009B72;}
	.st25{fill:none;stroke:#009B72;stroke-width:2;stroke-miterlimit:10;}
</style>
<path class="st14" d="M41.511,21.999c-0.143-0.052-0.358-0.114-0.645-0.186c-0.287-0.072-0.609-0.137-0.967-0.195
	c-0.358-0.059-0.743-0.107-1.153-0.147c-0.41-0.039-0.811-0.059-1.202-0.059c-0.704,0-1.316,0.033-1.837,0.098
	c-0.521,0.065-0.951,0.182-1.29,0.352c-0.339,0.169-0.593,0.397-0.762,0.684c-0.169,0.287-0.254,0.651-0.254,1.094
	c0,0.391,0.088,0.694,0.264,0.909c0.176,0.215,0.433,0.381,0.772,0.498c0.339,0.117,0.749,0.202,1.231,0.254
	c0.482,0.052,1.036,0.098,1.661,0.137c0.743,0.052,1.391,0.117,1.944,0.195c0.554,0.078,1.016,0.205,1.387,0.381
	s0.651,0.42,0.84,0.733c0.189,0.313,0.283,0.736,0.283,1.27c0,0.938-0.388,1.645-1.163,2.12c-0.775,0.476-2.029,0.713-3.762,0.713
	c-1.107-0.065-1.977-0.15-2.609-0.254c-0.632-0.104-1.085-0.215-1.358-0.332 M37.779,18.794v2.501 M37.27,33.197v-2.501"/>
<path class="st13" d="M52.461,23.045c0.079-0.008,0.156-0.022,0.233-0.022c2.367-0.001,4.734-0.009,7.101,0.004
	c1.783,0.01,3.256,1.486,3.285,3.27c0.012,0.741,0.003,1.482,0.003,2.223c0,7.307,0,14.613,0,21.92c0,0.864,0.006,1.729-0.002,2.593
	c-0.016,1.854-1.492,3.331-3.349,3.333c-4.981,0.006-9.962,0.002-14.943,0.002c-0.121,0-0.243,0-0.402,0
	c0.249,1.493,0.491,2.949,0.74,4.443c0.376,0,0.743,0,1.11,0c0.422,0.001,0.844-0.001,1.266,0.004
	c0.702,0.009,1.135,0.432,1.137,1.106c0.002,0.67-0.435,1.111-1.132,1.113c-2.254,0.007-4.508,0.005-6.761,0.005
	c-4.312,0-8.624-0.002-12.936-0.003c-0.134,0-0.268,0.004-0.401-0.004c-0.624-0.04-1.029-0.491-1.02-1.13
	c0.009-0.622,0.414-1.066,1.032-1.082c0.73-0.019,1.461-0.006,2.192-0.008c0.09,0,0.181-0.01,0.291-0.016
	c0.245-1.471,0.488-2.929,0.738-4.428c-0.149,0-0.27,0-0.39,0c-4.94,0-9.88,0-14.82,0c-2.053,0-3.489-1.458-3.488-3.507
	c0.005-7.049,0.002-14.098,0.002-21.146c0-1.78-0.006-3.561,0.002-5.341c0.008-1.86,1.478-3.34,3.333-3.347
	c2.346-0.01,4.693-0.003,7.039-0.003c0.08,0,0.161,0.01,0.25,0.016 M32.164,60.791c3.592,0,7.136,0,10.705,0
	c-0.248-1.482-0.492-2.939-0.738-4.408c-3.084,0-6.146,0-9.229,0C32.656,57.852,32.412,59.309,32.164,60.791z"/>
<circle class="st13" cx="37.339" cy="25.995" r="11.494"/>
</svg>
