<svg xmlns="http://www.w3.org/2000/svg" xmlns:xlink="http://www.w3.org/1999/xlink" fill="#009b72" version="1.1" x="0px" y="0px" viewBox="0 0 75 75" style="fill: #009b72 !important;enable-background:new 0 0 75 75;" xml:space="preserve">
<g id="grid" style="display:none;">
	<g id="GRID_02_80_" style="display:inline;">
		<line style="fill:none;stroke:#EAF4E5;stroke-width:0.1483377;stroke-miterlimit:10;" x1="16.2582703" y1="10.6803141" x2="16.2582703" y2="64.0818863"/>
		<line style="fill:none;stroke:#EAF4E5;stroke-width:0.1483377;stroke-miterlimit:10;" x1="26.9385853" y1="10.6803141" x2="26.9385853" y2="64.0818863"/>
		<line style="fill:none;stroke:#EAF4E5;stroke-width:0.1483377;stroke-miterlimit:10;" x1="48.2992134" y1="10.6803141" x2="48.2992134" y2="64.0818863"/>
		<line style="fill:none;stroke:#EAF4E5;stroke-width:0.1483377;stroke-miterlimit:10;" x1="58.9795265" y1="10.6803141" x2="58.9795265" y2="64.0818863"/>
		<line style="fill:none;stroke:#EAF4E5;stroke-width:0.1483377;stroke-miterlimit:10;" x1="10.9181137" y1="16.0203285" x2="64.3196869" y2="16.0204716"/>
		<line style="fill:none;stroke:#EAF4E5;stroke-width:0.1483377;stroke-miterlimit:10;" x1="10.9181137" y1="26.7007866" x2="64.3196869" y2="26.7009296"/>
		<line style="fill:none;stroke:#EAF4E5;stroke-width:0.1483377;stroke-miterlimit:10;" x1="10.9181137" y1="48.0614166" x2="64.3196869" y2="48.0614166"/>
		<line style="fill:none;stroke:#EAF4E5;stroke-width:0.1483377;stroke-miterlimit:10;" x1="10.9181137" y1="58.7417297" x2="64.3196869" y2="58.7417297"/>
		<line style="fill:none;stroke:#D4E9D1;stroke-width:0.2076728;stroke-miterlimit:10;" x1="10.9181137" y1="42.7212563" x2="64.3196869" y2="42.7212563"/>
		<line style="fill:none;stroke:#D4E9D1;stroke-width:0.2076728;stroke-miterlimit:10;" x1="10.9181137" y1="32.0409431" x2="64.3196869" y2="32.0409431"/>
		<line style="fill:none;stroke:#D4E9D1;stroke-width:0.2076728;stroke-miterlimit:10;" x1="32.2787437" y1="10.6803141" x2="32.2787437" y2="64.0818863"/>
		<line style="fill:none;stroke:#C486A6;stroke-width:0.2670079;stroke-miterlimit:10;" x1="37.6189003" y1="10.6803141" x2="37.6189003" y2="64.0818863"/>
		<line style="fill:none;stroke:#D4E9D1;stroke-width:0.2076728;stroke-miterlimit:10;" x1="42.9590569" y1="10.6803141" x2="42.9590569" y2="64.0818863"/>
		<line style="fill:none;stroke:#EE3C24;stroke-width:0.4450131;stroke-miterlimit:10;" x1="10.9181137" y1="21.3606281" x2="64.3196869" y2="21.3606281"/>
		<line style="fill:none;stroke:#EE3C24;stroke-width:0.4450131;stroke-miterlimit:10;" x1="10.9181137" y1="53.4015732" x2="64.3196869" y2="53.4015732"/>
		<rect x="0.2377989" style="fill:none;stroke:#84A565;stroke-width:0.2670079;stroke-miterlimit:10;" width="74.7621994" height="74.7621994"/>
		<circle style="fill:none;stroke:#EE3C24;stroke-width:0.4450131;stroke-miterlimit:10;" cx="37.6189003" cy="37.3810997" r="22.6074352"/>
		<line style="fill:none;stroke:#C486A6;stroke-width:0.2670079;stroke-miterlimit:10;" x1="10.9181137" y1="37.3810997" x2="64.3196869" y2="37.3810997"/>
		<rect x="10.9181137" y="10.6803141" style="fill:none;stroke:#EE3A24;stroke-width:0.4450131;stroke-miterlimit:10;" width="53.4015732" height="53.4015732"/>
		<line style="fill:none;stroke:#EE3A24;stroke-width:0.4450131;stroke-miterlimit:10;" x1="21.5984287" y1="10.6803141" x2="21.5984287" y2="64.0818863"/>
		<line style="fill:none;stroke:#EE3A24;stroke-width:0.4450131;stroke-miterlimit:10;" x1="53.63937" y1="10.6803141" x2="53.63937" y2="64.0818863"/>
	</g>
</g>
<g id="Layer_2">
	<g>
		<path style="fill:none;stroke:#373A3B;stroke-width:1.778;stroke-linecap:round;stroke-linejoin:round;stroke-miterlimit:10;" d="M52.3443909,24.2282124c0,0-2.8289642-1.8602962-6.6632614-1.8599758    c-3.9192696,0.0003262-6.8598137,2.0465012-7.2433968,4.8496552c-0.3201256,2.3394184,0.8809853,4.409153,3.5439796,5.2537918    c3.9498672,1.2528076,5.8239021,1.4558372,8.5490723,3.2641907c2.0601501,1.3670654,2.5079231,3.8945427,1.8030739,5.78228    c-1.0775299,2.8858643-4.2936516,3.6922684-6.7952919,3.6994171c-1.8675957,0.0053368-5.3804855-0.5959396-8.1578102-1.8030777"/>
		<line style="fill:none;stroke:#373A3B;stroke-width:1.778;stroke-linecap:round;stroke-linejoin:round;stroke-miterlimit:10;" x1="45.0129089" y1="22.3682365" x2="45.0129089" y2="15.4171305"/>
		<line style="fill:none;stroke:#373A3B;stroke-width:1.778;stroke-linecap:round;stroke-linejoin:round;stroke-miterlimit:10;" x1="45.0129089" y1="45.2176056" x2="45.0129089" y2="52.1687126"/>
	</g>
	<g>
		<path style="fill:none;stroke: #009b72;stroke-width:1.778;stroke-linecap:round;stroke-linejoin:round;stroke-miterlimit:10;" d="M33.4477921,39.0762215c0,0-2.0522137-1.3495102-4.833725-1.3492775    c-2.8431511,0.0002365-4.9763069,1.4845886-5.2545681,3.5180779c-0.2322292,1.6970825,0.6390896,3.1985283,2.5709038,3.8112526    c2.8653488,0.9088249,4.2248268,1.0561066,6.2017422,2.367939c1.4944954,0.9917107,1.8193245,2.8252144,1.3080063,4.1946335    c-0.7816734,2.0934906-3.1147404,2.6784782-4.9295025,2.6836662c-1.3548088,0.0038719-3.903162-0.432312-5.9179115-1.3080063"/>
		<line style="fill:none;stroke:#009b72;stroke-width:1.778;stroke-linecap:round;stroke-linejoin:round;stroke-miterlimit:10;" x1="28.1293221" y1="37.726944" x2="28.1293221" y2="32.6844101"/>
		<line style="fill:none;stroke:#009b72;stroke-width:1.778;stroke-linecap:round;stroke-linejoin:round;stroke-miterlimit:10;" x1="28.1293221" y1="54.302536" x2="28.1293221" y2="59.3450699"/>
	</g>
</g>
<g id="Layer_3">
</g>
<g id="ICON_GRID">
</g>
<g id="ICON">
</g>
</svg>