<svg xmlns="http://www.w3.org/2000/svg" xmlns:xlink="http://www.w3.org/1999/xlink" viewBox="0 0 200 200"><defs><style>.cls-1{isolation:isolate;}.cls-2{fill:none;}.cls-3{fill:#e0f3ff;}.cls-4,.cls-5{fill:#047fc4;}.cls-28,.cls-47,.cls-48,.cls-5,.cls-53,.cls-54,.cls-56,.cls-58,.cls-60,.cls-61,.cls-71,.cls-72{opacity:0.5;}.cls-6{fill:url(#_ÂÁ_Ï_ÌÌ_È_ËÂÌÚ_189);}.cls-7{fill:#fe9083;}.cls-8{fill:#cb4d7a;}.cls-9{fill:#9b5ed7;}.cls-10{fill:#744ca2;}.cls-11{fill:#6dffe8;}.cls-12{fill:url(#_ÂÁ_Ï_ÌÌ_È_ËÂÌÚ_71);}.cls-13{fill:#e4688e;}.cls-14{fill:url(#_ÂÁ_Ï_ÌÌ_È_ËÂÌÚ_264);}.cls-15{fill:#fea297;}.cls-16{fill:#feb1a8;}.cls-17{fill:url(#_ÂÁ_Ï_ÌÌ_È_ËÂÌÚ_84);}.cls-18{fill:url(#_ÂÁ_Ï_ÌÌ_È_ËÂÌÚ_292);}.cls-19{fill:url(#_ÂÁ_Ï_ÌÌ_È_ËÂÌÚ_292-2);}.cls-20,.cls-22,.cls-66{opacity:0.82;}.cls-20,.cls-22,.cls-66,.cls-68{mix-blend-mode:color-dodge;}.cls-20{fill:url(#_ÂÁ_Ï_ÌÌ_È_ËÂÌÚ_284);}.cls-21{fill:url(#_ÂÁ_Ï_ÌÌ_È_ËÂÌÚ_206);}.cls-22{fill:url(#_ÂÁ_Ï_ÌÌ_È_ËÂÌÚ_284-2);}.cls-23{fill:url(#_ÂÁ_Ï_ÌÌ_È_ËÂÌÚ_71-2);}.cls-24{fill:url(#_ÂÁ_Ï_ÌÌ_È_ËÂÌÚ_292-3);}.cls-25{fill:url(#_ÂÁ_Ï_ÌÌ_È_ËÂÌÚ_84-2);}.cls-26{fill:url(#_ÂÁ_Ï_ÌÌ_È_ËÂÌÚ_354);}.cls-27{fill:url(#_ÂÁ_Ï_ÌÌ_È_ËÂÌÚ_452);}.cls-28,.cls-47,.cls-48,.cls-53,.cls-54,.cls-56,.cls-57,.cls-59,.cls-60,.cls-62,.cls-63{mix-blend-mode:multiply;}.cls-28{fill:url(#_ÂÁ_Ï_ÌÌ_È_ËÂÌÚ_166);}.cls-29{fill:#36295c;}.cls-30{fill:url(#_ÂÁ_Ï_ÌÌ_È_ËÂÌÚ_390);}.cls-31{fill:url(#_ÂÁ_Ï_ÌÌ_È_ËÂÌÚ_71-3);}.cls-32{fill:url(#_ÂÁ_Ï_ÌÌ_È_ËÂÌÚ_264-2);}.cls-33{fill:url(#_ÂÁ_Ï_ÌÌ_È_ËÂÌÚ_354-2);}.cls-34{fill:url(#_ÂÁ_Ï_ÌÌ_È_ËÂÌÚ_292-4);}.cls-35{fill:#ff9b98;}.cls-36{fill:url(#_ÂÁ_Ï_ÌÌ_È_ËÂÌÚ_387);}.cls-37{fill:#9f4a8b;}.cls-38{fill:#38368e;}.cls-39{fill:url(#_ÂÁ_Ï_ÌÌ_È_ËÂÌÚ_390-2);}.cls-40{fill:#ffebed;}.cls-41{fill:url(#_ÂÁ_Ï_ÌÌ_È_ËÂÌÚ_184);}.cls-42{fill:url(#_ÂÁ_Ï_ÌÌ_È_ËÂÌÚ_184-2);}.cls-43{fill:#7f9ec9;}.cls-44{fill:#131163;}.cls-45{fill:url(#_ÂÁ_Ï_ÌÌ_È_ËÂÌÚ_387-2);}.cls-46,.cls-65,.cls-72{fill:#fff;}.cls-47{fill:url(#_ÂÁ_Ï_ÌÌ_È_ËÂÌÚ_113);}.cls-48{fill:url(#_ÂÁ_Ï_ÌÌ_È_ËÂÌÚ_113-2);}.cls-49{fill:url(#_ÂÁ_Ï_ÌÌ_È_ËÂÌÚ_15);}.cls-50{fill:url(#_ÂÁ_Ï_ÌÌ_È_ËÂÌÚ_45);}.cls-51{fill:url(#_ÂÁ_Ï_ÌÌ_È_ËÂÌÚ_351);}.cls-52{fill:url(#_ÂÁ_Ï_ÌÌ_È_ËÂÌÚ_45-2);}.cls-53{fill:url(#_ÂÁ_Ï_ÌÌ_È_ËÂÌÚ_397);}.cls-54{fill:url(#_ÂÁ_Ï_ÌÌ_È_ËÂÌÚ_397-2);}.cls-55{fill:url(#_ÂÁ_Ï_ÌÌ_È_ËÂÌÚ_452-2);}.cls-56{fill:url(#_ÂÁ_Ï_ÌÌ_È_ËÂÌÚ_113-3);}.cls-57,.cls-59,.cls-62,.cls-63{opacity:0.3;}.cls-57{fill:url(#_ÂÁ_Ï_ÌÌ_È_ËÂÌÚ_3);}.cls-58{fill:#4723a9;}.cls-59{fill:url(#_ÂÁ_Ï_ÌÌ_È_ËÂÌÚ_3-2);}.cls-60{fill:url(#_ÂÁ_Ï_ÌÌ_È_ËÂÌÚ_113-4);}.cls-61{fill:#ce47b8;}.cls-62{fill:url(#_ÂÁ_Ï_ÌÌ_È_ËÂÌÚ_3-3);}.cls-63{fill:url(#_ÂÁ_Ï_ÌÌ_È_ËÂÌÚ_3-4);}.cls-64{fill:url(#_ÂÁ_Ï_ÌÌ_È_ËÂÌÚ_330);}.cls-65{mix-blend-mode:soft-light;}.cls-66{fill:url(#_ÂÁ_Ï_ÌÌ_È_ËÂÌÚ_126);}.cls-67{fill:url(#_ÂÁ_Ï_ÌÌ_È_ËÂÌÚ_452-3);}.cls-68{opacity:0.2;fill:url(#_ÂÁ_Ï_ÌÌ_È_ËÂÌÚ_145);}.cls-69{fill:url(#_ÂÁ_Ï_ÌÌ_È_ËÂÌÚ_141);}.cls-70{fill:url(#_ÂÁ_Ï_ÌÌ_È_ËÂÌÚ_141-2);}.cls-71{fill:#5990ff;}.cls-73{fill:#34c7ff;}</style><linearGradient id="_ÂÁ_Ï_ÌÌ_È_ËÂÌÚ_189" x1="95.6" y1="109.86" x2="95.6" y2="102.53" gradientUnits="userSpaceOnUse"><stop offset="0" stop-color="#836ceb"/><stop offset="1" stop-color="#c3a4eb"/></linearGradient><linearGradient id="_ÂÁ_Ï_ÌÌ_È_ËÂÌÚ_71" x1="91.09" y1="91.43" x2="111.28" y2="91.43" gradientUnits="userSpaceOnUse"><stop offset="0.02" stop-color="#ffc2a9"/><stop offset="1" stop-color="#ff9595"/></linearGradient><linearGradient id="_ÂÁ_Ï_ÌÌ_È_ËÂÌÚ_264" x1="84.07" y1="142.97" x2="84.07" y2="102.53" gradientUnits="userSpaceOnUse"><stop offset="0" stop-color="#b9acf4"/><stop offset="1" stop-color="#e1d1f5"/></linearGradient><linearGradient id="_ÂÁ_Ï_ÌÌ_È_ËÂÌÚ_84" x1="79.12" y1="58.23" x2="79.12" y2="47.81" gradientUnits="userSpaceOnUse"><stop offset="0" stop-color="#0e1b6d"/><stop offset="1" stop-color="#0e4095"/></linearGradient><linearGradient id="_ÂÁ_Ï_ÌÌ_È_ËÂÌÚ_292" x1="173.52" y1="67.1" x2="173.52" y2="56.74" gradientTransform="translate(10.59 9.68) rotate(7.16)" gradientUnits="userSpaceOnUse"><stop offset="0" stop-color="#2e33a0"/><stop offset="1" stop-color="#0665a5"/></linearGradient><linearGradient id="_ÂÁ_Ï_ÌÌ_È_ËÂÌÚ_292-2" x1="180.58" y1="86.13" x2="180.58" y2="78.92" gradientTransform="matrix(1, -0.06, 0.06, 1, 1.61, 20.12)" xlink:href="#_ÂÁ_Ï_ÌÌ_È_ËÂÌÚ_292"/><linearGradient id="_ÂÁ_Ï_ÌÌ_È_ËÂÌÚ_284" x1="204.68" y1="301.57" x2="204.68" y2="284.74" gradientTransform="matrix(0.87, -0.5, 0.5, 0.87, -148.67, -60.14)" gradientUnits="userSpaceOnUse"><stop offset="0" stop-color="#313131"/><stop offset="1" stop-color="#365e8b"/></linearGradient><linearGradient id="_ÂÁ_Ï_ÌÌ_È_ËÂÌÚ_206" x1="183.59" y1="67.1" x2="183.59" y2="48.72" gradientTransform="translate(10.59 9.68) rotate(7.16)" gradientUnits="userSpaceOnUse"><stop offset="0" stop-color="#1852a0"/><stop offset="1" stop-color="#067ed3"/></linearGradient><linearGradient id="_ÂÁ_Ï_ÌÌ_È_ËÂÌÚ_284-2" x1="215.76" y1="302.73" x2="215.76" y2="289.64" xlink:href="#_ÂÁ_Ï_ÌÌ_È_ËÂÌÚ_284"/><linearGradient id="_ÂÁ_Ï_ÌÌ_È_ËÂÌÚ_71-2" x1="66.2" y1="92.17" x2="66.2" y2="48.55" xlink:href="#_ÂÁ_Ï_ÌÌ_È_ËÂÌÚ_71"/><linearGradient id="_ÂÁ_Ï_ÌÌ_È_ËÂÌÚ_292-3" x1="63.82" y1="72.14" x2="63.82" y2="40.32" gradientTransform="matrix(1, 0, 0, 1, 0, 0)" xlink:href="#_ÂÁ_Ï_ÌÌ_È_ËÂÌÚ_292"/><linearGradient id="_ÂÁ_Ï_ÌÌ_È_ËÂÌÚ_84-2" x1="65.71" y1="54.26" x2="65.71" y2="46.36" xlink:href="#_ÂÁ_Ï_ÌÌ_È_ËÂÌÚ_84"/><linearGradient id="_ÂÁ_Ï_ÌÌ_È_ËÂÌÚ_354" x1="43.05" y1="97" x2="62.66" y2="97" gradientUnits="userSpaceOnUse"><stop offset="0" stop-color="#d5cdf8"/><stop offset="1" stop-color="#f3edfb"/></linearGradient><linearGradient id="_ÂÁ_Ï_ÌÌ_È_ËÂÌÚ_452" x1="59.86" y1="87.87" x2="59.86" y2="66.88" gradientUnits="userSpaceOnUse"><stop offset="0" stop-color="#ff7c7c"/><stop offset="0.98" stop-color="#ff9e8b"/></linearGradient><linearGradient id="_ÂÁ_Ï_ÌÌ_È_ËÂÌÚ_166" x1="56.32" y1="149.37" x2="56.32" y2="103.99" gradientUnits="userSpaceOnUse"><stop offset="0" stop-color="#755cbb"/><stop offset="1" stop-color="#ccedff"/></linearGradient><linearGradient id="_ÂÁ_Ï_ÌÌ_È_ËÂÌÚ_390" x1="66.2" y1="70.68" x2="66.2" y2="57.78" gradientUnits="userSpaceOnUse"><stop offset="0.02" stop-color="#ff9e8b"/><stop offset="1" stop-color="#ff7c7c"/></linearGradient><linearGradient id="_ÂÁ_Ï_ÌÌ_È_ËÂÌÚ_71-3" x1="125.74" y1="153.36" x2="164.62" y2="153.36" xlink:href="#_ÂÁ_Ï_ÌÌ_È_ËÂÌÚ_71"/><linearGradient id="_ÂÁ_Ï_ÌÌ_È_ËÂÌÚ_264-2" x1="90.58" y1="158.67" x2="90.58" y2="104.96" xlink:href="#_ÂÁ_Ï_ÌÌ_È_ËÂÌÚ_264"/><linearGradient id="_ÂÁ_Ï_ÌÌ_È_ËÂÌÚ_354-2" x1="56.22" y1="133.87" x2="132.83" y2="133.87" xlink:href="#_ÂÁ_Ï_ÌÌ_È_ËÂÌÚ_354"/><linearGradient id="_ÂÁ_Ï_ÌÌ_È_ËÂÌÚ_292-4" x1="66.61" y1="92.63" x2="66.61" y2="70.35" gradientTransform="matrix(1, 0, 0, 1, 0, 0)" xlink:href="#_ÂÁ_Ï_ÌÌ_È_ËÂÌÚ_292"/><linearGradient id="_ÂÁ_Ï_ÌÌ_È_ËÂÌÚ_387" x1="-286.46" y1="50.35" x2="-286.46" y2="47.8" gradientTransform="matrix(-0.98, -0.19, -0.19, 0.98, -198.19, -26.21)" gradientUnits="userSpaceOnUse"><stop offset="0" stop-color="#e1616a"/><stop offset="1" stop-color="#ff8883"/></linearGradient><linearGradient id="_ÂÁ_Ï_ÌÌ_È_ËÂÌÚ_390-2" x1="76.48" y1="70.74" x2="76.48" y2="60.25" xlink:href="#_ÂÁ_Ï_ÌÌ_È_ËÂÌÚ_390"/><linearGradient id="_ÂÁ_Ï_ÌÌ_È_ËÂÌÚ_184" x1="65.9" y1="68.12" x2="65.9" y2="63.89" gradientUnits="userSpaceOnUse"><stop offset="0" stop-color="#cf6074"/><stop offset="1" stop-color="#ff817f"/></linearGradient><linearGradient id="_ÂÁ_Ï_ÌÌ_È_ËÂÌÚ_184-2" x1="75.97" y1="68.59" x2="75.97" y2="63.89" xlink:href="#_ÂÁ_Ï_ÌÌ_È_ËÂÌÚ_184"/><linearGradient id="_ÂÁ_Ï_ÌÌ_È_ËÂÌÚ_387-2" x1="71.48" y1="81.99" x2="71.95" y2="79.52" gradientTransform="matrix(1, 0, 0, 1, 0, 0)" xlink:href="#_ÂÁ_Ï_ÌÌ_È_ËÂÌÚ_387"/><linearGradient id="_ÂÁ_Ï_ÌÌ_È_ËÂÌÚ_113" x1="75.1" y1="57.61" x2="75.1" y2="43.65" gradientUnits="userSpaceOnUse"><stop offset="0" stop-color="#ccedff"/><stop offset="1" stop-color="#9d68c2"/></linearGradient><linearGradient id="_ÂÁ_Ï_ÌÌ_È_ËÂÌÚ_113-2" x1="54.19" y1="71.17" x2="54.19" y2="47.75" xlink:href="#_ÂÁ_Ï_ÌÌ_È_ËÂÌÚ_113"/><linearGradient id="_ÂÁ_Ï_ÌÌ_È_ËÂÌÚ_15" x1="681.67" y1="128.88" x2="681.67" y2="116.81" gradientTransform="matrix(1.21, -0.02, 0.02, 1.09, -778.6, -48.27)" gradientUnits="userSpaceOnUse"><stop offset="0.02" stop-color="#ffac8b"/><stop offset="1" stop-color="#ff9595"/></linearGradient><linearGradient id="_ÂÁ_Ï_ÌÌ_È_ËÂÌÚ_45" x1="684.07" y1="125.62" x2="679.48" y2="120" gradientTransform="matrix(1.21, -0.02, 0.02, 1.09, -778.6, -48.27)" gradientUnits="userSpaceOnUse"><stop offset="0" stop-color="#ff817f"/><stop offset="1" stop-color="#cf6074"/></linearGradient><linearGradient id="_ÂÁ_Ï_ÌÌ_È_ËÂÌÚ_351" x1="681.76" y1="122.03" x2="681.76" y2="116.36" gradientTransform="matrix(1.21, -0.02, 0.02, 1.09, -778.6, -48.27)" gradientUnits="userSpaceOnUse"><stop offset="0" stop-color="#ffa795"/><stop offset="0.98" stop-color="#ffc2a9"/></linearGradient><linearGradient id="_ÂÁ_Ï_ÌÌ_È_ËÂÌÚ_45-2" x1="50.05" y1="73.24" x2="47.7" y2="70.36" gradientTransform="matrix(1, 0, 0, 1, 0, 0)" xlink:href="#_ÂÁ_Ï_ÌÌ_È_ËÂÌÚ_45"/><linearGradient id="_ÂÁ_Ï_ÌÌ_È_ËÂÌÚ_397" x1="63.44" y1="92.63" x2="63.44" y2="70.35" gradientUnits="userSpaceOnUse"><stop offset="0" stop-color="#776d7e"/><stop offset="1" stop-color="#9d68c2"/></linearGradient><linearGradient id="_ÂÁ_Ï_ÌÌ_È_ËÂÌÚ_397-2" x1="73.34" y1="80.6" x2="73.34" y2="77.82" xlink:href="#_ÂÁ_Ï_ÌÌ_È_ËÂÌÚ_397"/><linearGradient id="_ÂÁ_Ï_ÌÌ_È_ËÂÌÚ_452-2" x1="97.81" y1="107.44" x2="97.81" y2="100.02" xlink:href="#_ÂÁ_Ï_ÌÌ_È_ËÂÌÚ_452"/><linearGradient id="_ÂÁ_Ï_ÌÌ_È_ËÂÌÚ_113-3" x1="93.51" y1="114.28" x2="93.51" y2="105.47" xlink:href="#_ÂÁ_Ï_ÌÌ_È_ËÂÌÚ_113"/><linearGradient id="_ÂÁ_Ï_ÌÌ_È_ËÂÌÚ_3" x1="84.8" y1="137.01" x2="84.8" y2="111.43" gradientUnits="userSpaceOnUse"><stop offset="0" stop-color="#9d68c2"/><stop offset="1" stop-color="#ccedff"/></linearGradient><linearGradient id="_ÂÁ_Ï_ÌÌ_È_ËÂÌÚ_3-2" x1="90.58" y1="158.67" x2="90.58" y2="104.96" xlink:href="#_ÂÁ_Ï_ÌÌ_È_ËÂÌÚ_3"/><linearGradient id="_ÂÁ_Ï_ÌÌ_È_ËÂÌÚ_113-4" x1="125.03" y1="158.34" x2="125.03" y2="151.09" xlink:href="#_ÂÁ_Ï_ÌÌ_È_ËÂÌÚ_113"/><linearGradient id="_ÂÁ_Ï_ÌÌ_È_ËÂÌÚ_3-3" x1="48.82" y1="165.41" x2="76.19" y2="165.41" gradientTransform="matrix(0.98, -0.22, 0.22, 0.98, -30.12, -13.28)" xlink:href="#_ÂÁ_Ï_ÌÌ_È_ËÂÌÚ_3"/><linearGradient id="_ÂÁ_Ï_ÌÌ_È_ËÂÌÚ_3-4" x1="52.99" y1="103.13" x2="52.99" y2="92.55" xlink:href="#_ÂÁ_Ï_ÌÌ_È_ËÂÌÚ_3"/><linearGradient id="_ÂÁ_Ï_ÌÌ_È_ËÂÌÚ_330" x1="122.41" y1="130.94" x2="153.19" y2="130.94" gradientUnits="userSpaceOnUse"><stop offset="0" stop-color="#ff51aa"/><stop offset="1" stop-color="#fe117e"/></linearGradient><linearGradient id="_ÂÁ_Ï_ÌÌ_È_ËÂÌÚ_126" x1="102.38" y1="118.65" x2="189.78" y2="118.65" gradientUnits="userSpaceOnUse"><stop offset="0"/><stop offset="1" stop-color="#6a9bff"/></linearGradient><linearGradient id="_ÂÁ_Ï_ÌÌ_È_ËÂÌÚ_452-3" x1="130.75" y1="157.83" x2="130.75" y2="152.01" xlink:href="#_ÂÁ_Ï_ÌÌ_È_ËÂÌÚ_452"/><linearGradient id="_ÂÁ_Ï_ÌÌ_È_ËÂÌÚ_145" x1="173.21" y1="124.52" x2="184.78" y2="124.52" gradientUnits="userSpaceOnUse"><stop offset="0" stop-color="#e5afae"/><stop offset="1" stop-color="#673e3e"/></linearGradient><linearGradient id="_ÂÁ_Ï_ÌÌ_È_ËÂÌÚ_141" x1="66.86" y1="56.82" x2="66.86" y2="43.93" gradientUnits="userSpaceOnUse"><stop offset="0" stop-color="#1f77d1"/><stop offset="1" stop-color="#0686c9"/></linearGradient><linearGradient id="_ÂÁ_Ï_ÌÌ_È_ËÂÌÚ_141-2" x1="67.56" y1="54.85" x2="67.56" y2="42.02" xlink:href="#_ÂÁ_Ï_ÌÌ_È_ËÂÌÚ_141"/></defs><title>Untitled-1</title><g class="cls-1"><g id="Layer_1" data-name="Layer 1"><rect class="cls-2" width="200" height="200"/><path class="cls-3" d="M79.31,128.54c-28.65,2.29-52.84,4.22-61.1-15.61s16.06-18,16.06-31.23S11.75,42.84,27.06,20.92C44.18-3.59,132.94,15.8,163.64,54.19c35.9,44.9,7.41,88.27-14.22,93.28C125.3,153.05,108.74,126.19,79.31,128.54Z"/><path class="cls-4" d="M174,87.27a11.28,11.28,0,0,0-.56-5.09,2,2,0,0,0-.39-.73,1.61,1.61,0,0,0-1.5-.34,3.32,3.32,0,0,0-2.46,2.77,4.12,4.12,0,0,0,1.39,3.52,2.77,2.77,0,0,0,2,.79,1.54,1.54,0,0,0,1.47-1.33.35.35,0,0,0-.54.18Z"/><path class="cls-4" d="M170.55,83.26a2.1,2.1,0,0,0,.52-2,2.2,2.2,0,0,0-2,.37,1.32,1.32,0,0,0-.15,1.87c.51.48,1.57.14,1.57-.56Z"/><path class="cls-4" d="M170,77a1,1,0,0,0,.75-.57,1.1,1.1,0,0,0-.4-.17.37.37,0,0,0-.38.16c-.1.17,0,.39.12.55l-.16,0Z"/><path class="cls-4" d="M170.37,78.21a.48.48,0,0,1,0,.29.82.82,0,0,1-.3-.67c0-.14,0-.32.13-.38a1,1,0,0,1,.3,0c.2,0,.41-.2.56-.07a.23.23,0,0,1,0,.3.7.7,0,0,1-.26.22l-.62.38Z"/><path class="cls-5" d="M167.16,61.94c.12-.17-.15-.39-.34-.32a.73.73,0,0,0-.36.49.73.73,0,0,0,.8-.09Z"/><path class="cls-4" d="M159.84,62.51a.18.18,0,0,1-.26,0,.33.33,0,0,1-.09-.27.32.32,0,0,1,0-.16.24.24,0,0,1,.34-.06.26.26,0,0,1,0,.35.28.28,0,0,1-.35.07Z"/><path class="cls-4" d="M167.36,75.4a.29.29,0,0,0,.49,0,.47.47,0,0,0-.22-.22.25.25,0,0,0-.29.08.16.16,0,0,0,.1.24Z"/><path class="cls-4" d="M170,79.16a.8.8,0,0,0,.68-.22l-.46-.4a.58.58,0,0,0-.24-.14.32.32,0,0,0-.35.34.46.46,0,0,0,.35.39Z"/><path class="cls-5" d="M161.8,64.54l-.15-.14a.25.25,0,0,0-.16.26.21.21,0,0,0,.25.17.18.18,0,0,0,.08-.28Z"/><path class="cls-4" d="M168.44,76.43c-.14,0-.15.23-.07.33s.21.17.3.27a.48.48,0,0,1,.13.38.23.23,0,0,1-.12.19.43.43,0,0,1-.16,0,1.51,1.51,0,0,1-.72-.31.69.69,0,0,1-.22-.72.53.53,0,0,1,.9-.13Z"/><path class="cls-4" d="M172,76.61a.32.32,0,0,0,.32-.32.45.45,0,0,0-.25-.4.16.16,0,0,0-.2,0,.19.19,0,0,0,0,.15l.1.61Z"/><path class="cls-4" d="M169.7,69.1a.54.54,0,0,1-.74-.44,1.28,1.28,0,0,1,.77-.08.47.47,0,0,1,.34.6l-.42.18Z"/><path class="cls-4" d="M173.92,95.18a.13.13,0,0,1-.09.18.36.36,0,0,1-.23,0,.53.53,0,0,1-.15-.11.27.27,0,0,1,0-.34.35.35,0,0,1,.34-.1.2.2,0,0,1,.15.1.12.12,0,0,1,0,.16Z"/><path class="cls-4" d="M168.12,73.67l.15-.15a.46.46,0,0,0-.26-.2c-.11,0-.24.1-.18.2a.23.23,0,0,0,.09.08l.35.19Z"/><path class="cls-4" d="M166.72,70.12a1.26,1.26,0,0,0,.2-.48.44.44,0,0,0-.2-.45.37.37,0,0,0-.25,0,.5.5,0,0,0-.37.6.51.51,0,0,0,.62.34Z"/><path class="cls-4" d="M167.61,68.5l0-.36a.5.5,0,0,0-.27,0,.33.33,0,0,0,.22.41Z"/><path class="cls-4" d="M177.4,74.25a4.48,4.48,0,0,0-1.05-1.75.76.76,0,0,0-.27-.2.63.63,0,0,0-.6.13,1.33,1.33,0,0,0-.43,1.42,1.64,1.64,0,0,0,1.1,1,1.07,1.07,0,0,0,.84,0,.62.62,0,0,0,.31-.73.13.13,0,0,0-.16.16Z"/><path class="cls-4" d="M165.45,82a1.08,1.08,0,0,0,.26-.91,1.23,1.23,0,0,0-.42.1.37.37,0,0,0-.21.36c0,.2.24.3.43.37l-.15.07Z"/><path class="cls-4" d="M164.16,80a.51.51,0,0,0,0-.27.58.58,0,0,0-.19-.19,3.51,3.51,0,0,1-.56-.46l.12,1.21a.34.34,0,0,1,0,.1c0,.1-.18.11-.27.18a.37.37,0,0,0,0,.45C163.81,82.08,164,80.5,164.16,80Z"/><path class="cls-4" d="M166.79,83.74a.83.83,0,0,0,.42-.58l-.61,0a.44.44,0,0,0-.28,0,.32.32,0,0,0-.08.48.46.46,0,0,0,.51.1Z"/><path class="cls-4" d="M169.91,95.45l-.15-.15a.25.25,0,0,0-.16.27.21.21,0,0,0,.25.16.18.18,0,0,0,.08-.27Z"/><path class="cls-4" d="M166.83,80.52a.32.32,0,0,0,.07-.44.43.43,0,0,0-.44-.17c-.07,0-.16,0-.16.12a.2.2,0,0,0,.08.13l.44.42Z"/><path class="cls-4" d="M169.7,80.91a1.26,1.26,0,0,0,.2-.48.42.42,0,0,0-.2-.45.36.36,0,0,0-.25,0,.5.5,0,0,0-.37.6.51.51,0,0,0,.62.34Z"/><path class="cls-4" d="M171.22,72.17c-.11-.15-.33-.12-.5-.07s-.37.1-.51,0a.2.2,0,0,1-.06-.13c0-.12.19-.13.31-.17a1.07,1.07,0,0,0,.25-.16.6.6,0,0,1,.67,0,.34.34,0,0,1,0,.36.33.33,0,0,1-.35.1Z"/><path class="cls-4" d="M167.79,69.41c-.11-.15-.33-.13-.5-.08a.57.57,0,0,1-.51,0,.18.18,0,0,1-.06-.13c0-.13.19-.13.31-.17a1.38,1.38,0,0,0,.25-.17.61.61,0,0,1,.67,0,.36.36,0,0,1,0,.36.35.35,0,0,1-.35.09Z"/><path class="cls-4" d="M167.66,66.12a1.07,1.07,0,0,0-.06-.43.21.21,0,0,0,0-.06.14.14,0,0,0-.13,0,.31.31,0,0,0-.2.24.36.36,0,0,0,.13.29.22.22,0,0,0,.17.06.12.12,0,0,0,.12-.11s0,0-.05,0Z"/><path class="cls-4" d="M170.76,86.85a1.08,1.08,0,0,0,.26-.91,1,1,0,0,0-.42.1.39.39,0,0,0-.22.35c0,.2.25.31.44.38l-.15.07Z"/><path class="cls-4" d="M167.7,87.18a.29.29,0,0,0,.38-.32.48.48,0,0,0-.31,0,.23.23,0,0,0-.19.23c0,.1.14.19.23.13Z"/><path class="cls-4" d="M169.15,81.9a.28.28,0,0,0,.38-.31.48.48,0,0,0-.31,0,.24.24,0,0,0-.19.23c0,.11.14.2.23.14Z"/><path class="cls-4" d="M169.18,87.36c-.09.1,0,.27.15.31s.27,0,.4,0a.49.49,0,0,1,.33.23.21.21,0,0,1,0,.23.23.23,0,0,1-.12.09,1.48,1.48,0,0,1-.76.19.68.68,0,0,1-.6-.45.52.52,0,0,1,.13-.5.53.53,0,0,1,.51-.14Z"/><path class="cls-4" d="M169.45,71.79c-.09.1,0,.26.14.3a2.69,2.69,0,0,0,.4,0,.49.49,0,0,1,.33.23.24.24,0,0,1,0,.23.32.32,0,0,1-.13.1,1.34,1.34,0,0,1-.76.18.69.69,0,0,1-.6-.44.52.52,0,0,1,.65-.64Z"/><path class="cls-4" d="M171.17,71.55c-.09.1,0,.26.14.3a2.69,2.69,0,0,0,.4,0,.49.49,0,0,1,.33.23.24.24,0,0,1,0,.23.26.26,0,0,1-.13.1,1.34,1.34,0,0,1-.76.18.69.69,0,0,1-.6-.44.52.52,0,0,1,.65-.64Z"/><path class="cls-4" d="M171,74.22c-.09.1,0,.26.15.3a2.5,2.5,0,0,0,.4,0,.47.47,0,0,1,.32.23.24.24,0,0,1,0,.23.38.38,0,0,1-.12.1,1.47,1.47,0,0,1-.76.18.66.66,0,0,1-.6-.44.52.52,0,0,1,.64-.64Z"/><path class="cls-4" d="M153,69.09c-.09.1,0,.27.15.31s.27,0,.4,0a.45.45,0,0,1,.32.23.24.24,0,0,1,0,.23.27.27,0,0,1-.12.09,1.48,1.48,0,0,1-.76.19.67.67,0,0,1-.6-.45.54.54,0,0,1,.13-.51.53.53,0,0,1,.51-.13Z"/><path class="cls-4" d="M167.27,85.35l0-.22a.5.5,0,0,0-.32,0c-.1.05-.13.22,0,.27h.12l.4-.05Z"/><path class="cls-4" d="M160.81,72.84a1.51,1.51,0,0,0,.21-.49.45.45,0,0,0-.21-.45.42.42,0,0,0-.25,0,.49.49,0,1,0,.25.94Z"/><path class="cls-4" d="M171.89,82.52a.36.36,0,0,1-.49.36,1,1,0,0,1-.1-.4.64.64,0,0,1,.45,0Z"/><path class="cls-5" d="M161.68,70.77a.72.72,0,0,0,.06-.29.24.24,0,0,0-.16-.23c-.16,0-.3.12-.46.15s-.35-.07-.49,0a.29.29,0,0,0,0,.43.75.75,0,0,0,.46.15.78.78,0,0,0,.43,0,.33.33,0,0,0,.18-.37Z"/><path class="cls-4" d="M169.35,75.57a2,2,0,0,0,1.59-1.25,2.18,2.18,0,0,0-1.81-.9,1.34,1.34,0,0,0-1.24,1.41c.12.69,1.17,1.06,1.59.49Z"/><path class="cls-4" d="M173.51,82.37a.18.18,0,0,1-.21-.15.33.33,0,0,1,.09-.27.28.28,0,0,1,.13-.11.24.24,0,0,1,.31.16.26.26,0,0,1-.18.31.28.28,0,0,1-.32-.17Z"/><path class="cls-4" d="M171.45,79.09c-.14-.1-.34,0-.49.1s-.32.22-.48.15a.14.14,0,0,1-.1-.1c0-.12.14-.18.23-.26a1.37,1.37,0,0,0,.18-.24.62.62,0,0,1,.65-.2.36.36,0,0,1,.07.36.33.33,0,0,1-.3.2Z"/><path class="cls-4" d="M166.87,75.75l0-.2a.25.25,0,0,0-.29.11.21.21,0,0,0,.1.28.17.17,0,0,0,.23-.16Z"/><path class="cls-4" d="M169.07,79c0,.08-.11.11-.18.09a.28.28,0,0,1-.16-.16.4.4,0,0,1-.07-.18.28.28,0,0,1,.22-.26.33.33,0,0,1,.33.12.19.19,0,0,1,.06.16c0,.06-.06.12-.12.11Z"/><path class="cls-4" d="M163.6,81.19a2.1,2.1,0,0,0,2,.1,2.2,2.2,0,0,0-.78-1.88,1.34,1.34,0,0,0-1.86.26c-.36.6.19,1.57.88,1.42Z"/><path class="cls-4" d="M168,84.55c.11-.17-.15-.39-.35-.31a.4.4,0,1,0,.44.39Z"/><path class="cls-4" d="M174,80.13l0-.2a.24.24,0,0,0-.29.11.21.21,0,0,0,.11.28.17.17,0,0,0,.22-.17Z"/><path class="cls-4" d="M170.3,80.08a5,5,0,0,0-.17-2.21,1,1,0,0,0-.16-.32.69.69,0,0,0-.65-.16,1.42,1.42,0,0,0-1.1,1.16,1.77,1.77,0,0,0,.55,1.55,1.25,1.25,0,0,0,.84.37.69.69,0,0,0,.66-.56A.15.15,0,0,0,170,80Z"/><path class="cls-4" d="M158.24,77.56a2.08,2.08,0,0,0,.53-2,2.25,2.25,0,0,0-2,.36,1.34,1.34,0,0,0-.14,1.88c.51.48,1.57.14,1.57-.56Z"/><path class="cls-4" d="M166.74,67.31a1.05,1.05,0,0,0,.27-.91,1,1,0,0,0-.43.1.37.37,0,0,0-.21.35c0,.2.24.31.43.37l-.15.07Z"/><path class="cls-4" d="M165.45,65.32a.31.31,0,0,0-.17-.45,4.15,4.15,0,0,1-.56-.46l.12,1.2a.33.33,0,0,1,0,.1c0,.11-.19.11-.27.18s-.09.31,0,.46C165.1,67.38,165.31,65.8,165.45,65.32Z"/><path class="cls-4" d="M171.56,78.29v-.35a.57.57,0,0,0-.52.42c0,.23.22.48.43.37s.31-.22.38-.08Z"/><path class="cls-4" d="M164.73,70.74a.48.48,0,0,1,0,.29.84.84,0,0,1-.29-.67c0-.15,0-.32.13-.38s.2,0,.29,0,.42-.2.57-.08a.24.24,0,0,1,0,.31.6.6,0,0,1-.25.22l-.63.38Z"/><path class="cls-4" d="M160.93,71.51c.12-.17-.15-.39-.34-.31s-.29.29-.36.48a.71.71,0,0,0,.8-.09Z"/><path class="cls-5" d="M162.41,67.37a.19.19,0,0,1-.26,0,.35.35,0,0,1-.09-.26.33.33,0,0,1,0-.17.24.24,0,0,1,.34-.06.25.25,0,0,1,0,.36.28.28,0,0,1-.35.06Z"/><path class="cls-4" d="M163.68,67.64a.3.3,0,0,0,.39-.32.5.5,0,0,0-.32,0,.27.27,0,0,0-.19.23c0,.11.14.2.23.14Z"/><path class="cls-4" d="M168.09,69a.83.83,0,0,0,.41-.58l-.61,0a.54.54,0,0,0-.28,0,.34.34,0,0,0-.08.48.47.47,0,0,0,.52.11Z"/><path class="cls-5" d="M160.1,69.1a.39.39,0,0,1-.4.09.37.37,0,0,1-.24-.32c0-.1.06-.22.16-.21a.21.21,0,0,1,.1.06l.43.33-.07.07Z"/><path class="cls-5" d="M157.4,68.28c-.1-.15-.32-.13-.49-.08s-.38.1-.51,0a.15.15,0,0,1-.06-.13c0-.13.19-.13.31-.17a1.23,1.23,0,0,0,.25-.17.63.63,0,0,1,.67,0,.34.34,0,0,1-.06.36.33.33,0,0,1-.34.1Z"/><path class="cls-5" d="M173,72.42c-.1-.14-.32-.12-.49-.07s-.38.1-.51,0a.16.16,0,0,1-.06-.12c0-.13.19-.13.31-.17a1.84,1.84,0,0,0,.25-.17.59.59,0,0,1,.67,0,.36.36,0,0,1-.05.36.35.35,0,0,1-.35.09Z"/><path class="cls-5" d="M158,66.58l0-.2a.24.24,0,0,0-.31,0,.21.21,0,0,0,0,.3.18.18,0,0,0,.27-.08Z"/><path class="cls-4" d="M165.17,67.82c-.09.1,0,.27.14.3a2.69,2.69,0,0,0,.4,0,.51.51,0,0,1,.33.24.22.22,0,0,1,0,.22.26.26,0,0,1-.13.1,1.43,1.43,0,0,1-.76.19.7.7,0,0,1-.6-.45.52.52,0,0,1,.65-.64Z"/><path class="cls-4" d="M168.13,65.82a.33.33,0,0,0,.07-.44.47.47,0,0,0-.45-.17c-.07,0-.15.05-.16.12a.2.2,0,0,0,.08.13l.44.42Z"/><path class="cls-4" d="M163,73.51a.55.55,0,0,1-.74-.45,1.46,1.46,0,0,1,.77-.08c.25.07.46.37.34.6l-.43.18Z"/><path class="cls-5" d="M163.26,65.8l0-.21a.47.47,0,0,0-.33,0c-.1,0-.13.22,0,.26s.08,0,.12,0l.39-.06Z"/><path class="cls-4" d="M170.41,83.26a1.26,1.26,0,0,0,.2-.48.45.45,0,0,0-.2-.46.43.43,0,0,0-.25,0,.51.51,0,0,0-.38.6.5.5,0,0,0,.62.33Z"/><path class="cls-4" d="M161.38,78.07l0-.36a.82.82,0,0,0-.27,0,.34.34,0,0,0,.22.42Z"/><path class="cls-4" d="M171.46,92.45a.2.2,0,0,1-.26,0,.37.37,0,0,1-.09-.27.29.29,0,0,1,0-.16.24.24,0,0,1,.35-.06.26.26,0,0,1,0,.35.29.29,0,0,1-.36.06Z"/><path class="cls-4" d="M163,75.61l0-.35a.62.62,0,0,0-.27,0,.34.34,0,0,0,.22.42Z"/><path class="cls-4" d="M172.77,74.76c.12-.07.06-.26-.05-.34s-.25-.08-.37-.14a.5.5,0,0,1-.25-.32.22.22,0,0,1,.05-.22.28.28,0,0,1,.15-.06,1.47,1.47,0,0,1,.78,0,.65.65,0,0,1,.44.6.53.53,0,0,1-.27.45.55.55,0,0,1-.53,0Z"/><path class="cls-4" d="M168.55,80.48a.73.73,0,0,0-.14.26.24.24,0,0,0,.08.27c.14.09.32,0,.49,0s.31.17.47.13a.28.28,0,0,0,.13-.4.7.7,0,0,0-.39-.28.81.81,0,0,0-.43-.08.32.32,0,0,0-.27.3Z"/><path class="cls-4" d="M168.12,72.79a3.91,3.91,0,0,0,.69,1.67.57.57,0,0,0,.2.21.55.55,0,0,0,.54,0,1.17,1.17,0,0,0,.57-1.18,1.47,1.47,0,0,0-.81-1.06,1,1,0,0,0-.74-.08.57.57,0,0,0-.38.6.13.13,0,0,0,.17-.12Z"/><path class="cls-4" d="M172.48,73.5a.41.41,0,0,0,.24-.11.46.46,0,0,0,.07-.26,4.21,4.21,0,0,1,.12-.71l-1,.7s0,0-.08,0-.19-.1-.3-.14-.31.08-.39.22C170.52,74.23,172,73.62,172.48,73.5Z"/><path class="cls-4" d="M168.26,72.72l.05-.2a.26.26,0,0,0-.31,0,.21.21,0,0,0,0,.3.18.18,0,0,0,.28-.07Z"/><path class="cls-4" d="M171.43,71.89a.32.32,0,0,0,.42-.16.47.47,0,0,0-.07-.47c0-.06-.12-.11-.18-.08s-.06.08-.08.13l-.15.6Z"/><path class="cls-4" d="M169.22,71.94a1.11,1.11,0,0,0,.93-.22,1.15,1.15,0,0,0-.3-.32.38.38,0,0,0-.42,0c-.16.12-.14.36-.11.56l-.13-.1Z"/><path class="cls-4" d="M167.92,71.24a.47.47,0,0,1-.27.12.86.86,0,0,1,.44-.59c.12-.08.28-.15.39-.07s.11.16.16.24.38.26.35.46a.24.24,0,0,1-.25.17.72.72,0,0,1-.32-.11l-.64-.36Z"/><path class="cls-4" d="M171.06,73.31a.81.81,0,0,0,.71.07l-.27-.55a.48.48,0,0,0-.16-.23.34.34,0,0,0-.46.17.47.47,0,0,0,.16.5Z"/><path class="cls-4" d="M170.67,70.17c-.14,0-.23.15-.19.28a2.92,2.92,0,0,0,.17.36.51.51,0,0,1,0,.4.23.23,0,0,1-.19.13.32.32,0,0,1-.15-.06,1.45,1.45,0,0,1-.53-.57.68.68,0,0,1,.08-.74.53.53,0,0,1,.51-.14.54.54,0,0,1,.37.38Z"/><path class="cls-4" d="M166.46,77.72a1.13,1.13,0,0,0,.52-.06.45.45,0,0,0,.29-.4.37.37,0,0,0-.1-.24.51.51,0,0,0-.71,0,.5.5,0,0,0,0,.71Z"/><path class="cls-4" d="M170.33,78.3a1.11,1.11,0,0,0,.93-.23,1.31,1.31,0,0,0-.3-.32.42.42,0,0,0-.42,0c-.16.13-.14.37-.11.57l-.13-.1Z"/><path class="cls-4" d="M167.54,70.74c-.09-.15-.31-.15-.48-.11s-.39.07-.51,0a.15.15,0,0,1-.05-.13c0-.13.2-.12.32-.15a1.74,1.74,0,0,0,.26-.15.59.59,0,0,1,.66.08.32.32,0,0,1-.07.35.34.34,0,0,1-.36.07Z"/><path class="cls-4" d="M165.64,84.32l-.08-.19a.24.24,0,0,0-.25.18.2.2,0,0,0,.16.24.18.18,0,0,0,.19-.21Z"/><path class="cls-4" d="M169.9,74.52l.2-.08a.45.45,0,0,0-.16-.28c-.09-.06-.25,0-.24.11a.17.17,0,0,0,.06.11l.24.31Z"/><path class="cls-6" d="M97.32,109.86s-.17-5.59-3.38-7.33C93.94,102.53,93.16,109.35,97.32,109.86Z"/><path class="cls-7" d="M53.29,78.44a44.8,44.8,0,0,1-8.22,13.73s7.43,1.14,10.14,5.08c0,0,1.6-5.23,5.81-8C61,89.23,54.53,83.45,53.29,78.44Z"/><path class="cls-8" d="M52.76,79.85s.35,10.58,4.83,12.78A18.09,18.09,0,0,1,61,89.23a18.19,18.19,0,0,1-7.73-10.79Z"/><path class="cls-9" d="M167,151.68l22.83-53.55a4.27,4.27,0,0,1,0,2.66c-8.25,20.18-21.29,50.92-21.29,50.92Z"/><polygon class="cls-10" points="189.78 98.13 119.02 100.84 96.67 152.34 166.95 151.68 189.78 98.13"/><polygon class="cls-11" points="120.42 103.06 185.91 100.46 164.72 149.37 102.39 147.15 120.42 103.06"/><path class="cls-12" d="M111.28,86.94a69.6,69.6,0,0,1-3.9,6c-3.15,4.54-5.78,6.72-6.42,7.69s-4.35,9.58-4.35,9.58A7.37,7.37,0,0,1,94,102.53a5.23,5.23,0,0,0,.71-2.51c-.08-1.2-3.57-6.3-3.57-8.1s3.83-6.08,4.81-8.41,2.42-5.58,2.91-5.69,1.55,2.18,1.33,4.09-2.89,3.62-3.64,4.79a2.9,2.9,0,0,0-.65,1.78s3.69-1.78,5-3.29a15.36,15.36,0,0,0,2-2.58s1.32-3,2.89-5.82a21.78,21.78,0,0,1,2.66-3.9,1.29,1.29,0,0,1,1.47,0,20.84,20.84,0,0,1-1.5,4.91c-.33.74-1.13,2.08-1.8,3.24a11.26,11.26,0,0,0-1.13,2.13c0,.34,1.2-.44,1.95-.18.54.19,1.77.77,1.84,1.81a1.38,1.38,0,0,1-.27.76c.19-.22.44-.44.65-.44A1.69,1.69,0,0,1,111.28,86.94Z"/><path class="cls-7" d="M108.47,87.71l-3.09,2.89c-9.58,3.61-8.69-2.55-8.69-2.55,1.36-1.5,6.15-5.44,6.15-5.44s1.32-3,2.89-5.82a21.78,21.78,0,0,1,2.66-3.9,1.29,1.29,0,0,1,1.47,0,20.84,20.84,0,0,1-1.5,4.91c-.33.74-1.13,2.08-1.8,3.24a9.44,9.44,0,0,0-2.37,1.46c0,.34.77,1.43.77,1.43l2.35,1.91a10.38,10.38,0,0,1-.54,1.15A11.42,11.42,0,0,0,108.47,87.71Z"/><path class="cls-13" d="M98.81,77.82s-.92,4,.87,5.33a3.92,3.92,0,0,0,.42-3A3.72,3.72,0,0,0,98.81,77.82Z"/><path class="cls-14" d="M70.82,129.87s17-15,23.12-27.34c0,0-.11,6.09,3.38,7.33,0,0-13.38,28.83-16.66,33.11C80.66,143,73.83,139.63,70.82,129.87Z"/><path class="cls-15" d="M104.31,80.7s-.31,1.69-.64,3.07a1.59,1.59,0,0,0,1.65,0c1-.5,1.24-2.71,1.15-3.63S104.31,80.7,104.31,80.7Z"/><path class="cls-16" d="M106,82.9a7.67,7.67,0,0,0,.58-4,4.81,4.81,0,0,0-1.09-.82s-3.21-.31-6.71-.31c0,0-.42.48.22,1.8s3.22,1.25,4.8,1.11a14.59,14.59,0,0,0,2.45-.33A14,14,0,0,1,106,82.9Z"/><path class="cls-16" d="M106.63,82.82a17.46,17.46,0,0,0-4.24,3.47s-.21,2.07,1.83,1c2.49-1.35,5.15-2.62,5.15-2.62S109.21,82.92,106.63,82.82Z"/><path class="cls-16" d="M109.17,84.71a33.05,33.05,0,0,0-3.69,2.57c-.5.6.94,1.37,2.84.85A4.59,4.59,0,0,0,111,86.35S111.31,84.14,109.17,84.71Z"/><path class="cls-7" d="M95.85,88.76a21.72,21.72,0,0,1,1.47,5.73s1.06-4.42-1-7.45C96.29,87,95.61,88.14,95.85,88.76Z"/><path class="cls-7" d="M98.67,93.31s1.52-3.18,6-2.65C104.7,90.66,100.58,92.35,98.67,93.31Z"/><path class="cls-17" d="M78.38,58.23s2.9-4.39,2.25-7.24a4,4,0,0,0-3.13-3.18S78.34,55.92,78.38,58.23Z"/><path class="cls-18" d="M182.5,98.9l-3.57-.45a18.82,18.82,0,0,1-5.93-3.2c-4.14-3.65-5.72-7.36-5.47-8.2s5.92,0,9.82,2.82C181,92.49,182.19,97.16,182.5,98.9Z"/><path class="cls-19" d="M184.47,96.1a9.36,9.36,0,0,1,.3-4.37c.74-1.68,3.51-3.34,3.86-3S184.47,96.1,184.47,96.1Z"/><path class="cls-20" d="M167.53,87.05s8,3.27,10.48,5.91a23.09,23.09,0,0,1,3.73,5.35S172,98.15,167.53,87.05Z"/><path class="cls-21" d="M187.94,95.26a22.39,22.39,0,0,1-4,3.82l-.79-.1.25-.26s-2.15-1.94-2-6.41,5.12-12,6.47-11.23S190.47,92.2,187.94,95.26Z"/><path class="cls-22" d="M183.86,98.44s.86-12,3.67-17.18C187.53,81.26,192.89,93.15,183.86,98.44Z"/><path class="cls-23" d="M76.72,50.29C79.45,52.28,78,68.53,78.4,70s2,2.81,2.26,4.39S76.27,90.6,70.63,92,56.78,88.13,53.29,78.44s-.45-21.39,2.37-25S71.31,46.35,76.72,50.29Z"/><path class="cls-13" d="M78.34,57.16l-1.62.45a35.87,35.87,0,0,0-10.15-3.35C58,52.57,55.82,63,55.58,65l-1-5.56.14-6.57,11.91-2.53L77,53l1.2,1.24S78.3,56.09,78.34,57.16Z"/><path class="cls-24" d="M76.72,57.61a11.64,11.64,0,0,0-3.16-5.47,9.35,9.35,0,0,1-1.21.33c-1.89.36-4.19.24-8,0-3.26-.19-5.82,1-7.16,1.42L57,54c-1.48.35-.67,1.23-.67,1.23a8.26,8.26,0,0,1,.06,7c-1.08,2.29-1.17,5.5-1.08,7.65,0,1.35.18,2.27.18,2.27l-1.58-.74a70.11,70.11,0,0,1-4.19-5.82,19,19,0,0,1-1.58-3,26.35,26.35,0,0,1-1.29-3.88,3.09,3.09,0,0,1,.38-2.6c1-1.34,7.47-3.3,7.47-3.3a2.81,2.81,0,0,1-2.2-1.77c-.67-1.62.54-4.72.54-4.72a10.59,10.59,0,0,0,2,5.72,1.79,1.79,0,0,1-.11-.25h0s0,0,0,0a6.25,6.25,0,0,1-.66-2.38.6.6,0,0,1,0-.12.69.69,0,0,1,0-.13l0-.07.09-.14a.62.62,0,0,1,.14-.14,6.64,6.64,0,0,1,2-1h.06c1.1-.43,2.74-1,5.14-1.69A28.79,28.79,0,0,0,72.1,40.32a12.8,12.8,0,0,1,6.73,3.29l0,0a7.24,7.24,0,0,1,1.79,3.26C82.07,52.54,76.72,57.61,76.72,57.61Z"/><path class="cls-25" d="M75.09,54c-2.14.74-4,0-8.89-.94A19.34,19.34,0,0,0,57,54l-.67-.15s2.47-2.09,6.76-6.13S74,49.86,75.09,54Z"/><path class="cls-26" d="M61,103.87s2.41-3.81,1.39-6.87c0,0-6.19-3.8-17.34-6.87l-2,3.71S53.92,96.65,61,103.87Z"/><path class="cls-27" d="M55.34,66.88s7,4.33,8.48,9.47,0,11.52,0,11.52-7.09-12.52-8-15.73A12.35,12.35,0,0,1,55.34,66.88Z"/><path class="cls-28" d="M64.29,106.53l-.47-1.43A4.48,4.48,0,0,0,58,105c-3.38,2.34-8.24,9.81-9.85,18.71s1,20.46,6.32,25.66c0,0,8.23-3.48,10.51-10.23L59.2,123.37Z"/><rect class="cls-29" x="68.53" y="152.34" width="62.16" height="3.75"/><polygon class="cls-9" points="166.95 151.68 166.95 155.19 130.69 156.09 130.69 152.34 166.95 151.68"/><path class="cls-30" d="M61.79,62.23a20.83,20.83,0,0,0-.32,6.36s5.28,3.08,8.66,1.76a36,36,0,0,0,.62-12.57,6.59,6.59,0,0,1-3.49,1.74A10.6,10.6,0,0,0,61.79,62.23Z"/><path class="cls-29" d="M140.11,158.67h24a15.22,15.22,0,0,0-12-7.71C143.61,150.29,140.11,158.67,140.11,158.67Z"/><path class="cls-31" d="M164.61,149.72c.25,1-2.46,1.64-3,1.37,0,0,2.48,2.95,2.48,3.62,0,.28-.27.39-.62.4a2.93,2.93,0,0,1-1.39-.38.75.75,0,0,1,.18.16.65.65,0,0,1,.21.73c-.1.2-.58.19-1.15.09a8.62,8.62,0,0,1-1.88-.58,21,21,0,0,1-3.09-2.14,30.4,30.4,0,0,0-5.91,1.09l.7-1a28.2,28.2,0,0,1,4.15.24,21.93,21.93,0,0,1,4.63,3.31c0,.57-2.1,1.16-6.19-1.75,0,0-6.87,3.44-10.81,3.75a15.24,15.24,0,0,1-8-1.22l-9.23.42s3.28-4.35,6-5.72c0,0,22.78-4.68,25.48-4.12S164.45,149.07,164.61,149.72Z"/><path class="cls-32" d="M132.83,151.56a13.62,13.62,0,0,0-6.45,6.61s-30.41,1.42-42.72-.53c0,0-11.32-12.28-19.81-18.82l0,0s-2.14,7.43-9.26,8.44c0,0-8.92-9.31-5.41-24.32C52.21,109.84,61.66,105.1,62,105h0a20.48,20.48,0,0,1,5.4,4.55s.35.73,1,2c3.22,6.27,13.68,25.76,22.57,32.64,0,0,22.79,5.19,37.25,7h0C129.87,151.3,131.43,151.46,132.83,151.56Z"/><path class="cls-33" d="M132.83,151.56a13.62,13.62,0,0,0-6.45,6.61s-30.41,1.42-42.72-.53c0,0-11.32-12.28-19.81-18.82l0,0c-1-.77-6.47,2.36-6.47,2.36a45,45,0,0,1-1-6.33c-1.3-16.14,7.47-25.76,7.47-25.76,1.74.11,3.85,2.14,3.85,2.14l.7.28c3.22,6.27,13.68,25.76,22.57,32.64,0,0,22.79,5.19,37.25,7h0C129.87,151.3,131.43,151.46,132.83,151.56Z"/><path class="cls-34" d="M79.91,77.82c-.18-.62-.77.23-3.65.62S69,76.58,69,76.58c-3.32-.11-7.09,2.14-7.09,2.14-2.35,0-4.46-3.65-5.63-6.12h0c-.6-1.28-1-2.25-1-2.25a1.53,1.53,0,0,0-.69,1.4c.28,2.7-1.35,6.69-1.35,6.69s.62,4.67,6.48,10.08a15.53,15.53,0,0,0,12.89,3.92h0C78.29,89.43,80.09,78.44,79.91,77.82Zm-5.22,8.9c-1.07,0-.68-3-2.25-3.27S68.38,87,66.61,85.87s-1.66-6-.9-6.81a4.16,4.16,0,0,1,3-1.24,13.69,13.69,0,0,0,4.73,2.54A4.63,4.63,0,0,0,78,79.57C78.91,83.68,75.76,86.72,74.69,86.72Z"/><path class="cls-35" d="M77.5,75.46s-1-3.23-3.06-3.57S70.5,75.4,70.5,75.4Z"/><path class="cls-36" d="M77.5,75.46c.11-.26-5.59-.38-7-.06a5.55,5.55,0,0,0,3.21,1.88A3.69,3.69,0,0,0,77.5,75.46Z"/><path class="cls-37" d="M72.76,77a2.7,2.7,0,0,0-2-1.33A6,6,0,0,0,72.76,77Z"/><path class="cls-8" d="M75.43,77.15s1.77-.67,2.07-1.69a9.6,9.6,0,0,0-1.62-2.87A8.84,8.84,0,0,1,77,75.39,4.25,4.25,0,0,1,75.43,77.15Z"/><path class="cls-38" d="M70.75,57.78a5.16,5.16,0,0,1-1.52,2.53,20.88,20.88,0,0,0-7.44,1.92,5.68,5.68,0,0,1,3.4-2.54C68.24,58.74,70.75,57.78,70.75,57.78Z"/><path class="cls-39" d="M77,60.54s-2.39,6-2.41,7.72a7.21,7.21,0,0,0,.1,2s2.9,1.27,3.74-.25a56.47,56.47,0,0,1,0-7.77S78.23,59.35,77,60.54Z"/><path class="cls-40" d="M68.38,65.88a5.08,5.08,0,0,1,.07,4.48,5.11,5.11,0,0,1-5-2.24A5.66,5.66,0,0,1,68.38,65.88Z"/><path class="cls-41" d="M68.31,65.41a13.28,13.28,0,0,0-.86-1.52,7,7,0,0,0-4,4.23h.17A8,8,0,0,1,68.31,65.41Z"/><path class="cls-40" d="M74.35,68.8s1.12-2.88,3.15-3a7.86,7.86,0,0,1,.23,3.27s-.25,1.46-1.26,1.41S74.35,68.8,74.35,68.8Z"/><path class="cls-42" d="M77.5,65.16s-.59-1.28-1.13-1.27c-.34,0-1.76,2-1.93,4.7A5.9,5.9,0,0,1,77.5,65.16Z"/><path class="cls-43" d="M66.87,66.21s.3,3.28-1.16,3.8a4.28,4.28,0,0,1-2.23-1.89A4.67,4.67,0,0,1,66.87,66.21Z"/><path class="cls-43" d="M76.55,66.21s.58,3.28-.74,4c0,0-1.23-.79-1.46-1.45A5,5,0,0,1,76.55,66.21Z"/><path class="cls-44" d="M63.48,68.12a8.7,8.7,0,0,1,4.9-2.24l.24.55s1.28-.84,1-1.13S65.45,65.36,63.48,68.12Z"/><path class="cls-44" d="M74.35,68.8a5.17,5.17,0,0,1,3.15-3l.14.6s1.33-1.13,1.18-1.34S75.43,65.15,74.35,68.8Z"/><path class="cls-45" d="M67.67,78.71a8.6,8.6,0,0,0,5.09,2.78c3.11.39,4.21-1,4.21-1a4.41,4.41,0,0,1-4.21,1.72c-3.08-.21-5.86-3.49-5.86-3.49Z"/><path class="cls-46" d="M65.73,68.1a3,3,0,0,1,1.75,0A2.77,2.77,0,0,1,65.73,68.1Z"/><path class="cls-46" d="M75.8,68.13a3,3,0,0,1,1.75,0A2.7,2.7,0,0,1,75.8,68.13Z"/><path class="cls-8" d="M76.47,61S74,66.85,74,68.14s1.88,4.45,1.88,4.45-1.39-2.74-1.32-4.33,2.11-6.36,2.11-6.36Z"/><path class="cls-38" d="M75.43,64.14s1.2-4.65,2.47-5.36c.93-.52.51,3.45.51,3.45s0-1.24-.91-1S75.43,64.14,75.43,64.14Z"/><polygon class="cls-46" points="131.57 109.25 160.93 108.24 154.96 123.78 125.43 123.78 131.57 109.25"/><path class="cls-47" d="M76.72,57.61a11.64,11.64,0,0,0-3.16-5.47,9.35,9.35,0,0,1-1.21.33l-3-5.29c4.33,1.77,6.21,6.41,6.21,6.41s1.84,1.65,2-2a10.1,10.1,0,0,0-2.11-6.37,13.74,13.74,0,0,1,3.68,5.05c1.26-4.49,0-6.36-.25-6.66a7.24,7.24,0,0,1,1.79,3.26C82.07,52.54,76.72,57.61,76.72,57.61Z"/><path class="cls-48" d="M61.53,49.14a52.6,52.6,0,0,0-4.31,4.73v0L57,54c-1.48.35-.67,1.23-.67,1.23a8.26,8.26,0,0,1,.06,7c-1.08,2.29-1.17,5.5-1.08,7.65l-.75,1.3-2.63-4.36-2.21-1.23a19,19,0,0,1-1.58-3,26.35,26.35,0,0,1-1.29-3.88A29.14,29.14,0,0,0,51.43,57c4.06-1.92,5.13-4,5.13-4l-1.64-1.2h0s0,0,0,0a4.36,4.36,0,0,1-.66-2.38.6.6,0,0,1,0-.12.69.69,0,0,1,0-.13l0-.07.09-.14a.62.62,0,0,1,.14-.14,5.32,5.32,0,0,1,2-1h.06A1.9,1.9,0,0,0,57,49.89C57.88,50.87,61.31,49.24,61.53,49.14Z"/><path class="cls-49" d="M53.39,68.2s-4-4.92-6.94-1.33c-2.24,2.74.34,11.83,4.32,11.84S55.87,71.72,53.39,68.2Z"/><path class="cls-50" d="M53.21,72.78s-1.41-4.49-6-3.54A3.67,3.67,0,0,1,50,70.76S50,74.91,51,76,53.5,74.27,53.21,72.78Z"/><path class="cls-51" d="M45.91,67.89s1.3-1.67,4.59-.88a5.85,5.85,0,0,1,4.06,4.16s-1.23-5.24-4.57-6C47.07,64.47,45.91,67.89,45.91,67.89Z"/><path class="cls-52" d="M49.17,69.16a7.64,7.64,0,0,0-.79,5.45A8.89,8.89,0,0,1,50.16,70Z"/><path class="cls-53" d="M72.67,92.43h0a15.53,15.53,0,0,1-12.89-3.92c-5.86-5.41-6.48-10.08-6.48-10.08s1.63-4,1.35-6.69a1.53,1.53,0,0,1,.69-1.4s.35,1,1,2.25h0a41.51,41.51,0,0,0,0,7.25c.4,3.43,6.25,10,6.25,10s7.24-.8,9.8,0S72.84,92.3,72.67,92.43Z"/><path class="cls-54" d="M68.66,77.82s6,3.55,9.35,1.75C78,79.57,75.36,82.81,68.66,77.82Z"/><path class="cls-55" d="M94.66,100s3.93,3.24,6.3.6l-3.15,6.82S94.77,105.47,94.66,100Z"/><path class="cls-56" d="M92.31,105.47s.25,6.14,2.94,8.81c0,0-2.43-.61-3.47-8Z"/><path class="cls-57" d="M88.17,111.43c-1.11,2.42-7.06,9.18-8.55,12.34-1.15,3.6,4.45,3.88,4.45,3.88s7.15-4.85,9.44-9.7c0,0-8,16.59-9.4,19.06,0,0-6.66-8.33-8-12.09A130.89,130.89,0,0,0,88.17,111.43Z"/><path class="cls-58" d="M63.85,138.82s-2.39,7.41-9.29,8.42c0,0,.93-4.45,2.79-6.08S62.9,138.07,63.85,138.82Z"/><path class="cls-59" d="M132.83,151.56a13.62,13.62,0,0,0-6.45,6.61s-30.41,1.42-42.72-.53c0,0-11.32-12.28-19.81-18.82l0,0s-2.14,7.43-9.26,8.44c0,0-8.92-9.31-5.41-24.32C52.21,109.84,61.66,105.1,62,105c-.26.29-8.67,9.42-10.24,17.79a12.34,12.34,0,0,0,4.63,12.08,9.49,9.49,0,0,0,1,.7L64.47,137S78,150.62,84.8,153.89s37.52-.63,43.39-2.8h0C129.87,151.3,131.43,151.46,132.83,151.56Z"/><path class="cls-60" d="M121.87,158.34a21.22,21.22,0,0,1,6.32-7.25s-4.8,4.22-5.3,7.25Z"/><path class="cls-61" d="M61,103.87s-14.82,5.88-21.58,5.64S32.18,105,32.18,105c3.66-7.09,11.21-11.75,11.21-11.75C52.52,96.26,61,103.87,61,103.87Z"/><path class="cls-62" d="M51.13,128.32S67.77,139.4,82,141.22C82,141.22,63.6,132.05,51.13,128.32Z"/><path class="cls-63" d="M62.41,97S54,96.49,50.24,95.44a23.62,23.62,0,0,1-6.49-2.89l-.36.66a64.87,64.87,0,0,1,18,9.92A8.34,8.34,0,0,0,62.41,97Z"/><polygon class="cls-64" points="124.48 128 122.41 133.24 151.12 133.87 153.19 128 124.48 128"/><polygon class="cls-65" points="133.93 130.08 133.33 131.6 141.68 131.79 142.28 130.08 133.93 130.08"/><polygon class="cls-66" points="189.78 98.13 102.39 139.17 119.02 100.84 189.78 98.13"/><path class="cls-67" d="M132.19,152s-.22,2.18,2.78,5.45l-8.45.37a12.81,12.81,0,0,1,5.32-5.74Z"/><path class="cls-13" d="M161.37,155.71h0a5.45,5.45,0,0,1-2.07-.79c-1.13-.84-3-2.33-3-2.33a21.54,21.54,0,0,0-4.08,0l-2.89.83,5.29-.17,1.83-.24A8.75,8.75,0,0,0,161.37,155.71Z"/><path class="cls-13" d="M161.62,151.09a22.7,22.7,0,0,0-3.3-2.53s4.59,1.13,5.54,2.15A2.85,2.85,0,0,1,161.62,151.09Z"/><polygon class="cls-68" points="173.79 139.17 173.21 137.01 184.78 109.86 184.78 112.45 173.79 139.17"/><path class="cls-29" d="M106.78,170.49a15.39,15.39,0,0,1-4.86-.65c-.84-.31-1.26-.73-1.26-1.24s.31-.89,1-1.35c-2.83-.2-6-.36-8.94-.52-15.32-.81-25.36-1.53-25.32-4,0-.87,0-3.16,34-4.64,16.63-.72,33.47-.88,33.64-.88v.59c-.17,0-17,.17-33.62.89C71.26,160,68,161.9,68,162.69c0,2.14,14.3,2.89,24.76,3.44,3.79.2,7.07.38,9.8.58a19.53,19.53,0,0,1,2.06-.9c10.89-4.18,46.06-2.11,47.55-2l0,.59c-.37,0-36.54-2.15-47.3,2-.41.16-.77.3-1.08.44,5.18.41,8.1.92,8.49,1.83a.71.71,0,0,1-.17.77C111.4,170.13,109.12,170.49,106.78,170.49Zm-4.12-3.17c-1.28.7-1.41,1.13-1.41,1.27s.32.49.88.7c2.47.92,8.58.74,9.47-.28,0,0,.09-.11.07-.15C111.37,168.15,107.56,167.68,102.66,167.32Z"/><path class="cls-69" d="M56.56,53a19.4,19.4,0,0,1-.06-4.57,6,6,0,0,1,.68-2.23,1.86,1.86,0,0,1,.93-.82,3.59,3.59,0,0,1,1.19-.26,15.82,15.82,0,0,1,2.3.12c.76.07,1.51.12,2.25.12a14.52,14.52,0,0,0,4.4-.65c.71-.2,1.38-.53,2.2-.7a3.86,3.86,0,0,1,2.39.26,5.14,5.14,0,0,1,1.86,1.49,8.77,8.77,0,0,1,1.2,2,17.14,17.14,0,0,1,1.25,4.42,14.53,14.53,0,0,1,0,4.56,15.52,15.52,0,0,0-.29-4.51A17.06,17.06,0,0,0,75.47,48a6.41,6.41,0,0,0-2.86-3.18,3.27,3.27,0,0,0-2-.19c-.67.14-1.39.48-2.13.7a15.13,15.13,0,0,1-4.58.63c-1.54,0-3.07-.31-4.53-.33a2,2,0,0,0-1.81.81,5.91,5.91,0,0,0-.71,2.07A21.29,21.29,0,0,0,56.56,53Z"/><path class="cls-70" d="M55.25,48.2l8-3.2,4-1.59c.67-.26,1.33-.55,2-.8l1.06-.35c.37-.09.74-.12,1.11-.19a7.26,7.26,0,0,1,4.33,1,7.84,7.84,0,0,1,3,3.22,9.59,9.59,0,0,1,1,4.25A11.81,11.81,0,0,1,79,54.74a12.77,12.77,0,0,0,.57-4.24,9.13,9.13,0,0,0-1.16-4,7.68,7.68,0,0,0-2.87-2.95,6.68,6.68,0,0,0-4-.83c-.34.06-.68.09-1,.16l-1,.31c-.67.24-1.34.52-2,.78-1.34.51-2.69,1-4.05,1.51C60.74,46.42,58,47.35,55.25,48.2Z"/><path class="cls-71" d="M77.74,44.53A4,4,0,0,0,76,44a.58.58,0,0,0-.29,0,.56.56,0,0,0-.31.45A1.19,1.19,0,0,0,76,45.71a1.46,1.46,0,0,0,1.35,0,1,1,0,0,0,.52-.55.55.55,0,0,0-.24-.66.12.12,0,0,0,0,.2Z"/><path class="cls-71" d="M70.11,43.84a.74.74,0,0,0-.58-.43.76.76,0,0,0-.14.71.47.47,0,0,0,.6.3.34.34,0,0,0,0-.6Z"/><path class="cls-71" d="M73.78,44.49a.36.36,0,0,0-.09-.33.57.57,0,0,0-.11.11.16.16,0,0,0,0,.15.18.18,0,0,0,.2,0l0,0Z"/><path class="cls-71" d="M74.24,44.53a.31.31,0,0,1,.1,0,.29.29,0,0,1-.27,0s-.1,0-.1-.09,0-.07,0-.1,0-.17,0-.2a.09.09,0,0,1,.11,0,.2.2,0,0,1,0,.11l0,.26Z"/><path class="cls-71" d="M68.42,43.42c0-.06-.15,0-.15.08a.25.25,0,0,0,.11.18.27.27,0,0,0,.08-.28Z"/><path class="cls-71" d="M74.2,48.36s0,0-.09-.06a.12.12,0,0,0-.1,0s0,.12,0,.18-.07.1-.06.16a.1.1,0,0,0,.14.06.2.2,0,0,0,.11-.13.21.21,0,0,0,0-.15.12.12,0,0,0-.09-.11Z"/><path class="cls-71" d="M67.63,45.93a.09.09,0,0,1,0,.09.17.17,0,0,1-.1,0,.1.1,0,0,1,0,0s0-.09,0-.12a.09.09,0,0,1,.09.16Z"/><path class="cls-71" d="M72.91,45.16A.11.11,0,0,0,73,45a.22.22,0,0,0-.11,0,.09.09,0,0,0,0,.1s.08,0,.09,0Z"/><path class="cls-71" d="M74.52,44.77a.28.28,0,0,0,0-.25l-.19.1a.16.16,0,0,0-.08.06.11.11,0,0,0,.07.16.16.16,0,0,0,.17-.06Z"/><path class="cls-71" d="M77.9,48a.16.16,0,0,1,0,.15.14.14,0,0,1-.14,0,.07.07,0,0,1,0-.08l0,0,.16-.1,0,0Z"/><path class="cls-71" d="M76.69,48c0,.06,0,.12.08.17s.1.09.09.15a.05.05,0,0,1,0,0s-.08,0-.11,0a.21.21,0,0,0-.1,0,.23.23,0,0,1-.13-.21.13.13,0,0,1,.12-.06.15.15,0,0,1,.1.09Z"/><path class="cls-71" d="M76.08,48.21l-.07,0a.1.1,0,0,0,.07.09.06.06,0,0,0,.08-.06.06.06,0,0,0-.08-.06Z"/><path class="cls-71" d="M68.56,45.55l-.06,0a.08.08,0,0,0,.06.09.07.07,0,0,0,.09-.06.07.07,0,0,0-.08-.07Z"/><path class="cls-71" d="M73.4,44.94c0,.05,0,.08.1.06a.67.67,0,0,0,.12-.06.2.2,0,0,1,.15,0,.09.09,0,0,1,0,.07s0,0,0,0a.61.61,0,0,1-.19.2.24.24,0,0,1-.27,0,.17.17,0,0,1,0-.18.16.16,0,0,1,.13-.13Z"/><path class="cls-71" d="M73.93,43.78c0-.05,0-.12-.06-.15a.18.18,0,0,0-.17,0s0,0,0,.07,0,0,0,0l.22,0Z"/><path class="cls-71" d="M71.13,43.54a.19.19,0,0,1-.24.19.41.41,0,0,1,.07-.27.17.17,0,0,1,.25,0v.16Z"/><path class="cls-71" d="M80.35,45.63s.05,0,0,0a.1.1,0,0,1,0,.07.09.09,0,0,1-.16,0,.12.12,0,0,1,0-.13.09.09,0,0,1,0,0,0,0,0,0,1,0,0Z"/><path class="cls-71" d="M72.44,44.68l0-.07a.16.16,0,0,0-.1,0s0,.1,0,.09l0,0,.11-.09Z"/><path class="cls-71" d="M71.07,44.66a.53.53,0,0,0-.13-.13.17.17,0,0,0-.18,0,.12.12,0,0,0,0,.08.18.18,0,0,0,.15.2.17.17,0,0,0,.19-.16Z"/><path class="cls-71" d="M70.65,44.15l-.12,0a.16.16,0,0,0,0,.09.11.11,0,0,0,.16,0Z"/><path class="cls-71" d="M67.52,44.38a1.62,1.62,0,0,0-.72.11.26.26,0,0,0-.1.07.2.2,0,0,0,0,.21.47.47,0,0,0,.41.33.58.58,0,0,0,.5-.22.42.42,0,0,0,.1-.28.24.24,0,0,0-.2-.21,0,0,0,0,0,0,.08Z"/><path class="cls-71" d="M74.84,46.67a.42.42,0,0,0-.26-.21.5.5,0,0,0,0,.16.16.16,0,0,0,.09.12c.07,0,.14,0,.18-.1v0Z"/><path class="cls-71" d="M74,46.84a.12.12,0,0,0-.08,0s-.06,0-.09,0a1.71,1.71,0,0,1-.23.13l.42.12h0s0,.08,0,.12a.14.14,0,0,0,.15.06C74.65,47.23,74.15,47,74,46.84Z"/><path class="cls-71" d="M75.71,47.8a.19.19,0,0,1,.1.05.36.36,0,0,1-.27,0c-.05,0-.1,0-.11-.1s0-.06,0-.1,0-.16,0-.19a.08.08,0,0,1,.1,0,.15.15,0,0,1,0,.11l0,.26Z"/><path class="cls-71" d="M74.28,48.12a.07.07,0,0,1,0,.09.17.17,0,0,1-.1,0l-.05,0a.09.09,0,0,1,0-.13.1.1,0,0,1,.12,0,.1.1,0,0,1,0,.12Z"/><path class="cls-71" d="M74.54,47.73a.1.1,0,0,0-.05-.17.16.16,0,0,0,0,.1.09.09,0,0,0,0,.1s.08,0,.07-.06Z"/><path class="cls-71" d="M75.6,46.46a.26.26,0,0,0-.14-.21l-.09.19a.19.19,0,0,0,0,.1.11.11,0,0,0,.15.09.17.17,0,0,0,.1-.16Z"/><path class="cls-71" d="M79.9,47l-.07,0a.1.1,0,0,0,.07.09.06.06,0,0,0,.08-.06s0-.08-.07-.06Z"/><path class="cls-71" d="M74.8,47.27a.08.08,0,0,0,.12,0s0-.09.07-.13a.17.17,0,0,1,.12-.08.08.08,0,0,1,.08,0,.07.07,0,0,1,0,.05.53.53,0,0,1,0,.28.24.24,0,0,1-.23.14.18.18,0,0,1-.12-.3Z"/><path class="cls-71" d="M74.54,46a.12.12,0,0,0-.14-.09.2.2,0,0,0-.12.13s0,.06,0,.07a0,0,0,0,0,0,0l.21-.09Z"/><path class="cls-71" d="M76.4,48.73a.19.19,0,0,1-.24.19.64.64,0,0,1,.07-.27.18.18,0,0,1,.25,0v.16Z"/><path class="cls-71" d="M73.88,47.63l-.07,0s0,.07,0,.11,0,.07.08,0a.05.05,0,0,0,0,0l0-.13Z"/><path class="cls-71" d="M75.05,45.12a.53.53,0,0,0-.13-.13.17.17,0,0,0-.18,0,.12.12,0,0,0,0,.08.18.18,0,0,0,.15.21.18.18,0,0,0,.19-.16Z"/><path class="cls-71" d="M72.35,43.45c-.06,0-.08.09-.09.15s0,.14-.07.17h0s0-.08,0-.13a.44.44,0,0,0,0-.1.23.23,0,0,1,.1-.22.12.12,0,0,1,.11.07.1.1,0,0,1,0,.12Z"/><path class="cls-71" d="M71,44.21a.17.17,0,0,0-.09.16c0,.06,0,.14-.08.17h0s0-.08,0-.13,0-.07,0-.1a.2.2,0,0,1,.1-.22.12.12,0,0,1,.11.07.11.11,0,0,1,0,.12Z"/><path class="cls-71" d="M69.87,43.82a.28.28,0,0,0-.15,0h0a.05.05,0,0,0,0,0,.12.12,0,0,0,0,.1.13.13,0,0,0,.12,0,.1.1,0,0,0,0-.05s0,0,0,0,0,0,0,0Z"/><path class="cls-71" d="M77.16,45.56a.17.17,0,1,0-.29-.05.13.13,0,0,0,.09.11c.07,0,.13,0,.18-.09v.06Z"/><path class="cls-71" d="M76,47.28a.12.12,0,0,0-.08,0,.18.18,0,0,0-.09,0,1,1,0,0,1-.23.12l.42.13h0s0,.08,0,.11.09.07.14.07C76.6,47.68,76.1,47.4,76,47.28Z"/><path class="cls-71" d="M77.16,48.77l-.12,0a.22.22,0,0,0,.07.23c.07,0,.19,0,.18-.1s0-.13,0-.13Z"/><path class="cls-71" d="M79.18,46.79a.18.18,0,0,1-.14.26.18.18,0,0,1-.17-.24.18.18,0,0,1,.3,0Z"/><path class="cls-71" d="M78.11,47.07c.09,0,.21,0,.22.13s-.1.15-.19.17a.11.11,0,0,1-.11,0c-.07-.06.08-.18,0-.26s.06,0,0,0Z"/><path class="cls-71" d="M78,46.69a.12.12,0,0,1,.09.05.3.3,0,0,1-.26,0,.13.13,0,0,1-.11-.09s0-.07,0-.1,0-.16,0-.2a.08.08,0,0,1,.1,0,.28.28,0,0,1,0,.12l0,.26Z"/><path class="cls-71" d="M77.78,48.05c0-.06-.15,0-.15.07a.29.29,0,0,0,.11.19.27.27,0,0,0,.08-.28Z"/><path class="cls-71" d="M76.86,46.62a.1.1,0,0,0,0-.17.21.21,0,0,0-.06.1.09.09,0,0,0,0,.09s.09,0,.08,0Z"/><path class="cls-71" d="M75.31,45.43a.1.1,0,0,0-.06-.16.16.16,0,0,0,0,.09.08.08,0,0,0,0,.1.05.05,0,0,0,.07-.06Z"/><path class="cls-71" d="M76,49.14a.26.26,0,0,0-.14-.21l-.09.19a.19.19,0,0,0,0,.1c0,.07.09.11.15.09a.17.17,0,0,0,.1-.16Z"/><path class="cls-71" d="M77.55,47a.23.23,0,0,0-.09-.23.27.27,0,0,0-.1.16.17.17,0,0,0,.1.21c.09,0,.18-.08.13-.15Z"/><path class="cls-71" d="M77.85,47.83a.15.15,0,0,1,0,.17l-.19-.08a.15.15,0,0,1,.19-.14Z"/><path class="cls-71" d="M76.87,48a.14.14,0,0,1,0,.14.16.16,0,0,1-.14,0s-.07,0,0-.08,0,0,0,0l.17-.1v0Z"/><path class="cls-71" d="M75.65,48c0,.06,0,.12.08.16s.11.09.1.15a.05.05,0,0,1,0,.05s-.07,0-.11-.06l-.1,0a.2.2,0,0,1-.12-.21.12.12,0,0,1,.11,0,.11.11,0,0,1,.1.08Z"/><path class="cls-71" d="M75,48.19l-.06,0a.07.07,0,0,0,.06.09.08.08,0,0,0,.09-.06.06.06,0,0,0-.08-.06Z"/><path class="cls-71" d="M77.12,46.15c0,.05.09,0,.12,0A.75.75,0,0,0,77.3,46a.22.22,0,0,1,.13-.08s.06,0,.07,0a.14.14,0,0,1,0,.06.55.55,0,0,1,0,.28.26.26,0,0,1-.23.13.19.19,0,0,1-.15-.11.17.17,0,0,1,0-.18Z"/><path class="cls-71" d="M72,44c0,.05.09,0,.12,0a.45.45,0,0,0,.06-.12.14.14,0,0,1,.12-.08.08.08,0,0,1,.08,0,.14.14,0,0,1,0,.06.61.61,0,0,1,0,.27.25.25,0,0,1-.23.14.16.16,0,0,1-.15-.11A.19.19,0,0,1,72,44Z"/><path class="cls-71" d="M72.14,43.38s.09,0,.12,0a.75.75,0,0,0,.06-.13.17.17,0,0,1,.12-.07.07.07,0,0,1,.08,0,.17.17,0,0,1,0,.05.52.52,0,0,1,0,.28.25.25,0,0,1-.23.14.18.18,0,0,1-.15-.11.19.19,0,0,1,0-.19Z"/><path class="cls-71" d="M73,43.8s.09,0,.12,0a.75.75,0,0,0,.06-.13.23.23,0,0,1,.12-.08s.07,0,.08,0a.08.08,0,0,1,0,0,.52.52,0,0,1,0,.28.27.27,0,0,1-.23.14A.18.18,0,0,1,73,44a.19.19,0,0,1,0-.19Z"/><path class="cls-71" d="M66.61,46.56s.09,0,.12,0a.75.75,0,0,0,.06-.13.23.23,0,0,1,.12-.08s.07,0,.08,0a.08.08,0,0,1,0,.05.52.52,0,0,1,0,.28.27.27,0,0,1-.23.14.18.18,0,0,1-.15-.11.19.19,0,0,1,0-.19Z"/><path class="cls-71" d="M74.92,48.7a.11.11,0,0,0-.14-.08.16.16,0,0,0-.12.12s0,.06,0,.07a0,0,0,0,0,0,0l.21-.09Z"/><path class="cls-71" d="M78.72,47.62a.19.19,0,0,1-.24.19.41.41,0,0,1,.07-.27.18.18,0,0,1,.25,0v.16Z"/><path class="cls-71" d="M75.84,48.85s0,0,0,.06a.1.1,0,0,1,0,.07l0,0a.13.13,0,0,1-.12-.05.13.13,0,0,1,0-.13.1.1,0,0,1,0,0,.05.05,0,0,1,.05,0Z"/><path class="cls-71" d="M76.2,46.52l-.07,0s0,.07,0,.11,0,.07.08,0,0,0,0,0l0-.14Z"/><path class="cls-71" d="M71.18,47a.58.58,0,0,0-.13-.14.17.17,0,0,0-.18,0,.12.12,0,0,0,0,.08.19.19,0,0,0,.15.21.18.18,0,0,0,.19-.17Z"/><path class="cls-71" d="M75.88,44.61a.13.13,0,0,1,.05.21l-.15,0a.26.26,0,0,1,.07-.15Z"/><path class="cls-71" d="M68.53,46.87l-.09,0a.08.08,0,0,0-.1,0s0,.11,0,.17-.07.11-.06.17.08.08.14.06a.31.31,0,0,0,.11-.14.33.33,0,0,0,0-.15.12.12,0,0,0-.1-.1Z"/><path class="cls-71" d="M73.23,44.52a.75.75,0,0,0-.2-.7.78.78,0,0,0-.54.49.46.46,0,0,0,.3.59c.25.06.51-.24.38-.46Z"/><path class="cls-71" d="M76,44.05s0,.06-.08.05a.12.12,0,0,1-.07-.07.08.08,0,0,1,0-.05.1.1,0,0,1,.09-.09A.1.1,0,0,1,76,44a.1.1,0,0,1-.1.09Z"/><path class="cls-71" d="M74.68,44.29a.17.17,0,0,0,0,.18c0,.06,0,.13,0,.18l0,0s0-.07-.06-.11,0-.06,0-.09a.19.19,0,0,1,0-.24.11.11,0,0,1,.15.15Z"/><path class="cls-71" d="M73,45.37l-.07,0a.08.08,0,0,0,0,.11s.08,0,.1,0a.06.06,0,0,0,0-.1Z"/><path class="cls-71" d="M74.33,45.07s0,0,0,.07a.11.11,0,0,1-.07,0h-.07a.09.09,0,0,1-.06-.11.12.12,0,0,1,.08-.09h.07a0,0,0,0,1,0,.06Z"/><path class="cls-71" d="M66.71,46.1a.73.73,0,0,0-.58-.44.8.8,0,0,0-.15.71.49.49,0,0,0,.61.3.35.35,0,0,0,0-.6Z"/><path class="cls-71" d="M76,46.17c0-.06-.15,0-.15.08a.25.25,0,0,0,.11.18.27.27,0,0,0,.08-.28Z"/><path class="cls-71" d="M75.15,48.42s.09,0,.12,0,0-.09.07-.13a.17.17,0,0,1,.12-.08s.06,0,.07,0,0,0,0,.05a.52.52,0,0,1,0,.28.24.24,0,0,1-.23.14.21.21,0,0,1-.15-.11.19.19,0,0,1,0-.19Z"/><path class="cls-71" d="M75.37,43.57H75.3a.08.08,0,1,0,.11.11s0-.09,0-.1Z"/><path class="cls-71" d="M74.86,44.81a1.74,1.74,0,0,0-.76-.24H74a.25.25,0,0,0-.14.19.54.54,0,0,0,.24.53.68.68,0,0,0,.59,0,.47.47,0,0,0,.23-.23.23.23,0,0,0-.1-.29s0,.06,0,.08Z"/><path class="cls-71" d="M72.41,45.37a.75.75,0,0,0-.58-.44.8.8,0,0,0-.15.71.48.48,0,0,0,.6.3c.23-.1.26-.5,0-.59Z"/><path class="cls-71" d="M70.14,44.28a.36.36,0,0,0-.27-.21.77.77,0,0,0,0,.15.13.13,0,0,0,.09.12c.07,0,.13,0,.18-.09v0Z"/><path class="cls-71" d="M69.31,44.44a.15.15,0,0,0-.09,0,.12.12,0,0,0-.08,0,1,1,0,0,1-.23.12l.42.12,0,0s0,.07,0,.11.09.07.15.07C70,44.83,69.45,44.55,69.31,44.44Z"/><path class="cls-71" d="M74.43,44.15l-.12,0a.2.2,0,0,0,.07.22c.07.05.19,0,.18-.09s0-.13,0-.13Z"/><path class="cls-71" d="M71,45.41a.13.13,0,0,1,.09,0,.27.27,0,0,1-.26,0,.13.13,0,0,1-.11-.09s0-.07,0-.1,0-.17,0-.2a.08.08,0,0,1,.1,0,.28.28,0,0,1,0,.12l0,.26Z"/><path class="cls-71" d="M70.76,46.77c0-.06-.15,0-.15.07a.29.29,0,0,0,.11.19.27.27,0,0,0,.08-.28Z"/><path class="cls-71" d="M69.58,45.73a.06.06,0,0,1,0,.08.12.12,0,0,1-.1,0,.1.1,0,0,1,0,0,.08.08,0,0,1,0-.12.1.1,0,0,1,.13,0,.11.11,0,0,1,0,.13Z"/><path class="cls-71" d="M69.84,45.34a.1.1,0,0,0,0-.17.21.21,0,0,0-.06.1.09.09,0,0,0,0,.09s.09,0,.08-.06Z"/><path class="cls-71" d="M70.9,44.07a.33.33,0,0,0-.14-.22l-.1.2s0,.06,0,.09a.11.11,0,0,0,.15.09.15.15,0,0,0,.1-.15Z"/><path class="cls-71" d="M69.85,46.72a.16.16,0,0,1,0,.15.13.13,0,0,1-.14,0s-.07,0,0-.07,0,0,0,0l.17-.1v0Z"/><path class="cls-71" d="M69.21,47.51c-.06,0-.08.09-.09.15s0,.14-.07.17a0,0,0,0,1,0,0s0-.08,0-.12,0-.07,0-.11a.24.24,0,0,1,.1-.22.13.13,0,0,1,.1.2Z"/><path class="cls-71" d="M68.73,47.1l-.07,0a.08.08,0,0,0,0,.1.07.07,0,0,0,.1,0,.06.06,0,0,0,0-.1Z"/><path class="cls-71" d="M70.1,44.87s.09,0,.12,0a.76.76,0,0,0,.07-.13.14.14,0,0,1,.12-.07.06.06,0,0,1,.07,0,.07.07,0,0,1,0,.06.5.5,0,0,1,0,.27.23.23,0,0,1-.23.14.19.19,0,0,1-.13-.3Z"/><path class="cls-71" d="M69.83,43.62a.11.11,0,0,0-.13-.08.18.18,0,0,0-.12.12.06.06,0,0,0,0,.07s0,0,.05,0l.2-.1Z"/><path class="cls-71" d="M71.7,46.34a.19.19,0,0,1-.24.19.41.41,0,0,1,.07-.27.16.16,0,0,1,.25,0v.16Z"/><path class="cls-71" d="M69.18,45.23l-.07,0s0,.06,0,.1.05.08.08.05,0,0,0,0l0-.14Z"/><path class="cls-71" d="M75.92,45.2a.33.33,0,0,0-.13-.13.17.17,0,0,0-.18,0,.2.2,0,0,0,0,.08.19.19,0,0,0,.15.21.18.18,0,0,0,.19-.16Z"/><path class="cls-71" d="M73,47.5l-.12,0a.24.24,0,0,0,0,.09.12.12,0,0,0,.17,0Z"/><path class="cls-71" d="M79.11,46.08a.06.06,0,0,1,0,.08.12.12,0,0,1-.1,0,.1.1,0,0,1,0,0A.08.08,0,0,1,79,46a.09.09,0,0,1,.1.16Z"/><path class="cls-71" d="M72.4,46.63l-.12-.05a.3.3,0,0,0,0,.1.12.12,0,0,0,.17,0Z"/><path class="cls-71" d="M65.81,44.74c0-.05-.08-.06-.12,0a1.09,1.09,0,0,0-.1.11.14.14,0,0,1-.13,0,.08.08,0,0,1-.07,0s0,0,0-.06a.49.49,0,0,1,.12-.25.24.24,0,0,1,.26-.07.21.21,0,0,1,.11.15.16.16,0,0,1-.08.17Z"/><path class="cls-71" d="M74.75,45.44l.07.09a.09.09,0,0,0,.1,0s0-.11.06-.16.1-.08.11-.14-.06-.1-.12-.1a.23.23,0,0,0-.14.1.22.22,0,0,0-.08.13.11.11,0,0,0,.06.13Z"/><path class="cls-71" d="M72.14,44.55a1.43,1.43,0,0,0,.65,0l.1,0a.19.19,0,0,0,.06-.18.41.41,0,0,0-.32-.35.53.53,0,0,0-.46.13.35.35,0,0,0-.12.24.2.2,0,0,0,.15.2,0,0,0,0,0,0-.07Z"/><path class="cls-71" d="M73,43.21a.17.17,0,0,0,0-.1.24.24,0,0,0-.08-.06l-.22-.13.1.42v0s-.06.05-.09.08a.12.12,0,0,0,0,.16C72.94,44,72.94,43.38,73,43.21Z"/><path class="cls-71" d="M72.14,44.5l-.06,0a.07.07,0,0,0,0,.1.06.06,0,0,0,.09,0,.06.06,0,0,0,0-.1Z"/><path class="cls-71" d="M72.29,43.34a.12.12,0,0,0,0-.16.14.14,0,0,0-.16,0s-.06,0,0,0,0,0,0,0l.18.13Z"/><path class="cls-71" d="M72,44.08a.38.38,0,0,0,0-.34l-.15.06a.14.14,0,0,0-.06.13c0,.07.11.1.18.11l0,0Z"/><path class="cls-71" d="M71.6,44.42a.12.12,0,0,1,0,.1c-.09,0-.12-.13-.14-.22s0-.12,0-.14a.18.18,0,0,1,.1,0c.07,0,.14-.1.2-.06a.09.09,0,0,1,0,.11s0,.06-.08.09l-.2.16Z"/><path class="cls-71" d="M72.71,43.65a.29.29,0,0,0,.12-.23l-.22,0-.1,0a.13.13,0,0,0,0,.18.18.18,0,0,0,.19,0Z"/><path class="cls-71" d="M71.62,43.36s0,.09.06.1a.76.76,0,0,0,.15,0,.17.17,0,0,1,.12.07.08.08,0,0,1,0,.08l0,0a.52.52,0,0,1-.26.1.22.22,0,0,1-.23-.13.18.18,0,0,1,.19-.25Z"/><path class="cls-71" d="M73.56,45.77a.61.61,0,0,0,0-.18.15.15,0,0,0-.1-.15h-.09a.17.17,0,0,0-.1.23.18.18,0,0,0,.24.09Z"/><path class="cls-71" d="M74.27,44.56a.45.45,0,0,0,0-.34.52.52,0,0,0-.15.06.15.15,0,0,0-.06.14c0,.07.1.09.17.11l0,0Z"/><path class="cls-71" d="M71.39,44.47c-.07,0-.09.09-.1.15s0,.14-.09.16h0s0-.08,0-.12,0-.07,0-.11a.23.23,0,0,1,.11-.21.12.12,0,0,1,.09.2Z"/><path class="cls-71" d="M75.64,46.92h-.08a.11.11,0,0,0,0,.11.08.08,0,0,0,.1,0s0-.09,0-.09Z"/><path class="cls-71" d="M73,44.2v-.08s-.09,0-.12,0,0,.09,0,.1h0l.14,0Z"/><path class="cls-72" d="M78.38,132.53a4.88,4.88,0,0,0-.87-2.09,1.07,1.07,0,0,0-.25-.27.71.71,0,0,0-.69.05,1.47,1.47,0,0,0-.7,1.48,1.84,1.84,0,0,0,1,1.33,1.17,1.17,0,0,0,.93.09.68.68,0,0,0,.47-.75.16.16,0,0,0-.21.15Z"/><path class="cls-72" d="M73.19,124.57a.93.93,0,0,0,0-.9,1,1,0,0,0-.81.41.6.6,0,0,0,.17.81c.28.15.69-.13.6-.43Z"/><path class="cls-72" d="M75.38,128.65a.52.52,0,0,0,.26-.34.69.69,0,0,0-.2,0,.17.17,0,0,0-.14.12c0,.09,0,.16.12.22h-.07Z"/><path class="cls-72" d="M75.69,129.13a.16.16,0,0,1,0,.13c-.11,0-.17-.15-.21-.25s0-.14,0-.18.08,0,.12,0,.15-.14.23-.11a.1.1,0,0,1,0,.13.26.26,0,0,1-.08.13l-.22.24Z"/><path class="cls-72" d="M72.29,122.6c0-.09-.11-.15-.18-.09a.31.31,0,0,0-.09.25.33.33,0,0,0,.33-.14Z"/><path class="cls-72" d="M71.93,132a.22.22,0,0,0,0-.14.11.11,0,0,0-.1-.08c-.07,0-.11.09-.17.13s-.16,0-.21.06a.14.14,0,0,0,0,.19.3.3,0,0,0,.21,0,.36.36,0,0,0,.18-.07.14.14,0,0,0,0-.18Z"/><path class="cls-72" d="M69.24,123.76s-.07,0-.11,0a.18.18,0,0,1-.07-.1.22.22,0,0,1,0-.08.11.11,0,0,1,.14-.07.13.13,0,0,1,.06.15.12.12,0,0,1-.14.07Z"/><path class="cls-72" d="M74.06,128.31a.13.13,0,0,0,.21-.07.24.24,0,0,0-.13-.07s-.1,0-.11.07,0,.1.07.09Z"/><path class="cls-72" d="M75.67,129.58a.42.42,0,0,0,.27-.18l-.25-.11a.18.18,0,0,0-.12,0,.15.15,0,0,0-.11.19.23.23,0,0,0,.2.12Z"/><path class="cls-72" d="M75.11,135.38a.16.16,0,0,1-.15.09.16.16,0,0,1-.15-.11s0-.1,0-.1a0,0,0,0,1,.05,0l.23.08,0,0Z"/><path class="cls-72" d="M74.17,134.21c-.08,0-.1.12-.1.2a.23.23,0,0,1-.08.21.06.06,0,0,1-.06,0c-.05,0,0-.1,0-.15a.5.5,0,0,0,0-.13.26.26,0,0,1,.1-.28.14.14,0,0,1,.14.07.14.14,0,0,1,0,.16Z"/><path class="cls-72" d="M73.52,133.75l-.08,0a.1.1,0,0,0,0,.13.1.1,0,0,0,.12,0,.08.08,0,0,0,0-.13Z"/><path class="cls-72" d="M70.33,124.38l-.08,0a.1.1,0,0,0,0,.13.1.1,0,0,0,.12,0,.08.08,0,0,0,0-.13Z"/><path class="cls-72" d="M74.65,128.62c-.05,0,0,.11,0,.15l.16.07a.2.2,0,0,1,.1.15.12.12,0,0,1,0,.1l-.07,0a.6.6,0,0,1-.35-.05.3.3,0,0,1-.18-.27.23.23,0,0,1,.14-.19.21.21,0,0,1,.23,0Z"/><path class="cls-72" d="M76.19,128.24a.14.14,0,0,0,.1-.17.23.23,0,0,0-.16-.14.06.06,0,0,0-.08,0,.07.07,0,0,0,0,.06l.12.25Z"/><path class="cls-72" d="M74.27,125.34a.24.24,0,0,1-.37-.1.56.56,0,0,1,.32-.13c.12,0,.24.1.22.21l-.16.13Z"/><path class="cls-72" d="M79.33,135.92a.07.07,0,0,1,0,.09.12.12,0,0,1-.1,0l-.08,0a.14.14,0,0,1,0-.15.16.16,0,0,1,.14-.08.07.07,0,0,1,.07,0,0,0,0,0,1,0,.07Z"/><path class="cls-72" d="M74.17,127.48l0-.08a.17.17,0,0,0-.13-.05s-.09.07,0,.1l0,0,.17,0Z"/><path class="cls-72" d="M73.13,126.14a.58.58,0,0,0,0-.23.22.22,0,0,0-.15-.17.21.21,0,0,0-.19.33.21.21,0,0,0,.3.06Z"/><path class="cls-72" d="M73.31,125.34l-.06-.15a.2.2,0,0,0-.11,0,.14.14,0,0,0,.14.15Z"/><path class="cls-72" d="M70.68,122.46a2.17,2.17,0,0,0-.67-.61.42.42,0,0,0-.14-.06.29.29,0,0,0-.24.14.57.57,0,0,0,0,.65.72.72,0,0,0,.6.31.48.48,0,0,0,.35-.12.29.29,0,0,0,.05-.35.06.06,0,0,0-.05.09Z"/><path class="cls-72" d="M74.07,131.36a.45.45,0,0,0,0-.42.59.59,0,0,0-.17.1.17.17,0,0,0,0,.18c0,.08.14.1.23.1l-.06.05Z"/><path class="cls-72" d="M73.27,130.68a.13.13,0,0,0-.12-.17,2.08,2.08,0,0,1-.3-.13l.2.5v0c0,.05-.06.07-.09.11s0,.15,0,.2C73.38,131.6,73.27,130.9,73.27,130.68Z"/><path class="cls-72" d="M73.64,133.08a.28.28,0,0,1,0,.13c-.11,0-.17-.15-.21-.26s0-.13,0-.17.08,0,.12-.05.15-.13.23-.1a.11.11,0,0,1,.05.13c0,.05-.05.08-.08.12l-.22.24Z"/><path class="cls-72" d="M72.23,131.93a.08.08,0,0,1-.11,0,.14.14,0,0,1-.07-.1.11.11,0,0,1,0-.08.1.1,0,0,1,.14-.06.12.12,0,0,1,.06.14.12.12,0,0,1-.15.07Z"/><path class="cls-72" d="M72.81,131.89a.13.13,0,0,0,.12-.19.22.22,0,0,0-.14,0,.11.11,0,0,0-.05.12.09.09,0,0,0,.12,0Z"/><path class="cls-72" d="M74.86,131.94a.35.35,0,0,0,.1-.3l-.26.05a.31.31,0,0,0-.12.05.15.15,0,0,0,0,.22.21.21,0,0,0,.23,0Z"/><path class="cls-72" d="M77.65,136.54l-.08,0a.12.12,0,0,0,0,.14.1.1,0,0,0,.13,0,.07.07,0,0,0,0-.12Z"/><path class="cls-72" d="M73.46,131.78c0,.05.05.11.1.11a1.16,1.16,0,0,0,.18,0,.27.27,0,0,1,.17.06.12.12,0,0,1,0,.1.07.07,0,0,1,0,.05.65.65,0,0,1-.3.18.31.31,0,0,1-.31-.12.24.24,0,0,1,0-.23.24.24,0,0,1,.2-.12Z"/><path class="cls-72" d="M74.48,130.56a.14.14,0,0,0,0-.2.2.2,0,0,0-.21,0s-.06,0,0,.08,0,0,0,0l.24.13Z"/><path class="cls-72" d="M73.27,134.47a.24.24,0,0,1-.37-.1.61.61,0,0,1,.31-.13c.12,0,.25.1.22.21l-.15.13Z"/><path class="cls-72" d="M72.4,131.16l0-.1s-.1,0-.13,0,0,.11,0,.12h0l.16-.08Z"/><path class="cls-72" d="M75.75,130.37a.46.46,0,0,0,0-.23.18.18,0,0,0-.14-.17.14.14,0,0,0-.11,0,.22.22,0,1,0,.22.37Z"/><path class="cls-72" d="M75.3,126.45c-.06,0-.15,0-.22,0s-.15.09-.22.06a.07.07,0,0,1,0-.05s.07-.08.11-.11.06-.07.09-.1a.26.26,0,0,1,.29-.07.18.18,0,0,1,0,.16.16.16,0,0,1-.14.08Z"/><path class="cls-72" d="M73.49,125.7c-.06,0-.15,0-.22,0a.23.23,0,0,1-.22.06.1.1,0,0,1,0-.05s.07-.07.11-.11.06-.07.09-.1a.26.26,0,0,1,.29-.07.15.15,0,0,1,0,.16.15.15,0,0,1-.14.08Z"/><path class="cls-72" d="M73,124.32a.48.48,0,0,0-.08-.18s0,0,0,0a.07.07,0,0,0-.06,0,.15.15,0,0,0-.06.13.15.15,0,0,0,.09.1.08.08,0,0,0,.08,0s0,0,0-.06,0,0,0,0Z"/><path class="cls-72" d="M76.94,132.76a.51.51,0,0,0,0-.42.59.59,0,0,0-.17.1.18.18,0,0,0,0,.18.24.24,0,0,0,.23.1l0,.05Z"/><path class="cls-72" d="M74.34,132.92a.14.14,0,0,0,0-.11.17.17,0,0,0-.1-.06,1.88,1.88,0,0,1-.3-.12l.2.5a.05.05,0,0,1,0,0c0,.05-.07.07-.1.11s0,.14.06.19C74.45,133.84,74.34,133.15,74.34,132.92Z"/><path class="cls-72" d="M73.81,135.24l0-.15a.25.25,0,0,0-.17.24c0,.1.16.18.24.11s.1-.14.14-.09Z"/><path class="cls-72" d="M77.29,135.67a.22.22,0,0,1-.36.07.21.21,0,1,1,.37-.09Z"/><path class="cls-72" d="M76.19,134.85c.07.1.13.24,0,.32s-.22,0-.31,0a.16.16,0,0,1-.08-.12c0-.12.25-.06.28-.18s.06.05,0,.07Z"/><path class="cls-72" d="M76.51,134.48a.28.28,0,0,1,0,.13c-.11,0-.17-.15-.21-.25a.17.17,0,0,1,0-.18.33.33,0,0,1,.13,0c.08,0,.15-.14.23-.11a.12.12,0,0,1,0,.13.36.36,0,0,1-.08.12l-.22.24Z"/><path class="cls-72" d="M82.44,139.11a.28.28,0,0,1,0,.13c-.11,0-.17-.15-.21-.25a.17.17,0,0,1,0-.18.69.69,0,0,1,.13-.05c.08,0,.15-.13.23-.1a.12.12,0,0,1,0,.13.36.36,0,0,1-.08.12l-.22.24Z"/><path class="cls-72" d="M75,135.28c0-.08-.12-.14-.19-.09a.37.37,0,0,0-.09.25.33.33,0,0,0,.33-.13Z"/><path class="cls-72" d="M75.68,133.29c.09,0,.17-.11.12-.18a.17.17,0,0,0-.14,0,.1.1,0,0,0,0,.12c0,.05.08.07.11,0Z"/><path class="cls-72" d="M75.64,130.86a.12.12,0,0,0,.12-.18.22.22,0,0,0-.14,0s-.07.08-.05.12.08.07.11,0Z"/><path class="cls-72" d="M72.54,134.37a.34.34,0,0,0,.1-.3l-.26.06a.22.22,0,0,0-.11.05.13.13,0,0,0,0,.21.2.2,0,0,0,.23,0Z"/><path class="cls-72" d="M75.88,134.23A.29.29,0,0,0,76,134a.5.5,0,0,0-.24,0,.23.23,0,0,0-.12.26c0,.1.22.12.24,0Z"/><path class="cls-72" d="M75.26,135.18a.17.17,0,0,1-.18.11l-.07-.24a.2.2,0,0,1,.29.08Z"/><path class="cls-72" d="M74.33,134.36a.19.19,0,0,1-.15.09.16.16,0,0,1-.15-.11s0-.1,0-.11h.05l.23.09,0,0Z"/><path class="cls-72" d="M73.39,133.19c-.08,0-.1.12-.1.2a.23.23,0,0,1-.08.21.06.06,0,0,1-.06,0c-.05,0,0-.1,0-.15a.5.5,0,0,0,0-.13.26.26,0,0,1,.1-.28.14.14,0,0,1,.14.07.14.14,0,0,1,0,.16Z"/><path class="cls-72" d="M72.74,132.73l-.08,0a.11.11,0,0,0,0,.14.1.1,0,0,0,.12,0,.08.08,0,0,0,0-.13Z"/><path class="cls-72" d="M76.33,133.18c0,.06,0,.11.1.11l.18,0a.18.18,0,0,1,.16.05.1.1,0,0,1,0,.1l0,.06a.75.75,0,0,1-.3.17.3.3,0,0,1-.31-.12.21.21,0,0,1,0-.23.24.24,0,0,1,.2-.12Z"/><path class="cls-72" d="M74.5,126.51s0,.11.1.11a1,1,0,0,0,.17,0,.25.25,0,0,1,.17.06.1.1,0,0,1,0,.1l0,.05a.67.67,0,0,1-.3.18.3.3,0,0,1-.31-.12.21.21,0,0,1,0-.23.24.24,0,0,1,.2-.12Z"/><path class="cls-72" d="M75.2,126.19c0,.06,0,.11.1.11s.12,0,.18,0a.17.17,0,0,1,.16.06.09.09,0,0,1,0,.09l0,.06a.65.65,0,0,1-.3.17.3.3,0,0,1-.31-.11.23.23,0,0,1,0-.24.24.24,0,0,1,.2-.12Z"/><path class="cls-72" d="M75.46,127.35c0,.06,0,.11.1.12s.11,0,.17,0a.19.19,0,0,1,.17.06.1.1,0,0,1,0,.09s0,0,0,.06a.56.56,0,0,1-.3.17.3.3,0,0,1-.31-.11.29.29,0,0,1,0-.24.24.24,0,0,1,.2-.12Z"/><path class="cls-72" d="M67.85,123.25s0,.11.1.11a.85.85,0,0,0,.17,0,.24.24,0,0,1,.17.06.1.1,0,0,1,0,.1.1.1,0,0,1,0,0,.78.78,0,0,1-.3.18.3.3,0,0,1-.31-.12.21.21,0,0,1,0-.23.24.24,0,0,1,.2-.12Z"/><path class="cls-72" d="M72.16,133a.13.13,0,0,0,0-.19.2.2,0,0,0-.21,0s-.06,0,0,.07,0,0,0,0l.24.13Z"/><path class="cls-72" d="M76.13,135.87a.24.24,0,0,1-.37-.1.64.64,0,0,1,.32-.13.21.21,0,0,1,.22.22l-.16.13Z"/><path class="cls-72" d="M72.71,134s0,.07,0,.08a.15.15,0,0,1-.1,0s0,0-.07,0a.11.11,0,0,1,0-.14.15.15,0,0,1,.13-.09s.06,0,.07,0a0,0,0,0,1,0,.07Z"/><path class="cls-72" d="M75.27,132.56l0-.09a.18.18,0,0,0-.14,0s0,.1,0,.11h.06l.16-.07Z"/><path class="cls-72" d="M71,128a.66.66,0,0,0,0-.24.2.2,0,0,0-.15-.16.15.15,0,0,0-.11,0,.22.22,0,0,0-.08.3A.24.24,0,0,0,71,128Z"/><path class="cls-72" d="M76.88,130.78a.15.15,0,0,1-.16.21.34.34,0,0,1-.1-.16.34.34,0,0,1,.2,0Z"/><path class="cls-72" d="M69,125.36a.2.2,0,0,0,0-.13.11.11,0,0,0-.09-.08c-.08,0-.12.09-.18.12s-.16,0-.21.07,0,.15,0,.18a.28.28,0,0,0,.22,0,.27.27,0,0,0,.17-.08.13.13,0,0,0,0-.17Z"/><path class="cls-72" d="M74.93,128.14a.92.92,0,0,0,.52-.74,1,1,0,0,0-.88-.16.6.6,0,0,0-.35.76.42.42,0,0,0,.74,0Z"/><path class="cls-72" d="M77.55,130.51a.08.08,0,0,1-.11,0,.13.13,0,0,1,0-.12.09.09,0,0,1,0-.06.1.1,0,0,1,.15,0,.12.12,0,0,1,0,.15.12.12,0,0,1-.15,0Z"/><path class="cls-72" d="M76.27,129.37a.21.21,0,0,0-.2.1c0,.07-.11.14-.19.13a.05.05,0,0,1,0,0s0-.1.06-.14a.29.29,0,0,0,0-.13.28.28,0,0,1,.25-.16.14.14,0,0,1,.07.14.14.14,0,0,1-.1.13Z"/><path class="cls-72" d="M73.9,128.52l0-.08a.12.12,0,0,0-.11.08.09.09,0,0,0,.08.11.07.07,0,0,0,.07-.1Z"/><path class="cls-72" d="M75.24,129.62a.06.06,0,0,1-.07.06.15.15,0,0,1-.09,0l0-.07a.13.13,0,0,1,.06-.14.15.15,0,0,1,.16,0,.07.07,0,0,1,0,.06s0,.06,0,.06Z"/><path class="cls-72" d="M68.38,123a.93.93,0,0,0,0-.9,1,1,0,0,0-.81.41.6.6,0,0,0,.17.81c.28.14.69-.13.6-.43Z"/><path class="cls-72" d="M75.47,132.13c0-.09-.11-.15-.18-.09a.33.33,0,0,0-.1.25.31.31,0,0,0,.33-.14Z"/><path class="cls-72" d="M72.61,133c0,.05,0,.11.1.11a1,1,0,0,0,.17,0,.18.18,0,0,1,.17.06.09.09,0,0,1,0,.09s0,0,0,.06a.65.65,0,0,1-.3.17.3.3,0,0,1-.31-.11.23.23,0,0,1,0-.24.27.27,0,0,1,.2-.12Z"/><path class="cls-72" d="M77.5,129.49l0-.08a.11.11,0,0,0-.11.08.09.09,0,0,0,.08.11s.1,0,.08-.1Z"/><path class="cls-72" d="M75.9,129.94a2.29,2.29,0,0,0-.35-.92.43.43,0,0,0-.11-.12.35.35,0,0,0-.3,0,.66.66,0,0,0-.32.64.82.82,0,0,0,.43.59.56.56,0,0,0,.4.05.29.29,0,0,0,.21-.32.06.06,0,0,0-.09.06Z"/><path class="cls-72" d="M73.47,128a.93.93,0,0,0,0-.9,1,1,0,0,0-.81.41.59.59,0,0,0,.18.81c.27.15.68-.13.6-.43Z"/><path class="cls-72" d="M72.79,124.94a.51.51,0,0,0,0-.42.46.46,0,0,0-.17.09.16.16,0,0,0-.05.18c0,.08.14.1.23.11l0,0Z"/><path class="cls-72" d="M72,124.25a.14.14,0,0,0,0-.11.17.17,0,0,0-.1-.06,1.88,1.88,0,0,1-.3-.12l.2.5s0,0,0,0-.06.07-.09.11,0,.14.06.19C72.1,125.17,72,124.48,72,124.25Z"/><path class="cls-72" d="M76.21,129l0-.15a.27.27,0,0,0-.17.24c0,.11.16.18.24.11s.1-.13.14-.09Z"/><path class="cls-72" d="M72.36,126.65a.2.2,0,0,1,0,.13.36.36,0,0,1-.21-.25c0-.06,0-.14,0-.18s.08,0,.12,0,.16-.14.24-.1.06.07,0,.12a.38.38,0,0,1-.09.13l-.22.24Z"/><path class="cls-72" d="M70.84,127.46c0-.09-.12-.15-.19-.09a.3.3,0,0,0-.09.25.33.33,0,0,0,.33-.14Z"/><path class="cls-72" d="M71,125.51a.09.09,0,0,1-.11,0,.19.19,0,0,1-.08-.11v-.07a.11.11,0,0,1,.14-.07.11.11,0,0,1,.06.15.13.13,0,0,1-.14.07Z"/><path class="cls-72" d="M71.52,125.46a.13.13,0,0,0,.13-.18.22.22,0,0,0-.14,0s-.07.08-.05.12a.06.06,0,0,0,.11,0Z"/><path class="cls-72" d="M73.58,125.51a.41.41,0,0,0,.1-.3l-.26.06a.22.22,0,0,0-.12,0,.14.14,0,0,0,0,.21.2.2,0,0,0,.23,0Z"/><path class="cls-72" d="M70.18,126.53a.15.15,0,0,1-.16.09.16.16,0,0,1-.14-.11.07.07,0,0,1,0-.1s0,0,0,0l.23.09,0,0Z"/><path class="cls-72" d="M68.93,126.52c-.06,0-.16,0-.22,0s-.15.09-.22.06a.07.07,0,0,1,0,0c0-.06.06-.08.11-.11l.08-.1a.26.26,0,0,1,.29-.07.12.12,0,0,1,0,.15.14.14,0,0,1-.13.09Z"/><path class="cls-72" d="M69,125.73v-.09a.11.11,0,0,0-.13,0,.1.1,0,0,0,0,.13.08.08,0,0,0,.11-.07Z"/><path class="cls-72" d="M72.18,125.35c0,.06,0,.12.1.12s.11,0,.17,0a.18.18,0,0,1,.17.06.09.09,0,0,1,0,.09l0,.06a.65.65,0,0,1-.3.17.3.3,0,0,1-.31-.11.23.23,0,0,1,0-.24.24.24,0,0,1,.2-.12Z"/><path class="cls-72" d="M73.19,124.13a.14.14,0,0,0,0-.19.2.2,0,0,0-.21,0s-.07,0-.06.07a.12.12,0,0,0,0,.05l.24.12Z"/><path class="cls-72" d="M72,128a.24.24,0,0,1-.37-.09.56.56,0,0,1,.32-.13c.12,0,.24.09.22.21l-.16.13Z"/><path class="cls-72" d="M71.11,124.73v-.09a.18.18,0,0,0-.14,0s0,.11,0,.11a.07.07,0,0,0,.06,0l.16-.07Z"/><path class="cls-72" d="M76.34,131.28a.63.63,0,0,0,0-.23.19.19,0,0,0-.14-.17.17.17,0,0,0-.12,0,.22.22,0,1,0,.23.37Z"/><path class="cls-72" d="M71.85,130.2l-.06-.15a.2.2,0,0,0-.11,0,.15.15,0,0,0,.14.15Z"/><path class="cls-72" d="M77.94,135.06a.09.09,0,0,1-.11,0,.16.16,0,0,1-.07-.11.17.17,0,0,1,0-.07.11.11,0,0,1,.14-.07A.11.11,0,0,1,78,135a.13.13,0,0,1-.14.07Z"/><path class="cls-72" d="M72.24,128.94l0-.15-.12,0a.15.15,0,0,0,.15.15Z"/><path class="cls-72" d="M69,121.07s0-.12-.07-.13a1,1,0,0,0-.17,0,.23.23,0,0,1-.15-.1.14.14,0,0,1,0-.11.1.1,0,0,1,0,0,.68.68,0,0,1,.34-.08.3.3,0,0,1,.26.21.23.23,0,0,1-.28.28Z"/><path class="cls-72" d="M75.2,130.33a.5.5,0,0,0,0,.13s0,.09.07.1.14-.05.21-.07.15,0,.22,0,0-.14,0-.19a.35.35,0,0,0-.2-.07.62.62,0,0,0-.19,0,.15.15,0,0,0-.08.17Z"/><path class="cls-72" d="M74.06,127.1a1.82,1.82,0,0,0,.5.63.24.24,0,0,0,.11.06.23.23,0,0,0,.23-.08.5.5,0,0,0,.09-.57.61.61,0,0,0-.47-.35.42.42,0,0,0-.33.06.24.24,0,0,0-.08.3s.07,0,0-.07Z"/><path class="cls-72" d="M76,126.86s.07,0,.08-.08a.14.14,0,0,0,0-.11c0-.11,0-.22,0-.32l-.33.42,0,0s-.09,0-.14,0-.13.08-.15.15C75.26,127.42,75.81,127,76,126.86Z"/><path class="cls-72" d="M74.11,127.06V127a.12.12,0,0,0-.14,0,.1.1,0,0,0,0,.13.08.08,0,0,0,.11-.06Z"/><path class="cls-72" d="M75.36,126.31a.16.16,0,0,0,.16-.12.22.22,0,0,0-.09-.2s-.07,0-.09,0a.1.1,0,0,0,0,.07l0,.27Z"/><path class="cls-72" d="M74.42,126.6a.49.49,0,0,0,.37-.21.59.59,0,0,0-.17-.1.2.2,0,0,0-.18,0c0,.07,0,.17,0,.25l-.07,0Z"/><path class="cls-72" d="M73.78,126.47a.16.16,0,0,1-.1.08.36.36,0,0,1,.11-.3s.1-.1.16-.08.07,0,.1.08.2.06.21.15a.13.13,0,0,1-.09.11.38.38,0,0,1-.15,0l-.32-.07Z"/><path class="cls-72" d="M75.38,127a.39.39,0,0,0,.31-.06l-.18-.2s-.06-.07-.1-.08a.16.16,0,0,0-.18.13.21.21,0,0,0,.14.19Z"/><path class="cls-72" d="M74.82,125.67c-.06,0-.08.09,0,.14a1.42,1.42,0,0,0,.12.13.23.23,0,0,1,0,.18s0,.07-.06.08h-.07a.65.65,0,0,1-.3-.18.29.29,0,0,1-.06-.32.24.24,0,0,1,.2-.12.21.21,0,0,1,.2.11Z"/><path class="cls-72" d="M74,129.41a.56.56,0,0,0,.21-.09.19.19,0,0,0,.07-.21.18.18,0,0,0-.07-.08.21.21,0,0,0-.3.07.22.22,0,0,0,.09.3Z"/><path class="cls-72" d="M75.69,129.17a.47.47,0,0,0,.36-.21.54.54,0,0,0-.16-.1.19.19,0,0,0-.18,0,.25.25,0,0,0,0,.25l-.07,0Z"/><path class="cls-72" d="M73.56,126.3a.2.2,0,0,0-.22,0c-.07,0-.16.08-.23,0a.1.1,0,0,1,0,0c0-.06.07-.08.12-.11s.06-.06.09-.09a.26.26,0,0,1,.3,0,.15.15,0,0,1,0,.16.14.14,0,0,1-.14.07Z"/><path class="cls-72" d="M74.44,132.33l0-.08a.13.13,0,0,0-.09.11.09.09,0,0,0,.1.09.08.08,0,0,0,0-.12Z"/><path class="cls-72" d="M75,127.62l.07-.06s-.06-.09-.1-.1-.11,0-.09.08l0,0,.15.1Z"/><path class="cls-72" d="M104.35,150.89a.39.39,0,0,0-.11-.06.09.09,0,0,0-.12,0c-.05.06,0,.14,0,.22s-.09.13-.07.2.11.1.18.07a.46.46,0,0,0,.17-.36.15.15,0,0,0-.13-.13Z"/><path class="cls-72" d="M96,148.32a.08.08,0,0,1,0,.11.19.19,0,0,1-.13,0l-.06,0a.11.11,0,1,1,.18-.12.14.14,0,0,1,0,.16Z"/><path class="cls-72" d="M102.53,147a.13.13,0,0,0,.06-.21.2.2,0,0,0-.12.06.11.11,0,0,0,0,.13.07.07,0,0,0,.12,0Z"/><path class="cls-72" d="M108.92,150.22a.17.17,0,0,1,0,.18.16.16,0,0,1-.17.06s-.08-.06-.07-.09,0,0,0,0l.21-.13v0Z"/><path class="cls-72" d="M107.41,150.32c0,.08,0,.15.11.2s.14.1.13.18a.09.09,0,0,1,0,.06s-.09,0-.14-.07l-.12,0a.27.27,0,0,1-.17-.25.13.13,0,0,1,.14-.07.14.14,0,0,1,.12.09Z"/><path class="cls-72" d="M106.67,150.58l-.08,0a.11.11,0,0,0,.08.11.09.09,0,0,0,.11-.08c0-.05-.06-.1-.1-.08Z"/><path class="cls-72" d="M97.17,147.78l-.08.05a.1.1,0,0,0,.09.1.08.08,0,0,0,.1-.08.07.07,0,0,0-.1-.07Z"/><path class="cls-72" d="M100.22,146.52a.65.65,0,0,0-.17-.16.22.22,0,0,0-.22,0,.22.22,0,0,0,0,.11.24.24,0,0,0,.2.24.22.22,0,0,0,.23-.21Z"/><path class="cls-72" d="M95.8,146.4a2.13,2.13,0,0,0-.89.19.94.94,0,0,0-.12.09.29.29,0,0,0,0,.27.58.58,0,0,0,.54.38.7.7,0,0,0,.59-.31.47.47,0,0,0,.11-.36.29.29,0,0,0-.27-.23s0,.08,0,.09Z"/><path class="cls-72" d="M105,148.76a.45.45,0,0,0-.34-.24.62.62,0,0,0,0,.19.17.17,0,0,0,.12.14c.09,0,.16-.06.22-.13v0Z"/><path class="cls-72" d="M104,149a.18.18,0,0,0-.12-.05.24.24,0,0,0-.1.05,2,2,0,0,1-.27.17l.52.13h0s0,.09,0,.14.12.08.19.07C104.83,149.46,104.2,149.15,104,149Z"/><path class="cls-72" d="M106.19,150.1a.21.21,0,0,1,.12.05.42.42,0,0,1-.33,0c-.06,0-.13-.05-.14-.11a.5.5,0,0,1,0-.13c0-.08,0-.2.05-.25a.11.11,0,0,1,.13,0,.35.35,0,0,1,0,.13l.07.32Z"/><path class="cls-72" d="M104.44,150.59a.08.08,0,0,1,0,.11.19.19,0,0,1-.13,0l-.06,0a.11.11,0,1,1,.18-.12.14.14,0,0,1,0,.16Z"/><path class="cls-72" d="M104.73,150.09a.12.12,0,0,0-.07-.2.17.17,0,0,0-.06.12.09.09,0,0,0,.07.11.07.07,0,0,0,.09-.07Z"/><path class="cls-72" d="M106,148.44a.35.35,0,0,0-.19-.25l-.1.25a.17.17,0,0,0,0,.12.14.14,0,0,0,.19.1.21.21,0,0,0,.12-.2Z"/><path class="cls-72" d="M111.32,148.82l-.08,0a.1.1,0,0,0,.09.1.08.08,0,0,0,.1-.08.07.07,0,0,0-.1-.07Z"/><path class="cls-72" d="M105,149.49c0,.06.11,0,.14,0s0-.11.07-.17a.23.23,0,0,1,.15-.1.12.12,0,0,1,.1,0,.19.19,0,0,1,0,.07.69.69,0,0,1,0,.35.31.31,0,0,1-.28.18.22.22,0,0,1-.19-.12.23.23,0,0,1,0-.24Z"/><path class="cls-72" d="M104.61,148a.15.15,0,0,0-.18-.09.2.2,0,0,0-.13.16s0,.08,0,.09l.06,0,.24-.12Z"/><path class="cls-72" d="M107.11,151.21a.23.23,0,0,1-.29.24.54.54,0,0,1,.07-.33.21.21,0,0,1,.3-.06l0,.21Z"/><path class="cls-72" d="M103.9,150l-.08,0a.17.17,0,0,0,0,.13c0,.05.07.09.11.05s0,0,0-.05l0-.17Z"/><path class="cls-72" d="M106.46,149.44a.22.22,0,0,0-.11-.05.19.19,0,0,0-.1.05l-.27.18.52.12h0s0,.1,0,.14.12.08.19.07C107.28,149.88,106.65,149.57,106.46,149.44Z"/><path class="cls-72" d="M108.05,151.2l-.15,0a.25.25,0,0,0,.1.27c.09,0,.23,0,.22-.12s0-.16,0-.17Z"/><path class="cls-72" d="M110.41,148.61a.23.23,0,0,1-.15.34.24.24,0,0,1-.22-.3.23.23,0,0,1,.36-.06Z"/><path class="cls-72" d="M109.11,149c.11,0,.27,0,.28.15s-.11.18-.22.22a.14.14,0,0,1-.14,0c-.09-.08.09-.24,0-.33s.07,0,.06,0Z"/><path class="cls-72" d="M109,148.56l.12.05a.35.35,0,0,1-.33,0c-.06,0-.13,0-.14-.11s0-.08,0-.12,0-.21,0-.25a.11.11,0,0,1,.14,0,.34.34,0,0,1,0,.14l.07.32Z"/><path class="cls-72" d="M112.19,149.63a.21.21,0,0,1,.12.05.38.38,0,0,1-.33,0c-.06,0-.13,0-.14-.1a.5.5,0,0,1,0-.13c0-.09,0-.2.05-.25a.11.11,0,0,1,.13,0,.25.25,0,0,1,0,.13l.07.32Z"/><path class="cls-72" d="M108.77,150.27c-.06-.07-.19,0-.19.1a.35.35,0,0,0,.16.22.32.32,0,0,0,.07-.35Z"/><path class="cls-72" d="M107.53,148.56a.13.13,0,0,0-.08-.21.31.31,0,0,0-.06.13.12.12,0,0,0,.07.11c.05,0,.11,0,.09-.08Z"/><path class="cls-72" d="M106.61,151.74a.36.36,0,0,0-.19-.26l-.1.25a.28.28,0,0,0,0,.13.15.15,0,0,0,.19.1.21.21,0,0,0,.12-.2Z"/><path class="cls-72" d="M108.42,148.94a.31.31,0,0,0-.14-.29.36.36,0,0,0-.11.21.22.22,0,0,0,.14.25c.11,0,.22-.11.15-.19Z"/><path class="cls-72" d="M108.84,150a.18.18,0,0,1,0,.21l-.24-.08a.19.19,0,0,1,.22-.19Z"/><path class="cls-72" d="M107.63,150.27a.17.17,0,0,1,0,.18.17.17,0,0,1-.18.06s-.08-.06-.06-.1l0,0,.2-.14,0,0Z"/><path class="cls-72" d="M106.13,150.37a.18.18,0,0,0,.11.19c.06.05.13.11.13.19a.05.05,0,0,1,0,.05s-.1,0-.14-.06l-.13,0a.27.27,0,0,1-.17-.25.16.16,0,0,1,.14-.08.17.17,0,0,1,.13.1Z"/><path class="cls-72" d="M105.38,150.63l-.08,0a.12.12,0,0,0,.09.11.08.08,0,0,0,.1-.08.08.08,0,0,0-.1-.08Z"/><path class="cls-72" d="M94.82,149.17c0,.05.11,0,.15,0s0-.11.07-.17a.21.21,0,0,1,.14-.1.11.11,0,0,1,.1,0,.1.1,0,0,1,0,.07.6.6,0,0,1,0,.35.29.29,0,0,1-.27.18.24.24,0,0,1-.2-.12.29.29,0,0,1,0-.24Z"/><path class="cls-72" d="M105.26,151.26a.13.13,0,0,0-.17-.09.21.21,0,0,0-.14.16.08.08,0,0,0,0,.09l.06,0,.25-.12Z"/><path class="cls-72" d="M109.91,149.67a.25.25,0,0,1-.3.25.66.66,0,0,1,.08-.34c.07-.09.22-.14.3-.05l0,.2Z"/><path class="cls-72" d="M106.41,151.39a.07.07,0,0,1,.06.07.18.18,0,0,1-.11.14.12.12,0,0,1-.14-.06.16.16,0,0,1,0-.15s0,0,.07,0,0,0,.06,0Z"/><path class="cls-72" d="M106.7,148.47l-.08,0a.19.19,0,0,0-.05.14s.07.08.11,0,0,0,0-.05l0-.17Z"/><path class="cls-72" d="M100.52,149.39a.52.52,0,0,0-.18-.15.18.18,0,0,0-.22,0,.15.15,0,0,0,0,.1.22.22,0,0,0,.19.24.23.23,0,0,0,.24-.21Z"/><path class="cls-72" d="M97.22,149.43a.37.37,0,0,0-.12-.07.11.11,0,0,0-.12,0c0,.06,0,.14,0,.21s-.08.14-.07.21a.14.14,0,0,0,.18.07.34.34,0,0,0,.13-.18.3.3,0,0,0,0-.18.14.14,0,0,0-.13-.13Z"/><path class="cls-72" d="M102.61,147.26h-.09a.11.11,0,0,0,0,.14.09.09,0,0,0,.13,0,.08.08,0,0,0,0-.12Z"/><path class="cls-72" d="M94.91,148.59a.93.93,0,0,0-.75-.51A1,1,0,0,0,94,149a.59.59,0,0,0,.77.33.43.43,0,0,0,0-.74Z"/><path class="cls-72" d="M106.47,148.06c-.06-.08-.19,0-.18.1s.08.16.15.22a.35.35,0,0,0,.08-.35Z"/><path class="cls-72" d="M105.53,150.9s.12,0,.15,0,0-.11.07-.16a.28.28,0,0,1,.15-.11.13.13,0,0,1,.1,0,.64.64,0,0,1,0,.07.79.79,0,0,1,0,.34.3.3,0,0,1-.28.19.22.22,0,0,1-.19-.13.21.21,0,0,1,0-.23Z"/><path class="cls-72" d="M101.93,147.3a.93.93,0,0,0-.75-.5,1,1,0,0,0-.13.89.59.59,0,0,0,.76.33.42.42,0,0,0,0-.74Z"/><path class="cls-72" d="M98,146.36a.14.14,0,0,0-.11,0,.14.14,0,0,0-.1.05l-.27.17.52.12,0,0s0,.09,0,.14.12.08.19.06C98.84,146.8,98.21,146.49,98,146.36Z"/><path class="cls-72" d="M100.2,147.44a.34.34,0,0,1,.12.06.38.38,0,0,1-.33,0c-.06,0-.13,0-.14-.11a.56.56,0,0,1,0-.12c0-.09,0-.2,0-.25a.1.1,0,0,1,.13,0,.34.34,0,0,1,.05.14l.07.32Z"/><path class="cls-72" d="M100,149.15c-.06-.07-.19,0-.18.1s.08.16.15.22a.35.35,0,0,0,.08-.35Z"/><path class="cls-72" d="M98.45,147.93a.08.08,0,0,1,0,.11.15.15,0,0,1-.13,0l-.06,0a.1.1,0,0,1,0-.15.11.11,0,0,1,.15,0,.14.14,0,0,1,0,.16Z"/><path class="cls-72" d="M98.74,147.44a.13.13,0,0,0-.07-.21.18.18,0,0,0-.06.13.09.09,0,0,0,.06.11s.11,0,.1-.08Z"/><path class="cls-72" d="M98.84,149.15a.17.17,0,0,1,0,.18.16.16,0,0,1-.17.06s-.09-.06-.07-.1l0,0,.2-.13,0,0Z"/><path class="cls-72" d="M98.11,150.17c-.08,0-.1.12-.1.2a.23.23,0,0,1-.08.21h-.06c-.05,0,0-.09,0-.15a.79.79,0,0,0,0-.13.27.27,0,0,1,.1-.28.18.18,0,0,1,.15.08.15.15,0,0,1,0,.16Z"/><path class="cls-72" d="M97.48,149.69l-.08,0a.11.11,0,0,0,0,.13.08.08,0,0,0,.12,0,.07.07,0,0,0,0-.12Z"/><path class="cls-72" d="M99,146.84s.12,0,.15,0,0-.11.07-.16a.28.28,0,0,1,.15-.11.13.13,0,0,1,.1,0,.14.14,0,0,1,0,.07.65.65,0,0,1,0,.34.3.3,0,0,1-.28.19.23.23,0,0,1-.19-.13.21.21,0,0,1,0-.23Z"/><path class="cls-72" d="M101.12,148.55a.24.24,0,0,1-.29.25.57.57,0,0,1,.07-.34c.07-.09.22-.14.3-.05l0,.2Z"/><path class="cls-72" d="M97.91,147.35l-.08,0a.19.19,0,0,0,0,.14s.07.08.11.05,0,0,0-.05l0-.18Z"/><path class="cls-72" d="M102.8,149.9l-.15,0a.17.17,0,0,0,0,.12.16.16,0,0,0,.21,0Z"/><path class="cls-72" d="M102,148.86l-.15,0a.36.36,0,0,0,0,.11.16.16,0,0,0,.21,0Z"/><path class="cls-72" d="M93.71,147a.1.1,0,0,0-.15,0s-.07.09-.12.13a.18.18,0,0,1-.17.06.09.09,0,0,1-.08,0,.09.09,0,0,1,0-.07.58.58,0,0,1,.13-.32.29.29,0,0,1,.31-.1.22.22,0,0,1,.15.18.24.24,0,0,1-.08.21Z"/><path class="cls-72" d="M103.38,147.72a.59.59,0,0,0,.05-.23.2.2,0,0,0-.13-.18.22.22,0,0,0-.11,0,.22.22,0,0,0-.11.29.22.22,0,0,0,.3.1Z"/><path class="cls-72" d="M106,149h-.09a.11.11,0,0,0,0,.13.09.09,0,0,0,.13,0,.07.07,0,0,0-.06-.1Z"/><path class="cls-73" d="M101.19,100.33s8.31-10.5,10.09-13.39C111.28,86.94,106.48,95.91,101.19,100.33Z"/><path class="cls-73" d="M108.32,88.13a4.73,4.73,0,0,0,2.37-1.19v.64l.59-.64a4.88,4.88,0,0,0-.45-1.74A4.8,4.8,0,0,1,108.32,88.13Z"/><path class="cls-73" d="M109.86,72.89l-2.37,6.54S109.67,75.92,109.86,72.89Z"/><path class="cls-73" d="M85.12,134.77s8.88-22,12.2-24.91C97.32,109.86,87.36,131.51,85.12,134.77Z"/><path class="cls-73" d="M79.91,77.82S78.34,87.87,73.34,92A18.17,18.17,0,0,0,79.91,77.82Z"/><path class="cls-73" d="M90.94,144.13s4.15,1.32,15.53,3.93,26.36,3.5,26.36,3.5S108.32,148.33,90.94,144.13Z"/><path class="cls-73" d="M137.06,151.09s18.73-3.27,19.8-3.1C156.86,148,152.3,147.28,137.06,151.09Z"/></g></g></svg>