<?xml version="1.0" encoding="utf-8"?>
<!-- Generator: Adobe Illustrator 24.0.1, SVG Export Plug-In . SVG Version: 6.00 Build 0)  -->
<svg version="1.1" id="Layer_1" xmlns="http://www.w3.org/2000/svg" xmlns:xlink="http://www.w3.org/1999/xlink" x="0px" y="0px"
	 viewBox="0 0 75 75" style="enable-background:new 0 0 75 75;" xml:space="preserve">
<style type="text/css">
	.st0{fill:#FFFFFF;}
	.st1{display:none;}
	.st2{display:inline;}
	.st3{fill:none;stroke:#84A565;stroke-width:0.2664;stroke-miterlimit:10;}
	.st4{fill:none;stroke:#EAF4E5;stroke-width:0.1481;stroke-miterlimit:10;}
	.st5{fill:none;stroke:#D4E9D1;stroke-width:0.2074;stroke-miterlimit:10;}
	.st6{fill:none;stroke:#EE3C24;stroke-width:0.4444;stroke-miterlimit:10;}
	.st7{fill:none;stroke:#84A565;stroke-width:0.2667;stroke-miterlimit:10;}
	.st8{fill:none;stroke:#C486A6;stroke-width:0.2667;stroke-miterlimit:10;}
	.st9{fill:none;stroke:#EE3A24;stroke-width:0.4444;stroke-miterlimit:10;}
	.st10{fill:none;stroke:#373A3B;stroke-width:1.778;stroke-linecap:round;stroke-linejoin:round;stroke-miterlimit:10;}
	.st11{fill:none;stroke:#009B72;stroke-width:1.778;stroke-linecap:round;stroke-linejoin:round;stroke-miterlimit:10;}
	.st12{fill:none;stroke:#373A3B;stroke-width:1.778;stroke-linejoin:round;stroke-miterlimit:10;}
	.st13{fill:none;stroke:#373A3B;stroke-width:1.7;stroke-linecap:round;stroke-linejoin:round;stroke-miterlimit:10;}
	.st14{fill:none;stroke:#009B72;stroke-width:1.7;stroke-linecap:round;stroke-linejoin:round;stroke-miterlimit:10;}
	.st15{fill:none;stroke:#009B72;stroke-linecap:round;stroke-linejoin:round;stroke-miterlimit:10;}
	.st16{fill:#444648;}
	.st17{fill:none;stroke:#000000;stroke-miterlimit:10;}
	.st18{fill:none;stroke:#009B72;stroke-width:1.7;stroke-miterlimit:10;}
	.st19{fill:none;stroke:#464646;stroke-width:1.7;stroke-miterlimit:10;}
	.st20{fill:none;stroke:#393939;stroke-width:1.7;stroke-miterlimit:10;}
	.st21{fill:none;stroke:#009B72;stroke-width:0.75;stroke-linecap:round;stroke-linejoin:round;stroke-miterlimit:10;}
	.st22{fill:none;stroke:#393939;stroke-width:0.75;stroke-miterlimit:10;}
	.st23{fill:#373A3B;}
	.st24{fill:#009B72;}
	.st25{fill:none;stroke:#009B72;stroke-width:2;stroke-miterlimit:10;}
</style>
<rect class="st0" width="75" height="75"/>
<g>
	<path class="st19" d="M66.783,62.248c-4.295-0.001-8.59-0.003-12.884-0.004c-8.407-0.002-16.813-0.004-25.22-0.005
		c-6.662-0.001-13.324,0-19.985,0c-0.145,0-0.29,0-0.476,0c0.103-0.858,0.201-1.687,0.303-2.516c0.282-2.299,0.565-4.598,0.85-6.897
		c0.364-2.939,0.732-5.878,1.093-8.818c0.401-3.266,0.796-6.532,1.195-9.798c0.194-1.585,0.396-3.169,0.58-4.756
		c0.028-0.241,0.141-0.262,0.336-0.261c3.099,0.006,6.198,0.007,9.296,0.008c2.965,0.001,5.929,0,8.894,0c0.145,0,0.29,0,0.471,0
		c0.532,4.313,1.06,8.601,1.596,12.947c3.819-2.127,7.603-4.234,11.441-6.372c0,2.101,0,4.141,0,6.266
		c3.779-2.104,7.494-4.172,11.253-6.264c0,2.093,0,4.126,0,6.24c0.171-0.085,0.295-0.14,0.413-0.206
		c3.472-1.934,6.944-3.87,10.417-5.803c0.135-0.075,0.284-0.126,0.427-0.189C66.783,44.629,66.783,53.438,66.783,62.248z"/>
	<path class="st14" d="M30.291,12.76c0-0.001,0-0.002,0-0.003c-3.099,0-6.199,0-9.298,0c-0.964,0-1.928-0.015-2.892,0.006
		c-1.011,0.022-1.768,0.79-1.752,1.735c0.016,0.956,0.825,1.7,1.834,1.693c0.378-0.002,0.758-0.012,1.134,0.015
		c1.674,0.118,2.875,1.798,2.457,3.425c-0.326,1.268-1.391,2.109-2.729,2.123c-1.281,0.013-2.563-0.015-3.844,0.006
		c-0.755,0.012-1.308,0.401-1.577,1.104c-0.256,0.671-0.123,1.296,0.39,1.82c0.396,0.405,0.894,0.508,1.438,0.507
		c2.941-0.005,5.881-0.002,8.822-0.002c1.562,0,3.124,0.018,4.686-0.01c1.336-0.024,2.13-1.364,1.507-2.524
		c-0.376-0.701-1.021-0.911-1.787-0.907c-1.538,0.009-2.78-1.238-2.784-2.762c-0.004-1.535,1.211-2.78,2.754-2.786
		c2.733-0.011,5.466-0.003,8.2-0.004c1.83-0.001,3.661,0.017,5.491-0.013c1.06-0.017,1.771-0.779,1.737-1.768
		c-0.034-0.983-0.806-1.658-1.854-1.657C38.247,12.764,34.269,12.76,30.291,12.76z"/>
	<path class="st14" d="M49.881,50.876c0,1.098,0,2.188,0,3.296c-0.679,0-1.331,0-2.008,0c0-1.092,0-2.171,0-3.296
		C48.528,50.876,49.194,50.876,49.881,50.876z"/>
	<path class="st14" d="M38.643,50.858c0,1.116,0,2.199,0,3.307c-0.669,0-1.321,0-2.004,0c0-1.097,0-2.188,0-3.307
		C37.293,50.858,37.956,50.858,38.643,50.858z"/>
	<path class="st14" d="M61.122,54.17c-0.664,0-1.316,0-1.994,0c0-1.103,0-2.192,0-3.31c0.658,0,1.309,0,1.994,0
		C61.122,51.954,61.122,53.052,61.122,54.17z"/>
</g>
</svg>
