<?xml version="1.0" encoding="utf-8"?>
<!-- Generator: Adobe Illustrator 26.5.0, SVG Export Plug-In . SVG Version: 6.00 Build 0)  -->
<svg version="1.1" id="Layer_1" xmlns="http://www.w3.org/2000/svg" xmlns:xlink="http://www.w3.org/1999/xlink" x="0px" y="0px"
	 viewBox="0 0 512 512" style="enable-background:new 0 0 512 512;" xml:space="preserve">
<style type="text/css">
	.st0{fill:#0074D9;}
</style>
<path class="st0" d="M0,256.4v-1c0.4-4,1.8-7.4,4.1-10.4c26.8-34.7,57.7-65.2,92.7-91.6c56.2-42.4,123.7-70,195-57.4
	c85.9,15.1,163,81,215.5,148c7.1,9.1,5.6,16.7-1.1,25.3c-37.6,48-85.7,91.7-140.8,120.9c-50,26.5-105.2,36.4-160.7,22.3
	c-37.7-9.6-73.7-28.6-105-51.8C63.3,333.8,31.2,302.2,3.3,266C1.5,263.6,0.4,260.5,0,256.4z M282.9,128.8
	c-95-15.8-188.1,58.6-244,126.7c-0.3,0.3-0.3,0.8,0,1.1c46,54.6,108.1,108.1,179.5,124.5c100,22.9,195.8-53.5,254.7-124.7
	c0.2-0.2,0.2-0.5,0-0.7C425.9,198.5,357.4,141.2,282.9,128.8z"/>
<path class="st0" d="M357.1,256c0,55.9-45.3,101.1-101.1,101.1h0c-55.9,0-101.1-45.3-101.1-101.1l0,0c0-55.9,45.3-101.1,101.1-101.1
	S357.1,200.1,357.1,256z M323.4,256c0-37.2-30.2-67.4-67.4-67.4s-67.4,30.2-67.4,67.4l0,0c0,37.2,30.2,67.4,67.4,67.4l0,0
	C293.2,323.4,323.4,293.2,323.4,256z"/>
</svg>
