<?xml version="1.0" encoding="utf-8"?>
<!-- Generator: Adobe Illustrator 26.5.0, SVG Export Plug-In . SVG Version: 6.00 Build 0)  -->
<svg version="1.1" id="Layer_1" xmlns="http://www.w3.org/2000/svg" xmlns:xlink="http://www.w3.org/1999/xlink" x="0px" y="0px"
	 viewBox="0 0 512 512" style="enable-background:new 0 0 512 512;" xml:space="preserve">
<style type="text/css">
	.st0{fill:#0074D9;}
</style>
<path class="st0" d="M247.3,0h17.5C330.3,3.1,391.1,28.8,437,75.2c46.5,47,71.5,104.3,75,171.9v18.5
	C505.7,400,400.7,506.1,265.7,512h-19.2C125.9,506.6,25.4,420,4.1,300.9C-23.4,147.2,92.1,6.3,247.3,0z M150.4,117.1
	c31.8,8.3,64.2,12.8,97.1,13.4c0.3,0,0.5-0.2,0.5-0.5c0,0,0,0,0,0V17c0-0.3-0.2-0.5-0.5-0.5c-49.1,6.4-81.6,58.1-97.5,99.7
	C149.8,116.7,150,117,150.4,117.1z M362.1,116.5c-15.8-42.1-48.2-93-97.3-100c-0.4-0.1-0.7,0.2-0.8,0.6c0,0,0,0.1,0,0.1V130
	c0,0.3,0.2,0.5,0.5,0.5c0,0,0,0,0,0c33-0.6,65.4-5.1,97.3-13.5C362.1,117,362.2,116.8,362.1,116.5z M83.3,90.3
	c16.2,9,33.1,16.3,50.7,21.9c0.4,0.1,0.8-0.1,1-0.5c12.5-32.8,31.3-63.9,58.1-87c0.1-0.1,0.1-0.2,0.1-0.3c-0.1-0.1-0.2-0.1-0.2-0.1
	C150.6,36.3,114.2,58,83.6,89.6c-0.1,0.2-0.2,0.3-0.3,0.5C83.2,90.2,83.3,90.3,83.3,90.3z M421.7,82.5
	c-29.3-27.8-63.5-47.1-102.6-58c-0.1,0-0.2,0-0.2,0.1c0,0.1,0,0.2,0.1,0.2c26.6,23.2,45.5,54.2,58,86.9c0.2,0.5,0.5,0.7,1,0.5
	c17.4-5.6,34.1-12.8,50.1-21.6c0.4-0.2,0.5-0.7,0.3-1.1c0-0.1-0.1-0.1-0.1-0.1C426.1,86.8,423.9,84.5,421.7,82.5z M128.8,127.4
	c-19.5-6.3-38.2-14.5-56-24.8c-0.5-0.3-1-0.2-1.3,0.2c-34.3,41.8-52.7,89.9-55.3,144.3c0,0.4,0.3,0.8,0.7,0.8c0,0,0,0,0,0h91.8
	c0.4,0,0.8-0.3,0.8-0.8c0.6-40.4,7-79.9,19.4-118.5c0.1-0.4,0.1-0.8,0-1.2C128.9,127.4,128.9,127.4,128.8,127.4z M439.4,102.5
	c-17.7,10.2-36.4,18.5-55.9,24.8c-0.4,0.1-0.7,0.6-0.5,1c12.4,38.7,18.9,78.5,19.5,119.2c0,0.3,0.2,0.5,0.5,0.5h92.2
	c0.3,0,0.6-0.3,0.6-0.6c0,0,0,0,0,0c-2.5-54.5-21-102.8-55.4-144.7C440.2,102.4,439.7,102.3,439.4,102.5z M247.3,146.5
	c-34.2,0-69.8-5.6-102.7-14.4c-0.3-0.1-0.6,0-0.7,0.4c-11.8,37.4-17.9,75.8-18.4,115c0,0.3,0.2,0.5,0.5,0.5h121.5
	c0.3,0,0.5-0.2,0.5-0.5V147.2C248,146.7,247.8,146.5,247.3,146.5z M386.6,246.9c-0.6-39.1-6.8-77.2-18.6-114.5
	c-0.1-0.2-0.3-0.4-0.6-0.3c-33.7,9-68.1,13.8-103,14.4c-0.3,0-0.5,0.2-0.5,0.5v100.5c0,0.3,0.2,0.5,0.5,0.5h121
	C386.3,248,386.7,247.6,386.6,246.9z M16.2,265.1c2.6,54,20.8,101.8,54.7,143.5c0.4,0.5,0.8,0.5,1.3,0.2
	c17.8-10.3,36.5-18.6,56.1-24.9c0.3-0.1,0.5-0.5,0.4-0.8c-12.3-38.5-18.7-78-19.3-118.5c0-0.3-0.2-0.5-0.5-0.5H17.2
	C16.5,264,16.2,264.4,16.2,265.1z M247.6,364.6c0.2,0,0.4-0.2,0.4-0.4v-99.7c0-0.3-0.2-0.5-0.5-0.5H126c-0.3,0-0.5,0.2-0.5,0.5
	c0.6,38.9,6.7,76.9,18.4,114c0.1,0.4,0.5,0.6,0.9,0.5C178.5,370,212.8,365.2,247.6,364.6z M264.2,364.6c35,0.5,69.5,5.4,103.3,14.5
	c0.3,0.1,0.5-0.1,0.6-0.3c10.1-32.2,16.1-65.2,17.8-99c0.3-5.1,0.5-10.2,0.8-15.3c0-0.2-0.2-0.4-0.4-0.4c0,0,0,0,0,0H264.5
	c-0.3,0-0.5,0.2-0.5,0.5v99.9C264,364.5,264.1,364.6,264.2,364.6z M383.8,383.9c19.6,6.3,38.4,14.6,56.2,25c0.3,0.2,0.8,0.1,1-0.2
	c34-41.7,52.2-89.7,54.8-143.8c0-0.6-0.3-0.9-0.9-0.9h-92c-0.3,0-0.5,0.2-0.5,0.5c-0.6,40.4-7,79.9-19.2,118.3
	C383.1,383.3,383.3,383.7,383.8,383.9z M149.6,394.8c15.7,42.1,48.4,94,97.6,100.7c0.5,0.1,0.7-0.1,0.7-0.6V381
	c0-0.2-0.2-0.4-0.4-0.4h0c-33.1,0.6-65.7,5.1-97.7,13.6C149.7,394.2,149.6,394.5,149.6,394.8C149.6,394.7,149.6,394.7,149.6,394.8z
	 M361.1,393.8c-31.6-8.2-63.7-12.6-96.3-13.1c-0.5,0-0.8,0.3-0.8,0.8V495c0,0.3,0.2,0.5,0.5,0.5c0,0,0.1,0,0.1,0
	c49.6-7.2,82-58.1,97.7-100.6c0.1-0.4,0-0.7-0.4-0.9c0,0,0,0,0,0C361.8,394,361.5,393.9,361.1,393.8z M90.5,429.7
	c29.2,27.6,63.2,46.8,102,57.6c0.7,0.2,0.8,0.1,0.2-0.4c-2.5-2.3-5.8-5-7.6-6.9c-22.7-22.5-39.2-50.9-50.5-80.5
	c-0.2-0.5-0.5-0.7-1.1-0.5c-17.6,5.6-34.5,13-50.6,22c-0.3,0.2-0.4,0.5-0.2,0.8c0,0,0,0.1,0.1,0.1C85.3,424.5,87.8,427.1,90.5,429.7
	z M429.3,421.1c-16.2-9.1-33.1-16.4-50.8-22.1c-0.5-0.1-1,0.1-1.1,0.5c-12.5,33-31.7,64.5-58.5,87.8c-0.1,0.1-0.1,0.1,0,0.2
	c0,0,0.1,0.1,0.1,0c42.8-12,79.6-33.9,110.4-65.8C429.6,421.5,429.6,421.3,429.3,421.1z"/>
</svg>
