<?xml version="1.0" encoding="utf-8"?>
<!-- Generator: Adobe Illustrator 26.5.0, SVG Export Plug-In . SVG Version: 6.00 Build 0)  -->
<svg version="1.1" id="Layer_1" xmlns="http://www.w3.org/2000/svg" xmlns:xlink="http://www.w3.org/1999/xlink" x="0px" y="0px"
	 viewBox="0 0 512 512" style="enable-background:new 0 0 512 512;" xml:space="preserve">
<style type="text/css">
	.st0{fill:#0074D9;}
</style>
<path class="st0" d="M152.1,0h208c13.6,2.1,21.8,9.4,24.7,21.9c1.3,5.6,0.6,13.1,0.8,19.5c0,0.4,0.2,0.6,0.6,0.6
	c10.9,0.1,24.7-1.1,34.2,1.2c15.1,3.7,28.2,17.6,28.5,34.2c0.1,7.9,0.2,15.9,0.1,24c0,0.4,0.2,0.6,0.6,0.6c14.3,0.1,28.5,0.1,42.7,0
	c10.6,0,17.8,2.1,19.8,13.3v94.7c-2.9,14.4-14.3,13-26,12.9c-14,0-19-5.1-19-19c0-28.8,0-57.4,0-86c0-0.6-0.5-1-1-1h-16.4
	c-0.3,0-0.5,0.2-0.5,0.5c0,100.9,0,201.9,0,302.9c0,6.9-0.5,12-1.4,15.5c-3.5,13-12.1,21.9-25.8,26.7c-0.3,0.1-0.5,0.4-0.5,0.7
	c-0.1,8.8,1.1,20.2-1.1,28.2c-3.3,11.8-11.5,18.6-24.7,20.5h-54c-13-1.9-21.2-8.6-24.5-20.1c-2.2-7.7-1.1-18.8-1.2-27.4
	c0-0.3-0.2-0.5-0.5-0.5l0,0H197c-0.4,0-0.7,0.3-0.7,0.7c-0.1,8.5,1.1,19.2-1.1,26.9c-3.3,11.8-11.6,18.6-24.7,20.4h-54
	c-15.5-1.7-26-13.8-25.8-29c0.1-6.6,0.1-13.2,0-19.7c0-0.3-0.2-0.6-0.5-0.7c-13.8-4.7-22.4-13.6-25.8-26.7
	c-0.9-3.5-1.4-8.6-1.4-15.4c0-68.6,0-137.2,0-205.8c0-8.7,10.5-12.6,14.2-4.6c0.5,1.2,0.8,3.1,0.8,5.8c0,47,0,93.9,0,140.7
	c0,0.3,0.3,0.6,0.6,0.6c0,0,0,0,0,0c16.2,0,32.3,0,48.6,0c8.4,0,12.6,2.8,16,10.7c4.6,10.6,9.2,21.2,13.7,31.9
	c4.3,10.1,0.5,16.2-10.5,16.2c-22.6,0-45.2,0-67.9,0c-0.4,0-0.6,0.2-0.6,0.6c0,5-0.5,10.8,0.8,15.3c3.6,13.2,13.5,17.1,26.1,17.1
	c100.8,0,201.5,0,302.3,0c12.9,0,22.9-4.2,26.2-18c1-4.3,0.5-9.8,0.6-14.5c0-0.3-0.2-0.6-0.6-0.6c0,0,0,0,0,0c-22.6,0-45.3,0-67.9,0
	c-8.9,0-15.2-4.8-11.1-14.4c4.9-11.6,9.8-23.1,14.8-34.7c3.6-8.2,8.9-9.7,17.9-9.7c15.5,0,31,0,46.3,0c0.3,0,0.6-0.3,0.6-0.6v0
	c0-90.7,0-181.5,0-272.2c0-5.4-0.5-9.5-1.4-12.2C428.7,60.9,419.4,57,408,57c-101,0-202.1,0-303.1,0C93,57,83.4,60.3,79.4,72.3
	c-0.9,2.8-1.4,7-1.4,12.6c0,30.7,0,61.4,0,92.1c0,8.6-10.5,12.5-14.2,4.6c-0.6-1.2-0.8-3.1-0.8-5.8c0-19.4,0-38.6,0-57.7
	c0-0.6-0.5-1-1-1l0,0H45.5c-0.3,0-0.5,0.2-0.5,0.5c0,29,0,58.1,0,87.2c0,4.4-0.5,7.6-1.4,9.7C39,224.7,28.5,223,19.1,223
	C8.8,223,1.7,220.5,0,209.4v-94C1.9,104,9.2,102,19.9,102c14.2,0,28.4,0,42.5,0c0.3,0,0.5-0.3,0.5-0.6c0-7.3,0.1-14.7,0.3-22.2
	c0.3-17,11.1-31.5,27.5-35.9c9.4-2.5,24-1.4,35.2-1.3c0.4,0,0.6-0.2,0.6-0.6c0.2-6.4-0.6-13.9,0.7-19.5C130.1,9.4,138.4,2.1,152.1,0
	z M370.5,41.4C370.4,27,373.1,15,354,15c-65.7,0-131.4,0-197.1,0c-18,0-15.4,13.3-15.4,26.5c0,0.3,0.2,0.5,0.5,0.5h228
	C370.3,42,370.5,41.7,370.5,41.4z M30,117.6c0-0.3-0.3-0.6-0.6-0.6H15.6c-0.3,0-0.6,0.3-0.6,0.6v89.9c0,0.3,0.3,0.6,0.6,0.6
	c0,0,0,0,0,0h13.9c0.3,0,0.6-0.3,0.6-0.6l0,0V117.6z M497,117.6c0-0.3-0.3-0.6-0.6-0.6l0,0h-13.9c-0.3,0-0.6,0.3-0.6,0.6v0v89.9
	c0,0.3,0.3,0.6,0.6,0.6l0,0h13.9c0.3,0,0.6-0.3,0.6-0.6v0V117.6z M140.4,401c0.2,0,0.4-0.2,0.4-0.5c0-0.1,0-0.1,0-0.2l-12-27.9
	c-0.1-0.2-0.2-0.3-0.4-0.3h-50c-0.2,0-0.4,0.2-0.4,0.5l0,0v27.8c0,0.2,0.2,0.5,0.4,0.5h0H140.4z M383.5,372.2
	c-0.2,0-0.3,0.1-0.4,0.3l-12,27.8c-0.1,0.2,0,0.5,0.2,0.6c0.1,0,0.1,0,0.2,0h62c0.3,0,0.5-0.2,0.5-0.5v-27.8c0-0.3-0.2-0.5-0.5-0.5
	H383.5z M180.6,464h-74.3c-0.4,0-0.7,0.3-0.7,0.7l0,0v19.2c0,7.3,6,13.2,13.5,13.2c0,0,0,0,0,0h48.6c7.4,0,13.5-5.9,13.5-13.2l0,0
	v-19.2C181.3,464.3,181,464,180.6,464L180.6,464z M405.6,464h-74.1c-0.4,0-0.7,0.3-0.7,0.7v19c0,7.4,6,13.4,13.5,13.4h48.7
	c7.4,0,13.5-6,13.5-13.4v-19C406.3,464.3,406,464,405.6,464z"/>
<circle class="st0" cx="134" cy="79.5" r="7.4"/>
<path class="st0" d="M176.2,72h159.6c4.1,0,7.4,3.3,7.4,7.4v0.2c0,4.1-3.3,7.4-7.4,7.4H176.2c-4.1,0-7.4-3.3-7.4-7.4v-0.2
	C168.8,75.3,172.1,72,176.2,72z"/>
<circle class="st0" cx="378" cy="79.5" r="7.4"/>
<path class="st0" d="M419,285.4c0,9.7-7.9,17.6-17.6,17.6H110.7c-9.7,0-17.7-7.9-17.7-17.6V119.7c0-9.7,7.9-17.7,17.7-17.7l0,0
	h290.7c9.7,0,17.6,7.9,17.6,17.7V285.4z M404,119.6c0-1.4-1.1-2.5-2.5-2.6H110.6c-1.4,0-2.6,1.1-2.6,2.5v0v165.9
	c0,1.4,1.1,2.5,2.6,2.5h290.9c1.4,0,2.5-1.1,2.5-2.5V119.6z"/>
<path class="st0" d="M332.4,348c-9,0-18.1,0-27.1,0c-12.3,0-11.4-15-1.3-15c10.3,0,20.5,0,30.8,0c7.5,0,14.3,6,14,13.7
	c-0.1,1.8-0.9,4.5-2.5,8.1c-7.7,17.5-15.4,34.9-23.1,52.3c-3.3,7.4-8.2,8.8-16.3,8.8c-33.8,0-67.6,0-101.3,0
	c-11.3,0-13.9-2.6-18.1-12.1c-6.9-15.5-13.8-31-20.6-46.6c-2-4.7-3.2-7.5-3.3-8.7c-1.1-6,2.7-12.5,8.5-14.7c1.6-0.6,4.2-0.9,7.8-0.9
	c28.6,0,57.3,0,85.9,0c2.8,0,4.8,0.3,6,0.8c7.9,3.4,4.6,14.2-4.1,14.2c-29.3,0-58.6,0-87.9,0c-0.2,0-0.4,0.2-0.4,0.4
	c0,0.1,0,0.1,0,0.2l22.9,52c0.1,0.3,0.4,0.5,0.8,0.5h106c0.4,0,0.6-0.2,0.7-0.5l23-52C332.9,348.2,332.7,348,332.4,348z"/>
<path class="st0" d="M221.2,367h69.7c4,0,7.3,3.3,7.3,7.3v0.3c0,4-3.3,7.3-7.3,7.3h-69.7c-4,0-7.3-3.3-7.3-7.3v-0.3
	C213.8,370.3,217.1,367,221.2,367z"/>
</svg>
