<?xml version="1.0" encoding="utf-8"?>
<!-- Generator: Adobe Illustrator 26.5.0, SVG Export Plug-In . SVG Version: 6.00 Build 0)  -->
<svg version="1.1" id="Layer_1" xmlns="http://www.w3.org/2000/svg" xmlns:xlink="http://www.w3.org/1999/xlink" x="0px" y="0px"
	 viewBox="0 0 512 512" style="enable-background:new 0 0 512 512;" xml:space="preserve">
<style type="text/css">
	.st0{fill:#0074D9;}
</style>
<path class="st0" d="M342.3,0h0.8c3.7,0.6,6.2,2.7,7.4,6.3c4.1,12.1,7.3,21.8,20.2,27.2c4.1,1.7,13.2,4.4,15.8,7.4
	c4.2,4.9,0.8,10.8-4.6,12.9c-13.3,5.1-21.6,7.4-27.6,21.3c-2.4,5.7-3.5,13-8.4,15.6c-4.6,2.3-9.4-0.2-11.1-4.9
	c-2.1-5.6-4.1-12.4-7.1-16.9c-6.1-9.2-15-11.7-26.2-15.8c-4.9-1.8-5.8-9-2.5-12.6c2.7-2.9,11.9-5.6,15.9-7.3
	c13.4-5.8,15.9-16.3,20.5-28.4C336.3,2,338.7,0.4,342.3,0z M326.4,46c6.6,4.1,11.2,8.7,15.9,15.9c0.2,0.4,0.5,0.4,0.7,0
	c3.9-6.6,9.1-11.9,15.7-15.8c0.2-0.1,0.3-0.4,0.2-0.6c0-0.1-0.1-0.1-0.2-0.2c-6.6-3.9-11.8-9.2-15.8-15.8c-0.1-0.2-0.3-0.2-0.5-0.1
	c0,0-0.1,0.1-0.1,0.1c-3.9,6.7-9.2,12-15.9,15.9c-0.2,0.1-0.2,0.3-0.1,0.5C326.3,46,326.3,46,326.4,46z"/>
<path class="st0" d="M465.2,16.2c1.8-5.5,7.4-9.5,12.8-5.5c3.1,2.4,4.6,8.1,6,12c3.9,10.7,12.6,12.3,21.7,16
	c4.3,1.7,5.1,8.3,2.7,11.6c-1,1.3-2.9,2.6-5.9,3.7c-8.2,3.3-15.2,5.3-18.4,14.4c-1.9,5.4-3.4,10.9-6.8,12.7
	c-11.2,6.2-13.2-11.5-16.9-17c-4.3-6.5-10.8-8.1-17.4-10.7c-7.6-3-8.9-12-0.6-15.3c4.8-1.9,10.5-3.7,14.2-6.6
	C461.3,28,463.8,20.6,465.2,16.2z M472.9,37.2c-2.2,3.2-4.9,5.9-8.1,8.1c-0.2,0.2-0.3,0.5-0.1,0.7c0,0,0.1,0.1,0.1,0.1
	c3.1,2.3,5.8,5,8.2,8.1c0.2,0.2,0.5,0.3,0.7,0.1c0,0,0.1-0.1,0.1-0.1c2.3-3.1,4.9-5.8,8-8.1c0.2-0.1,0.2-0.4,0.1-0.6
	c0,0-0.1-0.1-0.1-0.1c-3.1-2.3-5.8-5.1-8.1-8.2c-0.2-0.2-0.5-0.3-0.7-0.1C473,37.1,473,37.2,472.9,37.2z"/>
<path class="st0" d="M419.1,60.3c5.5-3.9,10.5,0,12.4,5.5c2,5.6,3.8,11.2,8.4,15.2c3.8,3.3,9.9,5,14.9,7.1
	c7.2,3.1,6.4,12.2-0.5,14.9c-7.9,3.1-15.5,4.8-19.4,13.7c-1.5,3.4-2.9,6.7-4.2,10.1c-3.1,7.9-12.2,6.1-15.1-0.9
	c-2.3-5.5-3.7-11.6-8.5-15.9c-3.8-3.5-10.2-5.3-15.4-7.4c-7.4-3.1-6.1-12.5,0.9-15c6.9-2.5,11.8-3.8,15.9-8.2
	C413.6,74,413.5,64.2,419.1,60.3z M423.1,86.8c-2.3,3.1-5,5.8-8.1,8.2c-0.4,0.3-0.4,0.7,0,1c3,2.3,5.7,4.9,7.9,7.9
	c0.2,0.2,0.5,0.3,0.8,0.1c0,0,0.1-0.1,0.1-0.1c2.3-3.1,5-5.8,8.1-8.1c0.2-0.1,0.2-0.4,0.1-0.6c0,0-0.1-0.1-0.1-0.1
	c-3.2-2.3-5.9-5.1-8.2-8.3C423.6,86.6,423.4,86.5,423.1,86.8C423.1,86.7,423.1,86.7,423.1,86.8z"/>
<path class="st0" d="M63.5,209.3c0.1,0.3,0.4,0.4,0.6,0.3c0.1,0,0.2-0.1,0.3-0.3c5.5-13.2,11-26.3,16.7-39.3
	c3.4-7.8,6.4-13.6,9.1-17.4c11.8-16.3,27.3-23.9,46.9-26.8c74.7-11.1,152.5-11.5,227.1-1.6c10.1,1.3,16.7,2.4,19.8,3.1
	c16.8,4.1,29.9,13.2,39.3,27.5c2.4,3.6,5.4,9.6,8.9,17.9c5.2,12.2,10.3,24.4,15.4,36.5c0.1,0.2,0.4,0.3,0.6,0.2
	c0.1,0,0.2-0.1,0.2-0.3c4-10.4,11.6-14.6,22.9-12.5c6.6,1.2,13.2,2.5,19.9,3.7c5.3,1,9.1,2.2,11.2,3.5c13.5,8.6,10.9,34.6-5.8,38.6
	c-8.3,2-16.5,3.9-24.7,5.6c-0.7,0.1-0.9,0.5-0.5,1.2c5.7,8.6,12.4,18.1,16.4,26.4c5.9,12.1,8.9,24.8,9.1,38.2
	c0.3,17.7,0.3,46.6,0,86.6c-0.1,9.3-0.5,15.9-1.4,19.9c-6.2,28.5-31.5,42.6-59,42.6c-119.4,0-238.8,0-358.2-0.1
	c-37.4,0-63.1-19.5-63.2-58.9c-0.1-46.6-0.1-76.1,0-88.3c0.1-18.1,5.1-34.8,14.8-49.9c3.5-5.5,7.1-11,10.7-16.5
	c0.4-0.6,0.2-0.9-0.4-1.1c-7.9-1.8-15.9-3.7-24.1-5.7c-8.2-2-13-7-14.4-14.9c-1.7-9.1,0.5-19.3,8.9-24.1c2.1-1.2,5.8-2.3,11.1-3.2
	c8.5-1.5,21.4-5,28.7-3.6C56.7,198,61.1,202.2,63.5,209.3z M77.9,219.8c112.7-0.1,225.4-0.1,338,0c12.5,0,13.3,16-0.4,16
	c-115.4,0-230.8,0-346.1,0c-0.5,0-1,0.3-1.3,0.7c-6.9,10.6-13.9,21.2-20.9,31.9c-10.5,16-16.2,29.3-16.2,48.1
	c-0.1,30.3,0,60.5,0.1,90.8c0.1,29.4,22.9,39.7,48.4,39.7c117,0,234,0,351,0c34.1,0,52-13,50.4-49.1c0-0.2-0.2-0.4-0.5-0.4
	c-142.4,0-284.7,0-427.1,0c-2.9,0-5-0.4-6.4-1.4c-5.1-3.3-4.7-11.1,1-13.8c1.2-0.6,3.1-0.9,5.8-0.9c142,0,284.2,0,426.8,0
	c0.2,0,0.4-0.2,0.4-0.4c0,0,0,0,0,0c0.1-22,0-44,0-66.1c-0.1-16.5-5.2-29.5-14.5-44c-8.5-13.1-17-26.2-25.6-39.3
	c-2-3.1-3.7-6.3-5.2-9.7c-5.8-13.8-11.7-27.6-17.5-41.4c-3.7-8.8-6.7-14.8-8.8-17.9c-8.1-11.8-19.8-18.8-35.1-21
	c-76.5-11-153.1-11.4-229.6-1c-18.2,2.5-31.3,6.7-41.7,21.5c-2.2,3.2-5.2,9.1-8.9,17.9c-5.5,13-11,26-16.6,39
	c-0.1,0.2,0,0.5,0.2,0.5C77.8,219.8,77.8,219.8,77.9,219.8z M49.9,234c0.4,0.1,0.9-0.1,1.1-0.5l3.3-5.1c0.2-0.3,0.2-0.5,0.1-0.8
	l-6.5-14.6c-0.3-0.6-0.9-0.9-1.5-0.8c-8.3,1.4-16.7,2.9-25.2,4.4c-5.2,0.9-4,3.7-3.9,7.9c0,1.3,0.9,2.3,2.1,2.6L49.9,234z
	 M464.1,213l-6.4,14.6c-0.1,0.3-0.1,0.7,0.1,0.9l3.4,5.3c0.2,0.2,0.4,0.3,0.7,0.3c9.8-2.2,19.6-4.4,29.4-6.7
	c1.8-0.4,3.1-0.6,3.4-2.7c0.3-2.6,1.2-7.2-2.9-7.9c-8.8-1.6-17.5-3.1-26.1-4.5C465,212.1,464.4,212.5,464.1,213z"/>
<path class="st0" d="M67.5,336.9c-18.3-5.1-21.9-26.4-16.1-41.5c2.8-7.2,7.9-11.4,15.6-11.1c15.6,0.6,31.8,2.1,48.5,4.5
	c10,1.5,25.8,33,30.7,42.2c2.1,3.9,3.2,6.8,3.3,8.7c0.3,6.1-5.3,8.2-10.6,7.5c-20.3-2.9-40.5-5.7-60.8-8.6
	C71.7,337.6,68.2,337.1,67.5,336.9z M66.1,300.8c-1.5,4.9-2.5,19.5,5.3,20.6c18.4,2.6,36.7,5.2,55,7.8c0.2,0,0.4-0.1,0.4-0.3
	c0-0.1,0-0.2,0-0.2c-4.6-8.4-9.7-16.5-15.4-24.3c-0.4-0.5-0.9-0.8-1.6-0.9l-42.7-3.5C66.6,300.1,66.2,300.4,66.1,300.8z"/>
<path class="st0" d="M370.5,347.5c-5.1,0.7-9-5.5-8-9.8c0.1-0.5,1.3-2.8,3.5-7.1c6.2-12.1,13.3-23.8,21.2-34.9
	c3.1-4.4,6.1-6.6,11.8-7.4c11.6-1.6,23.3-2.7,34.9-3.5c8.3-0.5,13.2-0.7,14.5-0.5c14.2,2.3,16.2,22.2,13.6,33.7
	c-3.2,14-12.1,18.3-25.5,20.2C414.5,341.4,392.5,344.5,370.5,347.5z M401.8,304c-2.7,0.3-14.7,21.4-16.5,24.8
	c-0.1,0.2,0,0.4,0.1,0.5c0.1,0,0.1,0,0.2,0c17.7-2.5,35.4-5,53.1-7.5c9.6-1.4,9.3-13.3,7.3-20.4c-0.2-0.7-0.8-1.2-1.5-1.1
	C430.4,301.1,416.1,302.3,401.8,304z"/>
<path class="st0" d="M358.5,293c8.5-0.8,11.2,6.4,8,13.2c-6.5,14-13.1,27.9-19.7,41.9c-2.1,4.5-4.7,5.3-9.7,5.6
	c-23.9,1.4-47.9,2.8-71.8,4.1c-6,0.3-12.1,0.3-18.1,0c-24.4-1.4-48.8-2.8-73.2-4.2c-5.5-0.3-7.1-2.2-9.4-7.2
	c-6.7-14.1-13.3-28.1-19.9-42.2c-3.1-6.5,2.9-11.7,9.4-11.2c32.1,2.8,60.9,4.7,86.3,5.9c8.2,0.4,18.1,0.3,29.7-0.2
	C301.9,297.4,331.4,295.4,358.5,293z M178.7,338c24.3,1.4,48.7,2.8,73,4.2c2.8,0.2,5.7,0.2,8.5,0c24.4-1.4,48.8-2.8,73.3-4.3
	c0.3,0,0.5-0.1,0.6-0.4l12.7-26.8c0.1-0.2,0-0.5-0.2-0.6c-0.1,0-0.2,0-0.2,0c-25.5,2.2-51.1,3.8-76.9,5c-10.3,0.5-20.7,0.3-31-0.2
	c-24.3-1.2-48.6-2.8-72.8-4.8c-0.2,0-0.4,0.1-0.4,0.3c0,0.1,0,0.1,0,0.2l12.7,26.9C178.1,337.8,178.3,337.9,178.7,338z"/>
<path class="st0" d="M76.4,512H32c-13.4-2.2-17.2-11-17.2-23.3c0-8.9,0-17.8,0-26.7c0-13.4,16-13.2,16-0.7c0,10.7,0,21.2,0,31.7
	c0,1.6,1.3,3,3,3l0,0H75c1.7,0,3-1.3,3-3l0,0c0-4.6-1-13.6,1.1-17.5c2.3-4.2,7.9-5.3,11.6-2.4c2.7,2.1,3.2,4.6,3.2,8.1
	c0,5.2,0.5,11.6-0.7,16.2C91.2,505.7,85.6,510.6,76.4,512z"/>
<path class="st0" d="M479.2,512h-44.5c-7.9-1.3-13.2-5.3-15.9-12.1c-1.7-4.2-2.5-20.5-0.1-24.5c4-6.9,14.7-3.8,14.8,3.9
	c0,4.9,0.1,9.6,0,14.1c0,1.4,1.1,2.5,2.5,2.5c0,0,0,0,0,0h41c2.5,0,3.7-1.2,3.7-3.7c0-10.2,0-20.5,0-30.9c0-12.9,15.9-11.4,16-1.6
	c0,8.4,0,16.9,0,25.3c0,7.3-0.5,12.4-1.6,15.1C492.7,506.7,487.3,510.7,479.2,512z"/>
</svg>
