<?xml version="1.0" encoding="utf-8"?>
<!-- Generator: Adobe Illustrator 26.5.0, SVG Export Plug-In . SVG Version: 6.00 Build 0)  -->
<svg version="1.1" id="Layer_1" xmlns="http://www.w3.org/2000/svg" xmlns:xlink="http://www.w3.org/1999/xlink" x="0px" y="0px"
	 viewBox="0 0 512 512" style="enable-background:new 0 0 512 512;" xml:space="preserve">
<style type="text/css">
	.st0{fill:#0074D9;}
</style>
<path class="st0" d="M57.8,0h311c17.6,2.7,23.8,14.3,23.7,30.5c-0.1,14.1-0.1,28.1,0,42.2c0,0.3,0.1,0.6,0.4,0.9
	c8.4,8.3,16.9,16.6,25.3,25c10.4,10.2,9.1,25.6,8.5,37.4c-0.8,13.9-6.4,25.3-16.8,34.2c-0.2,0.2-0.4,0.5-0.4,0.9l0,67
	c0,0.5,0.4,1,1,1l0,0c25.1,0,50.2,0,75.4,0c14.3,0,24.1,7.2,26.1,22.1v229.2c-2.1,12.8-9.6,20-22.3,21.7H260.9
	c-15.1-2.2-22-12.1-21.9-26.5c0-11,0-21.9,0-32.7c0-0.3-0.3-0.6-0.6-0.6h0c-57.4,0-114.7,0-172.1,0c-7.9,0-13.7-0.5-17.4-1.5
	c-19.5-5.2-32-22.6-32-42.5c0-79.1,0-158.3,0.1-237.5c0-0.3-0.1-0.6-0.4-0.8C6.5,161.3,1,150.3,0,136.9v-21c0.8-6.4,3.2-11.7,7.4-16
	c3.9-4,12.7-12.7,26.2-26.2c0.2-0.2,0.4-0.5,0.4-0.9c0.3-15.1,0.3-30.2,0.2-45.4C34.1,12.6,42.6,2.3,57.8,0z M375.5,26
	c0-5.5-4.1-9-9.5-9c-101.3,0-202.7,0-304,0c-8,0-10.7,3.4-10.7,11.5c0,13.2,0,26.2,0,39.3c0,0.3,0.2,0.5,0.5,0.5H375
	c0.3,0,0.5-0.2,0.5-0.5C375.5,53.8,375.5,39.9,375.5,26z M85.4,102.3c21.1-0.1,42.2,0.4,63.3-0.1c0.2,0,0.4,0,0.6,0.1
	c0.3,0.1,0.5,0.1,0.8,0.1l246.4,0c0.2,0,0.4-0.2,0.4-0.4c0-0.1,0-0.2-0.1-0.3L381,85.8c-0.4-0.4-0.9-0.6-1.4-0.6H46.8
	c-0.3,0-0.5,0.1-0.8,0.3l-16.3,16.2c-0.5,0.5-0.4,0.8,0.3,0.8C48.4,102.5,66.9,102.4,85.4,102.3z M67.7,119.5l-49.9-0.1
	c-0.4,0-0.7,0.3-0.7,0.7l0,0l0,15.1C17,150,28.4,162,42.5,162h0.2c14.1,0,25.6-11.9,25.6-26.7c0,0,0,0,0,0l0-15.1
	C68.4,119.8,68.1,119.5,67.7,119.5C67.7,119.5,67.7,119.5,67.7,119.5z M136,119.5H85.8c-0.3,0-0.5,0.2-0.5,0.5l0,0v16
	c0,14.3,11.4,26,25.4,26c0,0,0,0,0,0h0.5c14,0,25.4-11.6,25.4-26l0,0v-16C136.6,119.7,136.3,119.5,136,119.5L136,119.5z
	 M204.4,119.5h-50.5c-0.2,0-0.4,0.2-0.4,0.4v16c0,14.4,11.4,26.1,25.5,26.1h0.4c14.1,0,25.5-11.7,25.5-26.1l0,0v-16
	C204.8,119.7,204.6,119.5,204.4,119.5z M272.6,119.5h-50.4c-0.2,0-0.4,0.2-0.4,0.4v16.4c0,14.2,11.3,25.7,25.4,25.7l0,0h0.4
	c14,0,25.4-11.5,25.4-25.7c0,0,0,0,0,0v-16.4C273,119.7,272.9,119.5,272.6,119.5z M341,119.6l-50.5-0.2c-0.2,0-0.3,0.1-0.3,0.3v0
	l-0.1,15.9c-0.1,14.6,11.3,26.4,25.4,26.4c0,0,0,0,0,0h0.2c14.1,0,25.5-11.7,25.5-26.3l0-15.8C341.3,119.7,341.1,119.6,341,119.6z
	 M409.1,119.5h-50.3c-0.3,0-0.5,0.2-0.5,0.5c0,0,0,0,0,0v15.5c0,14.6,11.5,26.5,25.6,26.5c0,0,0,0,0,0h0.1
	c14.1,0,25.6-11.9,25.6-26.5V120C409.6,119.7,409.4,119.5,409.1,119.5z M345.4,166.6c-19.2,18.1-47,16.2-63.5-4
	c-0.2-0.2-0.5-0.3-0.7-0.1c0,0,0,0-0.1,0.1c-18.3,21.8-49.6,22.1-67.5-0.1c-0.2-0.2-0.5-0.2-0.7-0.1c0,0-0.1,0.1-0.1,0.1
	c-17.8,22-49.6,22.2-67.4,0.1c-0.2-0.3-0.6-0.3-0.9-0.1c0,0-0.1,0-0.1,0.1c-18.2,21.8-49.7,22.1-67.5-0.1c-0.2-0.2-0.4-0.2-0.6-0.1
	c0,0,0,0-0.1,0.1c-10.7,13.1-24.6,18.4-41.7,15.9c-0.3,0-0.5,0.1-0.5,0.4c0,76.2,0,152.5,0,228.7c0,12.2,5.8,22.4,17.5,26.1
	c3.3,1,9.9,1.5,19.7,1.5c55.8,0,111.4,0,167,0c0.3,0,0.5-0.2,0.5-0.5v-70.4c0-0.1-0.1-0.3-0.2-0.3c-0.1,0-0.2,0-0.2,0.1
	c-15.1,21.8-35.2,35.8-60.2,42.2c-50,12.7-102.6-14.9-120.5-63c-17.8-48.1,2-102,47.3-126.2c48.2-25.8,105.9-9.6,135.2,35.9
	c0.1,0.2,0.3,0.2,0.5,0.1c0.1,0,0.1-0.1,0.1-0.1c3-6.3,7.5-10.5,13.4-12.6c2.8-1,7.4-1.5,13.8-1.5c41.2,0,82.5,0,123.8,0
	c0.3,0,0.5-0.2,0.5-0.5l0-59.8c0-0.2-0.2-0.5-0.4-0.5c0,0-0.1,0-0.1,0c-15.7,3.4-32-3.3-41.8-15.8c-0.2-0.3-0.7-0.4-1-0.1
	c0,0-0.1,0.1-0.1,0.1C347.9,163.8,346.7,165.5,345.4,166.6z M238.9,307.2c0-47.1-38.2-85.3-85.3-85.3c0,0,0,0,0,0
	c-47.1,0-85.3,38.2-85.3,85.3c0,0,0,0,0,0c0,47.1,38.2,85.3,85.3,85.3c0,0,0,0,0,0C200.7,392.5,238.9,354.3,238.9,307.2L238.9,307.2
	z M495,262.8c0-3.8-3.1-6.8-6.8-6.8l0,0H262.8c-3.8,0-6.8,3.1-6.8,6.8l0,0v225.4c0,3.8,3.1,6.8,6.8,6.8l0,0h225.4
	c3.8,0,6.8-3.1,6.8-6.8l0,0V262.8z"/>
<circle class="st0" cx="85.3" cy="42.6" r="8.4"/>
<circle class="st0" cx="119.4" cy="42.7" r="8.4"/>
<circle class="st0" cx="153.6" cy="42.7" r="8.4"/>
<path class="st0" d="M196,34.3l34.5-0.1c4.5,0,8.2,3.6,8.2,8.2l0,0.6c0,4.5-3.6,8.2-8.2,8.2L196,51.2c-4.5,0-8.2-3.6-8.2-8.2l0-0.6
	C187.8,38,191.5,34.3,196,34.3z"/>
<path class="st0" d="M162.6,248.8c14.3,4.6,24.1,15.9,24.9,31.1c0.6,10.3-12.1,14.2-15.9,5.5c-0.2-0.6-0.6-2.5-1.1-6
	c-1-7.8-7.6-14.2-15.3-14.8c-22.5-1.9-26.5,32.3-1,34c39,2.6,46.1,55.7,8.7,66.8c-0.3,0.1-0.6,0.3-0.7,0.6c-0.5,0.9-0.1,1.8-0.4,2.7
	c-2.9,10.2-16.4,8.3-16.9-2.5c0-0.3-0.2-0.6-0.5-0.6c-15-4.9-23.3-15.1-25.1-30.5c-1.1-10.1,11.6-15.2,16.1-5.9
	c0.4,0.7,0.7,2.6,1,5.5c1.8,15.9,22.4,20.8,31.2,7.5c7.6-11.4-0.8-25.8-14.1-26.3c-39.4-1.4-47.5-55.1-9.3-67
	c0.3-0.1,0.6-0.4,0.6-0.8c0.4-11.9,16.5-12.3,17,0C162.1,248.4,162.3,248.7,162.6,248.8z"/>
<path class="st0" d="M281,452.3c-10.6-2-10.4-15.3-0.1-17.1c0.4-0.1,0.7-0.4,0.6-0.8l0-24.1c0-0.4-0.3-0.7-0.6-0.7
	c-10.2-1.3-10.5-15,0.1-17c0.3-0.1,0.4-0.2,0.4-0.5l0-24.3c0-0.4-0.3-0.8-0.7-0.9c-10.2-1.7-10.1-15.2,0.1-17
	c0.4-0.1,0.6-0.4,0.6-0.7l0-24.2c0-0.3-0.1-0.5-0.4-0.6c-0.4-0.2-0.8-0.3-1.1-0.3c-9.7-1.6-8.8-15.4,1.2-16.9
	c0.3-0.1,0.5-0.3,0.5-0.6c-0.6-6.2-0.9-14,6.2-15.9c6.3-1.7,10.9,3.2,10.9,9.5c0,50.6,0,101.1,0,151.7c0,0.4,0.2,0.6,0.6,0.6h15.9
	c0.4,0,0.5-0.2,0.5-0.5c0-13.1,0-26.2,0-39.3c0-3.2,0.3-5.4,1-6.7c2.9-5.8,11.4-6.1,14.7-0.7c0.9,1.4,1.3,3.7,1.3,6.7
	c0,13.3,0,26.6,0,39.9c0,0.3,0.2,0.5,0.5,0.5h24.4c0.4,0,0.8-0.4,0.8-0.8c0-24.8,0-49.7,0-74.7c0-13.2,17-13.2,17,1
	c0,24.7,0,49.5,0,74.2c0,0.2,0.2,0.4,0.3,0.4c0,0,0,0,0,0h24.6c0.3,0,0.5-0.2,0.5-0.5c0-22.3,0-44.5,0-66.7
	c0-12.5,17.2-12.9,17.2,0.6c0.1,22,0.1,44.1,0,66.1c0,0.4,0.2,0.6,0.6,0.6h24.4c0.3,0,0.5-0.2,0.5-0.5c0-30.3,0-60.6,0-90.9
	c0-2.9,0.4-5,1.1-6.4c4.3-8.4,15.9-4.4,15.9,5c0,30.8,0,61.6,0,92.3c0,0.3,0.3,0.6,0.6,0.6c0,0,0,0,0,0c3.8,0,8.8-0.6,12,1.1
	c6.5,3.4,5.8,13.2-1.3,15.5c-2.7,0.9-7.2,0.4-10.6,0.5c-0.4,0-0.6,0.2-0.6,0.5c-1.5,10.5-15.2,10.8-17.1,0c-0.1-0.4-0.3-0.6-0.7-0.6
	h-24.3c-0.4,0-0.6,0.2-0.7,0.6c-1.3,10.5-14.9,10.7-17.1,0c-0.1-0.4-0.3-0.6-0.7-0.6H376c-0.3,0-0.6,0.2-0.6,0.5
	c-1.3,10.6-15.2,10.7-17,0c-0.1-0.3-0.3-0.5-0.6-0.5h-24.3c-0.4,0-0.6,0.2-0.7,0.6c-1.6,10.6-15.3,10.7-17.1,0
	c-0.1-0.4-0.3-0.5-0.6-0.5c-13.8-0.1-31.3,3.2-33.5-16.4C281.5,452.5,281.3,452.4,281,452.3z"/>
<path class="st0" d="M390,319.9c6.9,6.6,12.3,13,18.2,18.2c0.3,0.3,0.8,0.3,1.1,0l30.9-30.9c0.3-0.3,0.3-0.6-0.1-0.9
	c-5.7-3.2-6.8-11.2-1.2-14.7c4-2.5,15.1-1.4,20-1.4c6.7,0,10.2,2.6,10.3,9.4c0,4.8,1.1,16.1-1,20c-3.4,6.4-12.1,5.7-15.2-0.5
	c-0.1-0.2-0.3-0.3-0.5-0.2c0,0-0.1,0-0.1,0.1c-10,10.1-20.1,20.2-30.3,30.2c-10.1,9.9-17.6,9.2-27.3-0.6
	c-5.5-5.5-11.1-11.1-16.6-16.6c-0.2-0.2-0.6-0.2-0.9,0c0,0,0,0,0,0c-14.9,15.7-29.9,31.4-45,47.1c-2.3,2.4-4.2,3.8-5.6,4.4
	c-5.7,2.1-12.2-3.9-10.9-9.7c0.4-1.8,1.7-3.8,4-6.2c14.4-15.1,28.8-30.2,43.2-45.3c6.2-6.5,11.1-10.9,19.7-7.8
	C384.9,315.5,387.3,317.2,390,319.9z"/>
</svg>
