<?xml version="1.0" encoding="utf-8"?>
<!-- Generator: Adobe Illustrator 26.5.0, SVG Export Plug-In . SVG Version: 6.00 Build 0)  -->
<svg version="1.1" id="Layer_1" xmlns="http://www.w3.org/2000/svg" xmlns:xlink="http://www.w3.org/1999/xlink" x="0px" y="0px"
	 viewBox="0 0 512 512" style="enable-background:new 0 0 512 512;" xml:space="preserve">
<style type="text/css">
	.st0{fill:#0074D9;}
</style>
<path class="st0" d="M24,120.2c0-5.5,4.3-8.2,9.4-8.2c28.7,0,57.4,0,86.2,0c0.3,0,0.5-0.2,0.5-0.5c0-30.8,0-61.6,0-92.5
	c0-7.1,2.1-10.9,9.5-10.9c84.7,0,169.3,0,254,0c6.8,0,8.5,4.9,8.5,11.1c0,57.5,0,114.9,0,172.4c0,0.3,0.2,0.5,0.5,0.5
	c28.9,0,57.9,0,87,0c6.8,0,8.5,4.9,8.5,11.1c0,86.9,0,173.6,0,260.1c0,0.6,0.3,0.9,0.9,0.9c7.7-0.3,15-0.6,15,9.5c0,6.5,0,13,0,19.6
	c0,7.1-2.1,10.9-9.5,10.9c-158.5,0-317,0-475.5,0c-7.2,0-10.9-2.1-10.9-9.5c0-6.7,0-13.5,0-20.2c0-11.3,6.6-9.9,15.4-10.3
	c0.4,0,0.6-0.2,0.6-0.6C24,349,24,234.6,24,120.2z M310.4,336.1c7.9,0,9.6,4,9.6,11.5c0,38.7,0,77.4,0,115.9c0,0.3,0.2,0.5,0.5,0.5
	c0,0,0,0,0,0h55c0.3,0,0.5-0.2,0.5-0.5v-439c0-0.3-0.2-0.5-0.5-0.5h-239c-0.3,0-0.5,0.2-0.5,0.5v439c0,0.3,0.2,0.5,0.5,0.5h55
	c0.3,0,0.5-0.2,0.5-0.5l0,0c0-39.3,0-78.6,0-118c0-7.4,3.8-9.5,10.9-9.5C238.8,336,274.6,336,310.4,336.1z M120,128.6
	c0-0.3-0.3-0.6-0.6-0.6h0H40.6c-0.3,0-0.6,0.3-0.6,0.6l0,0v334.9c0,0.3,0.3,0.6,0.6,0.6c0,0,0,0,0,0h78.9c0.3,0,0.6-0.3,0.6-0.6l0,0
	V128.6z M472,208.6c0-0.3-0.3-0.6-0.6-0.6l0,0h-78.9c-0.3,0-0.6,0.3-0.6,0.6v0v254.9c0,0.3,0.3,0.6,0.6,0.6l0,0h78.9
	c0.3,0,0.6-0.3,0.6-0.6l0,0V208.6z M248,352.6c0-0.3-0.3-0.6-0.6-0.6h0h-38.9c-0.3,0-0.6,0.3-0.6,0.6l0,0v110.9
	c0,0.3,0.3,0.6,0.6,0.6h0h38.9c0.3,0,0.6-0.3,0.6-0.6l0,0V352.6z M304,352.6c0-0.3-0.3-0.6-0.6-0.6l0,0h-38.9
	c-0.3,0-0.6,0.3-0.6,0.6l0,0v110.9c0,0.3,0.3,0.6,0.6,0.6l0,0h38.9c0.3,0,0.6-0.3,0.6-0.6l0,0V352.6z M488,480.7
	c0-0.4-0.3-0.7-0.7-0.7c0,0,0,0,0,0H24.7c-0.4,0-0.7,0.3-0.7,0.7v6.6c0,0.4,0.3,0.7,0.7,0.7h462.6c0.4,0,0.7-0.3,0.7-0.7
	c0,0,0,0,0,0V480.7z"/>
<path class="st0" d="M360,111.8c0,4.5-3.7,8.2-8.2,8.2H160.2c-4.5,0-8.2-3.7-8.2-8.2v0V48.2c0-4.5,3.7-8.2,8.2-8.2l0,0h191.6
	c4.5,0,8.2,3.7,8.2,8.2V111.8z M200,56.6c0-0.3-0.3-0.6-0.6-0.6l0,0h-30.9c-0.3,0-0.6,0.3-0.6,0.6c0,0,0,0,0,0v46.9
	c0,0.3,0.3,0.6,0.6,0.6l0,0h30.9c0.3,0,0.6-0.3,0.6-0.6v0V56.6z M248,56.6c0-0.3-0.3-0.6-0.6-0.6l0,0h-30.9c-0.3,0-0.6,0.3-0.6,0.6
	c0,0,0,0,0,0v46.9c0,0.3,0.3,0.6,0.6,0.6l0,0h30.9c0.3,0,0.6-0.3,0.6-0.6v0V56.6z M296,56.6c0-0.3-0.3-0.6-0.6-0.6l0,0h-30.9
	c-0.3,0-0.6,0.3-0.6,0.6c0,0,0,0,0,0v46.9c0,0.3,0.3,0.6,0.6,0.6l0,0h30.9c0.3,0,0.6-0.3,0.6-0.6v0V56.6z M344,56.6
	c0-0.3-0.3-0.6-0.6-0.6l0,0h-30.9c-0.3,0-0.6,0.3-0.6,0.6c0,0,0,0,0,0v46.9c0,0.3,0.3,0.6,0.6,0.6l0,0h30.9c0.3,0,0.6-0.3,0.6-0.6v0
	V56.6z"/>
<path class="st0" d="M112,191.7c0,4.5-3.7,8.2-8.2,8.2c0,0,0,0,0,0L56.3,200c-4.5,0-8.2-3.7-8.2-8.2c0,0,0,0,0,0L48,144.3
	c0-4.5,3.7-8.2,8.2-8.2c0,0,0,0,0,0l47.6-0.1c4.5,0,8.2,3.7,8.2,8.2c0,0,0,0,0,0L112,191.7z M96,152.6c0-0.3-0.3-0.6-0.6-0.6H64.6
	c-0.3,0-0.6,0.3-0.6,0.6v30.8c0,0.3,0.3,0.6,0.6,0.6h30.8c0.3,0,0.6-0.3,0.6-0.6V152.6z"/>
<path class="st0" d="M360,207.8c0,4.5-3.7,8.2-8.2,8.2l0,0H160.2c-4.5,0-8.2-3.7-8.2-8.2v-63.6c0-4.5,3.7-8.2,8.2-8.2h191.6
	c4.5,0,8.2,3.7,8.2,8.2c0,0,0,0,0,0V207.8z M200,152.6c0-0.3-0.3-0.6-0.6-0.6h0h-30.9c-0.3,0-0.6,0.3-0.6,0.6v0v46.9
	c0,0.3,0.3,0.6,0.6,0.6h0h30.9c0.3,0,0.6-0.3,0.6-0.6v0V152.6z M248,152.6c0-0.3-0.3-0.6-0.6-0.6h0h-30.9c-0.3,0-0.6,0.3-0.6,0.6v0
	v46.9c0,0.3,0.3,0.6,0.6,0.6h0h30.9c0.3,0,0.6-0.3,0.6-0.6v0V152.6z M296,152.6c0-0.3-0.3-0.6-0.6-0.6l0,0h-30.9
	c-0.3,0-0.6,0.3-0.6,0.6v0v46.9c0,0.3,0.3,0.6,0.6,0.6l0,0h30.9c0.3,0,0.6-0.3,0.6-0.6v0V152.6z M344,152.6c0-0.3-0.3-0.6-0.6-0.6
	l0,0h-30.9c-0.3,0-0.6,0.3-0.6,0.6v0v46.9c0,0.3,0.3,0.6,0.6,0.6l0,0h30.9c0.3,0,0.6-0.3,0.6-0.6v0V152.6z"/>
<path class="st0" d="M112,271.7c0,4.5-3.7,8.2-8.2,8.2c0,0,0,0,0,0L56.3,280c-4.5,0-8.2-3.7-8.2-8.2v0L48,224.3
	c0-4.5,3.7-8.2,8.2-8.2c0,0,0,0,0,0l47.6-0.1c4.5,0,8.2,3.7,8.2,8.2c0,0,0,0,0,0L112,271.7z M96,232.6c0-0.3-0.3-0.6-0.6-0.6H64.6
	c-0.3,0-0.6,0.3-0.6,0.6v30.8c0,0.3,0.3,0.6,0.6,0.6h30.8c0.3,0,0.6-0.3,0.6-0.6V232.6z"/>
<path class="st0" d="M464,271.7c0,4.5-3.7,8.2-8.2,8.2c0,0,0,0,0,0l-47.6,0.1c-4.5,0-8.2-3.7-8.2-8.2c0,0,0,0,0,0l-0.1-47.6
	c0-4.5,3.7-8.2,8.2-8.2h0l47.6-0.1c4.5,0,8.2,3.7,8.2,8.2c0,0,0,0,0,0L464,271.7z M448,232.6c0-0.3-0.3-0.6-0.6-0.6h-30.8
	c-0.3,0-0.6,0.3-0.6,0.6v30.8c0,0.3,0.3,0.6,0.6,0.6h30.8c0.3,0,0.6-0.3,0.6-0.6V232.6z"/>
<path class="st0" d="M360,303.8c0,4.5-3.7,8.2-8.2,8.2l0,0H160.2c-4.5,0-8.2-3.7-8.2-8.2l0,0v-63.6c0-4.5,3.7-8.2,8.2-8.2l0,0h191.6
	c4.5,0,8.2,3.7,8.2,8.2l0,0V303.8z M200,248.6c0-0.3-0.3-0.6-0.6-0.6h0h-30.9c-0.3,0-0.6,0.3-0.6,0.6v0v46.9c0,0.3,0.3,0.6,0.6,0.6
	h0h30.9c0.3,0,0.6-0.3,0.6-0.6l0,0V248.6z M248,248.6c0-0.3-0.3-0.6-0.6-0.6h0h-30.9c-0.3,0-0.6,0.3-0.6,0.6v0v46.9
	c0,0.3,0.3,0.6,0.6,0.6h0h30.9c0.3,0,0.6-0.3,0.6-0.6l0,0V248.6z M296,248.6c0-0.3-0.3-0.6-0.6-0.6l0,0h-30.9
	c-0.3,0-0.6,0.3-0.6,0.6v0v46.9c0,0.3,0.3,0.6,0.6,0.6l0,0h30.9c0.3,0,0.6-0.3,0.6-0.6l0,0V248.6z M344,248.6c0-0.3-0.3-0.6-0.6-0.6
	l0,0h-30.9c-0.3,0-0.6,0.3-0.6,0.6v0v46.9c0,0.3,0.3,0.6,0.6,0.6l0,0h30.9c0.3,0,0.6-0.3,0.6-0.6l0,0V248.6z"/>
<path class="st0" d="M112,351.7c0,4.5-3.7,8.2-8.2,8.2c0,0,0,0,0,0L56.3,360c-4.5,0-8.2-3.7-8.2-8.2v0L48,304.3
	c0-4.5,3.7-8.2,8.2-8.2c0,0,0,0,0,0l47.6-0.1c4.5,0,8.2,3.7,8.2,8.2v0L112,351.7z M96,312.6c0-0.3-0.3-0.6-0.6-0.6H64.6
	c-0.3,0-0.6,0.3-0.6,0.6v30.8c0,0.3,0.3,0.6,0.6,0.6h30.8c0.3,0,0.6-0.3,0.6-0.6V312.6z"/>
<path class="st0" d="M464,351.7c0,4.5-3.7,8.2-8.2,8.2c0,0,0,0,0,0l-47.6,0.1c-4.5,0-8.2-3.7-8.2-8.2c0,0,0,0,0,0l-0.1-47.6
	c0-4.5,3.7-8.2,8.2-8.2c0,0,0,0,0,0l47.6-0.1c4.5,0,8.2,3.7,8.2,8.2c0,0,0,0,0,0L464,351.7z M448,312.6c0-0.3-0.3-0.6-0.6-0.6h-30.8
	c-0.3,0-0.6,0.3-0.6,0.6v30.8c0,0.3,0.3,0.6,0.6,0.6h30.8c0.3,0,0.6-0.3,0.6-0.6V312.6z"/>
</svg>
