<?xml version="1.0" encoding="utf-8"?>
<!-- Generator: Adobe Illustrator 26.5.0, SVG Export Plug-In . SVG Version: 6.00 Build 0)  -->
<svg version="1.1" id="Layer_1" xmlns="http://www.w3.org/2000/svg" xmlns:xlink="http://www.w3.org/1999/xlink" x="0px" y="0px"
	 viewBox="0 0 512 512" style="enable-background:new 0 0 512 512;" xml:space="preserve">
<style type="text/css">
	.st0{fill:#0074D9;}
</style>
<path class="st0" d="M512,344.6v17c-2.1,10.5-8.8,13-18.9,13c-50.9,0-101.7,0-152.6,0c-7.8,0-10-15,2.4-15c51.2,0,102.3,0,153.5,0
	c0.4,0,0.6-0.2,0.6-0.6l0-11.8c0-0.3-0.3-0.6-0.6-0.6l0,0H292.7c-0.5,0-0.9,0.4-0.9,0.9V359c0,0.3,0.2,0.5,0.5,0.5
	c6,0.1,11.9,0.1,17.9,0c8.7-0.1,12.3,10.4,4.5,14.1c-4.2,2-25.2,1.4-29.6-0.6c-9.5-4.4-8.3-13.4-8.3-22.4c0-4.9,0.4-8.3,1.1-10.2
	c3.3-8.3,11.2-9.4,19.2-8.9c0.6,0,1.1-0.4,1.2-1c0,0,0,0,0-0.1c0-5.9-1.2-16.1,1.2-21.3c4.9-10.6,17.6-8.5,27.4-8.4
	c0.3,0,0.6-0.1,0.9-0.4l61.6-61.6c0.5-0.5,0.7-1.1,0.7-1.8v-80.9c0-0.3-0.2-0.5-0.5-0.5h-77c-0.3,0-0.5,0.2-0.5,0.5
	c0,9.7,0,19.5,0,29.2c0,12.1-1.1,21.8-12.8,26.1c-2.7,1-7.3,1.5-13.6,1.5c-15.5,0-30.9,0-46.4,0c-15.3,0-24.3-6.1-24.2-22.4
	c0-11.4,0-22.8,0-34.1c0-0.4-0.3-0.8-0.8-0.8h-39.9c-0.8,0-1.2,0.4-1.2,1.2l8.9,296.5c0,0.3,0.3,0.6,0.6,0.6
	c7,0.1,15.6-0.8,21.9,1.1c9.3,2.9,15.4,9,18.3,18.3c2.2,7.1,1.1,17.1,1.2,25c0,5.4-2,9.9-7.8,9.9c-29.5,0-59.1,0-88.6,0
	c-12.5,0-12-15.2-1.1-15.2c27,0,54.4,0,82.1,0c0.2,0,0.4-0.2,0.4-0.4l0,0c0.2-13.7,1.3-23.6-15.7-23.6c-29.9,0-59.8,0-89.8,0
	c-15.1,0-14.6,12.3-13.9,23.4c0,0.4,0.2,0.6,0.6,0.6c3.1-0.1,6.8-0.3,9.3,1.3c7.1,4.4,2.8,13.9-5.1,14c-8.8,0.1-20,2.9-20-10.1
	c0-7.9-0.9-17.8,1.2-24.8c3-9.9,9.7-16.1,20.2-18.8c3.6-0.9,7.9-0.5,11.8-0.6c0.4,0,0.7-0.3,0.7-0.7l8.9-297.3
	c0-0.1-0.1-0.2-0.2-0.2c0,0,0,0,0,0H70c-0.3,0-0.4,0.1-0.5,0.4c-0.8,8.7-4.8,14.3-11.7,16.9c-2.7,1-7.5,1.5-14.3,1.4
	c-6.6,0-13.1,0-19.7,0c-12.5,0-21.4-3-23.8-16.6v-57.5c2.2-12.3,10.3-16.2,21.8-16.2c8.9,0,17.9,0,26.8,0c11.2,0,19.2,4.9,20.8,17
	c0,0.3,0.2,0.5,0.6,0.5h49.7c0.3,0,0.6-0.2,0.6-0.6c2.7-30.1,5.3-60.3,7.9-90.4c0.8-9.5,16-7.2,25-6.9c2,0.1,3.9,0.5,5.8,1.2
	c80.3,31.8,160.6,63.7,240.9,95.6c8.7,3.5,19.5-2.9,25.9,5.5c9.1,11.7,18.3,23.5,27.4,35.2c6,7.7,3.2,14.4-6.8,14.4
	c-13.7,0-27.4,0-41,0c-0.3,0-0.5,0.2-0.5,0.5v82.3c0,0.4,0.1,0.7,0.4,0.9l60.7,60.7c0.4,0.4,1,0.7,1.6,0.6
	c11.2-0.5,26.2-1.7,27.1,14.1c0.3,5.3,0.3,10.6,0.1,15.9c0,0.4,0.2,0.5,0.5,0.5C504.6,331.3,510.2,335.7,512,344.6z M135.6,101.2
	c0,0.3,0.2,0.6,0.5,0.6c0,0,0,0,0.1,0l18.2,0c0.3,0,0.5-0.2,0.5-0.5c0,0,0,0,0-0.1l-7.2-81.7c0-0.3-0.3-0.5-0.5-0.5l-4,0
	c-0.3,0-0.5,0.2-0.5,0.5L135.6,101.2z M252.6,116.9c-8,0-10.3-11.6-2.7-14.5c1.2-0.5,3.4-0.7,6.4-0.7c34.9,0,69.7,0,104.6,0
	c0.1,0,0.2-0.1,0.2-0.2c0-0.1-0.1-0.2-0.1-0.2L163.7,23.1c-0.2-0.1-0.4,0-0.5,0.2c0,0.1,0,0.1,0,0.2L170,101c0,0.4,0.4,0.8,0.8,0.8
	c16.1,0,31.9,0,47.6,0c3.5,0,6,0.4,7.5,1.1c7.4,3.6,4,14.2-4.4,14.2c-50.5,0-101,0-151.5,0c-0.3,0-0.5,0.2-0.5,0.5l0,22.7
	c0,0.3,0.2,0.5,0.5,0.5h363c0.2,0,0.4-0.2,0.4-0.4c0-0.1,0-0.2-0.1-0.3l-17.7-22.7c-0.2-0.3-0.5-0.4-0.9-0.4
	C360.6,117,306.6,117,252.6,116.9z M54.3,102.4c0-1.7-1.4-3.1-3.1-3.1c0,0,0,0,0,0l-33-0.1c-1.7,0-3.1,1.4-3.1,3.1c0,0,0,0,0,0
	L15,156.1c0,1.7,1.4,3.1,3.1,3.1c0,0,0,0,0,0l33,0.1c1.7,0,3.1-1.4,3.1-3.1c0,0,0,0,0,0L54.3,102.4z M132.7,155.8
	c-0.2,0-0.3,0.1-0.3,0.3l-0.8,25.8c0,0.2,0.1,0.3,0.3,0.3c0.1,0,0.2,0,0.3-0.1l19.5-25.8c0.1-0.1,0.1-0.3-0.1-0.4
	c-0.1,0-0.1-0.1-0.2-0.1L132.7,155.8z M296.1,155.8h-65.4c-0.4,0-0.7,0.3-0.7,0.7l0,0v36.1c0,2.9,2.3,5.3,5.2,5.3l0,0h56.5
	c2.8,0,5.1-2.4,5.1-5.3v-36.1C296.8,156.1,296.5,155.8,296.1,155.8z M136.6,201.2c-0.1,0.1-0.1,0.4,0.1,0.5c0,0,0,0,0,0l22.7,16.4
	c0.1,0.1,0.4,0.1,0.5-0.1c0-0.1,0.1-0.1,0.1-0.2l-1.3-44.7c0-0.2-0.1-0.3-0.3-0.3c-0.1,0-0.2,0.1-0.3,0.1L136.6,201.2z M153.2,232.7
	c0.1-0.2,0.1-0.4-0.1-0.5c0,0,0,0,0,0l-22-15.9c-0.2-0.1-0.4-0.1-0.5,0.1c0,0.1-0.1,0.1-0.1,0.2l-1.5,48.3c0,0.2,0.1,0.3,0.3,0.4
	c0.1,0,0.2,0,0.3-0.1L153.2,232.7z M134.5,284.3c-0.1,0.1-0.1,0.4,0.1,0.5c0,0,0,0,0,0l27.4,19.9c0.1,0.1,0.4,0.1,0.5-0.1
	c0-0.1,0.1-0.1,0.1-0.2l-1.6-55.4c0-0.2-0.1-0.3-0.3-0.3c-0.1,0-0.2,0.1-0.3,0.1L134.5,284.3z M390,260.2c0-0.2-0.2-0.3-0.3-0.3
	c-0.1,0-0.2,0-0.2,0.1l-40.2,40.2c-0.1,0.1-0.1,0.3,0,0.5c0.1,0.1,0.1,0.1,0.2,0.1h40.2c0.2,0,0.3-0.1,0.3-0.3V260.2z M444.6,300.8
	c0.2,0,0.3-0.2,0.3-0.3c0-0.1,0-0.2-0.1-0.2L405.6,261c-0.1-0.1-0.3-0.1-0.5,0c-0.1,0.1-0.1,0.1-0.1,0.2v39.2c0,0.2,0.2,0.3,0.3,0.3
	H444.6z M155.8,319.2c0.1-0.1,0.1-0.3-0.1-0.4c0,0,0,0,0,0l-27.1-19.6c-0.1-0.1-0.3-0.1-0.4,0.1c0,0-0.1,0.1-0.1,0.2l-1.7,55.7
	c0,0.2,0.1,0.3,0.3,0.3c0.1,0,0.2,0,0.3-0.1L155.8,319.2z M479.7,316.3c0-0.1-0.1-0.3-0.3-0.3h-166c-0.1,0-0.3,0.1-0.3,0.3v15
	c0,0.1,0.1,0.3,0.3,0.3h166c0.1,0,0.3-0.1,0.3-0.3V316.3z M132.3,373.4l32.3,23.5c0.2,0.1,0.4,0.1,0.5-0.1c0-0.1,0.1-0.1,0.1-0.2
	l-1.9-61.6c0-0.2-0.2-0.3-0.4-0.3c-0.1,0-0.2,0.1-0.2,0.1c-9.8,12.2-19.7,24.5-29.6,36.8c-0.4,0.5-0.7,1.1-0.9,1.7
	C132.2,373.2,132.2,373.3,132.3,373.4z M155.8,409.4c0.1-0.1,0.1-0.3,0-0.5c0,0,0,0,0,0L126,387.4c-0.1-0.1-0.3-0.1-0.4,0.1
	c0,0.1-0.1,0.1-0.1,0.2l-1.8,61c0,0.2,0.1,0.3,0.3,0.3c0.1,0,0.2,0,0.3-0.1L155.8,409.4z M165.2,421.7
	c-8.4,10.7-16.8,21.2-25.2,31.6c-0.1,0.2-0.1,0.4,0.1,0.6c0.1,0.1,0.2,0.1,0.3,0.1h26.2c0.3,0,0.5-0.2,0.5-0.5c0,0,0,0,0,0l-1-32.1
	c0-0.1-0.1-0.2-0.2-0.2c0,0,0,0-0.1,0C165.4,421.2,165.2,421.4,165.2,421.7z"/>
</svg>
