<?xml version="1.0" encoding="utf-8"?>
<!-- Generator: Adobe Illustrator 26.5.0, SVG Export Plug-In . SVG Version: 6.00 Build 0)  -->
<svg version="1.1" id="Layer_1" xmlns="http://www.w3.org/2000/svg" xmlns:xlink="http://www.w3.org/1999/xlink" x="0px" y="0px"
	 viewBox="0 0 512 512" style="enable-background:new 0 0 512 512;" xml:space="preserve">
<style type="text/css">
	.st0{fill:#0074D9;}
</style>
<path class="st0" d="M198.8,0h114.2c38.9,2.3,60.8,34,57.1,71.4c-0.9,9.6-15,8.6-14.9-1.7c0-8.6,0.3-16.4-2.1-24.1
	c-4.8-15.2-18-26.6-33.2-29.6c-3.4-0.7-10.1-1-19.9-1c-29.8,0-59.7,0-89.5,0c-9.3,0-15.9,0.5-19.9,1.4
	c-19.6,4.7-33.9,22.2-33.9,42.6c0,25.4,0,51.1,0,77c0,0.6,0.4,1,0.9,1.1c4.2,0.8,8.1,2.2,11.9,4.1c0.1,0.1,0.3,0,0.4-0.1
	c0,0,0-0.1,0-0.1c0-16.5,0-33,0-49.4c0-9.3,0.5-15.7,1.6-19.3c3.6-12.1,14.2-20.7,27.3-21.3c16-0.7,30.7-2.3,42.6,7.2
	c9.9,7.9,19,7.9,29,0.1c11.4-8.9,22.1-7.4,36.2-7.4c5.8,0,10.1,0.4,13,1.2c15.5,4.4,22.2,17.1,22.3,32.8c0.1,18.7,0.1,37.3,0,55.9
	c0,0.2,0.2,0.4,0.4,0.4c0.1,0,0.1,0,0.2,0c3.9-1.9,7.9-3.3,12.2-4.1c0.4-0.1,0.6-0.3,0.6-0.7c-0.1-8.5-0.1-17-0.2-25.5
	c0-3.8,0.2-6.2,0.7-7.2c3.7-7.5,14.4-5.7,14.4,2.4c0,8.9,0,17.9,0,26.9c0,0.3,0.1,0.6,0.4,0.8c7.2,6,11.4,10.6,11.2,20.8
	c-0.1,4.8,0.4,10.6-0.7,14.9c-2.5,9.5-8.8,15.1-18.9,16.9c-1.9,0.3-4.4,0.1-6.6,0.2c-0.4,0-0.6,0.2-0.7,0.6
	c-4.7,21.8-14.4,41.1-29.1,57.8c-0.2,0.2-0.2,0.6,0,0.8c0.1,0,0.1,0.1,0.2,0.1c25.8,9.4,43,30.5,46.3,57.9c0.1,0.7,0.5,1.2,1.2,1.4
	c19.2,5.8,38.6,11.6,58.1,17.5c12,3.6,20.4,10.5,25.2,20.7c1.6,3.5,3.2,9.8,4.8,18.9c7,40.9,14,81.8,21,122.7
	c2.5,14.7-7.1,25.5-21.4,27.1H50.7c-14.5-1.2-23.6-13-21.2-27.5c2.4-14.1,4.8-28.2,7.2-42.2c1-5.7,7.4-8.1,11.9-4.8
	c3.2,2.4,3.1,5.8,2.4,9.8c-2.2,13-4.4,26.1-6.6,39.1c-1.5,9,3.6,10.6,11.3,10.6c133.6,0,267.2,0,400.7,0c8.3,0,12.6-2.1,11-11
	c-7.3-42.6-14.5-85.3-21.9-127.9c-2.8-16.6-11.9-19.1-27.8-23.9c-14.8-4.5-29.6-9-44.4-13.4c-0.3-0.1-0.6,0.1-0.7,0.4
	c0,0.1,0,0.1,0,0.2v38.5c0,0.4,0.2,0.6,0.5,0.7c18.8,5,32.7,21.4,30.4,41.8c-2.6,22.5-24.1,39.1-46.7,33.9
	c-40.4-9.3-40.5-65.7,0.3-75.7c0.2-0.1,0.4-0.3,0.4-0.5v-43.4c0-0.4-0.2-0.6-0.5-0.7l-24.5-7.4c-0.4-0.1-0.9,0.1-1.1,0.5
	c-5.1,11.7-10.1,23.6-14.8,35.6c-17.8,45.1-35.3,90.4-52.5,135.9c-1.3,3.5-2.6,5.8-3.9,6.9c-4.3,3.5-10,0.8-11.9-4.3
	c-17.5-46.6-35.4-93.1-53.8-139.5c-4.6-11.7-9.5-23.3-14.6-34.9c-0.1-0.3-0.3-0.4-0.6-0.3l-24.5,7.5c-0.5,0.2-0.7,0.5-0.7,1v17.9
	c0,0.4,0.2,0.6,0.5,0.7c14.2,3.5,23.6,11.5,28,24c1.3,3.7,2.3,9.9,3,18.5c1.2,15.9,2.5,31.8,3.7,47.7c1.2,15.3,3.4,26.3-11,32.7
	c-4.5,2-10.4,1.5-15.4,1.5c-6.8,0-11.4-7.5-6.1-12.7c4.8-4.7,16.3,0.3,18.2-4.9c0.3-0.8,0.4-2.5,0.2-4.9
	c-1.7-22.6-3.5-45.2-5.3-67.8c-2.1-25.7-44.1-27-46.4,1.3c-2,23.3-3.8,46.6-5.6,69.7c-0.2,2.2,1.5,4.1,3.7,4.3c0.1,0,0.2,0,0.3,0
	c4.1,0,10.7-0.9,14.2,2c3.2,2.7,3.5,7.5,0.6,10.6c-3,3.2-9.5,2.7-13.5,2.5c-16.2-0.9-21.1-11.1-19.9-25.4
	c1.7-20.7,3.3-41.4,4.8-62.2c1.5-19.7,11.7-32,30.7-36.9c0.2-0.1,0.4-0.2,0.4-0.5V321c0-0.3-0.2-0.4-0.5-0.4
	c-16.3,4.9-32.5,9.8-48.8,14.7c-13.5,4.1-21.1,7.9-23.5,22.1c-2.9,16.3-5.7,32.7-8.5,49c-0.5,2.9-1.2,4.9-2,6.1
	c-4.4,6.2-14.5,2-13.3-5.4c2.2-13.3,4.5-26.6,6.8-39.9c3.2-18.6,4.8-31,20.4-40.2c3.2-1.9,9.4-4.2,18.7-7
	c16.8-5,33.6-10.1,50.4-15.2c0.3-0.1,0.5-0.3,0.5-0.6c3.1-23.7,14.8-41.5,34.9-53.2c3.6-2.1,7.7-3.6,11.8-5.1
	c0.3-0.1,0.4-0.4,0.3-0.7c0-0.1-0.1-0.1-0.1-0.2c-14.8-16.7-24.6-36.1-29.3-58c-0.1-0.4-0.3-0.6-0.7-0.6c-0.9-0.1-1.7-0.1-2.6-0.1
	c-10.1,0.2-18.2-5-21.9-13.9c-2.3-5.5-1.7-11.5-1.7-18.1c0-10.3,3.7-14.9,11.1-20.8c0.3-0.2,0.4-0.5,0.4-0.8c0-25.1,0-50.1,0-75.1
	C141.7,26.2,168.1,1.8,198.8,0z M171.9,160.5c-0.2,0-0.4,0.2-0.4,0.4c0,0,0,0,0,0c-0.1,8.8-0.9,19.7,1.4,28.4
	c11.7,42.9,50.6,83.2,99,72c33.8-7.8,57.9-39,66.8-71c2.6-9.3,1.8-19.7,1.7-29.4c0-0.4-0.2-0.5-0.5-0.5c-9.5,0.9-13-4.7-13-13.2
	c0.1-33.8,0.1-55.3,0-64.7c-0.2-21.3-22.7-16.8-36.2-16.8c-7.6,0-12.4,6.2-18.6,9.3c-10.5,5.3-22.2,5.1-32.7-0.2
	c-6.2-3.2-11.1-9.1-18.5-9.1c-13.1,0-36-4.3-36,16.5c0,21.7,0,43.4,0,65.2C185,156.3,181.6,160.9,171.9,160.5z M156,152l-10.1-1.6
	c-0.3,0-0.5,0.1-0.5,0.4c-0.3,7.5-3.1,23.4,10.7,20.4c0.2-0.1,0.4-0.3,0.4-0.5l0.1-18.2C156.6,152.2,156.4,152,156,152z
	 M355.5,152.8l0.1,17.9c0,0.3,0.2,0.6,0.5,0.6c13.6,2.8,10.9-12.9,10.6-20.3c0-0.3-0.3-0.5-0.6-0.5c0,0,0,0-0.1,0l-9.8,1.5
	C355.7,152,355.5,152.3,355.5,152.8z M181.3,292.3c5.5-1.6,7.9-0.4,12.6,0.1c0.3,0,0.6-0.1,0.8-0.3c7-8.3,4.9-20.2,4.8-33.4
	c0-0.3-0.2-0.5-0.5-0.4c-22.1,3.4-38.1,19.8-43.3,40.8c-0.2,0.6,0.1,0.8,0.7,0.6C164.6,297.2,172.9,294.7,181.3,292.3z M327.9,291.6
	c9.3,2.5,18.6,5.3,27.8,8.2c0.6,0.2,0.8,0,0.7-0.6c-4.8-21.1-21.4-37.6-43.4-40.9c-0.3-0.1-0.5,0.1-0.5,0.4
	c-0.2,12.4-2.2,25.4,4.8,33.6c0.2,0.2,0.6,0.3,0.9,0.2C322.5,291.3,325.7,290.9,327.9,291.6z M207.3,301.4l48.1,36
	c0.3,0.3,0.8,0.3,1.2,0l47.8-35.8c0.5-0.3,0.5-1,0.2-1.4c-7.1-9.7-7.6-20-7-31.7c0-0.2-0.2-0.4-0.4-0.4c-0.1,0-0.1,0-0.2,0
	c-27.5,13.4-54.9,13.3-82.3-0.1c-0.2-0.1-0.4,0-0.4,0.1c0,0,0,0.1,0,0.2c0.7,11.6,0.2,22.5-7.1,32.1
	C206.9,300.7,207,301.1,207.3,301.4C207.3,301.4,207.3,301.4,207.3,301.4z M240.6,345.6c0.2-0.1,0.2-0.3,0.2-0.4
	c0-0.1-0.1-0.1-0.1-0.1l-40.7-30.5c-0.1-0.1-0.3-0.1-0.4,0.1c-0.1,0.1-0.1,0.2,0,0.3l16.5,40.8c0.1,0.2,0.3,0.2,0.4,0.2c0,0,0,0,0,0
	L240.6,345.6z M271.6,345.6l23.9,10.1c0.3,0.1,0.6,0,0.8-0.3c0,0,0,0,0,0l16.6-40.9c0-0.1,0-0.2-0.1-0.2c-0.1,0-0.1,0-0.2,0
	l-41.1,30.7c-0.2,0.1-0.2,0.4-0.1,0.6C271.4,345.6,271.5,345.6,271.6,345.6z M272.8,363.2c0.2-0.2,0.2-0.6-0.1-0.8
	c0,0-0.1-0.1-0.2-0.1l-16.3-6.9c-0.1-0.1-0.3-0.1-0.4,0l-16.4,6.9c-0.3,0.1-0.4,0.5-0.3,0.7c0,0.1,0.1,0.1,0.1,0.1l7.8,9.1
	c0.1,0.1,0.3,0.2,0.4,0.2h17c0.2,0,0.3-0.1,0.4-0.2L272.8,363.2z M221.9,371.2l10.3,26.7c0.1,0.2,0.2,0.3,0.4,0.2
	c0.1,0,0.2-0.1,0.2-0.3l2.7-15.2c0.1-0.3,0-0.7-0.3-1l-10.5-12.2c-0.6-0.7-1.7-0.8-2.4-0.2C221.8,369.7,221.7,370.5,221.9,371.2z
	 M290.4,370.4c0.1-0.1,0-0.3-0.1-0.4l-2.1-1.2c-0.1-0.1-0.3-0.1-0.4,0.1L276.5,382c-0.1,0.1-0.1,0.2-0.1,0.3l2.8,15.6
	c0,0.2,0.2,0.3,0.4,0.3c0.1,0,0.2-0.1,0.2-0.2L290.4,370.4z M388.9,398.4c0-13.1-10.6-23.7-23.7-23.7s-23.7,10.6-23.7,23.7l0,0
	c0,13.1,10.6,23.7,23.7,23.7l0,0C378.3,422.1,388.9,411.5,388.9,398.4z M262.1,387.9c0-0.2-0.3-0.4-0.5-0.4l-11.3,0
	c-0.2,0-0.4,0.2-0.5,0.4l-6.9,37.7c0,0.1,0,0.2,0,0.3l12.5,33.1c0.1,0.3,0.4,0.4,0.6,0.3c0.1-0.1,0.2-0.2,0.3-0.3l12.5-33.1
	c0-0.1,0-0.2,0-0.3L262.1,387.9z"/>
</svg>
