<?xml version="1.0" encoding="utf-8"?>
<!-- Generator: Adobe Illustrator 26.5.0, SVG Export Plug-In . SVG Version: 6.00 Build 0)  -->
<svg version="1.1" id="Layer_1" xmlns="http://www.w3.org/2000/svg" xmlns:xlink="http://www.w3.org/1999/xlink" x="0px" y="0px"
	 viewBox="0 0 512 512" style="enable-background:new 0 0 512 512;" xml:space="preserve">
<style type="text/css">
	.st0{fill:#0074D9;}
</style>
<path class="st0" d="M512,244.3v112.7c-1.3,6-5.2,8.9-11.8,8.9c-13.8,0-27.6,0-41.3,0c-0.2,0-0.4,0.1-0.4,0.3
	c-20.5,52.6-92.2,52.8-112.9,0.3c-0.1-0.3-0.5-0.6-0.8-0.6H206.9c-0.2,0-0.3,0.1-0.4,0.2c-19.4,50.9-87.1,52.9-111,4.9
	c-0.6-1.2-1.2-3.2-1.9-4.7c-0.2-0.3-0.4-0.5-0.8-0.5c-13.3,0-26.6,0-40,0c-10.2,0-13.3-4.3-12.5-14.5c2.2-26.3,4.4-52.6,6.6-78.8
	c0-0.2-0.2-0.4-0.4-0.5c0,0,0,0,0,0c-11.1,0-22.2,0-33.2,0c-7.2,0-12-1.6-13.3-9.1v-2c1.5-7.7,6.4-9,13.8-9c11.4,0,22.7,0,34,0
	c0.5,0,0.8-0.3,0.8-0.8L51,224c0-0.2-0.1-0.4-0.4-0.5c0,0,0,0,0,0c-4.5-0.1-10.4,0.6-14.3-0.9c-10.9-4.4-6.7-19.6,5.2-19.2
	c3.5,0.1,7,0.1,10.5,0c0.4,0,0.7-0.3,0.7-0.7l2.3-27.5c0-0.3-0.1-0.5-0.5-0.5c-10,0-19.9,0-29.8,0c-7.2,0-11.8-8.1-8.7-14.4
	c2.4-5,6.8-5.6,12.4-5.6c9.2,0,18.4,0,27.6,0c0.4,0,0.7-0.3,0.7-0.6c1-12.1,2-24.2,3-36.3c0.8-8.9,4.3-11.8,12.8-11.8
	c91.8,0,183.5,0,275.3,0c10.2,0,14.1,2.9,14,13c-0.1,5.5,0,10.9,0.1,16.4c0,0.4,0.2,0.6,0.6,0.6c23.8,0,47.5,0,71.2,0
	c6.2,0,10.2,0.9,12.7,6.6c10.5,24.3,20.9,48.7,31.4,73.1c0.1,0.3,0.4,0.5,0.8,0.5C496.9,215.3,510.3,225.8,512,244.3z M107.6,155.5
	c7.9,3,8.7,14.3,1.1,18c-1.7,0.9-4.4,1.3-8.2,1.2c-8.3,0-16.6,0-25,0c-0.3,0-0.5,0.2-0.5,0.5L72.8,203c0,0.3,0.1,0.5,0.5,0.5
	c23.4,0,46.8,0,70.2,0c6,0,10.3-0.3,13.5,3.8c5.4,7,0.1,16.2-8.4,16.2c-25.6,0-51.2,0-76.9,0c-0.3,0-0.5,0.2-0.5,0.5l-2.3,27.5
	c0,0.5,0.2,0.7,0.6,0.7c4.5,0,10.5-0.7,14.1,1.1c7.5,3.7,7.2,14.5-0.3,17.9c-3.9,1.7-10.7,1-15.5,1c-0.5,0-0.8,0.3-0.8,0.7
	l-2.3,27.5c0,0.2,0.2,0.5,0.4,0.5c0,0,0,0,0,0h45c0.3,0,0.7-0.1,0.9-0.3c22.9-19.6,55.2-19.2,78-0.2c0.4,0.4,1,0.6,1.5,0.6h151
	c0.3,0,0.5-0.2,0.5-0.5v-174c0-0.3-0.2-0.5-0.5-0.5H79.7c-0.4,0-0.6,0.2-0.6,0.5l-2.3,27.7c0,0.3,0.1,0.5,0.4,0.5
	c8.3,0,16.6,0.1,24.9,0.1C104.6,154.8,106.4,155,107.6,155.5z M362.7,300.8c22.6-19.5,55.4-19.7,78.2-0.4c0.5,0.4,1,0.6,1.6,0.6h49
	c0.3,0,0.5-0.2,0.5-0.5c0-17,0-34,0-51.1c0-7.9-1.7-13.4-10.5-13.4c-27,0-54,0-81,0c-7.6,0-13.5-2.3-13.5-10.8
	c0.1-22.9,0.1-45.8,0-68.7c0-0.3-0.2-0.5-0.5-0.5h-24.1c-0.2,0-0.4,0.2-0.4,0.4v144.1C362,301.1,362.2,301.2,362.7,300.8z
	 M455.4,216c0.3,0,0.6-0.3,0.6-0.6c0-0.1,0-0.2-0.1-0.2l-25.3-58.8c-0.1-0.2-0.3-0.4-0.6-0.4h-22.4c-0.3,0-0.6,0.3-0.6,0.6v0v58.8
	c0,0.3,0.3,0.6,0.6,0.6l0,0H455.4z M189.9,346c0-22-17.9-39.9-39.9-39.9h0c-22,0-39.9,17.9-39.9,39.9c0,0,0,0,0,0
	c0,22,17.9,39.9,39.9,39.9h0C172,385.9,189.9,368,189.9,346C189.9,346,189.9,346,189.9,346z M441.9,346c0-22-17.9-39.9-39.9-39.9h0
	c-22,0-39.9,17.9-39.9,39.9v0c0,22,17.9,39.9,39.9,39.9h0C424,385.9,441.9,368,441.9,346L441.9,346z M62.9,321.6l-2,23.9
	c0,0.3,0.2,0.5,0.4,0.5c0,0,0,0,0,0h28.1c0.3,0,0.5-0.2,0.5-0.5c0.2-8.3,1.9-16.3,5.2-23.9c0.1-0.2,0-0.5-0.2-0.6
	c-0.1,0-0.1,0-0.2,0H63.6C63.2,321,62.9,321.3,62.9,321.6z M342,345.3c0.2-8.3,1.9-16.1,5.2-23.7c0.1-0.2,0-0.5-0.2-0.6
	c-0.1,0-0.1,0-0.2,0H205.3c-0.3,0-0.5,0.2-0.5,0.5c0,0.1,0,0.1,0,0.2c3.3,7.5,5,15.4,5.2,23.6c0,0.4,0.3,0.7,0.7,0.7h130.6
	C341.8,346,342,345.8,342,345.3z M456.7,321.6c3.4,7.6,5.1,15.6,5.2,23.9c0,0.3,0.2,0.5,0.5,0.5h28.9c0.4,0,0.6-0.2,0.6-0.6v-23.9
	c0-0.3-0.2-0.5-0.5-0.5h-34.4c-0.2,0-0.4,0.2-0.4,0.4C456.7,321.5,456.7,321.5,456.7,321.6z"/>
<path class="st0" d="M148.9,154.8h37.4c5.3,0,9.6,4.3,9.6,9.6v0.7c0,5.3-4.3,9.6-9.6,9.6h-37.4c-5.3,0-9.6-4.3-9.6-9.6v-0.7
	C139.3,159.1,143.6,154.8,148.9,154.8z"/>
<path class="st0" d="M193.7,203.6l19.2-0.1c5.2,0,9.4,4.2,9.5,9.4l0,1c0,5.2-4.2,9.4-9.4,9.5l-19.2,0.1c-5.2,0-9.4-4.2-9.5-9.4l0-1
	C184.3,207.8,188.5,203.6,193.7,203.6z"/>
<circle class="st0" cx="150" cy="346" r="9.9"/>
<circle class="st0" cx="402" cy="346" r="9.9"/>
</svg>
