<?xml version="1.0" encoding="utf-8"?>
<!-- Generator: Adobe Illustrator 26.5.0, SVG Export Plug-In . SVG Version: 6.00 Build 0)  -->
<svg version="1.1" id="Layer_1" xmlns="http://www.w3.org/2000/svg" xmlns:xlink="http://www.w3.org/1999/xlink" x="0px" y="0px"
	 viewBox="0 0 512 512" style="enable-background:new 0 0 512 512;" xml:space="preserve">
<style type="text/css">
	.st0{fill:#0074D9;}
</style>
<path class="st0" d="M68.2,185.1c0.1-41.4,0.1-82.9,0-124.6c0-7.7,5.6-9.2,12.4-9.2c117.9,0,235.7,0,353.6,0c7.9,0,9.5,5.5,9.5,12.5
	c0,83.3,0,166.7,0,250c0,0.1,0.1,0.2,0.2,0.2c0,0,0.1,0,0.1,0c9.1-3.7,14.9-10.9,16.4-20.5c0.4-2.5,0.4-5.3,1.6-7.4
	c3-5.5,11.6-5.7,14.6-0.1c1.8,3.4,1.2,7.7,2.4,11.5c2.8,8.5,8.4,14.2,16.8,17.1c4.5,1.5,10.8,0.5,14,4.3c3.1,3.6,2.4,9.1-1.1,12
	c-3.5,2.8-8.1,1.8-12.2,3.1c-8.9,2.8-14.7,8.6-17.6,17.3c-1.7,5.1-0.1,12.2-6.1,14.8c-3.9,1.7-8.2,0.5-10.6-3
	c-1.9-2.9-1.4-6.9-2.3-10.3c-2.2-8.6-7.4-14.7-15.8-18.1c-0.4-0.1-0.5,0-0.5,0.4c0,37.9,0,75.8,0,113.6c0,8-2.2,12.1-10.5,12.1
	c-117.6,0-235.2,0-352.8,0c-8.7,0-12.2-2.4-12.2-11.1c0-80.9,0-161.7,0-242.6c0-0.4-0.2-0.5-0.5-0.4c-9.7,4-15.1,11.6-16.3,21.8
	c-0.6,4.9-1.8,9.5-7.5,10.2c-7.1,0.8-9.6-4.4-10-10.7C33,216,23.2,206.6,11.6,205.2c-4-0.5-7.6-0.8-9.8-3.9c-2.6-3.7-2-8.8,1.5-11.6
	c3.4-2.7,7.9-1.8,11.9-3c9-2.8,15-8.6,17.8-17.5c0.9-2.8,0.7-6.6,1.5-9.2c3-10.2,16-7.4,16.8,3.5c0.8,10.3,6.5,18,15.9,22.3
	C67.9,186.1,68.2,185.9,68.2,185.1z M200.2,443.4c-0.1,0.1-0.1,0.3,0,0.4c0,0,0.1,0.1,0.2,0.1l25.7-0.1c0.5,0,1-0.2,1.4-0.6
	c24-24,48-48,72.1-72.1c1.7-1.7,3.1-2.7,4.2-3.2c6.8-2.9,13.9,4,11.1,10.8c-0.5,1.3-1.8,2.9-3.7,4.8c-19.9,19.9-39.8,39.8-59.6,59.6
	c-0.1,0.1-0.1,0.4,0,0.5c0.1,0.1,0.2,0.1,0.3,0.1H426c0.4,0,0.8-0.3,0.8-0.8l0-48.3c0-0.1-0.1-0.2-0.2-0.2c-0.1,0-0.2,0.1-0.2,0.2
	c-2.5,7.8-9.3,5.6-15.5,7.6c-8.5,2.7-14.1,8.3-17,16.6c-1,3.1-0.9,9.3-2.3,11.6c-2.8,4.5-8,5.9-12.4,3c-4.5-3-3.3-9.5-4.8-14.1
	c-3.3-10.2-11.4-17.1-22.3-18.1c-6.9-0.6-13.9-5.5-9.2-13.3c3-5.1,10.2-3.7,15.2-5.5c9.8-3.5,16.3-11.5,17.2-22
	c0.2-2.7,0.5-4.5,0.9-5.3c3.3-6.9,12.1-7.2,15.6-0.3c1.3,2.6,1,7.8,2,10.9c3.9,10.9,11.7,16.9,23.4,18.1c4.3,0.4,6.5,1.4,8.6,5
	c0.3,0.5,0.5,0.4,0.5-0.1c0.3-2.1,0.4-4.2,0.4-6.3c0-104.6-0.1-209.1-0.1-313.7c0-0.4-0.2-0.5-0.5-0.5h-12.8c-0.2,0-0.4,0.1-0.6,0.2
	C372,109.4,331,150.3,290.1,191.3c-2.4,2.4-4.2,3.8-5.6,4.4c-6.4,2.6-13.3-3.9-10.9-10.6c0.5-1.4,2-3.3,4.5-5.8
	c36.9-36.9,73.7-73.7,110.4-110.4c0.1-0.2,0.1-0.4,0-0.5c-0.1-0.1-0.2-0.1-0.3-0.1h-25.8c-0.4,0-0.7,0.1-1,0.4
	c-24.1,24.1-48.2,48.2-72.3,72.3c-2.7,2.7-5.3,4.7-8.9,4c-6.5-1.1-9.9-9.3-5-14.1c20.7-20.7,41.3-41.3,61.9-61.9
	c0.1-0.1,0.1-0.4,0-0.5c-0.1-0.1-0.2-0.1-0.3-0.1H85.8c-0.3,0-0.5,0.2-0.5,0.5c0,19.4,0,38.8,0,58.2c0,0.1,0.1,0.3,0.3,0.3
	c0.1,0,0.2-0.1,0.2-0.1c0.2-0.4,0.3-0.9,0.3-1.3c0-0.3,0-0.6,0.2-0.9c3.1-6.7,9.1-4.6,14.8-6.4c8.5-2.7,14.2-8.2,17.2-16.7
	c1.5-4.3,0.5-9.6,3.4-13.1c2.7-3.3,7.4-3.9,11-1.7c5,3,3.6,9.8,5.2,14.6c3.4,10.2,11.5,16.8,22.3,17.7c5.6,0.5,10.4,2.9,10.4,8.9
	c-0.1,9.7-10,7.6-15.9,9.7c-10.9,3.9-16.9,11.7-18,23.3c-0.3,2.6-0.7,4.5-1.4,5.6c-3.7,6-12.5,4.7-15.1-1.9c-0.3-0.8-0.6-2.4-0.8-5
	c-0.9-10.6-7.9-18.6-17.6-21.9c-6.1-2.1-15.7,0-15.8-9.5c0,0,0-0.1,0-0.1c0,0,0,0,0,0l-0.2,0.2c-0.1,0.2-0.2,0.4-0.2,0.6v314.1
	c0,0.3,0.2,0.5,0.5,0.5h89.3c0.4,0,0.7-0.1,0.9-0.4c41.1-41,82.1-82,123.1-123.1c3.1-3.1,5.9-5.1,10.1-4c5.9,1.5,8,8.3,4.6,13.3
	c-0.3,0.5-2.1,2.4-5.4,5.6C272.8,370.8,236.8,406.9,200.2,443.4z M136.1,128.2c0.1-0.1,0.1-0.3,0-0.4l-7.9-7.9
	c-0.1-0.1-0.3-0.1-0.4,0l-7.9,7.9c-0.1,0.1-0.1,0.3,0,0.4l7.9,7.9c0.1,0.1,0.3,0.1,0.4,0L136.1,128.2z M50.5,195.9l-7.7-7.8
	c-0.2-0.2-0.4-0.2-0.6,0c0,0,0,0,0,0c-2.1,2.8-4.5,5.2-7.2,7.3c-0.3,0.3-0.4,0.8-0.1,1.1c0,0,0,0.1,0.1,0.1l7.5,7.5
	c0.3,0.3,0.7,0.3,1,0c0,0,0,0,0.1-0.1c2-2.7,4.3-5,7-6.9C50.7,196.9,50.8,196.4,50.5,195.9C50.5,196,50.5,196,50.5,195.9z
	 M469.5,316.2c-0.1-0.1-0.3-0.1-0.4,0l-7.8,7.8c-0.1,0.1-0.1,0.3,0,0.4l7.9,7.9c0.1,0.1,0.3,0.1,0.4,0l7.8-7.8
	c0.1-0.1,0.1-0.3,0-0.4L469.5,316.2z M376.4,393.4c2.7,2.1,5,4.5,7.1,7.2c0.2,0.3,0.6,0.3,0.9,0.1c0,0,0.1-0.1,0.1-0.1
	c2.2-2.9,4.7-5.4,7.5-7.6c0.2-0.2,0.3-0.5,0.1-0.7c0,0,0,0,0,0l-7.7-7.6c-0.3-0.3-0.8-0.3-1.1,0c0,0,0,0-0.1,0.1
	c-2.1,2.7-4.5,5.1-7.1,7.1c-0.1,0.1-0.2,0.3-0.3,0.4c-0.1,0.5,0,0.8,0.3,0.9C376.2,393.3,376.3,393.3,376.4,393.4z"/>
</svg>
