<?xml version="1.0" encoding="utf-8"?>
<!-- Generator: Adobe Illustrator 26.5.0, SVG Export Plug-In . SVG Version: 6.00 Build 0)  -->
<svg version="1.1" id="Layer_1" xmlns="http://www.w3.org/2000/svg" xmlns:xlink="http://www.w3.org/1999/xlink" x="0px" y="0px"
	 viewBox="0 0 512 512" style="enable-background:new 0 0 512 512;" xml:space="preserve">
<style type="text/css">
	.st0{fill:#0074D9;}
</style>
<path class="st0" d="M437.3,0h5.4c21.2,2.4,36.4,12.4,45.5,30c7.6,14.6,8.8,31.4,3,46.7c-16.4,43.6-32.7,87.2-49.1,130.9
	c-0.1,0.3-0.1,0.7,0.1,0.9c1.1,1.9,1.6,3.2,1.6,4c0,83.1,0,166.3,0,249.4c0,8.3-0.5,14.3-1.4,17.9c-4.7,18.5-20.6,30.9-39.7,32.2
	H162.2v-16.5c0-0.4,0.2-0.5,0.6-0.5h186.6c0.2,0,0.4-0.2,0.4-0.4V235.4c0-0.4-0.2-0.8-0.5-1l-16-10.6c-0.2-0.2-0.6-0.2-0.8,0
	c-6.3,4.2-12.6,8.4-18.9,12.5c-3.5,2.3-7.2,3.6-10.7,1.3c-7-4.6-13.9-9.2-20.7-13.8c-0.3-0.2-0.7-0.2-1,0c-6,4.1-12.1,8.1-18.2,12.1
	c-4.4,2.9-7.7,4.1-12.1,1.1c-6.6-4.4-13.3-8.9-19.9-13.3c-0.3-0.2-0.6-0.2-0.9,0c-8,5.2-14.5,9.5-19.6,13c-4.1,2.8-7.5,2.4-11.7-0.4
	c-6.4-4.2-12.7-8.4-19-12.6c-0.3-0.2-0.6-0.2-0.8,0c-10.3,6.7-16.8,11-19.4,12.8c-8.1,5.6-15.8-2.9-22.4-7c-0.4-0.2-0.6-0.1-0.6,0.3
	v127.9c0,0.4-0.2,0.6-0.6,0.6l-15.8,0c-0.4,0-0.6-0.2-0.6-0.6V216.3c0-0.3-0.1-0.7-0.3-0.9c-6.8-8.2-15.2-17.6-19.1-26.8
	c-6.1-14.5-4.9-28.9,3.5-43.3c0.1-0.2,0.1-0.5-0.1-0.7l-32-29.4c-0.3-0.3-0.3-0.7,0-1l10.8-11.7c0.2-0.2,0.5-0.2,0.7,0l32.3,29.7
	c0.2,0.2,0.5,0.2,0.7,0.1l3-1.8c0.3-0.2,0.5-0.6,0.3-1c-7.1-13.2-14.3-26.4-21.5-39.6c-0.1-0.3-0.1-0.6,0.2-0.8l14.1-7.6
	c0.3-0.1,0.6,0,0.7,0.2c0,0,0,0,0,0l9.2,16.9c0.1,0.2,0.3,0.2,0.5,0.2c0.1,0,0.1-0.1,0.2-0.2c2.7-5.2,6.6-9.1,11.9-11.7
	c0.2-0.1,0.3-0.4,0.2-0.6c0,0-0.1-0.1-0.1-0.1c-10-10.1-18.5-18.9-14.1-33.9c5.3-17.9,26.5-25,41.5-13.6c0.1,0.1,0.3,0.1,0.4-0.1
	c0-0.1,0.1-0.1,0.1-0.2c0-6.4-0.6-13.9,1-19.5c6.9-24.3,41.4-24.9,48.5-0.6c1.6,5.6,1.1,13.6,1,20c0,0.2,0.2,0.4,0.4,0.4
	c0.1,0,0.2,0,0.2-0.1c10-7.6,23.6-6.9,33.2,1c0.2,0.1,0.4,0.1,0.6,0c0.1-0.1,0.1-0.2,0.1-0.3c0-6-1.9-17.6,4-21
	c1.6-0.9,4.6-1.4,8.8-1.4c29.1,0,58.3,0,87.4,0c7,0,10.6,3.4,10.6,10.3c0.1,9.5,0.1,19.1,0.1,28.6c0,0.3,0.1,0.6,0.3,0.8l15,15
	c0.2,0.2,0.4,0.2,0.6,0c0,0,0.1-0.1,0.1-0.1c4.1-11.3,8.3-22.5,12.7-33.7C395.9,15.5,412.6,2.1,437.3,0z M178.1,64.4
	c-2.6,4.1-9.3,5.5-12.9,1.7c-3.8-3.9-11.2-13.2-15.9-15.1c-7.7-3.2-14.9,4.8-12.1,12.2c0.6,1.6,2.1,3.6,4.5,6
	c6.1,6.2,12.1,12.5,18.1,18.8c2.2,2.3,3.6,4.2,4,5.7c1.9,6.3-4.7,12.8-11.2,10c-2.6-1.1-4.5-2.3-7.2-2.2c-7.7,0.5-11.3,9.3-6.9,15.3
	c1.3,1.7,3.2,4,5.9,6.8c0.2,0.2,0.5,0.4,0.8,0.4c14.2,1.5,25.2,7.4,33.2,17.8c2.3,3,5.5,8.8,9.6,17.5c3.8,8,7.5,15.9,11.2,23.8
	c0.1,0.2,0.3,0.2,0.4,0.2c0,0,0.1,0,0.1-0.1l4.7-5.4c0.2-0.2,0.3-0.5,0.3-0.8c0-24,0-48,0-72c0-6.9,2.3-8.4,6.4-12.6
	c8.1-8.4,16.1-16.9,24.3-25.2c5.3-5.5,4.4-14.7-3.8-16.6c-5.7-1.3-8.2,2.1-12.8,6.7c-2.5,2.5-5,5.1-7.6,7.7
	c-7,7.3-15.4,1.9-15.4-7.1c0-10,0-20,0-30c0-3.1-0.4-5.4-1.3-6.9c-3.2-5.5-11.4-5.1-14.3,0.7c-0.6,1.3-0.9,3.4-0.9,6.4
	c0,9.9,0,19.8,0,29.7C179.5,60.7,179,62.9,178.1,64.4z M411.2,29.9c-5.8,6.6-8,13.4-11.1,21.6c-19.7,52.3-39.3,104.6-58.9,156.9
	c-0.1,0.2,0,0.3,0.1,0.4l16.7,11.1c0.3,0.2,0.6,0.2,0.9,0c6.3-4.3,12.7-8.7,19-13.1c3.8-2.6,7.8-2.6,12,0.2
	c6.4,4.2,12.8,8.5,19.3,12.8c0.3,0.2,0.5,0.2,0.8,0l12-8c0.3-0.2,0.4-0.4,0.5-0.7c16.5-43.9,33-87.8,49.4-131.6
	c3.3-8.7,5.1-15.1,5.6-19.1C481.6,24.1,436.4,1.4,411.2,29.9z M341.3,34.7c0-0.3-0.2-0.5-0.5-0.5H265c-0.3,0-0.5,0.2-0.5,0.5v16
	c0,0.3,0.2,0.5,0.5,0.5h75.8c0.3,0,0.5-0.2,0.5-0.5V34.7z M234.6,93.2c-0.1,0.1-0.1,0.3,0,0.5c0.1,0.1,0.1,0.1,0.2,0.1l68.9,0
	c0.1,0,0.2,0,0.2-0.1l24.8-24.8c0.1-0.1,0.1-0.3,0-0.5c-0.1-0.1-0.1-0.1-0.2-0.1h-68.8c-0.1,0-0.2,0-0.2,0.1L234.6,93.2z
	 M315.8,106.5v107.2c0,0.4,0.2,0.5,0.5,0.3c3.1-1.7,5.8-3.2,7.1-6.7c14.7-39.1,29.4-78.3,44.1-117.4c0.1-0.3,0-0.5-0.2-0.7l-17-17
	c-0.2-0.2-0.6-0.2-0.9,0c0,0,0,0,0,0l-33.2,33.2C315.9,105.7,315.7,106.1,315.8,106.5z M298.8,210.3c-0.1-33-0.1-65.9,0-98.8
	c0-0.3-0.2-0.5-0.5-0.5h-75.8c-0.4,0-0.6,0.2-0.6,0.6l-0.1,54c0,0.3,0.2,0.6,0.6,0.6c0.1,0,0.1,0,0.2,0
	c34.8-13.2,70.3,8.1,75.7,44.7c0,0.2,0.2,0.3,0.3,0.2c0.1,0,0.1,0,0.2-0.1C298.9,210.7,299,210.5,298.8,210.3z M154.3,188.7
	l-20,15.5c-1.4,1.1-1.4,2.2,0.1,3.2l18.9,12.6c0.2,0.2,0.5,0.2,0.7,0c7-4.7,13.9-9.3,20.8-13.9c4.7-3.2,8.9,0.2,13.1,2.8
	c0.2,0.1,0.5,0,0.6-0.2c0,0,0-0.1,0-0.1c1.1-3.2,1.3-5.3-0.2-8.6c-5.3-11.2-10.6-22.4-15.9-33.6c-5.3-11.2-8.4-18.6-18.5-22.8
	c-30.3-12.6-53.7,24.7-32,47.8c0.2,0.3,0.5,0.3,0.8,0.1l21.2-16.4c0.2-0.2,0.6-0.1,0.8,0.1c0,0,0,0,0,0l9.7,12.5
	C154.7,188,154.6,188.4,154.3,188.7C154.3,188.7,154.3,188.7,154.3,188.7z M279,204.4c-15.5-40.5-74-29.3-74.2,14.5
	c0,1,0.4,1.2,1.2,0.6c6.1-4.2,12.4-8.5,18.9-13c3.5-2.4,6.8-2.6,9.8-0.6c7,4.6,13.9,9.2,20.7,13.8c0.3,0.2,0.7,0.2,1,0l22.3-14.8
	C279.1,204.8,279.1,204.6,279,204.4z M426.3,229.8c-3.4,1.9-6.7,3.9-9.7,6.1c-4.3,3.1-7.7,4.2-12.2,1.3c-6.7-4.4-13.4-8.9-20-13.4
	c-0.2-0.1-0.5-0.1-0.7,0l-16.3,10.8c-0.3,0.2-0.5,0.5-0.5,0.8v258.8c0,0.4,0.2,0.7,0.7,0.7c8.8,0.1,17.6,0.1,26.4,0.1
	c6.7,0,11.6-0.5,14.8-1.5c8.4-2.7,13.9-8.2,16.5-16.6c1-3.2,1.4-8.1,1.4-14.9c-0.1-77.3,0-154.6,0-231.9
	C426.8,229.7,426.6,229.6,426.3,229.8z"/>
<path class="st0" d="M410,79.3l15.2-4.9c0.3-0.1,0.6,0.1,0.7,0.3l16.3,50.2c0.1,0.3-0.1,0.6-0.3,0.7l-15.2,4.9
	c-0.3,0.1-0.6-0.1-0.7-0.3L409.6,80C409.5,79.7,409.7,79.4,410,79.3z"/>
<path class="st0" d="M384.9,139l15.2-5c0.3-0.1,0.6,0.1,0.7,0.3l16.3,50.2c0.1,0.3-0.1,0.6-0.3,0.7l-15.2,5
	c-0.3,0.1-0.6-0.1-0.7-0.3l-16.3-50.2C384.5,139.4,384.7,139.1,384.9,139z"/>
<path class="st0" d="M120.4,512h-3.7c-7.9-0.7-15.2-3.1-22.2-7.4c-0.3-0.2-0.6-0.2-0.9,0c-7.6,3.9-14,6.9-22.5,7.4h-3.7
	C43.9,509.7,36,494.1,28,474.8c-6.6-15.9-10.2-32.4-10.7-49.5c-0.6-19.9,6.8-36.3,25.1-45.2c13.8-6.7,28-6.1,42.5,1.9
	c0.1,0.1,0.3,0,0.4-0.1c0-0.1,0-0.1,0-0.2c-0.2-3.7,0.3-7.8-0.8-11.1c-2.4-7.2-7.6-11.3-15.7-12.2c-0.4,0-0.6-0.3-0.6-0.6V342
	c0-0.4,0.2-0.6,0.7-0.6c17.3,0.6,31.6,13.2,33,30.7c0.3,3.2,0.4,6.4,0.5,9.6c0,0.2,0.2,0.4,0.4,0.4c0.1,0,0.1,0,0.2-0.1
	c25-15,57.8-2.4,65.9,26c1.3,4.5,1.8,10,1.5,16.8c-0.8,23.7-7.1,46.1-18.7,67C145,503.9,134.5,510.6,120.4,512z M51.8,484.8
	c4.5,7.7,13.8,11.4,22.1,9.7c4.7-1,17.7-9.2,21.6-8c5.3,1.7,12,6.4,17.7,7.7c11.8,2.7,19.7-3.2,25.1-13.4
	c9.3-17.6,14.4-36.4,15.2-56.3c0.2-5.4-0.3-9.8-1.5-13.3c-7-20.2-30.8-24.3-46-10.1c-5.6,5.2-10.5,13-18.8,5.2
	c-3.9-3.6-7.8-8.1-12.2-10.4c-15.2-8.1-33.6-0.9-39.3,15.3c-1.1,3.3-1.6,7.4-1.5,12.2C34.9,445.3,40.8,465.7,51.8,484.8z"/>
</svg>
