<?xml version="1.0" encoding="utf-8"?>
<!-- Generator: Adobe Illustrator 26.5.0, SVG Export Plug-In . SVG Version: 6.00 Build 0)  -->
<svg version="1.1" id="Layer_1" xmlns="http://www.w3.org/2000/svg" xmlns:xlink="http://www.w3.org/1999/xlink" x="0px" y="0px"
	 viewBox="0 0 512 512" style="enable-background:new 0 0 512 512;" xml:space="preserve">
<style type="text/css">
	.st0{fill:#0074D9;}
</style>
<path class="st0" d="M0,264.9v-0.5c0.9-6,4.7-7.4,10.5-7.4c16.4,0,32.8,0,49.3,0c0.3,0,0.5-0.2,0.5-0.5c0-0.1,0-0.2-0.1-0.3
	C30.6,199.6,35.8,131,89.8,90.8c30.8-22.9,68.4-27.2,104.7-16.2c22.1,6.7,43.7,17.1,62.9,29.7c0.3,0.2,0.6,0.2,0.8,0
	c15.8-10.2,33.2-18.8,52.4-26c35.8-13.5,73.7-13.5,106.7,6.6c29.6,18,51.5,50.9,55.6,85.2c3.1,26.6-2,52.8-12.8,77.1
	c-0.2,0.4,0,0.9,0.4,1.1c0.1,0,0.2,0.1,0.3,0.1c13.9,0,28.1,0,42.5,0c10.8,0,11.8,14.9-1.3,15c-16.2,0-32.4,0-48.6,0
	c-0.2,0-0.4,0.1-0.5,0.3c-22.6,38.8-53.6,72.8-87.2,102.4c-32.4,28.6-67.9,55.5-105.4,77c-0.3,0.2-0.6,0.2-0.9,0.1
	c-10.8-3.4-21.1-10.7-30.3-17c-41.8-28.4-79.7-60.3-113.9-95.8C98.7,313,83.5,294,69.7,272.9c-0.2-0.3-0.5-0.4-0.8-0.4
	c-19.5,0-38.9,0-58.4,0C4.6,272.5,0.8,271.1,0,264.9z M255.8,121.9c-33.3-22.4-77.1-43.3-117.9-35.4c-38.6,7.4-70.6,40.1-77.6,78.8
	c-5.8,31.7,2.6,63.1,18,91c0.1,0.1,0.2,0.2,0.4,0.2h76.5c0.3,0,0.6-0.1,0.7-0.4c12.4-24.3,24.8-48.7,37.2-73
	c2.5-4.9,6.1-8.2,11.5-5.4c3.5,1.8,4.4,5.9,5.9,9.6c15.5,39.6,31.1,79.3,46.6,119.1c0.1,0.2,0.3,0.3,0.4,0.2c0.1,0,0.2-0.1,0.2-0.2
	c14.6-50.4,29.1-100.8,43.5-151.3c1.7-5.7,4.8-11.5,11.5-9.2c3.8,1.3,5,3.6,6.2,7.3c8.7,28.1,17.3,56.2,25.9,84.2
	c0.1,0.2,0.3,0.3,0.5,0.3c0.1,0,0.2-0.1,0.2-0.1c5-7.5,10.1-14.8,15.1-22.2c4.6-6.7,11.3-6.7,15.5,0.4c6.3,10.7,12.6,21.4,18.9,32.2
	c0.2,0.3,0.5,0.4,0.8,0.4h46.5c0.3,0,0.5-0.1,0.6-0.4c13.9-28.2,20.8-62.5,11.4-92.6C442.5,117.5,407.2,87.2,367,85
	c-36.8-2-74.7,15.8-104.3,36C260.8,122.2,257.5,123.1,255.8,121.9z M354.7,354.2c30.3-26.4,57.6-56.3,79-90.3
	c0.1-0.2,0.1-0.5-0.2-0.6c-0.1,0-0.2-0.1-0.2-0.1c-13.9,0-28,0-42.1,0c-2.6,0-5.9-0.8-7.1-2.9c-5.5-9.2-11-18.5-16.4-27.7
	c-0.1-0.2-0.4-0.3-0.6-0.2c-0.1,0-0.1,0.1-0.1,0.1c-5.7,8.5-11.5,16.9-17.4,25.4c-4.4,6.4-12.6,7.9-15.4-0.8
	c-8-25.3-15.8-50.6-23.6-75.8c0-0.1-0.2-0.2-0.3-0.2c-0.1,0-0.2,0.1-0.2,0.2c-14.8,50.6-29.6,101.3-44.4,151.9
	c-2.2,7.6-12.3,8.8-15.2,1.4c-17-43.4-33.9-86.9-50.9-130.3c-0.1-0.1-0.2-0.2-0.3-0.1c0,0-0.1,0.1-0.1,0.1
	c-10.6,20.9-21.2,41.7-31.8,62.5c-1.5,2.9-4,5.6-7.1,5.6c-23.8,0-47.8,0-71.9,0c-0.2,0-0.3,0.2-0.3,0.3c0,0.1,0,0.1,0.1,0.2
	c20.7,29.9,45.9,56.7,73.2,80.7c30.3,26.6,62.4,50.6,96.4,72.2c0.3,0.2,0.6,0.2,0.8,0C292.6,404.4,324.6,380.5,354.7,354.2z"/>
</svg>
