<?xml version="1.0" encoding="utf-8"?>
<!-- Generator: Adobe Illustrator 26.5.0, SVG Export Plug-In . SVG Version: 6.00 Build 0)  -->
<svg version="1.1" id="Layer_1" xmlns="http://www.w3.org/2000/svg" xmlns:xlink="http://www.w3.org/1999/xlink" x="0px" y="0px"
	 viewBox="0 0 512 512" style="enable-background:new 0 0 512 512;" xml:space="preserve">
<style type="text/css">
	.st0{fill:#0074D9;}
</style>
<path class="st0" d="M68.1,0h375.7c5.6,0.9,8.4,4,8.4,9.5c0,30.8,0,61.6,0,92.4c0,0.3,0.3,0.6,0.6,0.6c4.7,0.1,9.4,0.1,14.1,0.1
	c8.8-0.1,10.8,3.9,10.8,12.4c0,9.9,0,19.6,0,29.3c0,0.8,0.4,1.1,1.1,1c5.5-0.7,15.9-0.2,15.9,7.9c0,13.5,0,27,0,40.5
	c0,11.9-6.5,11.2-16.2,11.2c-0.4,0-0.8,0.4-0.8,0.8V494c0,0.7,0.3,1,1,1l33.3,0v17H0v-16.9l33.5-0.1c0.3,0,0.5-0.2,0.5-0.5V205.4
	c0-0.4-0.2-0.6-0.6-0.7c-10.5-0.4-16.3,0.7-16.3-12c-0.1-12.7-0.1-25.4,0-38.1c0-9.7,8.9-10.5,16.1-9.6c0.5,0.1,0.9-0.3,1-0.8
	c0,0,0-0.1,0-0.1c-0.2-9.6-0.3-19.3-0.1-29c0.1-7.6,1.5-12.8,10.3-12.7c4.9,0,9.9,0,14.8-0.1c0.4,0,0.6-0.2,0.6-0.6
	c0-29.8,0-59.6,0-89.4C59.7,5.6,60.8,1.1,68.1,0z M435,17.7c0-0.4-0.3-0.7-0.7-0.7l0,0H77.4c-0.4,0-0.7,0.3-0.7,0.7c0,0,0,0,0,0
	v84.1c0,0.4,0.3,0.7,0.7,0.7c0,0,0,0,0,0h356.9c0.4,0,0.7-0.3,0.7-0.7c0,0,0,0,0,0V17.7z M460.8,119.8c0-0.1-0.1-0.3-0.3-0.3h-409
	c-0.1,0-0.3,0.1-0.3,0.3v25c0,0.1,0.1,0.3,0.3,0.3h0h409c0.1,0,0.3-0.1,0.3-0.3V119.8z M477.8,162.5c0-0.1-0.1-0.3-0.3-0.3h-443
	c-0.1,0-0.3,0.1-0.3,0.3l0,0v25c0,0.1,0.1,0.3,0.3,0.3h0h443c0.1,0,0.3-0.1,0.3-0.3V162.5z M460.8,205.3c0-0.3-0.3-0.6-0.6-0.6H51.8
	c-0.3,0-0.6,0.3-0.6,0.6l0,0v289.1c0,0.3,0.3,0.6,0.6,0.6h408.3c0.3,0,0.6-0.3,0.6-0.6V205.3z"/>
<path class="st0" d="M206.2,31.3c19.8-7.2,39.2,5.8,38.5,27.4c-1,33.4-49,37.2-55.5,4.8C186.5,50.1,192.9,36.2,206.2,31.3z
	 M219.4,76.9c22.3-2.5,19.4-43.5-6.2-38.5C192.2,42.5,194.7,79.7,219.4,76.9z"/>
<path class="st0" d="M170,53.1V30.4c0-0.4,0.3-0.6,0.6-0.6l9.2,0c0.4,0,0.6,0.3,0.6,0.6v54.2c0,0.4-0.3,0.7-0.6,0.7l-9.2,0
	c-0.4,0-0.6-0.3-0.6-0.7V61.7c0-0.4-0.3-0.6-0.6-0.7h-24.7c-0.4,0-0.6,0.3-0.6,0.7v22.9c0,0.4-0.3,0.7-0.6,0.7h-9.2
	c-0.4,0-0.6-0.3-0.6-0.7V30.4c0-0.4,0.3-0.6,0.6-0.6h9.2c0.4,0,0.6,0.3,0.6,0.6v22.7c0,0.4,0.3,0.6,0.6,0.7h24.7
	C169.7,53.7,170,53.5,170,53.1z"/>
<path class="st0" d="M261.3,38.2H246c-0.4,0-0.7-0.3-0.7-0.7v-7.1c0-0.4,0.3-0.7,0.7-0.7h42.6c0.4,0,0.7,0.3,0.7,0.7v7.1
	c0,0.4-0.3,0.7-0.7,0.7h-15.3c-0.4,0-0.7,0.3-0.7,0.7v45.6c0,0.4-0.3,0.7-0.7,0.7h-9.1c-0.4,0-0.7-0.3-0.7-0.7c0,0,0,0,0,0l0-45.6
	C262,38.6,261.7,38.2,261.3,38.2C261.3,38.2,261.3,38.2,261.3,38.2z"/>
<path class="st0" d="M306.5,77l23.8,0c0.2,0,0.4,0.2,0.4,0.4v0v7.5c0,0.2-0.2,0.4-0.4,0.4l0,0h-34.2c-0.2,0-0.4-0.2-0.4-0.4l0,0
	V30.1c0-0.2,0.2-0.4,0.4-0.4l0,0h34.2c0.2,0,0.4,0.2,0.4,0.4c0,0,0,0,0,0v7.5c0,0.2-0.2,0.4-0.4,0.4l0,0h-23.8
	c-0.2,0-0.4,0.2-0.4,0.4c0,0,0,0,0,0v14.7c0,0.2,0.2,0.4,0.4,0.4l0,0h18.5c0.2,0,0.4,0.2,0.4,0.4c0,0,0,0,0,0v7.2
	c0,0.2-0.2,0.4-0.4,0.4l0,0l-18.4,0c-0.2,0-0.4,0.2-0.4,0.4c0,0,0,0,0,0l-0.1,14.8C306.2,76.8,306.3,77,306.5,77L306.5,77z"/>
<path class="st0" d="M372.2,77.2v7.6c0,0.2-0.2,0.4-0.5,0.4l0,0h-31.6c-0.2,0-0.5-0.2-0.5-0.4v0V30.2c0-0.2,0.2-0.4,0.5-0.4l0,0
	l9.3,0c0.2,0,0.5,0.2,0.5,0.4c0,0,0,0,0,0v46.1c0,0.2,0.2,0.4,0.5,0.4l0,0l21.3,0C372,76.7,372.2,76.9,372.2,77.2L372.2,77.2z"/>
<path class="st0" d="M153.5,323.9c0,4.9-3.9,8.8-8.8,8.8H85.6c-4.9,0-8.8-3.9-8.8-8.8v-84.6c0-4.9,3.9-8.8,8.8-8.8h59.1
	c4.9,0,8.8,3.9,8.8,8.8l0,0V323.9z M136.5,248.2c0-0.4-0.3-0.7-0.7-0.7H94.4c-0.4,0-0.7,0.3-0.7,0.7v66.9c0,0.4,0.3,0.7,0.7,0.7
	h41.4c0.4,0,0.7-0.3,0.7-0.7l0,0V248.2z"/>
<path class="st0" d="M298.5,323.9c0,4.9-3.9,8.8-8.8,8.8h-59.1c-4.9,0-8.8-3.9-8.8-8.8v-84.6c0-4.9,3.9-8.8,8.8-8.8h59.1
	c4.9,0,8.8,3.9,8.8,8.8V323.9z M281.5,247.9c0-0.2-0.2-0.4-0.4-0.4h-41.7c-0.2,0-0.4,0.2-0.4,0.4v67.5c0,0.2,0.2,0.4,0.4,0.4
	c0,0,0,0,0,0h41.7c0.2,0,0.4-0.2,0.4-0.4l0,0V247.9z"/>
<path class="st0" d="M435.1,323.8c0,4.9-4,8.9-8.9,8.9h-59c-4.9,0-8.9-4-8.9-8.9v0v-84.4c0-4.9,4-8.9,8.9-8.9l0,0h59
	c4.9,0,8.9,4,8.9,8.9V323.8z M418,247.8c0-0.1-0.1-0.3-0.3-0.3l0,0h-42c-0.1,0-0.3,0.1-0.3,0.3l0,0v67.7c0,0.1,0.1,0.3,0.3,0.3h42
	c0.1,0,0.3-0.1,0.3-0.3V247.8z"/>
<path class="st0" d="M153.5,460.5c0,4.9-3.9,8.8-8.8,8.8H85.6c-4.9,0-8.8-3.9-8.8-8.8v-84.7c0-4.9,3.9-8.8,8.8-8.8h0h59.2
	c4.9,0,8.8,3.9,8.8,8.8l0,0V460.5z M136.5,384.8c0-0.4-0.4-0.8-0.8-0.8h0H94.6c-0.4,0-0.8,0.4-0.8,0.8l0,0v66.7
	c0,0.4,0.4,0.8,0.8,0.8h41.1c0.4,0,0.8-0.4,0.8-0.8V384.8z"/>
<path class="st0" d="M298.5,460.5c0,4.8-3.9,8.8-8.8,8.8h-59.2c-4.8,0-8.8-3.9-8.8-8.8v-84.7c0-4.8,3.9-8.8,8.8-8.8l0,0h59.2
	c4.8,0,8.8,3.9,8.8,8.8c0,0,0,0,0,0V460.5z M281.5,384.5c0-0.3-0.2-0.5-0.5-0.5h-41.4c-0.3,0-0.5,0.2-0.5,0.5v67.2
	c0,0.3,0.2,0.5,0.5,0.5H281c0.3,0,0.5-0.2,0.5-0.5V384.5z"/>
<path class="st0" d="M435.1,460.4c0,4.9-4,8.9-8.9,8.9l0,0h-59.1c-4.9,0-8.9-4-8.9-8.9v0v-84.5c0-4.9,4-8.9,8.9-8.9l0,0h59.1
	c4.9,0,8.9,4,8.9,8.9V460.4z M418,384.3c0-0.1-0.1-0.3-0.3-0.3c0,0,0,0,0,0h-42c-0.1,0-0.3,0.1-0.3,0.3c0,0,0,0,0,0V452
	c0,0.1,0.1,0.3,0.3,0.3h42c0.1,0,0.3-0.1,0.3-0.3V384.3z"/>
</svg>
