<?xml version="1.0" encoding="utf-8"?>
<!-- Generator: Adobe Illustrator 26.5.0, SVG Export Plug-In . SVG Version: 6.00 Build 0)  -->
<svg version="1.1" id="Layer_1" xmlns="http://www.w3.org/2000/svg" xmlns:xlink="http://www.w3.org/1999/xlink" x="0px" y="0px"
	 viewBox="0 0 512 512" style="enable-background:new 0 0 512 512;" xml:space="preserve">
<style type="text/css">
	.st0{fill:#0074D9;}
</style>
<path class="st0" d="M254.1,0h3.7c38.5,2.7,52.8,51.4,20.7,73.7c-0.4,0.3-0.7,0.8-0.7,1.3v13.4c0,0.2,0.1,0.3,0.3,0.3
	c0.1,0,0.1,0,0.2,0c20.6-13.2,42.8-18.4,66.7-15.6c11.4,1.4,26.1,5.8,39,8.8c11,2.5,7.9,16.5-2.3,14.7c-11.1-2-25.5-6.7-35.5-8.2
	c-24.9-3.8-47.3,2.4-67.5,18.5c-0.5,0.4-0.9,1.1-0.9,1.8v72.6c0,0.5,0.4,0.9,0.9,0.9l0,0h16.8c0.1,0,0.2-0.1,0.2-0.2
	c1.9-28,32.9-37.5,55-25.4c0.5,0.2,0.9,0.3,1.4,0.1c5.9-2.4,11.4-3.4,18.1-3.6c11.5-0.2,24,1.4,34.2-3.6c5.7-2.8,11.1-9.1,15.9-12.1
	c5.5-3.5,11.4-5.9,17.7-7.1c5.5-1.1,12.2-0.7,18.3-0.8c15.9-0.3,23.3-9.5,33.9-20.2c0.6-0.6,0.6-1.7,0-2.3c-0.3-0.3-0.7-0.5-1.2-0.5
	c-25.4,0.6-50.9-0.9-76.4-4.3c-10.3-1.4-8.9-16.2,2.7-14.7c23.7,3,46.7,4.4,69,4.1c4.8,0,8.1,0.3,10.2,1c8.6,2.9,13.5,13.6,10,21.6
	c-1,2.4-3.9,6-8.6,10.7c-9.5,9.7-17.8,16.5-31.8,19c-7.6,1.4-18.1-0.1-25.4,1.7c-6.9,1.7-10.5,4.4-16.5,9.8
	c-12.2,10.9-24.5,13.1-40.7,12.8c-0.2,0-0.4,0.1-0.4,0.4c0,0.1,0.1,0.3,0.2,0.4c36.8,23.3,32.1,75-6.8,92.4
	c-5.5,2.5-10.1,4.3-13.8,5.5c-16,5.2-31.9,10.5-47.9,15.8c-0.4,0.1-0.4,0.3-0.1,0.6c32.1,33,19.3,79-16,102.9
	c-0.4,0.2-0.4,0.7-0.2,1.1c0,0.1,0.1,0.1,0.2,0.2c21.1,15.6,38.2,44.1,26.5,70.8c-4.9,11.2-13.2,18.7-24.8,22.6
	c-7.9,2.6-15-0.3-12.2-9.8c5.2-17.8,7.4-34.1-7.8-47.6c-0.2-0.2-0.5-0.1-0.6,0c-0.1,0.1-0.1,0.2-0.1,0.3c0,21.2,0,42.3,0,63.5
	c0,13.5-6,22.9-20.3,25h-3.2c-9.7-1.7-16-6.5-18.7-14.7c-1-2.9-1.5-7.9-1.5-14.8c0-20.1,0-40.1,0-60.2c0-0.4-0.2-0.5-0.5-0.2
	c-17.1,12.8-13.6,30.6-8.8,49c1.8,6.9-2.8,11.8-9.6,10.3c-8.5-2-15.3-6.3-20.6-12.8c-22.4-27.7-6-61.8,18.2-81
	c0.3-0.2,0.4-0.7,0.1-1c0-0.1-0.1-0.1-0.1-0.1c-25.6-18.1-38.3-42.1-31.1-73.2c2.8-11.9,8-21.7,16.5-30.1c0.2-0.2,0.2-0.6,0-0.9
	c-0.1-0.1-0.2-0.1-0.3-0.2c-4.9-1.5-9.7-3.1-14.3-4.8c-10.1-3.7-4.8-17.1,4.4-14.1c8.3,2.7,16.6,5.4,25,8.2c0.4,0.1,0.8,0.1,1.2,0
	l17.1-7.2c0.2-0.1,0.2-0.2,0.2-0.4c0-0.1-0.1-0.1-0.2-0.2c-23.6-7.4-46.7-15.1-69.2-22.9c-14.4-5-30.6-10-29.5-28
	c1-16.8,14.2-25.9,30.9-21.8c10.3,2.6,22.5,7.4,31.6-0.3c6.3-5.3,6.8-13.1,0.4-18.6c-12.4-10.5-29-3-41.9,2
	c-6.6,2.5-10.7,4.2-12.3,5c-29,14.8-29.4,54.2,1.1,68.1c4.5,2.1,8.8,3.8,12.9,5.2c2.9,1,4.8,2,5.8,3c6,5.9-0.6,14.6-8.6,11.8
	c-7.4-2.5-13.2-4.8-17.5-7c-25.1-12.4-37.8-40.4-26.2-66.8c4.1-9.4,10.9-17.7,20.5-24.9c0.1,0,0.1-0.1,0-0.2c0,0-0.1-0.1-0.1-0.1
	c-16.6,0.1-28.6-2.6-40.9-14.5c-4.2-4.1-9.1-6.8-14.9-8.1c-7.2-1.8-17.7-0.2-25.3-1.7c-10.6-1.9-19.6-6.7-27.1-14.4
	c-4.1-4.2-10-9.2-12.4-13.8C2.8,104.8,10.7,91.2,23,91.4c43.5,0.6,85-4.1,124.6-14.1c9.1-2.3,15.6-3.7,19.5-4.2
	c23.6-2.8,45.6,2.3,66.1,15.2c0.6,0.4,0.9,0.2,0.9-0.5L234,74.7c0-0.3-0.1-0.6-0.4-0.9c-1.1-1-2.2-2-3.3-2.9
	C201.8,47.3,217.8,2.8,254.1,0z M262,15.8c-28.5-6.9-43.4,31.9-17.9,46.7c2.3,1.3,4.9,3.7,4.9,6c0,63,0,126.1,0,189.1
	c0,0.2,0.2,0.4,0.4,0.4c0,0,0.1,0,0.1,0l12.8-4.2c0.2-0.1,0.4-0.3,0.4-0.5c0-60.8,0-121.5,0-182.3c0-7.5,5.2-7.7,9.7-11.7
	C287.9,45.9,281.6,20.5,262,15.8z M232.8,106.4C214.5,92,194,85.8,171.2,87.8c-10.9,0.9-24.7,5.3-35.5,7.7
	c-36.6,8.1-73.7,11.7-111.2,10.7c-1.6,0-2.6,0.4-3,1.4c-0.2,0.5-0.1,1.1,0.3,1.6c8.1,8.2,15.5,17.4,27.7,19.6
	c8.3,1.5,17.3,0.1,25.1,1.6c7.2,1.4,13.5,4.2,19.2,8.5c3.5,2.7,8,7.3,12.2,9.7c5.2,3,10.7,4.5,16.7,4.5c13.9-0.1,24.1-1.1,35,2.7
	c0.3,0.1,0.7,0.1,1,0c16.8-4.6,32.3-7.9,46.6,4.7c6.5,5.7,10,12.8,10,21.4c0,0.3,0.2,0.5,0.5,0.5h18c0.3,0,0.5-0.2,0.5-0.5V109
	C234,107.9,233.6,107.1,232.8,106.4z M196.3,316.5c-6.5,27.8,7.2,47.4,30.2,60.8c0.3,0.1,0.6,0.1,0.8,0l6.1-3.6
	c0.3-0.2,0.5-0.5,0.5-0.8v-6.1c0-0.4-0.2-0.7-0.5-0.9c-4-2.3-7.5-4.5-10.4-6.7c-13.3-9.7-18.6-25.5-14.1-41.1
	c5.8-19.9,25.8-25.8,43.2-31.5c35.1-11.5,70.2-23.1,105.3-34.7c15-5,26.6-11.1,32.1-27c7.7-21.8-5.8-42.4-27.7-47.9
	c-6.1-1.5-12.5-4.1-19.3-7.7c-8.5-4.4-16.9-4.1-25.5,1.2c-3.7,2.3-5.7,5.5-6,9.6c-0.9,12.9,15.2,17.2,24.5,14.4
	c12.2-3.6,22.6-8.9,34.4,0.1c12.7,9.8,10.9,29.1-1.5,38.2c-2.4,1.8-7.1,3.8-14,6.2c-38.6,13.4-77.7,25.7-116.5,38.7
	C217.6,284.5,201.5,294,196.3,316.5z M209.1,197.6c-13.8,15.9-30.9,13-48.9,7.3c-6.3-2-12,0.8-12.7,7.7c-0.6,5.1,3.6,8,7.9,9.5
	c25.9,9.2,52,17.9,78.1,26.2c0.2,0.1,0.4-0.1,0.5-0.3c0,0,0-0.1,0-0.1v-49.9c0-0.5-0.4-0.8-0.9-0.8l-23.2,0
	C209.7,197.3,209.4,197.4,209.1,197.6z M277.8,197.6v50.5c0,0.2,0.2,0.4,0.4,0.4c0,0,0.1,0,0.1,0c24.7-8.1,49.4-16.3,73.9-24.5
	c3.6-1.2,6.9-2.2,9.2-5.2c4.1-5.1,2.5-12.4-4.2-13.9c-4.1-0.9-12.1,2.5-16.4,3.7c-14.1,4.2-29.6,1.1-39.1-10.8
	c-0.2-0.3-0.5-0.4-0.8-0.4h-22.8C277.9,197.2,277.8,197.4,277.8,197.6z M279.8,294.1c19.6,8.5,29.6,30.2,19.5,49.9
	c-5.4,10.6-18.3,20.1-29.2,26.3c-11.5,6.5-22.9,13.1-34.4,19.7c-22.8,13-49.8,41.5-29.8,68.9c0.2,0.2,0.5,0.3,0.7,0.1
	c0.2-0.1,0.2-0.3,0.2-0.5c-5.6-29.1,10.6-47.2,34.8-59.5c21.6-10.9,36.5-17.3,52.6-29.9c26.7-20.9,31.3-59.6,1.6-80.6
	c-0.2-0.2-0.5-0.2-0.8-0.1l-15.1,5c-0.2,0.1-0.3,0.3-0.3,0.5C279.5,294,279.6,294.1,279.8,294.1z M262.8,304c0-0.2-0.1-0.4-0.3-0.4
	l-6.5-2.2c-0.1,0-0.2,0-0.3,0l-6.4,2c-0.2,0.1-0.3,0.2-0.3,0.4v60.7c0,0.2,0.2,0.5,0.4,0.5c0.1,0,0.2,0,0.2-0.1l12.8-7.4
	c0.1-0.1,0.2-0.2,0.2-0.4V304z M230.7,346.1c1,0.7,1.9,1.5,2.7,2.2c0.2,0.1,0.4,0.1,0.5,0c0.1-0.1,0.1-0.2,0.1-0.3l0-37.8
	c0-0.4-0.2-0.5-0.5-0.3C220.5,317.8,218.1,336.5,230.7,346.1z M286.1,336.7c3.7-8.7,1.8-21.3-7.7-26.4c-0.4-0.2-0.6-0.1-0.6,0.4
	v35.1c0,0.3,0.2,0.5,0.5,0.5c0.1,0,0.3-0.1,0.4-0.1C281.5,343.4,284.6,340.3,286.1,336.7z M279.2,404.8c19,12.5,29.5,30.7,25.1,54
	c-0.1,0.2,0.1,0.5,0.3,0.5c0.2,0,0.3,0,0.4-0.2c18.7-23.1-2.8-50.8-22.3-63.9c-0.3-0.2-0.6-0.2-0.9,0l-3.4,1.9
	c-0.3,0.2-0.5,0.5-0.6,0.9C277.6,400.2,277,403.4,279.2,404.8z M249.1,489.9c0.1,9.4,13.6,9.9,13.6-1.7c-0.1-27.5,0-55.1,0-82.6
	c0-0.4-0.2-0.5-0.5-0.3l-12.6,6.4c-0.4,0.2-0.7,0.7-0.7,1.1C249,438.4,249,464.1,249.1,489.9z"/>
</svg>
