<?xml version="1.0" encoding="utf-8"?>
<!-- Generator: Adobe Illustrator 26.5.0, SVG Export Plug-In . SVG Version: 6.00 Build 0)  -->
<svg version="1.1" id="Layer_1" xmlns="http://www.w3.org/2000/svg" xmlns:xlink="http://www.w3.org/1999/xlink" x="0px" y="0px"
	 viewBox="0 0 512 512" style="enable-background:new 0 0 512 512;" xml:space="preserve">
<style type="text/css">
	.st0{fill:#0074D9;}
</style>
<path class="st0" d="M301.6,0h10.2C382,3.3,441,50.3,456.8,118.9c21.1,91.6-44,179.8-137.1,187.7c-48.3,4.1-95.9-15.5-127.9-51.7
	c-58.4-66.2-48.3-168.6,20.7-222.2C238.4,12.6,268,1.7,301.6,0z M383.3,40.4c-66.9-45.5-157.9-22-196.1,48.6
	c-24.4,45.1-21.3,98.5,6.7,140.7c0.2,0.3,0.6,0.4,0.9,0.2c0,0,0.1-0.1,0.1-0.1L383.4,41.2C383.6,41,383.6,40.6,383.3,40.4
	C383.4,40.4,383.4,40.4,383.3,40.4z M398.4,52c-0.5-0.5-1.3-0.5-1.8,0c0,0,0,0,0,0l-191,191c-0.5,0.5-0.5,1.3,0,1.8c0,0,0,0,0,0
	l10.3,10.3c0.5,0.5,1.3,0.5,1.8,0c0,0,0,0,0,0l191-191c0.5-0.5,0.5-1.3,0-1.8c0,0,0,0,0,0L398.4,52z M419.5,77.6L230.8,266.3
	c-0.1,0.1-0.1,0.3,0,0.4c0,0,0,0,0,0c63.8,42.7,150.9,24.8,191.6-40c28.9-46.1,27.9-103.6-1.9-149C420.3,77.2,419.9,77.2,419.5,77.6
	z"/>
<path class="st0" d="M0,265.4v-7.2c3.8-53,62.6-82.9,106.7-52.7c3.5,2.4,8.5,6.8,14.9,13.2c29,28.9,57.9,57.9,86.8,86.9
	c6.3,6.4,10.7,11.4,13.2,15c12.7,19,14.8,43.5,5.9,64.4c-16.9,39.8-66.7,54.2-102.1,29c-3.3-2.3-8.2-6.8-14.8-13.4
	c-28.1-28.1-56.3-56.2-84.4-84.3c-6.7-6.7-11.2-11.6-13.4-14.8C5.3,291,1,279,0,265.4z M37.7,303.6c12,12.2,24.1,24.3,36.2,36.3
	c0.3,0.3,0.7,0.3,0.9,0c0,0,0,0,0,0l47.3-47.3c0.3-0.3,0.3-0.8,0-1.1c-5.4-5.4-10.8-10.8-16.2-16.3c-2.1-2.1-3.4-4-3.8-5.5
	c-2.4-8.5,8.2-13.9,14.8-7.4c5.9,5.7,11.7,11.5,17.4,17.4c0.2,0.2,0.5,0.2,0.7,0l11.3-11.3c0.3-0.3,0.3-0.7,0-0.9c0,0,0,0,0,0
	c-11.5-11.5-23-23.1-34.7-34.7c-6.8-6.8-11.8-11.3-14.8-13.3c-14.7-9.9-33.5-11.5-49.7-4.1C20,227.7,9.1,260.2,23.5,286.6
	C27.1,293.2,32,297.8,37.7,303.6z M86.8,352.8c13.2,13.2,26.3,26.5,39.7,39.5c4.8,4.7,8.9,8.1,12.2,10c25.1,14.8,57.5,5.9,71.2-19.9
	c11.2-20.9,6.5-44.9-10.2-61.6c-13.5-13.5-26.9-26.9-40.4-40.4c-0.3-0.3-0.8-0.3-1.1,0c0,0,0,0,0,0l-11,11c-0.3,0.3-0.3,0.8,0,1.1
	c7.3,7.3,14.5,14.5,21.8,21.8c2.2,2.2,3.5,4,4,5.5c1.9,5.8-4.2,12.2-9.9,10.6c-1.8-0.5-3.9-1.9-6.3-4.3
	c-7.2-7.2-14.4-14.5-21.7-21.7c-0.3-0.3-0.8-0.3-1.1,0l-47.3,47.3C86.5,352.1,86.5,352.5,86.8,352.8z"/>
<path class="st0" d="M86,231.5l6.6,6.5c3.1,3.1,3.1,8.2,0,11.3L92,250c-3.1,3.1-8.2,3.1-11.3,0l-6.6-6.5c-3.1-3.1-3.1-8.2,0-11.3
	l0.6-0.6C77.8,228.4,82.9,228.4,86,231.5z"/>
<path class="st0" d="M512,344.3v6.2c-1.5,21.2-10,34.8-24.8,49.6c-29,29-58.1,58.1-87.1,87.1c-14.9,14.9-28.6,23.5-50.2,24.8h-5.7
	c-54-3.3-84.4-63.9-52.2-108.2c2.4-3.2,6.8-8.2,13.4-14.8c30.3-30.4,60.7-60.7,91.1-91c22.7-22.7,60.2-25,86.2-6.7
	C500.4,303.7,510.1,321.4,512,344.3z M403.1,315.5c-12.5,12.4-25.5,24.7-37.5,37.5c-0.1,0.1-0.1,0.3,0,0.5l11.5,11.4
	c0.2,0.2,0.5,0.2,0.7,0c5.5-5.4,10.9-10.9,16.4-16.3c2.5-2.5,4.8-4,8.2-3.7c5,0.5,8.5,5.3,7.2,10.3c-1.4,5.6-15.1,17.3-19.7,21.7
	c-0.2,0.2-0.2,0.6,0,0.8c0,0,0,0,0,0l47.5,47.5c0.3,0.3,0.5,0.3,0.8,0c13.7-13.6,27.3-27.2,40.9-40.9c20.7-21,21.6-54.4-0.4-74.6
	c-16.6-15.2-42.4-18.6-62-5.9C413.5,305.8,409,309.7,403.1,315.5z M352.7,365.9c-13,13-25.4,25.4-37.1,37.1
	c-6.1,6.1-10.2,10.9-12.2,14.3c-13.9,22.9-7.4,53.4,14.7,68.5c17.7,12.1,40.9,12,58.3-0.2c3-2.1,8-6.6,14.8-13.4
	c11.4-11.4,22.8-22.8,34.1-34.2c0.2-0.2,0.2-0.5,0-0.6c0,0,0,0,0,0l-47.5-47.5c-0.3-0.3-0.6-0.3-0.9,0c-7,7-14,14.1-21.1,21.1
	c-4,4-8.1,7.1-13.3,3.7c-5.4-3.6-4.6-9.8-0.5-14.1c7.5-7.7,15.1-15.2,22.7-22.7c0.3-0.3,0.3-0.7,0-0.9c0,0,0,0,0,0l-11.1-11
	C353.4,365.5,353.1,365.5,352.7,365.9z"/>
<path class="st0" d="M419.4,323.3l6.5-6.5c3.1-3.1,8.2-3.1,11.4,0l0.6,0.6c3.1,3.1,3.1,8.2,0,11.4l-6.5,6.5c-3.1,3.1-8.2,3.1-11.4,0
	l-0.6-0.6C416.3,331.5,416.3,326.4,419.4,323.3z"/>
</svg>
