<?xml version="1.0" encoding="utf-8"?>
<!-- Generator: Adobe Illustrator 26.5.0, SVG Export Plug-In . SVG Version: 6.00 Build 0)  -->
<svg version="1.1" id="Layer_1" xmlns="http://www.w3.org/2000/svg" xmlns:xlink="http://www.w3.org/1999/xlink" x="0px" y="0px"
	 viewBox="0 0 512 512" style="enable-background:new 0 0 512 512;" xml:space="preserve">
<style type="text/css">
	.st0{fill:#0074D9;}
</style>
<path class="st0" d="M160.3,0h191.5c40.6,3.7,71.3,34.6,71.2,75.5c0,17.6,0,35.2,0,52.9c0,0.4,0.2,0.6,0.6,0.6
	c7.6,0,16.2-0.2,22.9,0.6c36.9,4.8,62.9,34.6,65.5,71.4v126.5c-2.5,37.7-30.1,66.6-67.5,71.1c-6.3,0.7-14,0.3-20.9,0.4
	c-0.3,0-0.5,0.3-0.5,0.6c0,19.6,0,39.2,0,58.9c0,9.4-0.5,16-1.5,19.9c-4.9,19.4-22.1,32.6-42.1,33.7H132.2
	c-24.5-1.8-43.2-20.8-43.2-45.5c0-22.3,0-44.6,0-66.9c0-0.4-0.2-0.6-0.6-0.6c-7.4-0.1-15.7,0.4-22.4-0.6
	C29.1,393.1,2.8,365.1,0,327.7V200.2c2.5-36.6,29.2-65.6,65.5-70.6c6.8-0.9,15.3-0.6,22.9-0.6c0.4,0,0.6-0.2,0.6-0.6
	c0.1-14.8,0.1-29.6,0-44.4c-0.1-8.9,0.3-15.5,0.9-19.9C95.4,28.3,124.2,2.4,160.3,0z M391.4,63.5c-5.2-19.8-23.1-33.3-43.7-33.3
	C287.5,30,227.2,30,167,30c-23.4,0-42.2,13.2-46.9,36.1c-0.8,3.8-1.1,10.5-1.1,19.9c0.1,14.2,0.1,28.4,0,42.4c0,0.3,0.2,0.6,0.5,0.6
	h273c0.3,0,0.5-0.2,0.5-0.5c0-15.1,0-30.1,0-45.2C392.9,73.9,392.4,67.3,391.4,63.5z M31.6,335.7c5.3,19.8,23.2,33,43.7,33.2
	c4.5,0.1,8.9,0.1,13.3,0c0.3,0,0.5-0.2,0.5-0.5v-48.8c0-0.5-0.2-0.7-0.7-0.7c-4.2,0-9.2,0.3-12.8-0.8c-13.2-4-14.1-22.9-1.3-28.1
	c2-0.8,5.4-1.2,10.2-1.2c114.6,0,229.1,0,343.7,0c4.2,0,7.2,0.4,9.1,1c9.1,3.4,12.6,14.7,6.9,22.6c-5.3,7.3-12.7,6.3-20.7,6.4
	c-0.3,0-0.5,0.2-0.5,0.5v48.8c0,0.5,0.2,0.7,0.7,0.7c2.2,0,6.3,0,12.3-0.1c26.1-0.1,45.9-19.6,45.9-46c0.1-37,0.1-74,0.1-111.1
	c0-8.9-0.5-15.2-1.5-19.1c-5.1-19.9-23.2-33.8-43.7-33.8c-118,0-235.9,0-353.9,0c-8.8,0-15.1,0.5-19,1.5
	c-20,5.1-33.8,23.1-33.8,43.8C30,226.1,30,263.4,30,316C30,325.3,30.6,331.9,31.6,335.7z M119,465.1c0,8.8,5.3,16.9,14.7,16.9
	c80.3,0,160.6,0,240.9,0c13.9,0,18.3-6.5,18.3-19.9c0-47.5,0-95,0-142.4c0-0.4-0.3-0.8-0.8-0.8c0,0,0,0,0,0H119.5
	c-0.3,0-0.5,0.2-0.5,0.5l0,0C119,368,119,416.6,119,465.1z"/>
<path class="st0" d="M128.2,193c11.6,0,17.9,12.8,12.7,22.5c-3.3,6.1-9.3,7.5-16.4,7.5c-14.8,0-29.7,0-44.5,0
	c-15.6,0-20.9-22.3-6.3-28.6c2.1-0.9,5.4-1.4,9.9-1.4C98.5,193,113.4,193,128.2,193z"/>
<path class="st0" d="M215.7,353.1h80.7c8,0,14.5,6.5,14.5,14.5v0.8c0,8-6.5,14.5-14.5,14.5h-80.7c-8,0-14.5-6.5-14.5-14.5v-0.8
	C201.1,359.6,207.6,353.1,215.7,353.1z"/>
<path class="st0" d="M215.7,417.1h80.7c8,0,14.5,6.5,14.5,14.5v0.8c0,8-6.5,14.5-14.5,14.5h-80.7c-8,0-14.5-6.5-14.5-14.5v-0.8
	C201.1,423.6,207.6,417.1,215.7,417.1z"/>
</svg>
