<?xml version="1.0" encoding="utf-8"?>
<!-- Generator: Adobe Illustrator 26.5.0, SVG Export Plug-In . SVG Version: 6.00 Build 0)  -->
<svg version="1.1" id="Layer_1" xmlns="http://www.w3.org/2000/svg" xmlns:xlink="http://www.w3.org/1999/xlink" x="0px" y="0px"
	 viewBox="0 0 512 512" style="enable-background:new 0 0 512 512;" xml:space="preserve">
<style type="text/css">
	.st0{fill:#0074D9;}
</style>
<path class="st0" d="M262.5,93.2c7.7,2.2,11.9,6,17.8,11c19.1,16.5,38.2,33,57.3,49.6c11.7,10.2,19,15.8,19.1,30.2
	c0.1,14.4,0.1,28.6,0,42.7c0,0.4,0.3,0.8,0.8,0.8l0,0c38.7,0,77.2,0,115.4,0c3.2,0,7.9-0.1,11.1,0.6c17.8,4.2,18.6,29.3,1.1,34.8
	c-2.4,0.8-5.2,0.8-7.9,0.8c-0.4,0-0.7,0.2-0.7,0.7v227.7c0,0.5,0.4,0.9,0.9,0.9c4.4,0,18.1-1.1,21.6,0.8c3.6,1.9,3.9,7.6,0.8,9.9
	c-1.2,0.9-3,1.3-5.6,1.3c-159.2,0-318.3,0-477.4,0c-6.1,0-9.5-7.1-4.8-10.6c3.6-2.6,17.9-1.4,22.7-1.4c0.4,0,0.7-0.3,0.7-0.7l0,0
	V264.2c0-0.4-0.2-0.6-0.6-0.5c-9.1,0.8-16.9-3.9-19.9-12.4c-3-8.5,1.6-18.8,10-22.2c2.2-0.9,5.5-1.4,9.8-1.4c39.8,0,79.6,0,119.4,0
	c0.7,0,1-0.3,1-1.1c-0.1-12.8-0.1-25.6,0.1-38.3c0.2-12.5,1.8-19.5,10.9-27.4c24-20.8,48-41.7,72.1-62.4c2.6-2.2,6.3-3.9,11.1-5.2
	c0.4-0.1,0.5-0.3,0.5-0.7c0-25,0-50,0-74.9c0-6.2-0.3-10.8,7-10.8c16.2,0,32.3,0,48.5,0c13,0,16.7,5.3,16.8,17.7
	c0.1,15.2,3.9,31.4-17.2,31.3c-14.2,0-28.4,0-42.5,0c-0.3,0-0.5,0.2-0.5,0.5v36C262,92.9,262.2,93.1,262.5,93.2z M310,19.8
	c0-0.4-0.4-0.8-0.8-0.8h-46.4c-0.4,0-0.8,0.4-0.8,0.8V43c0,0.4,0.4,0.8,0.8,0.8h46.4c0.4,0,0.8-0.4,0.8-0.8V19.8z M288.4,362.5
	c13.4,4.3,19.8,15.9,19.8,29.5c0,33.2,0,66.6,0,100.2c0,0.4,0.3,0.8,0.8,0.8c0,0,0,0,0,0h34.7c0.4,0,0.8-0.3,0.8-0.8c0,0,0,0,0,0
	c0-101.9,0-203.8,0-305.9c0-6-1-11.4-5.3-15.1c-22-19.1-44.1-38.2-66.1-57.3c-5.3-4.6-9.3-7.4-12-8.3c-8.7-3.1-13.7,1.2-20.3,6.8
	c-21.9,18.9-43.9,37.9-65.7,56.9c-5,4.4-7.6,8.2-7.6,14.6c0,102.9,0,205.7,0,308.5c0,0.3,0.2,0.5,0.5,0.5h35.2
	c0.3,0,0.5-0.2,0.5-0.5c0,0,0,0,0,0c0-32.1,0-64.2,0-96.3c0-6.6,0.5-11.5,1.4-14.7c4.2-14.6,16-20.6,30.6-20.5c13.3,0,26.7,0,40,0.1
	C281.3,361.1,285.5,361.5,288.4,362.5z M155.3,250.8v-10.3c0-0.4-0.3-0.7-0.7-0.7l0,0h-122c-3.5,0-6.3,2.6-6.3,5.7l0,0v0.4
	c0,3.2,2.8,5.7,6.3,5.7h122C155,251.5,155.3,251.2,155.3,250.8z M356.6,240.3V251c0,0.3,0.2,0.6,0.5,0.6c0,0,0,0,0,0h122.3
	c3.4,0,6.2-2.6,6.2-5.8v0v-0.2c0-3.2-2.8-5.8-6.2-5.8c0,0,0,0,0,0H357.2C356.9,239.7,356.6,240,356.6,240.3L356.6,240.3z M155.2,264
	c0-0.1-0.1-0.3-0.3-0.3l0,0H48c-0.1,0-0.3,0.1-0.3,0.3l0,0v228.7c0,0.1,0.1,0.3,0.3,0.3h107c0.1,0,0.3-0.1,0.3-0.3V264z
	 M357.3,263.8c-0.3,0-0.5,0.2-0.5,0.5c0,0,0,0,0,0v228.2c0,0.3,0.2,0.5,0.5,0.5c0,0,0,0,0,0h106.5c0.3,0,0.5-0.2,0.5-0.5
	c0,0,0,0,0,0V264.3c0-0.3-0.2-0.5-0.5-0.5c0,0,0,0,0,0H357.3z M227.3,373.9c-6.5,2-11.2,8.5-11.3,15.3c0,34.4,0,68.8,0,103.2
	c0,0.3,0.2,0.5,0.5,0.5h32.3c0.4,0,0.6-0.3,0.6-0.7V373.8c0-0.4-0.3-0.7-0.7-0.7c0,0,0,0,0,0C242.4,373.3,232.8,372.3,227.3,373.9z
	 M296,393.2c0-23.6-17.4-20-34-19.9c-0.3,0-0.5,0.2-0.5,0.5v118.6c0,0.4,0.2,0.6,0.6,0.6h33.5c0.2,0,0.4-0.2,0.4-0.4
	C296,459.5,296,426.3,296,393.2z"/>
<path class="st0" d="M296.5,198.7c0,22.6-18.3,41-41,41s-41-18.3-41-41s18.3-41,41-41S296.5,176.1,296.5,198.7z M284.3,198.7
	c0-15.9-12.9-28.8-28.8-28.8s-28.8,12.9-28.8,28.8s12.9,28.8,28.8,28.8c0,0,0,0,0,0C271.4,227.6,284.3,214.7,284.3,198.7
	C284.3,198.7,284.3,198.7,284.3,198.7z"/>
<path class="st0" d="M248.4,180.4c2.1-3.3,8-3.1,10.1,0.6c1.6,2.9,0.8,11.5,0.8,15.1c0,0.4,0.2,0.6,0.6,0.6c2.8,0.1,6.2-0.3,8.5,0.6
	c3.9,1.6,4.6,7.6,1.4,10.1c-3.2,2.4-11.4,1.6-15.7,1.5c-5.2-0.1-6.8-3-6.8-8C247.2,196.3,246.1,184.1,248.4,180.4z"/>
<path class="st0" d="M204.9,271.5h102.1c3.3,0,5.9,2.7,5.9,5.9v0.2c0,3.3-2.7,5.9-5.9,5.9H204.9c-3.3,0-5.9-2.7-5.9-5.9v-0.2
	C199,274.2,201.7,271.5,204.9,271.5z"/>
<path class="st0" d="M129.2,344.4c0,9.5-7.8,17.2-17.3,17.1h0l-21.1-0.1c-9.5,0-17.2-7.8-17.1-17.3l0.1-21.1
	c0-9.5,7.8-17.2,17.3-17.1l0,0l21.1,0.1c9.5,0,17.2,7.8,17.1,17.3l0,0L129.2,344.4z M117,322.9c0-2.6-2.1-4.6-4.6-4.6c0,0,0,0,0,0
	l-21.7,0c-2.6,0-4.6,2.1-4.6,4.6l0,0l0,21.7c0,2.6,2.1,4.6,4.6,4.6c0,0,0,0,0,0l21.7,0c2.6,0,4.6-2.1,4.6-4.6l0,0L117,322.9z"/>
<path class="st0" d="M438.2,344.2c0,9.5-7.7,17.2-17.2,17.2l-21.1,0c-9.5,0-17.2-7.7-17.2-17.2l0-21.1c0-9.5,7.7-17.2,17.2-17.2
	l21.1,0c9.5,0,17.2,7.7,17.2,17.2L438.2,344.2z M426,322.9c0-2.6-2.1-4.6-4.6-4.6l0,0l-21.7,0c-2.6,0-4.6,2.1-4.6,4.6l0,0l0,21.7
	c0,2.6,2.1,4.6,4.6,4.6l0,0l21.7,0c2.6,0,4.6-2.1,4.6-4.6l0,0L426,322.9z"/>
<path class="st0" d="M205.1,314h101.9c3.3,0,6,2.7,6,6v0.2c0,3.3-2.7,6-6,6H205.1c-3.3,0-6-2.7-6-6V320
	C199,316.7,201.7,314,205.1,314z"/>
<path class="st0" d="M129.2,433.7c0,9.5-7.7,17.1-17.2,17.1c0,0,0,0,0,0l-21.2-0.1c-9.5,0-17.1-7.7-17.1-17.2l0,0l0.1-21.2
	c0-9.5,7.7-17.1,17.2-17.1l21.2,0.1c9.5,0,17.1,7.7,17.1,17.2l0,0L129.2,433.7z M117,412.1c0-2.6-2.1-4.7-4.7-4.7c0,0,0,0,0,0
	l-21.7,0c-2.6,0-4.7,2.1-4.7,4.7c0,0,0,0,0,0l0,21.7c0,2.6,2.1,4.7,4.7,4.7c0,0,0,0,0,0l21.7,0c2.6,0,4.7-2.1,4.7-4.7c0,0,0,0,0,0
	L117,412.1z"/>
<path class="st0" d="M438.3,433.5c0,9.5-7.6,17.2-17.1,17.2l-21.1,0.1c-9.5,0-17.2-7.6-17.2-17.1l-0.1-21.1
	c0-9.5,7.6-17.2,17.1-17.2l21.1-0.1c9.5,0,17.2,7.6,17.2,17.1L438.3,433.5z M426,412.2c0-2.6-2.1-4.7-4.7-4.7c0,0,0,0,0,0l-21.7,0
	c-2.6,0-4.7,2.1-4.7,4.7c0,0,0,0,0,0l0,21.7c0,2.6,2.1,4.7,4.7,4.7c0,0,0,0,0,0l21.7,0c2.6,0,4.7-2.1,4.7-4.7c0,0,0,0,0,0L426,412.2
	z"/>
</svg>
