<?xml version="1.0" encoding="utf-8"?>
<!-- Generator: Adobe Illustrator 26.5.0, SVG Export Plug-In . SVG Version: 6.00 Build 0)  -->
<svg version="1.1" id="Layer_1" xmlns="http://www.w3.org/2000/svg" xmlns:xlink="http://www.w3.org/1999/xlink" x="0px" y="0px"
	 viewBox="0 0 512 512" style="enable-background:new 0 0 512 512;" xml:space="preserve">
<style type="text/css">
	.st0{fill:#0074D9;}
</style>
<path class="st0" d="M253.6,0h4.5c33.8,1.8,60.6,19.4,75.2,49.4c1.4,2.9,2.6,6.5,3.9,9.8c0.1,0.3,0.4,0.5,0.7,0.5
	c41.2,0,82.4,0,123.6,0c11.2,0,20.4,2.9,25.9,12.9c1.6,2.9,3.1,8.6,4.6,17.1c6.7,38.1,13.4,76.2,20,114.3v1.8
	c-1,7.7-5,12.8-11.8,15.1c-3.9,1.3-8.7,0.6-13.1,1c-0.4,0-0.6,0.2-0.6,0.6c0,84.6,0.1,169.3,0,253.9c0,19.1-13.5,34-32.6,35.6H58.2
	c-19.4-1.5-32.7-16.5-32.7-36c0-84.1,0-168.8,0.1-253.8c0-0.2-0.2-0.4-0.4-0.4c-4.4-0.1-9.5,0.5-13.4-0.9c-6.7-2.3-10.6-7.3-11.8-15
	v-2.2c7.1-40.5,14.2-81.1,21.3-121.6C24,66.6,35.1,59.8,49.9,59.8c41.4,0,82.7,0,124.1,0c0.3,0,0.6-0.2,0.7-0.5
	C187.9,24,215.7,2,253.6,0z M324.2,85.3c0-37.7-30.5-68.2-68.2-68.2c0,0,0,0,0,0c-37.7,0-68.2,30.5-68.2,68.2s30.5,68.2,68.2,68.2
	l0,0C293.7,153.5,324.2,123,324.2,85.3C324.2,85.3,324.2,85.3,324.2,85.3z M305.3,154.8c-37.2,26.5-88.5,18.8-116.5-17
	c-13.5-17.3-19.5-37.4-17.9-60.5c0-0.3-0.2-0.5-0.5-0.6c0,0,0,0,0,0c-40.6,0-81.2,0-121.7,0c-7.2,0-9.6,2.7-10.8,9.8
	c-7,39.1-13.9,78.3-20.6,117.6c-0.1,0.4,0.1,0.6,0.5,0.6h476.6c0.3,0,0.5-0.2,0.5-0.5c0,0,0-0.1,0-0.1
	c-6.9-39.4-13.9-78.9-20.8-118.6c-1.2-7-4.5-8.8-11.6-8.8c-40.3,0-80.6,0-120.7,0c-0.4,0-0.7,0.3-0.7,0.6c0,0,0,0,0,0.1
	C343.3,108.3,330.3,137,305.3,154.8z M407.8,290.3c12.2,0,22.2,5.6,25.9,17.3c1,3.3,1.6,9.1,1.6,17.4c0,56.2,0,112.6,0,169.2
	c0,0.4,0.4,0.8,0.8,0.8c16.8,0.1,33.2,2.2,33.2-20.1c0-83.9,0-168.2,0-252.8c0-0.2-0.2-0.3-0.3-0.3H43.5c-0.4,0-0.7,0.3-0.7,0.7l0,0
	c0,84.6,0,168.8,0,252.6c0,8.4,2.3,15.1,10.1,18.4c2.6,1.1,7.6,1.6,15,1.6c76.8,0,153.4,0,230,0c0.5,0,0.9-0.4,0.9-0.9v0
	c0-58.7,0-117.4,0-176.1c0-17.6,10.7-27.7,28.1-27.7C353.8,290.2,380.8,290.2,407.8,290.3z M336.5,402c5.9,2.7,6.5,11.2,0.9,14.7
	c-4.2,2.7-15.9,1.6-21.1,1.4c-0.2,0-0.4,0.2-0.4,0.4c0,0,0,0,0,0v76c0,0.3,0.2,0.5,0.5,0.5h101.2c0.4,0,0.7-0.3,0.7-0.7
	c0.2-59.2,0.1-118.4-0.2-177.7c0-6.8-3.7-9.3-10.4-9.3c-27.4,0-54.7,0-82.1,0c-7.7,0-9.8,4.3-9.8,11.6c0,27.2,0,54.4,0,81.6
	c0,0.4,0.2,0.5,0.5,0.5C321.7,401,331.9,399.9,336.5,402z"/>
<path class="st0" d="M221.1,93.7c-8.9-0.1-15.7-7.7-16.2-16.3c-0.8-13.3,1.4-24.9,11.5-34.3c8.1-7.5,21.5-12.2,31.9-6.1
	c3.6,2.1,6.8,4.9,11.2,2.4c6.3-3.5,9.8-6,17.4-5.1c15.8,2,27.8,14.4,30,29.9c1.9,13.3,0.4,28.2-16.3,29.7c-0.2,0-0.3,0.2-0.3,0.4
	c0.1,7.8,0.1,15.3-0.1,22.5c-0.4,13.9-6.9,19.6-20.6,19.7c-8.5,0-17.1,0-25.6,0c-9.3,0-15.9-1.1-20.1-9.3c-1-2-1.7-4.8-1.8-8.3
	c-0.4-8.1-0.4-16.2,0-24.2C222.1,94.2,221.6,93.7,221.1,93.7C221.1,93.7,221.1,93.7,221.1,93.7z M222.8,76.8
	c10.3-0.7,16.2,0.1,16.2,12.1c0,10,0,20,0,30c0,0.3,0.2,0.5,0.5,0.5h33c0.3,0,0.5-0.2,0.5-0.5c0-11.2,0-22.4,0-33.7
	c0-9,10-9,16.3-8.4c0.4,0,0.7-0.3,0.8-0.7c0,0,0-0.1,0-0.1c-0.2-3.8,0.2-8.2-0.6-11.5c-1.8-7.4-8.2-13.3-16.1-13.4
	c-0.3,0-0.7,0.1-0.9,0.3c-11.4,7.6-20.7,8-32.4,0.4c-1.8-1.1-3.3-1.1-5.1-0.5c-6.7,2.3-10.9,6.7-12.5,13.3
	c-0.8,3.1-0.4,7.2-0.8,10.9c-0.1,0.6,0.4,1.1,0.9,1.1C222.7,76.9,222.7,76.9,222.8,76.8z"/>
<path class="st0" d="M76.7,417.5c0.1-30.2,0.1-60.4,0-90.5c0-9.5,0.5-15.9,1.5-19.2c3.7-11.7,13.9-17.5,26.1-17.5
	c44.1,0,88.2,0,132.2,0c18.8,0,27.9,11.4,27.9,29.4c0,32.6,0,65.2,0,97.8c0,0.3,0.2,0.6,0.5,0.6c7.6,0.9,12.7,4.5,15.2,10.9
	c2.2,5.5,1.2,13.9,1.2,20.2c0,12.6-5.7,20.1-18.9,20.1c-60.9,0-121.8,0-182.7,0c-4.2,0-7.4-0.4-9.6-1.4c-12.7-5.2-10.5-18-10.5-29.2
	c0-11.2,4.1-19.1,16.4-20.7C76.5,418,76.7,417.8,76.7,417.5z M197.2,315.7c18.4,1.5,34.9,13.7,39.9,31.8c2.3,8,2.6,22.9,1.8,30.7
	c-1.2,11.2-15.5,16.1-24.9,17.2c-0.4,0.1-0.7,0.4-0.7,0.8v21.1c0,0.5,0.4,0.9,0.9,0.9h32.5c0.5,0,0.9-0.4,0.9-0.9
	c0-33.1,0-66.4,0-99.8c0-7.6-3.4-10.4-11.1-10.4c-44.3,0-88.7,0-133,0c-6.7,0-9.5,3.7-9.5,10.3c-0.2,33.4-0.2,66.7-0.1,99.9
	c0,0.4,0.3,0.7,0.7,0.7h0h32.8c0.4,0,0.7-0.3,0.7-0.7l0,0v-21.4c0-0.3-0.1-0.4-0.4-0.5c-10.2-1.7-25.1-6.1-25.1-19.6
	c0-8.8-0.7-19.1,1.3-26.9c4.9-19.8,22.8-33.2,43-33.4c5.4,0,9.5,2.2,14,4.8c10.2,5.8,13.9,3.8,23.2-1.9
	C187.9,316.3,192.3,315.3,197.2,315.7z M120.9,376.1l6.5,2.3c0.3,0.1,0.6,0,0.7-0.3c0-0.1,0-0.1,0-0.2c-1.1-14.3,16.9-13.2,16.9-3.4
	c0,14.4,0,28.8,0,43c0,0.4,0.4,0.8,0.8,0.8l0,0h49.5c0.5,0,1-0.4,1-1l0,0c0-13.3,0-26.7,0-40.2c0-13.9,17.6-13.4,17,0.6
	c0,0.4,0.3,0.7,0.6,0.7c0.1,0,0.2,0,0.2,0l7-2.5c0.3-0.1,0.6-0.4,0.6-0.8c0-7.1,1-16.3-1.1-22.8c-3.8-11.8-12.3-18.3-25.7-19.6
	c-0.3,0-0.7,0-1,0.2c-4.8,2.5-10,5.8-14.5,7.1c-11.7,3.6-20.6-0.5-30.6-6.4c-0.9-0.5-2.8-0.9-3.8-0.8c-12.9,1.6-21,8.2-24.5,19.7
	c-1.9,6.3-1.1,14.8-1.1,21.6C119.5,375.1,119.9,375.7,120.9,376.1z M264.5,435.9c0-0.4-0.3-0.7-0.7-0.7h0H77.4
	c-0.4,0-0.7,0.3-0.7,0.7c0,0,0,0,0,0v15.7c0,0.4,0.3,0.7,0.7,0.7c0,0,0,0,0,0h186.4c0.4,0,0.7-0.3,0.7-0.7v0V435.9z"/>
</svg>
