<?xml version="1.0" encoding="utf-8"?>
<!-- Generator: Adobe Illustrator 26.5.0, SVG Export Plug-In . SVG Version: 6.00 Build 0)  -->
<svg version="1.1" id="Layer_1" xmlns="http://www.w3.org/2000/svg" xmlns:xlink="http://www.w3.org/1999/xlink" x="0px" y="0px"
	 viewBox="0 0 1216.2 915.7" style="enable-background:new 0 0 1216.2 915.7;" xml:space="preserve">
<style type="text/css">
	.st0{fill:#FFFFFF;}
	.st1{fill:#3772B9;}
	.st2{fill:#A51E23;}
	.st3{font-family:'GeomaRegularDemo';}
	.st4{font-size:111.8721px;}
</style>
<g>
	<rect class="st0" width="1216.2" height="915.7"/>
	<g>
		<g>
			<g>
				<path vector-effect="non-scaling-stroke" class="st1" d="M502,278.3c-16,4.7-28.3,20-28.4,36.8c-0.1,18.2-0.1,57.7,0,118.4
					c0,0.4,0.1,0.5,0.4,0.1c56.6-70.4,131.8-118.1,215.8-149.6c0.4-0.2,0.4-0.3,0.1-0.6c-6.4-4.4-13.2-6.6-20.7-6.6
					c-50.6,0-101.3,0-151.9,0C510.6,276.8,505.4,277.3,502,278.3"/>
				<path vector-effect="non-scaling-stroke" class="st2" d="M758,322l12.3-39c0.1-0.4,0-0.6-0.5-0.5
					c-129.8,27.4-260.8,104.6-320,228c0,0.1,0,0.1,0,0.1c0,0,0,0,0,0.1c0.1,0.1,0.1,0.1,0.2,0c5.1-9.3,11.5-18.5,19.2-27.5
					c74.1-86.2,176.9-140,288-160.6C757.6,322.6,757.9,322.3,758,322"/>
				<path vector-effect="non-scaling-stroke" class="st2" d="M559.7,420.1c-34.8,22.1-67.3,51.5-89.4,86.6c-0.8,1.2-0.7,1.3,0.2,0.2
					c13.6-16.7,29.4-31.9,46.6-45.1c62.6-48,142.1-78.8,221.5-79c0.4,0,0.6-0.2,0.8-0.6l9.2-28.4c0.2-0.5,0-0.7-0.5-0.6
					C681.8,360.2,615.7,384.4,559.7,420.1"/>
				<path vector-effect="non-scaling-stroke" class="st2" d="M504,488.4c-2.2,2.2-6.2,5.7-9,9c-0.1,0.1-0.1,0.1,0,0.2
					c0.1,0.1,0.1,0.1,0.2,0c64.6-51.6,147.5-81.8,230.9-77.8c0.4,0,0.6-0.2,0.7-0.5c1.7-5.8,3.9-11.4,6.6-16.8c0.3-0.7,0.1-1-0.6-1
					C650.4,399.7,563.5,430.7,504,488.4"/>
				<path vector-effect="non-scaling-stroke" class="st1" d="M679.4,490.5c16.2-4.8,28-19.9,28.3-36.9c0-2.1,0-6.6,0-13.4
					c0-0.4-0.2-0.6-0.6-0.6c-60.4,1.7-118.2,19.9-169.1,52.2c-0.1,0.1-0.2,0.2-0.1,0.3c0,0.1,0.1,0.1,0.2,0.1c40.2,0,80.5,0,120.8,0
					C668.7,492.2,675.5,491.6,679.4,490.5"/>
			</g>
			<text transform="matrix(1 0 0 1 285.7181 614.6385)" class="st1 st3 st4">Infosas ERP</text>
		</g>
		<g>
			<g>
				<path class="st1" d="M743.5,472.1c0,9.4-7.6,17.1-17.1,17.1l0,0c-9.4,0-17.1-7.6-17.1-17.1l0,0c0-9.4,7.6-17.1,17.1-17.1
					S743.5,462.6,743.5,472.1L743.5,472.1z M740.9,472.1c0-8-6.5-14.5-14.5-14.5s-14.5,6.5-14.5,14.5s6.5,14.5,14.5,14.5
					S740.9,480,740.9,472.1z"/>
				<path class="st1" d="M727.3,474.7h-3.4c0,0,0,0,0,0c0,1.2,0,2.4,0,3.5c0,0.4,0,0.7-0.1,0.9c-0.5,1.1-2,1-2.4,0
					c-0.1-0.2-0.1-0.4-0.1-0.8c0-4.2,0-8.3,0-12.5c0-1.2,0.4-1.7,1.6-1.7c1.4,0,2.9,0,4.3,0c0.7,0,1.3,0,1.6,0.1
					c2.8,0.5,4.8,3.3,4.2,6.1c-0.3,1.6-1.2,2.8-2.7,3.7c0,0,0,0.1,0,0.1c0,0,0,0,0,0c0.9,1.2,1.7,2.4,2.5,3.6
					c0.1,0.2,0.2,0.4,0.3,0.6c0.2,1.1-1,2-2,1.4c-0.2-0.1-0.4-0.3-0.6-0.7C729.4,477.6,728.4,476.1,727.3,474.7
					C727.3,474.7,727.3,474.7,727.3,474.7z M723.8,466.8v5.1c0,0,0,0.1,0.1,0.1l0,0h3.8c1.5,0,2.7-1.2,2.7-2.6l0,0
					c0-1.5-1.2-2.6-2.7-2.6L723.8,466.8C723.8,466.8,723.8,466.8,723.8,466.8L723.8,466.8z"/>
			</g>
		</g>
	</g>
</g>
</svg>
