<?xml version="1.0" encoding="utf-8"?>
<!-- Generator: Adobe Illustrator 26.5.0, SVG Export Plug-In . SVG Version: 6.00 Build 0)  -->
<svg version="1.1" id="Layer_1" xmlns="http://www.w3.org/2000/svg" xmlns:xlink="http://www.w3.org/1999/xlink" x="0px" y="0px"
	 viewBox="0 0 1216.2 915.7" style="enable-background:new 0 0 1216.2 915.7;" xml:space="preserve">
<style type="text/css">
	.st0{fill:#FFFFFF;}
	.st1{font-family:'GeomaRegularDemo';}
	.st2{font-size:91.8003px;}
</style>
<g>
	<g>
		<g>
			<path vector-effect="non-scaling-stroke" class="st0" d="M281.4,393.3c-8.9,2.6-15.7,11.1-15.8,20.5c-0.1,10.1-0.1,32.1,0,65.8
				c0,0.2,0.1,0.3,0.2,0.1c31.5-39.1,73.2-65.6,120-83.2c0.2-0.1,0.2-0.2,0-0.3c-3.5-2.5-7.4-3.7-11.5-3.7c-28.2,0-56.3,0-84.4,0
				C286.2,392.5,283.4,392.8,281.4,393.3"/>
			<path vector-effect="non-scaling-stroke" class="st0" d="M423.8,417.6l6.8-21.7c0.1-0.2,0-0.3-0.3-0.3
				c-72.1,15.2-145,58.2-177.9,126.8c0,0,0,0.1,0,0.1c0,0,0,0,0,0c0,0.1,0.1,0.1,0.1,0c2.8-5.2,6.4-10.3,10.7-15.3
				c41.2-47.9,98.3-77.8,160.1-89.3C423.6,418,423.7,417.8,423.8,417.6"/>
			<path vector-effect="non-scaling-stroke" class="st0" d="M313.5,472.1c-19.3,12.3-37.4,28.6-49.7,48.2c-0.4,0.7-0.4,0.7,0.1,0.1
				c7.6-9.3,16.3-17.7,25.9-25.1c34.8-26.7,79-43.8,123.2-43.9c0.2,0,0.4-0.1,0.4-0.3l5.1-15.8c0.1-0.3,0-0.4-0.3-0.3
				C381.4,438.8,344.7,452.3,313.5,472.1"/>
			<path vector-effect="non-scaling-stroke" class="st0" d="M282.6,510.1c-1.3,1.2-3.5,3.2-5,5c0,0,0,0.1,0,0.1c0,0,0.1,0,0.1,0
				c35.9-28.7,82-45.5,128.3-43.3c0.2,0,0.3-0.1,0.4-0.3c0.9-3.2,2.2-6.3,3.6-9.4c0.2-0.4,0.1-0.6-0.3-0.6
				C363.9,460.8,315.6,478,282.6,510.1"/>
			<path vector-effect="non-scaling-stroke" class="st0" d="M380,511.3c9-2.7,15.6-11.1,15.8-20.5c0-1.2,0-3.7,0-7.5
				c0-0.2-0.1-0.3-0.3-0.3c-33.6,0.9-65.7,11.1-94,29c-0.1,0-0.1,0.1-0.1,0.2c0,0,0.1,0.1,0.1,0.1c22.4,0,44.8,0,67.2,0
				C374.1,512.2,377.9,511.9,380,511.3"/>
		</g>
		<text transform="matrix(1 0 0 1 434.6558 503.2822)" class="st0 st1 st2">Infosas ERP</text>
	</g>
	<g>
		<g>
			<path class="st0" d="M961.5,421.3c0,6.3-5.1,11.4-11.4,11.4l0,0c-6.3,0-11.4-5.1-11.4-11.4l0,0c0-6.3,5.1-11.4,11.4-11.4
				C956.4,409.8,961.5,414.9,961.5,421.3L961.5,421.3z M959.7,421.3c0-5.3-4.3-9.7-9.7-9.7c-5.3,0-9.7,4.3-9.7,9.7
				c0,5.3,4.3,9.7,9.7,9.7C955.4,430.9,959.7,426.6,959.7,421.3z"/>
			<path class="st0" d="M950.6,423h-2.3c0,0,0,0,0,0c0,0.8,0,1.6,0,2.4c0,0.3,0,0.5-0.1,0.6c-0.3,0.7-1.3,0.7-1.6,0
				c0-0.1-0.1-0.3-0.1-0.5c0-2.8,0-5.6,0-8.3c0-0.8,0.3-1.1,1.1-1.1c1,0,1.9,0,2.9,0c0.5,0,0.9,0,1.1,0.1c1.9,0.4,3.2,2.2,2.8,4.1
				c-0.2,1.1-0.8,1.9-1.8,2.5c0,0,0,0,0,0.1c0,0,0,0,0,0c0.6,0.8,1.1,1.6,1.7,2.4c0.1,0.1,0.2,0.3,0.2,0.4c0.1,0.8-0.7,1.3-1.3,0.9
				c-0.1-0.1-0.3-0.2-0.4-0.5C952,425,951.3,424,950.6,423C950.7,423,950.6,423,950.6,423z M948.3,417.8v3.4c0,0,0,0,0,0l0,0h2.6
				c1,0,1.8-0.8,1.8-1.8l0,0c0-1-0.8-1.8-1.8-1.8L948.3,417.8C948.3,417.7,948.3,417.7,948.3,417.8L948.3,417.8z"/>
		</g>
	</g>
</g>
</svg>
